<?xml version="1.0" encoding="UTF-8" standalone="no"?>
<!DOCTYPE svg PUBLIC "-//W3C//DTD SVG 1.1//EN"
 "http://www.w3.org/Graphics/SVG/1.1/DTD/svg11.dtd">
<!-- Generated by graphviz version 11.0.0 (20240428.1522)
 -->
<!-- Title: playersManagement::addLose Pages: 1 -->
<svg width="384pt" height="43pt"
 viewBox="0.00 0.00 383.75 43.00" xmlns="http://www.w3.org/2000/svg" xmlns:xlink="http://www.w3.org/1999/xlink">
<g id="graph0" class="graph" transform="scale(1 1) rotate(0) translate(4 39)">
<title>playersManagement::addLose</title>
<!-- Node1 -->
<g id="Node000001" class="node">
<title>Node1</title>
<g id="a_Node000001"><a xlink:title="Add a lose in the game for the player nick passed.">
<polygon fill="#999999" stroke="#666666" points="375.75,-35 248,-35 248,0 375.75,0 375.75,-35"/>
<text text-anchor="start" x="256" y="-19.6" font-family="Helvetica,sans-Serif" font-size="12.00">playersManagement::</text>
<text text-anchor="middle" x="311.88" y="-6.1" font-family="Helvetica,sans-Serif" font-size="12.00">addLose</text>
</a>
</g>
</g>
<!-- Node2 -->
<g id="Node000002" class="node">
<title>Node2</title>
<g id="a_Node000002"><a xlink:href="$classgame.html#aa73e185d035361027c0df359d7a6c750" xlink:title="Add one win to the winner and one lose for the loser.">
<polygon fill="white" stroke="#666666" points="212,-28.25 95.5,-28.25 95.5,-6.75 212,-6.75 212,-28.25"/>
<text text-anchor="middle" x="153.75" y="-12.85" font-family="Helvetica,sans-Serif" font-size="12.00">game::winAndLose</text>
</a>
</g>
</g>
<!-- Node1&#45;&gt;Node2 -->
<g id="edge3_Node000001_Node000002" class="edge">
<title>Node1&#45;&gt;Node2</title>
<g id="a_edge3_Node000001_Node000002"><a xlink:title=" ">
<path fill="none" stroke="#63b8ff" d="M236.49,-17.5C228.43,-17.5 220.31,-17.5 212.49,-17.5"/>
<polygon fill="#63b8ff" stroke="#63b8ff" points="236.31,-21 246.31,-17.5 236.31,-14 236.31,-21"/>
</a>
</g>
</g>
<!-- Node3 -->
<g id="Node000003" class="node">
<title>Node3</title>
<g id="a_Node000003"><a xlink:href="$classlig4.html#a412d6bbcae4077e520282b295060abe1" xlink:title=" ">
<polygon fill="white" stroke="#666666" points="59.5,-28.25 0,-28.25 0,-6.75 59.5,-6.75 59.5,-28.25"/>
<text text-anchor="middle" x="29.75" y="-12.85" font-family="Helvetica,sans-Serif" font-size="12.00">lig4::lig4</text>
</a>
</g>
</g>
<!-- Node2&#45;&gt;Node3 -->
<g id="edge4_Node000002_Node000003" class="edge">
<title>Node2&#45;&gt;Node3</title>
<g id="a_edge4_Node000002_Node000003"><a xlink:title=" ">
<path fill="none" stroke="#63b8ff" d="M84.03,-17.5C75.48,-17.5 67.14,-17.5 59.69,-17.5"/>
<polygon fill="#63b8ff" stroke="#63b8ff" points="83.81,-21 93.81,-17.5 83.81,-14 83.81,-21"/>
</a>
</g>
</g>
</g>
</svg>
