<?xml version="1.0" encoding="UTF-8" standalone="no"?>
<!DOCTYPE svg PUBLIC "-//W3C//DTD SVG 1.1//EN"
 "http://www.w3.org/Graphics/SVG/1.1/DTD/svg11.dtd">
<!-- Generated by graphviz version 11.0.0 (20240428.1522)
 -->
<!-- Title: lig4 Pages: 1 -->
<svg width="150pt" height="720pt"
 viewBox="0.00 0.00 150.00 720.00" xmlns="http://www.w3.org/2000/svg" xmlns:xlink="http://www.w3.org/1999/xlink">
<g id="graph0" class="graph" transform="scale(1 1) rotate(0) translate(4 716)">
<title>lig4</title>
<!-- Node1 -->
<g id="Node000001" class="node">
<title>Node1</title>
<g id="a_Node000001"><a xlink:title=" ">
<polygon fill="#999999" stroke="none" points="130.5,-124 11.5,-124 11.5,0 130.5,0 130.5,-124"/>
<text text-anchor="start" x="63.5" y="-110.5" font-family="Helvetica,sans-Serif" font-size="10.00">lig4</text>
<text text-anchor="start" x="69.5" y="-94.5" font-family="Helvetica,sans-Serif" font-size="10.00"> </text>
<text text-anchor="start" x="15.5" y="-78.5" font-family="Helvetica,sans-Serif" font-size="10.00">+</text>
<text text-anchor="start" x="25.5" y="-78.5" font-family="Helvetica,sans-Serif" font-size="10.00">lig4()</text>
<text text-anchor="start" x="15.5" y="-62.5" font-family="Helvetica,sans-Serif" font-size="10.00">+</text>
<text text-anchor="start" x="25.5" y="-62.5" font-family="Helvetica,sans-Serif" font-size="10.00">void mostrarTabuleiro()</text>
<text text-anchor="start" x="15.5" y="-46.5" font-family="Helvetica,sans-Serif" font-size="10.00">+</text>
<text text-anchor="start" x="25.5" y="-46.5" font-family="Helvetica,sans-Serif" font-size="10.00">void jogada(int posicao)</text>
<text text-anchor="start" x="15.5" y="-30.5" font-family="Helvetica,sans-Serif" font-size="10.00">+</text>
<text text-anchor="start" x="25.5" y="-30.5" font-family="Helvetica,sans-Serif" font-size="10.00">bool verificarAdjacente</text>
<text text-anchor="start" x="25.5" y="-18.5" font-family="Helvetica,sans-Serif" font-size="10.00">(int linha, int coluna,</text>
<text text-anchor="start" x="25.5" y="-6.5" font-family="Helvetica,sans-Serif" font-size="10.00"> char time)</text>
<polygon fill="#666666" stroke="#666666" points="11.5,-106 11.5,-106 130.5,-106 130.5,-106 11.5,-106"/>
<polygon fill="#666666" stroke="#666666" points="11.5,-90 11.5,-90 130.5,-90 130.5,-90 11.5,-90"/>
<polygon fill="none" stroke="#666666" points="11.5,0 11.5,-124 130.5,-124 130.5,0 11.5,0"/>
</a>
</g>
</g>
<!-- Node2 -->
<g id="Node000002" class="node">
<title>Node2</title>
<g id="a_Node000002"><a xlink:href="$classgame.html" xlink:title="Abstract class game.">
<polygon fill="white" stroke="none" points="137,-368 5,-368 5,-160 137,-160 137,-368"/>
<text text-anchor="start" x="59" y="-354.5" font-family="Helvetica,sans-Serif" font-size="10.00">game</text>
<text text-anchor="start" x="9.38" y="-338.5" font-family="Helvetica,sans-Serif" font-size="10.00">#</text>
<text text-anchor="start" x="19" y="-338.5" font-family="Helvetica,sans-Serif" font-size="10.00">std::string name</text>
<text text-anchor="start" x="9.38" y="-322.5" font-family="Helvetica,sans-Serif" font-size="10.00">#</text>
<text text-anchor="start" x="19" y="-322.5" font-family="Helvetica,sans-Serif" font-size="10.00">int rows</text>
<text text-anchor="start" x="9.38" y="-306.5" font-family="Helvetica,sans-Serif" font-size="10.00">#</text>
<text text-anchor="start" x="19" y="-306.5" font-family="Helvetica,sans-Serif" font-size="10.00">int cols</text>
<text text-anchor="start" x="9.38" y="-290.5" font-family="Helvetica,sans-Serif" font-size="10.00">#</text>
<text text-anchor="start" x="19" y="-290.5" font-family="Helvetica,sans-Serif" font-size="10.00">std::vector&lt; std::vector</text>
<text text-anchor="start" x="19" y="-278.5" font-family="Helvetica,sans-Serif" font-size="10.00">&lt; char &gt; &gt; tabuleiro</text>
<text text-anchor="start" x="9" y="-262.5" font-family="Helvetica,sans-Serif" font-size="10.00">+</text>
<text text-anchor="start" x="19" y="-262.5" font-family="Helvetica,sans-Serif" font-size="10.00">game(int _rows, int</text>
<text text-anchor="start" x="19" y="-250.5" font-family="Helvetica,sans-Serif" font-size="10.00"> _cols)</text>
<text text-anchor="start" x="9" y="-234.5" font-family="Helvetica,sans-Serif" font-size="10.00">+</text>
<text text-anchor="start" x="19" y="-234.5" font-family="Helvetica,sans-Serif" font-size="10.00">~game()</text>
<text text-anchor="start" x="9" y="-218.5" font-family="Helvetica,sans-Serif" font-size="10.00">+</text>
<text text-anchor="start" x="19" y="-218.5" font-family="Helvetica,sans-Serif" font-size="10.00">virtual void changeElement</text>
<text text-anchor="start" x="19" y="-206.5" font-family="Helvetica,sans-Serif" font-size="10.00">(int x, int y, char element)</text>
<text text-anchor="start" x="9" y="-190.5" font-family="Helvetica,sans-Serif" font-size="10.00">+</text>
<text text-anchor="start" x="19" y="-190.5" font-family="Helvetica,sans-Serif" font-size="10.00">virtual void winAndLose</text>
<text text-anchor="start" x="19" y="-178.5" font-family="Helvetica,sans-Serif" font-size="10.00">(std::string winner, std</text>
<text text-anchor="start" x="19" y="-166.5" font-family="Helvetica,sans-Serif" font-size="10.00">::string loser)</text>
<polygon fill="#666666" stroke="#666666" points="5,-350 5,-350 137,-350 137,-350 5,-350"/>
<polygon fill="#666666" stroke="#666666" points="5,-274 5,-274 17,-274 17,-274 5,-274"/>
<polygon fill="#666666" stroke="#666666" points="17,-274 17,-274 137,-274 137,-274 17,-274"/>
<polygon fill="none" stroke="#666666" points="5,-160 5,-368 137,-368 137,-160 5,-160"/>
</a>
</g>
</g>
<!-- Node2&#45;&gt;Node1 -->
<g id="edge3_Node000001_Node000002" class="edge">
<title>Node2&#45;&gt;Node1</title>
<g id="a_edge3_Node000001_Node000002"><a xlink:title=" ">
<path fill="none" stroke="#63b8ff" d="M71,-148.82C71,-140.31 71,-131.94 71,-123.96"/>
<polygon fill="none" stroke="#63b8ff" points="67.5,-148.56 71,-158.56 74.5,-148.56 67.5,-148.56"/>
</a>
</g>
</g>
<!-- Node3 -->
<g id="Node000003" class="node">
<title>Node3</title>
<g id="a_Node000003"><a xlink:href="$classplayers_management.html" xlink:title=" ">
<polygon fill="white" stroke="none" points="142,-712 0,-712 0,-416 142,-416 142,-712"/>
<text text-anchor="start" x="27.12" y="-698.5" font-family="Helvetica,sans-Serif" font-size="10.00">playersManagement</text>
<text text-anchor="start" x="69.5" y="-682.5" font-family="Helvetica,sans-Serif" font-size="10.00"> </text>
<text text-anchor="start" x="4" y="-666.5" font-family="Helvetica,sans-Serif" font-size="10.00">+</text>
<text text-anchor="start" x="14" y="-666.5" font-family="Helvetica,sans-Serif" font-size="10.00">playersManagement()</text>
<text text-anchor="start" x="4" y="-650.5" font-family="Helvetica,sans-Serif" font-size="10.00">+</text>
<text text-anchor="start" x="14" y="-650.5" font-family="Helvetica,sans-Serif" font-size="10.00">~playersManagement()</text>
<text text-anchor="start" x="4" y="-634.5" font-family="Helvetica,sans-Serif" font-size="10.00">+</text>
<text text-anchor="start" x="14" y="-634.5" font-family="Helvetica,sans-Serif" font-size="10.00">void loadData()</text>
<text text-anchor="start" x="4" y="-618.5" font-family="Helvetica,sans-Serif" font-size="10.00">+</text>
<text text-anchor="start" x="14" y="-618.5" font-family="Helvetica,sans-Serif" font-size="10.00">void saveData()</text>
<text text-anchor="start" x="4" y="-602.5" font-family="Helvetica,sans-Serif" font-size="10.00">+</text>
<text text-anchor="start" x="14" y="-602.5" font-family="Helvetica,sans-Serif" font-size="10.00">int addPlayer(std::</text>
<text text-anchor="start" x="14" y="-590.5" font-family="Helvetica,sans-Serif" font-size="10.00">string name, std::string</text>
<text text-anchor="start" x="14" y="-578.5" font-family="Helvetica,sans-Serif" font-size="10.00"> nickname)</text>
<text text-anchor="start" x="4" y="-562.5" font-family="Helvetica,sans-Serif" font-size="10.00">+</text>
<text text-anchor="start" x="14" y="-562.5" font-family="Helvetica,sans-Serif" font-size="10.00">int removePlayer(std</text>
<text text-anchor="start" x="14" y="-550.5" font-family="Helvetica,sans-Serif" font-size="10.00">::string name)</text>
<text text-anchor="start" x="4" y="-534.5" font-family="Helvetica,sans-Serif" font-size="10.00">+</text>
<text text-anchor="start" x="14" y="-534.5" font-family="Helvetica,sans-Serif" font-size="10.00">void listPlayers()</text>
<text text-anchor="start" x="4" y="-518.5" font-family="Helvetica,sans-Serif" font-size="10.00">+</text>
<text text-anchor="start" x="14" y="-518.5" font-family="Helvetica,sans-Serif" font-size="10.00">void listPlayers(std</text>
<text text-anchor="start" x="14" y="-506.5" font-family="Helvetica,sans-Serif" font-size="10.00">::string name)</text>
<text text-anchor="start" x="4" y="-490.5" font-family="Helvetica,sans-Serif" font-size="10.00">+</text>
<text text-anchor="start" x="14" y="-490.5" font-family="Helvetica,sans-Serif" font-size="10.00">int addLose(std::string</text>
<text text-anchor="start" x="14" y="-478.5" font-family="Helvetica,sans-Serif" font-size="10.00"> game, std::string nickname)</text>
<text text-anchor="start" x="4" y="-462.5" font-family="Helvetica,sans-Serif" font-size="10.00">+</text>
<text text-anchor="start" x="14" y="-462.5" font-family="Helvetica,sans-Serif" font-size="10.00">int addWin(std::string</text>
<text text-anchor="start" x="14" y="-450.5" font-family="Helvetica,sans-Serif" font-size="10.00"> game, std::string nickname)</text>
<text text-anchor="start" x="4" y="-434.5" font-family="Helvetica,sans-Serif" font-size="10.00">+</text>
<text text-anchor="start" x="14" y="-434.5" font-family="Helvetica,sans-Serif" font-size="10.00">int existPlayer(std</text>
<text text-anchor="start" x="14" y="-422.5" font-family="Helvetica,sans-Serif" font-size="10.00">::string nick)</text>
<polygon fill="#666666" stroke="#666666" points="0,-694 0,-694 142,-694 142,-694 0,-694"/>
<polygon fill="#666666" stroke="#666666" points="0,-678 0,-678 142,-678 142,-678 0,-678"/>
<polygon fill="none" stroke="#666666" points="0,-416 0,-712 142,-712 142,-416 0,-416"/>
</a>
</g>
</g>
<!-- Node3&#45;&gt;Node2 -->
<g id="edge4_Node000002_Node000003" class="edge">
<title>Node3&#45;&gt;Node2</title>
<g id="a_edge4_Node000002_Node000003"><a xlink:title=" ">
<path fill="none" stroke="#63b8ff" d="M71,-416.18C71,-404.33 71,-392.47 71,-380.88"/>
<polygon fill="none" stroke="#63b8ff" points="71,-380.84 67,-374.84 71,-368.84 75,-374.84 71,-380.84"/>
</a>
</g>
<text text-anchor="middle" x="103.25" y="-388.5" font-family="Helvetica,sans-Serif" font-size="10.00" fill="grey"> #management</text>
</g>
</g>
</svg>
