<?xml version="1.0" encoding="UTF-8" standalone="no"?>
<!DOCTYPE svg PUBLIC "-//W3C//DTD SVG 1.1//EN"
 "http://www.w3.org/Graphics/SVG/1.1/DTD/svg11.dtd">
<!-- Generated by graphviz version 11.0.0 (20240428.1522)
 -->
<!-- Title: Tabuleiro::transcrever_movimento Pages: 1 -->
<svg width="359pt" height="96pt"
 viewBox="0.00 0.00 359.00 96.00" xmlns="http://www.w3.org/2000/svg" xmlns:xlink="http://www.w3.org/1999/xlink">
<g id="graph0" class="graph" transform="scale(1 1) rotate(0) translate(4 92)">
<title>Tabuleiro::transcrever_movimento</title>
<!-- Node1 -->
<g id="Node000001" class="node">
<title>Node1</title>
<g id="a_Node000001"><a xlink:title=" ">
<polygon fill="#999999" stroke="#666666" points="351,-61 222.5,-61 222.5,-26 351,-26 351,-61"/>
<text text-anchor="start" x="230.5" y="-45.6" font-family="Helvetica,sans-Serif" font-size="12.00">Tabuleiro::transcrever</text>
<text text-anchor="middle" x="286.75" y="-32.1" font-family="Helvetica,sans-Serif" font-size="12.00">_movimento</text>
</a>
</g>
</g>
<!-- Node2 -->
<g id="Node000002" class="node">
<title>Node2</title>
<g id="a_Node000002"><a xlink:href="$class_tabuleiro.html#a23df17f6abf3d5cc0e3f742e32f8dab2" xlink:title=" ">
<polygon fill="white" stroke="#666666" points="186.5,-88 77.5,-88 77.5,-53 186.5,-53 186.5,-88"/>
<text text-anchor="start" x="85.5" y="-72.6" font-family="Helvetica,sans-Serif" font-size="12.00">Tabuleiro::realizar</text>
<text text-anchor="middle" x="132" y="-59.1" font-family="Helvetica,sans-Serif" font-size="12.00">_movimento_O</text>
</a>
</g>
</g>
<!-- Node1&#45;&gt;Node2 -->
<g id="edge5_Node000001_Node000002" class="edge">
<title>Node1&#45;&gt;Node2</title>
<g id="a_edge5_Node000001_Node000002"><a xlink:title=" ">
<path fill="none" stroke="#63b8ff" d="M211.14,-56.69C202.92,-58.14 194.68,-59.6 186.79,-60.99"/>
<polygon fill="#63b8ff" stroke="#63b8ff" points="211.57,-60.17 220.81,-54.98 210.35,-53.27 211.57,-60.17"/>
</a>
</g>
</g>
<!-- Node4 -->
<g id="Node000004" class="node">
<title>Node4</title>
<g id="a_Node000004"><a xlink:href="$class_tabuleiro.html#a9772d5ccc551c898a79f09bab626e6b8" xlink:title=" ">
<polygon fill="white" stroke="#666666" points="186.5,-35 77.5,-35 77.5,0 186.5,0 186.5,-35"/>
<text text-anchor="start" x="85.5" y="-19.6" font-family="Helvetica,sans-Serif" font-size="12.00">Tabuleiro::realizar</text>
<text text-anchor="middle" x="132" y="-6.1" font-family="Helvetica,sans-Serif" font-size="12.00">_movimento_X</text>
</a>
</g>
</g>
<!-- Node1&#45;&gt;Node4 -->
<g id="edge7_Node000001_Node000004" class="edge">
<title>Node1&#45;&gt;Node4</title>
<g id="a_edge7_Node000001_Node000004"><a xlink:title=" ">
<path fill="none" stroke="#63b8ff" d="M211.14,-30.8C202.92,-29.4 194.68,-28 186.79,-26.66"/>
<polygon fill="#63b8ff" stroke="#63b8ff" points="210.36,-34.22 220.81,-32.45 211.53,-27.32 210.36,-34.22"/>
</a>
</g>
</g>
<!-- Node3 -->
<g id="Node000003" class="node">
<title>Node3</title>
<g id="a_Node000003"><a xlink:href="$damas_8cpp.html#ae66f6b31b5ad750f1fe042a706a4e3d4" xlink:title=" ">
<polygon fill="white" stroke="#666666" points="41.5,-54.25 0,-54.25 0,-32.75 41.5,-32.75 41.5,-54.25"/>
<text text-anchor="middle" x="20.75" y="-38.85" font-family="Helvetica,sans-Serif" font-size="12.00">main</text>
</a>
</g>
</g>
<!-- Node2&#45;&gt;Node3 -->
<g id="edge6_Node000002_Node000003" class="edge">
<title>Node2&#45;&gt;Node3</title>
<g id="a_edge6_Node000002_Node000003"><a xlink:title=" ">
<path fill="none" stroke="#63b8ff" d="M65.87,-54.4C57.17,-52.25 48.84,-50.2 41.81,-48.46"/>
<polygon fill="#63b8ff" stroke="#63b8ff" points="65,-57.79 75.55,-56.8 66.68,-51 65,-57.79"/>
</a>
</g>
</g>
<!-- Node4&#45;&gt;Node3 -->
<g id="edge8_Node000004_Node000003" class="edge">
<title>Node4&#45;&gt;Node3</title>
<g id="a_edge8_Node000004_Node000003"><a xlink:title=" ">
<path fill="none" stroke="#63b8ff" d="M65.87,-33C57.17,-35.07 48.84,-37.05 41.81,-38.73"/>
<polygon fill="#63b8ff" stroke="#63b8ff" points="66.62,-36.42 75.54,-30.7 65,-29.61 66.62,-36.42"/>
</a>
</g>
</g>
</g>
</svg>
