<?xml version="1.0" encoding="UTF-8" standalone="no"?>
<!DOCTYPE svg PUBLIC "-//W3C//DTD SVG 1.1//EN"
 "http://www.w3.org/Graphics/SVG/1.1/DTD/svg11.dtd">
<!-- Generated by graphviz version 11.0.0 (20240428.1522)
 -->
<!-- Title: gameStatus::gameStatics Pages: 1 -->
<svg width="327pt" height="70pt"
 viewBox="0.00 0.00 326.50 69.50" xmlns="http://www.w3.org/2000/svg" xmlns:xlink="http://www.w3.org/1999/xlink">
<g id="graph0" class="graph" transform="scale(1 1) rotate(0) translate(4 65.5)">
<title>gameStatus::gameStatics</title>
<!-- Node1 -->
<g id="Node000001" class="node">
<title>Node1</title>
<g id="a_Node000001"><a xlink:title="Show in the console the statics of the player in this game.">
<polygon fill="#999999" stroke="#666666" points="151,-41.5 0,-41.5 0,-20 151,-20 151,-41.5"/>
<text text-anchor="middle" x="75.5" y="-26.1" font-family="Helvetica,sans-Serif" font-size="12.00">gameStatus::gameStatics</text>
</a>
</g>
</g>
<!-- Node2 -->
<g id="Node000002" class="node">
<title>Node2</title>
<g id="a_Node000002"><a xlink:href="$classgame_status.html#aa2bd52310e99845ad5d720038dbdb986" xlink:title="Lose Rate at this game.">
<polygon fill="white" stroke="#666666" points="318.5,-61.5 187,-61.5 187,-40 318.5,-40 318.5,-61.5"/>
<text text-anchor="middle" x="252.75" y="-46.1" font-family="Helvetica,sans-Serif" font-size="12.00">gameStatus::loseRate</text>
</a>
</g>
</g>
<!-- Node1&#45;&gt;Node2 -->
<g id="edge3_Node000001_Node000002" class="edge">
<title>Node1&#45;&gt;Node2</title>
<g id="a_edge3_Node000001_Node000002"><a xlink:title=" ">
<path fill="none" stroke="#63b8ff" d="M151.33,-39.29C159.3,-40.2 167.41,-41.12 175.39,-42.04"/>
<polygon fill="#63b8ff" stroke="#63b8ff" points="174.73,-45.48 185.07,-43.14 175.53,-38.53 174.73,-45.48"/>
</a>
</g>
</g>
<!-- Node3 -->
<g id="Node000003" class="node">
<title>Node3</title>
<g id="a_Node000003"><a xlink:href="$classgame_status.html#a26d2ca02ed54983d79afc345432e0226" xlink:title="Win Rate at this game.">
<polygon fill="white" stroke="#666666" points="316.25,-21.5 189.25,-21.5 189.25,0 316.25,0 316.25,-21.5"/>
<text text-anchor="middle" x="252.75" y="-6.1" font-family="Helvetica,sans-Serif" font-size="12.00">gameStatus::winRate</text>
</a>
</g>
</g>
<!-- Node1&#45;&gt;Node3 -->
<g id="edge4_Node000001_Node000003" class="edge">
<title>Node1&#45;&gt;Node3</title>
<g id="a_edge4_Node000001_Node000003"><a xlink:title=" ">
<path fill="none" stroke="#63b8ff" d="M151.33,-22.21C160.06,-21.21 168.97,-20.2 177.69,-19.2"/>
<polygon fill="#63b8ff" stroke="#63b8ff" points="177.98,-22.69 187.52,-18.08 177.18,-15.74 177.98,-22.69"/>
</a>
</g>
</g>
</g>
</svg>
