<?xml version="1.0" encoding="UTF-8" standalone="no"?>
<!DOCTYPE svg PUBLIC "-//W3C//DTD SVG 1.1//EN"
 "http://www.w3.org/Graphics/SVG/1.1/DTD/svg11.dtd">
<!-- Generated by graphviz version 11.0.0 (20240428.1522)
 -->
<!-- Title: gameStatus::getName Pages: 1 -->
<svg width="490pt" height="90pt"
 viewBox="0.00 0.00 489.75 90.00" xmlns="http://www.w3.org/2000/svg" xmlns:xlink="http://www.w3.org/1999/xlink">
<g id="graph0" class="graph" transform="scale(1 1) rotate(0) translate(4 86)">
<title>gameStatus::getName</title>
<!-- Node1 -->
<g id="Node000001" class="node">
<title>Node1</title>
<g id="a_Node000001"><a xlink:title="get Name">
<polygon fill="#999999" stroke="#666666" points="481.75,-51 368.25,-51 368.25,-31 481.75,-31 481.75,-51"/>
<text text-anchor="middle" x="425" y="-37.5" font-family="Helvetica,sans-Serif" font-size="10.00">gameStatus::getName</text>
</a>
</g>
</g>
<!-- Node2 -->
<g id="Node000002" class="node">
<title>Node2</title>
<g id="a_Node000002"><a xlink:href="$classplayers_management.html#a4f80e5e54d1cd2273b86af3345c3ece1" xlink:title="Add a lose in the game for the player nick passed.">
<polygon fill="white" stroke="#666666" points="332.25,-82 222.5,-82 222.5,-50 332.25,-50 332.25,-82"/>
<text text-anchor="start" x="230.5" y="-68.5" font-family="Helvetica,sans-Serif" font-size="10.00">playersManagement::</text>
<text text-anchor="middle" x="277.38" y="-56.5" font-family="Helvetica,sans-Serif" font-size="10.00">addLose</text>
</a>
</g>
</g>
<!-- Node1&#45;&gt;Node2 -->
<g id="edge6_Node000001_Node000002" class="edge">
<title>Node1&#45;&gt;Node2</title>
<g id="a_edge6_Node000001_Node000002"><a xlink:title=" ">
<path fill="none" stroke="#63b8ff" d="M356.99,-52.5C348.77,-53.92 340.44,-55.35 332.43,-56.72"/>
<polygon fill="#63b8ff" stroke="#63b8ff" points="357.36,-55.99 366.62,-50.85 356.17,-49.09 357.36,-55.99"/>
</a>
</g>
</g>
<!-- Node5 -->
<g id="Node000005" class="node">
<title>Node5</title>
<g id="a_Node000005"><a xlink:href="$classplayers_management.html#adbef5e6113980c06e9c88dec87a53747" xlink:title="Add a win in the game for the player nick passed.">
<polygon fill="white" stroke="#666666" points="332.25,-32 222.5,-32 222.5,0 332.25,0 332.25,-32"/>
<text text-anchor="start" x="230.5" y="-18.5" font-family="Helvetica,sans-Serif" font-size="10.00">playersManagement::</text>
<text text-anchor="middle" x="277.38" y="-6.5" font-family="Helvetica,sans-Serif" font-size="10.00">addWin</text>
</a>
</g>
</g>
<!-- Node1&#45;&gt;Node5 -->
<g id="edge9_Node000001_Node000005" class="edge">
<title>Node1&#45;&gt;Node5</title>
<g id="a_edge9_Node000001_Node000005"><a xlink:title=" ">
<path fill="none" stroke="#63b8ff" d="M356.99,-29.5C348.77,-28.08 340.44,-26.65 332.43,-25.28"/>
<polygon fill="#63b8ff" stroke="#63b8ff" points="356.17,-32.91 366.62,-31.15 357.36,-26.01 356.17,-32.91"/>
</a>
</g>
</g>
<!-- Node3 -->
<g id="Node000003" class="node">
<title>Node3</title>
<g id="a_Node000003"><a xlink:href="$classgame.html#aa73e185d035361027c0df359d7a6c750" xlink:title="Add one win to the winner and one lose for the loser.">
<polygon fill="white" stroke="#666666" points="186.5,-51 88,-51 88,-31 186.5,-31 186.5,-51"/>
<text text-anchor="middle" x="137.25" y="-37.5" font-family="Helvetica,sans-Serif" font-size="10.00">game::winAndLose</text>
</a>
</g>
</g>
<!-- Node2&#45;&gt;Node3 -->
<g id="edge7_Node000002_Node000003" class="edge">
<title>Node2&#45;&gt;Node3</title>
<g id="a_edge7_Node000002_Node000003"><a xlink:title=" ">
<path fill="none" stroke="#63b8ff" d="M210.86,-54.14C202.79,-52.68 194.66,-51.21 186.9,-49.8"/>
<polygon fill="#63b8ff" stroke="#63b8ff" points="210.23,-57.58 220.69,-55.92 211.47,-50.7 210.23,-57.58"/>
</a>
</g>
</g>
<!-- Node4 -->
<g id="Node000004" class="node">
<title>Node4</title>
<g id="a_Node000004"><a xlink:href="$classlig4.html#a412d6bbcae4077e520282b295060abe1" xlink:title=" ">
<polygon fill="white" stroke="#666666" points="52,-51 0,-51 0,-31 52,-31 52,-51"/>
<text text-anchor="middle" x="26" y="-37.5" font-family="Helvetica,sans-Serif" font-size="10.00">lig4::lig4</text>
</a>
</g>
</g>
<!-- Node3&#45;&gt;Node4 -->
<g id="edge8_Node000003_Node000004" class="edge">
<title>Node3&#45;&gt;Node4</title>
<g id="a_edge8_Node000003_Node000004"><a xlink:title=" ">
<path fill="none" stroke="#63b8ff" d="M76.22,-41C67.82,-41 59.6,-41 52.35,-41"/>
<polygon fill="#63b8ff" stroke="#63b8ff" points="76.18,-44.5 86.18,-41 76.18,-37.5 76.18,-44.5"/>
</a>
</g>
</g>
<!-- Node5&#45;&gt;Node3 -->
<g id="edge10_Node000005_Node000003" class="edge">
<title>Node5&#45;&gt;Node3</title>
<g id="a_edge10_Node000005_Node000003"><a xlink:title=" ">
<path fill="none" stroke="#63b8ff" d="M210.86,-27.86C202.79,-29.32 194.66,-30.79 186.9,-32.2"/>
<polygon fill="#63b8ff" stroke="#63b8ff" points="211.47,-31.3 220.69,-26.08 210.23,-24.42 211.47,-31.3"/>
</a>
</g>
</g>
</g>
</svg>
