<?xml version="1.0" encoding="UTF-8" standalone="no"?>
<!DOCTYPE svg PUBLIC "-//W3C//DTD SVG 1.1//EN"
 "http://www.w3.org/Graphics/SVG/1.1/DTD/svg11.dtd">
<!-- Generated by graphviz version 11.0.0 (20240428.1522)
 -->
<!-- Title: playersManagement::addWin Pages: 1 -->
<svg width="267pt" height="116pt"
 viewBox="0.00 0.00 267.25 116.00" xmlns="http://www.w3.org/2000/svg" xmlns:xlink="http://www.w3.org/1999/xlink">
<g id="graph0" class="graph" transform="scale(1 1) rotate(0) translate(4 112)">
<title>playersManagement::addWin</title>
<!-- Node1 -->
<g id="Node000001" class="node">
<title>Node1</title>
<g id="a_Node000001"><a xlink:title="Add a win in the game for the player nick passed.">
<polygon fill="#999999" stroke="#666666" points="109.75,-76 0,-76 0,-44 109.75,-44 109.75,-76"/>
<text text-anchor="start" x="8" y="-62.5" font-family="Helvetica,sans-Serif" font-size="10.00">playersManagement::</text>
<text text-anchor="middle" x="54.88" y="-50.5" font-family="Helvetica,sans-Serif" font-size="10.00">addWin</text>
</a>
</g>
</g>
<!-- Node2 -->
<g id="Node000002" class="node">
<title>Node2</title>
<g id="a_Node000002"><a xlink:href="$classgame_status.html#a8a3a06ec0e05e77736aa5994808c9311" xlink:title="Add a win for the player in this game.">
<polygon fill="white" stroke="#666666" points="256.25,-108 148.75,-108 148.75,-88 256.25,-88 256.25,-108"/>
<text text-anchor="middle" x="202.5" y="-94.5" font-family="Helvetica,sans-Serif" font-size="10.00">gameStatus::addWin</text>
</a>
</g>
</g>
<!-- Node1&#45;&gt;Node2 -->
<g id="edge4_Node000001_Node000002" class="edge">
<title>Node1&#45;&gt;Node2</title>
<g id="a_edge4_Node000001_Node000002"><a xlink:title=" ">
<path fill="none" stroke="#63b8ff" d="M110.1,-74.15C123.23,-77.58 137.23,-81.23 150.23,-84.62"/>
<polygon fill="#63b8ff" stroke="#63b8ff" points="149.32,-88 159.88,-87.14 151.08,-81.23 149.32,-88"/>
</a>
</g>
</g>
<!-- Node3 -->
<g id="Node000003" class="node">
<title>Node3</title>
<g id="a_Node000003"><a xlink:href="$classgame_status.html#a4ab21c8ec9f2dbe1f408dbdb553e5e52" xlink:title="get Name">
<polygon fill="white" stroke="#666666" points="259.25,-70 145.75,-70 145.75,-50 259.25,-50 259.25,-70"/>
<text text-anchor="middle" x="202.5" y="-56.5" font-family="Helvetica,sans-Serif" font-size="10.00">gameStatus::getName</text>
</a>
</g>
</g>
<!-- Node1&#45;&gt;Node3 -->
<g id="edge5_Node000001_Node000003" class="edge">
<title>Node1&#45;&gt;Node3</title>
<g id="a_edge5_Node000001_Node000003"><a xlink:title=" ">
<path fill="none" stroke="#63b8ff" d="M110.1,-60C117.91,-60 126.02,-60 134.04,-60"/>
<polygon fill="#63b8ff" stroke="#63b8ff" points="133.77,-63.5 143.77,-60 133.77,-56.5 133.77,-63.5"/>
</a>
</g>
</g>
<!-- Node4 -->
<g id="Node000004" class="node">
<title>Node4</title>
<g id="a_Node000004"><a xlink:href="$classplayers_management.html#ae11bf55369752a338e8084f18269517a" xlink:title="Save the players data in the playersStatics.txt.">
<polygon fill="white" stroke="#666666" points="257.38,-32 147.62,-32 147.62,0 257.38,0 257.38,-32"/>
<text text-anchor="start" x="155.62" y="-18.5" font-family="Helvetica,sans-Serif" font-size="10.00">playersManagement::</text>
<text text-anchor="middle" x="202.5" y="-6.5" font-family="Helvetica,sans-Serif" font-size="10.00">saveData</text>
</a>
</g>
</g>
<!-- Node1&#45;&gt;Node4 -->
<g id="edge6_Node000001_Node000004" class="edge">
<title>Node1&#45;&gt;Node4</title>
<g id="a_edge6_Node000001_Node000004"><a xlink:title=" ">
<path fill="none" stroke="#63b8ff" d="M110.1,-43.62C118.63,-41.04 127.52,-38.35 136.27,-35.71"/>
<polygon fill="#63b8ff" stroke="#63b8ff" points="137.22,-39.08 145.78,-32.84 135.2,-32.38 137.22,-39.08"/>
</a>
</g>
</g>
</g>
</svg>
