<?xml version="1.0" encoding="UTF-8" standalone="no"?>
<!DOCTYPE svg PUBLIC "-//W3C//DTD SVG 1.1//EN"
 "http://www.w3.org/Graphics/SVG/1.1/DTD/svg11.dtd">
<!-- Generated by graphviz version 11.0.0 (20240428.1522)
 -->
<!-- Title: lig4::lig4 Pages: 1 -->
<svg width="571pt" height="270pt"
 viewBox="0.00 0.00 570.75 270.25" xmlns="http://www.w3.org/2000/svg" xmlns:xlink="http://www.w3.org/1999/xlink">
<g id="graph0" class="graph" transform="scale(1 1) rotate(0) translate(4 266.25)">
<title>lig4::lig4</title>
<!-- Node1 -->
<g id="Node000001" class="node">
<title>Node1</title>
<g id="a_Node000001"><a xlink:title=" ">
<polygon fill="#999999" stroke="#666666" points="59.5,-169.5 0,-169.5 0,-148 59.5,-148 59.5,-169.5"/>
<text text-anchor="middle" x="29.75" y="-154.1" font-family="Helvetica,sans-Serif" font-size="12.00">lig4::lig4</text>
</a>
</g>
</g>
<!-- Node2 -->
<g id="Node000002" class="node">
<title>Node2</title>
<g id="a_Node000002"><a xlink:href="$classplayers_management.html#a5fbc67ce627de58a27992f49814036d5" xlink:title="Verify the player nick exists in the players.">
<polygon fill="white" stroke="#666666" points="226.62,-262.25 98.88,-262.25 98.88,-227.25 226.62,-227.25 226.62,-262.25"/>
<text text-anchor="start" x="106.88" y="-246.85" font-family="Helvetica,sans-Serif" font-size="12.00">playersManagement::</text>
<text text-anchor="middle" x="162.75" y="-233.35" font-family="Helvetica,sans-Serif" font-size="12.00">existPlayer</text>
</a>
</g>
</g>
<!-- Node1&#45;&gt;Node2 -->
<g id="edge14_Node000001_Node000002" class="edge">
<title>Node1&#45;&gt;Node2</title>
<g id="a_edge14_Node000001_Node000002"><a xlink:title=" ">
<path fill="none" stroke="#63b8ff" d="M40.29,-169.82C52.12,-182.98 73.44,-204.9 95.5,-218.75 97.12,-219.77 98.78,-220.75 100.48,-221.71"/>
<polygon fill="#63b8ff" stroke="#63b8ff" points="98.68,-224.72 109.17,-226.21 101.9,-218.51 98.68,-224.72"/>
</a>
</g>
</g>
<!-- Node3 -->
<g id="Node000003" class="node">
<title>Node3</title>
<g id="a_Node000003"><a xlink:href="$classlig4.html#ae4f552bdb9d881c9e65817c823f2e4ec" xlink:title=" ">
<polygon fill="white" stroke="#666666" points="201.12,-209.5 124.38,-209.5 124.38,-188 201.12,-188 201.12,-209.5"/>
<text text-anchor="middle" x="162.75" y="-194.1" font-family="Helvetica,sans-Serif" font-size="12.00">lig4::jogada</text>
</a>
</g>
</g>
<!-- Node1&#45;&gt;Node3 -->
<g id="edge15_Node000001_Node000003" class="edge">
<title>Node1&#45;&gt;Node3</title>
<g id="a_edge15_Node000001_Node000003"><a xlink:title=" ">
<path fill="none" stroke="#63b8ff" d="M59.75,-167.75C70.92,-171.21 83.8,-175.18 95.5,-178.75 101.39,-180.55 107.58,-182.43 113.7,-184.28"/>
<polygon fill="#63b8ff" stroke="#63b8ff" points="112.56,-187.6 123.15,-187.14 114.59,-180.9 112.56,-187.6"/>
</a>
</g>
</g>
<!-- Node4 -->
<g id="Node000004" class="node">
<title>Node4</title>
<g id="a_Node000004"><a xlink:href="$classlig4.html#a7dd147e1e5ad2a5f263d291ea60348b9" xlink:title=" ">
<polygon fill="white" stroke="#666666" points="227.38,-169.5 98.12,-169.5 98.12,-148 227.38,-148 227.38,-169.5"/>
<text text-anchor="middle" x="162.75" y="-154.1" font-family="Helvetica,sans-Serif" font-size="12.00">lig4::mostrarTabuleiro</text>
</a>
</g>
</g>
<!-- Node1&#45;&gt;Node4 -->
<g id="edge16_Node000001_Node000004" class="edge">
<title>Node1&#45;&gt;Node4</title>
<g id="a_edge16_Node000001_Node000004"><a xlink:title=" ">
<path fill="none" stroke="#63b8ff" d="M59.82,-158.75C67.81,-158.75 76.85,-158.75 86.17,-158.75"/>
<polygon fill="#63b8ff" stroke="#63b8ff" points="86.12,-162.25 96.12,-158.75 86.12,-155.25 86.12,-162.25"/>
</a>
</g>
</g>
<!-- Node5 -->
<g id="Node000005" class="node">
<title>Node5</title>
<g id="a_Node000005"><a xlink:href="$classlig4.html#a4585a1ae772b89f411210402f77335a0" xlink:title=" ">
<polygon fill="white" stroke="#666666" points="230,-129.5 95.5,-129.5 95.5,-108 230,-108 230,-129.5"/>
<text text-anchor="middle" x="162.75" y="-114.1" font-family="Helvetica,sans-Serif" font-size="12.00">lig4::verificarAdjacente</text>
</a>
</g>
</g>
<!-- Node1&#45;&gt;Node5 -->
<g id="edge17_Node000001_Node000005" class="edge">
<title>Node1&#45;&gt;Node5</title>
<g id="a_edge17_Node000001_Node000005"><a xlink:title=" ">
<path fill="none" stroke="#63b8ff" d="M59.75,-149.75C70.92,-146.29 83.8,-142.32 95.5,-138.75 101.39,-136.95 107.58,-135.07 113.7,-133.22"/>
<polygon fill="#63b8ff" stroke="#63b8ff" points="114.59,-136.6 123.15,-130.36 112.56,-129.9 114.59,-136.6"/>
</a>
</g>
</g>
<!-- Node6 -->
<g id="Node000006" class="node">
<title>Node6</title>
<g id="a_Node000006"><a xlink:href="$classgame.html#aa73e185d035361027c0df359d7a6c750" xlink:title="Add one win to the winner and one lose for the loser.">
<polygon fill="white" stroke="#666666" points="221,-89.5 104.5,-89.5 104.5,-68 221,-68 221,-89.5"/>
<text text-anchor="middle" x="162.75" y="-74.1" font-family="Helvetica,sans-Serif" font-size="12.00">game::winAndLose</text>
</a>
</g>
</g>
<!-- Node1&#45;&gt;Node6 -->
<g id="edge18_Node000001_Node000006" class="edge">
<title>Node1&#45;&gt;Node6</title>
<g id="a_edge18_Node000001_Node000006"><a xlink:title=" ">
<path fill="none" stroke="#63b8ff" d="M39.7,-147.84C51.26,-134.43 72.63,-111.85 95.5,-98.75 98.33,-97.13 101.31,-95.62 104.38,-94.23"/>
<polygon fill="#63b8ff" stroke="#63b8ff" points="105.66,-97.49 113.61,-90.49 103.03,-91 105.66,-97.49"/>
</a>
</g>
</g>
<!-- Node7 -->
<g id="Node000007" class="node">
<title>Node7</title>
<g id="a_Node000007"><a xlink:href="$classplayers_management.html#a4f80e5e54d1cd2273b86af3345c3ece1" xlink:title="Add a lose in the game for the player nick passed.">
<polygon fill="white" stroke="#666666" points="393.75,-123.25 266,-123.25 266,-88.25 393.75,-88.25 393.75,-123.25"/>
<text text-anchor="start" x="274" y="-107.85" font-family="Helvetica,sans-Serif" font-size="12.00">playersManagement::</text>
<text text-anchor="middle" x="329.88" y="-94.35" font-family="Helvetica,sans-Serif" font-size="12.00">addLose</text>
</a>
</g>
</g>
<!-- Node6&#45;&gt;Node7 -->
<g id="edge19_Node000006_Node000007" class="edge">
<title>Node6&#45;&gt;Node7</title>
<g id="a_edge19_Node000006_Node000007"><a xlink:title=" ">
<path fill="none" stroke="#63b8ff" d="M221.04,-88.12C231.87,-89.89 243.34,-91.76 254.6,-93.61"/>
<polygon fill="#63b8ff" stroke="#63b8ff" points="253.84,-97.03 264.27,-95.19 254.96,-90.12 253.84,-97.03"/>
</a>
</g>
</g>
<!-- Node11 -->
<g id="Node000011" class="node">
<title>Node11</title>
<g id="a_Node000011"><a xlink:href="$classplayers_management.html#adbef5e6113980c06e9c88dec87a53747" xlink:title="Add a win in the game for the player nick passed.">
<polygon fill="white" stroke="#666666" points="393.75,-70.25 266,-70.25 266,-35.25 393.75,-35.25 393.75,-70.25"/>
<text text-anchor="start" x="274" y="-54.85" font-family="Helvetica,sans-Serif" font-size="12.00">playersManagement::</text>
<text text-anchor="middle" x="329.88" y="-41.35" font-family="Helvetica,sans-Serif" font-size="12.00">addWin</text>
</a>
</g>
</g>
<!-- Node6&#45;&gt;Node11 -->
<g id="edge23_Node000006_Node000011" class="edge">
<title>Node6&#45;&gt;Node11</title>
<g id="a_edge23_Node000006_Node000011"><a xlink:title=" ">
<path fill="none" stroke="#63b8ff" d="M221.04,-69.73C231.87,-68.02 243.34,-66.22 254.6,-64.44"/>
<polygon fill="#63b8ff" stroke="#63b8ff" points="254.93,-67.94 264.27,-62.92 253.84,-61.02 254.93,-67.94"/>
</a>
</g>
</g>
<!-- Node8 -->
<g id="Node000008" class="node">
<title>Node8</title>
<g id="a_Node000008"><a xlink:href="$classgame_status.html#a72e4abd5d73b95d8c5300b7e9c210579" xlink:title="Add a lose for the player in this game.">
<polygon fill="white" stroke="#666666" points="562,-153.5 430.5,-153.5 430.5,-132 562,-132 562,-153.5"/>
<text text-anchor="middle" x="496.25" y="-138.1" font-family="Helvetica,sans-Serif" font-size="12.00">gameStatus::addLose</text>
</a>
</g>
</g>
<!-- Node7&#45;&gt;Node8 -->
<g id="edge20_Node000007_Node000008" class="edge">
<title>Node7&#45;&gt;Node8</title>
<g id="a_edge20_Node000007_Node000008"><a xlink:title=" ">
<path fill="none" stroke="#63b8ff" d="M393.96,-119.95C407.25,-122.94 421.26,-126.09 434.47,-129.07"/>
<polygon fill="#63b8ff" stroke="#63b8ff" points="433.35,-132.4 443.87,-131.18 434.88,-125.57 433.35,-132.4"/>
</a>
</g>
</g>
<!-- Node9 -->
<g id="Node000009" class="node">
<title>Node9</title>
<g id="a_Node000009"><a xlink:href="$classgame_status.html#a4ab21c8ec9f2dbe1f408dbdb553e5e52" xlink:title="get Name">
<polygon fill="white" stroke="#666666" points="562.75,-113.5 429.75,-113.5 429.75,-92 562.75,-92 562.75,-113.5"/>
<text text-anchor="middle" x="496.25" y="-98.1" font-family="Helvetica,sans-Serif" font-size="12.00">gameStatus::getName</text>
</a>
</g>
</g>
<!-- Node7&#45;&gt;Node9 -->
<g id="edge21_Node000007_Node000009" class="edge">
<title>Node7&#45;&gt;Node9</title>
<g id="a_edge21_Node000007_Node000009"><a xlink:title=" ">
<path fill="none" stroke="#63b8ff" d="M393.96,-104.6C401.83,-104.45 409.96,-104.31 418.02,-104.16"/>
<polygon fill="#63b8ff" stroke="#63b8ff" points="417.89,-107.66 427.83,-103.98 417.76,-100.66 417.89,-107.66"/>
</a>
</g>
</g>
<!-- Node10 -->
<g id="Node000010" class="node">
<title>Node10</title>
<g id="a_Node000010"><a xlink:href="$classplayers_management.html#ae11bf55369752a338e8084f18269517a" xlink:title="Save the players data in the playersStatics.txt.">
<polygon fill="white" stroke="#666666" points="560.12,-74.25 432.38,-74.25 432.38,-39.25 560.12,-39.25 560.12,-74.25"/>
<text text-anchor="start" x="440.38" y="-58.85" font-family="Helvetica,sans-Serif" font-size="12.00">playersManagement::</text>
<text text-anchor="middle" x="496.25" y="-45.35" font-family="Helvetica,sans-Serif" font-size="12.00">saveData</text>
</a>
</g>
</g>
<!-- Node7&#45;&gt;Node10 -->
<g id="edge22_Node000007_Node000010" class="edge">
<title>Node7&#45;&gt;Node10</title>
<g id="a_edge22_Node000007_Node000010"><a xlink:title=" ">
<path fill="none" stroke="#63b8ff" d="M391.15,-87.78C401.87,-84.59 413.13,-81.23 424.11,-77.96"/>
<polygon fill="#63b8ff" stroke="#63b8ff" points="424.95,-81.36 433.53,-75.15 422.95,-74.65 424.95,-81.36"/>
</a>
</g>
</g>
<!-- Node11&#45;&gt;Node9 -->
<g id="edge25_Node000011_Node000009" class="edge">
<title>Node11&#45;&gt;Node9</title>
<g id="a_edge25_Node000011_Node000009"><a xlink:title=" ">
<path fill="none" stroke="#63b8ff" d="M387.54,-70.75C401.33,-75.06 416.06,-79.62 429.75,-83.75 434.8,-85.27 440.07,-86.84 445.34,-88.39"/>
<polygon fill="#63b8ff" stroke="#63b8ff" points="444.04,-91.66 454.62,-91.11 446,-84.94 444.04,-91.66"/>
</a>
</g>
</g>
<!-- Node11&#45;&gt;Node10 -->
<g id="edge26_Node000011_Node000010" class="edge">
<title>Node11&#45;&gt;Node10</title>
<g id="a_edge26_Node000011_Node000010"><a xlink:title=" ">
<path fill="none" stroke="#63b8ff" d="M393.96,-54.29C402.74,-54.5 411.83,-54.72 420.8,-54.94"/>
<polygon fill="#63b8ff" stroke="#63b8ff" points="420.47,-58.43 430.55,-55.18 420.64,-51.43 420.47,-58.43"/>
</a>
</g>
</g>
<!-- Node12 -->
<g id="Node000012" class="node">
<title>Node12</title>
<g id="a_Node000012"><a xlink:href="$classgame_status.html#a8a3a06ec0e05e77736aa5994808c9311" xlink:title="Add a win for the player in this game.">
<polygon fill="white" stroke="#666666" points="559,-21.5 433.5,-21.5 433.5,0 559,0 559,-21.5"/>
<text text-anchor="middle" x="496.25" y="-6.1" font-family="Helvetica,sans-Serif" font-size="12.00">gameStatus::addWin</text>
</a>
</g>
</g>
<!-- Node11&#45;&gt;Node12 -->
<g id="edge24_Node000011_Node000012" class="edge">
<title>Node11&#45;&gt;Node12</title>
<g id="a_edge24_Node000011_Node000012"><a xlink:title=" ">
<path fill="none" stroke="#63b8ff" d="M393.96,-36.63C409.25,-32.72 425.48,-28.58 440.36,-24.77"/>
<polygon fill="#63b8ff" stroke="#63b8ff" points="441.15,-28.18 449.98,-22.32 439.42,-21.4 441.15,-28.18"/>
</a>
</g>
</g>
</g>
</svg>
