<?xml version="1.0" encoding="UTF-8" standalone="no"?>
<!DOCTYPE svg PUBLIC "-//W3C//DTD SVG 1.1//EN"
 "http://www.w3.org/Graphics/SVG/1.1/DTD/svg11.dtd">
<!-- Generated by graphviz version 11.0.0 (20240428.1522)
 -->
<!-- Title: game::winAndLose Pages: 1 -->
<svg width="457pt" height="162pt"
 viewBox="0.00 0.00 457.25 161.50" xmlns="http://www.w3.org/2000/svg" xmlns:xlink="http://www.w3.org/1999/xlink">
<g id="graph0" class="graph" transform="scale(1 1) rotate(0) translate(4 157.5)">
<title>game::winAndLose</title>
<!-- Node1 -->
<g id="Node000001" class="node">
<title>Node1</title>
<g id="a_Node000001"><a xlink:title="Add one win to the winner and one lose for the loser.">
<polygon fill="#999999" stroke="#666666" points="116.5,-89.5 0,-89.5 0,-68 116.5,-68 116.5,-89.5"/>
<text text-anchor="middle" x="58.25" y="-74.1" font-family="Helvetica,sans-Serif" font-size="12.00">game::winAndLose</text>
</a>
</g>
</g>
<!-- Node2 -->
<g id="Node000002" class="node">
<title>Node2</title>
<g id="a_Node000002"><a xlink:href="$classplayers_management.html#a4f80e5e54d1cd2273b86af3345c3ece1" xlink:title="Add a lose in the game for the player nick passed.">
<polygon fill="white" stroke="#666666" points="280.25,-123.25 152.5,-123.25 152.5,-88.25 280.25,-88.25 280.25,-123.25"/>
<text text-anchor="start" x="160.5" y="-107.85" font-family="Helvetica,sans-Serif" font-size="12.00">playersManagement::</text>
<text text-anchor="middle" x="216.38" y="-94.35" font-family="Helvetica,sans-Serif" font-size="12.00">addLose</text>
</a>
</g>
</g>
<!-- Node1&#45;&gt;Node2 -->
<g id="edge9_Node000001_Node000002" class="edge">
<title>Node1&#45;&gt;Node2</title>
<g id="a_edge9_Node000001_Node000002"><a xlink:title=" ">
<path fill="none" stroke="#63b8ff" d="M116.94,-88.73C124.73,-90.07 132.82,-91.47 140.85,-92.86"/>
<polygon fill="#63b8ff" stroke="#63b8ff" points="140.2,-96.3 150.65,-94.56 141.4,-89.4 140.2,-96.3"/>
</a>
</g>
</g>
<!-- Node6 -->
<g id="Node000006" class="node">
<title>Node6</title>
<g id="a_Node000006"><a xlink:href="$classplayers_management.html#adbef5e6113980c06e9c88dec87a53747" xlink:title="Add a win in the game for the player nick passed.">
<polygon fill="white" stroke="#666666" points="280.25,-70.25 152.5,-70.25 152.5,-35.25 280.25,-35.25 280.25,-70.25"/>
<text text-anchor="start" x="160.5" y="-54.85" font-family="Helvetica,sans-Serif" font-size="12.00">playersManagement::</text>
<text text-anchor="middle" x="216.38" y="-41.35" font-family="Helvetica,sans-Serif" font-size="12.00">addWin</text>
</a>
</g>
</g>
<!-- Node1&#45;&gt;Node6 -->
<g id="edge13_Node000001_Node000006" class="edge">
<title>Node1&#45;&gt;Node6</title>
<g id="a_edge13_Node000001_Node000006"><a xlink:title=" ">
<path fill="none" stroke="#63b8ff" d="M116.94,-69.14C124.73,-67.84 132.82,-66.5 140.85,-65.16"/>
<polygon fill="#63b8ff" stroke="#63b8ff" points="141.36,-68.62 150.65,-63.53 140.21,-61.72 141.36,-68.62"/>
</a>
</g>
</g>
<!-- Node3 -->
<g id="Node000003" class="node">
<title>Node3</title>
<g id="a_Node000003"><a xlink:href="$classgame_status.html#a72e4abd5d73b95d8c5300b7e9c210579" xlink:title="Add a lose for the player in this game.">
<polygon fill="white" stroke="#666666" points="448.5,-153.5 317,-153.5 317,-132 448.5,-132 448.5,-153.5"/>
<text text-anchor="middle" x="382.75" y="-138.1" font-family="Helvetica,sans-Serif" font-size="12.00">gameStatus::addLose</text>
</a>
</g>
</g>
<!-- Node2&#45;&gt;Node3 -->
<g id="edge10_Node000002_Node000003" class="edge">
<title>Node2&#45;&gt;Node3</title>
<g id="a_edge10_Node000002_Node000003"><a xlink:title=" ">
<path fill="none" stroke="#63b8ff" d="M280.46,-119.95C293.75,-122.94 307.76,-126.09 320.97,-129.07"/>
<polygon fill="#63b8ff" stroke="#63b8ff" points="319.85,-132.4 330.37,-131.18 321.38,-125.57 319.85,-132.4"/>
</a>
</g>
</g>
<!-- Node4 -->
<g id="Node000004" class="node">
<title>Node4</title>
<g id="a_Node000004"><a xlink:href="$classgame_status.html#a4ab21c8ec9f2dbe1f408dbdb553e5e52" xlink:title="get Name">
<polygon fill="white" stroke="#666666" points="449.25,-113.5 316.25,-113.5 316.25,-92 449.25,-92 449.25,-113.5"/>
<text text-anchor="middle" x="382.75" y="-98.1" font-family="Helvetica,sans-Serif" font-size="12.00">gameStatus::getName</text>
</a>
</g>
</g>
<!-- Node2&#45;&gt;Node4 -->
<g id="edge11_Node000002_Node000004" class="edge">
<title>Node2&#45;&gt;Node4</title>
<g id="a_edge11_Node000002_Node000004"><a xlink:title=" ">
<path fill="none" stroke="#63b8ff" d="M280.46,-104.6C288.33,-104.45 296.46,-104.31 304.52,-104.16"/>
<polygon fill="#63b8ff" stroke="#63b8ff" points="304.39,-107.66 314.33,-103.98 304.26,-100.66 304.39,-107.66"/>
</a>
</g>
</g>
<!-- Node5 -->
<g id="Node000005" class="node">
<title>Node5</title>
<g id="a_Node000005"><a xlink:href="$classplayers_management.html#ae11bf55369752a338e8084f18269517a" xlink:title="Save the players data in the playersStatics.txt.">
<polygon fill="white" stroke="#666666" points="446.62,-74.25 318.88,-74.25 318.88,-39.25 446.62,-39.25 446.62,-74.25"/>
<text text-anchor="start" x="326.88" y="-58.85" font-family="Helvetica,sans-Serif" font-size="12.00">playersManagement::</text>
<text text-anchor="middle" x="382.75" y="-45.35" font-family="Helvetica,sans-Serif" font-size="12.00">saveData</text>
</a>
</g>
</g>
<!-- Node2&#45;&gt;Node5 -->
<g id="edge12_Node000002_Node000005" class="edge">
<title>Node2&#45;&gt;Node5</title>
<g id="a_edge12_Node000002_Node000005"><a xlink:title=" ">
<path fill="none" stroke="#63b8ff" d="M277.65,-87.78C288.37,-84.59 299.63,-81.23 310.61,-77.96"/>
<polygon fill="#63b8ff" stroke="#63b8ff" points="311.45,-81.36 320.03,-75.15 309.45,-74.65 311.45,-81.36"/>
</a>
</g>
</g>
<!-- Node6&#45;&gt;Node4 -->
<g id="edge15_Node000006_Node000004" class="edge">
<title>Node6&#45;&gt;Node4</title>
<g id="a_edge15_Node000006_Node000004"><a xlink:title=" ">
<path fill="none" stroke="#63b8ff" d="M274.04,-70.75C287.83,-75.06 302.56,-79.62 316.25,-83.75 321.3,-85.27 326.57,-86.84 331.84,-88.39"/>
<polygon fill="#63b8ff" stroke="#63b8ff" points="330.54,-91.66 341.12,-91.11 332.5,-84.94 330.54,-91.66"/>
</a>
</g>
</g>
<!-- Node6&#45;&gt;Node5 -->
<g id="edge16_Node000006_Node000005" class="edge">
<title>Node6&#45;&gt;Node5</title>
<g id="a_edge16_Node000006_Node000005"><a xlink:title=" ">
<path fill="none" stroke="#63b8ff" d="M280.46,-54.29C289.24,-54.5 298.33,-54.72 307.3,-54.94"/>
<polygon fill="#63b8ff" stroke="#63b8ff" points="306.97,-58.43 317.05,-55.18 307.14,-51.43 306.97,-58.43"/>
</a>
</g>
</g>
<!-- Node7 -->
<g id="Node000007" class="node">
<title>Node7</title>
<g id="a_Node000007"><a xlink:href="$classgame_status.html#a8a3a06ec0e05e77736aa5994808c9311" xlink:title="Add a win for the player in this game.">
<polygon fill="white" stroke="#666666" points="445.5,-21.5 320,-21.5 320,0 445.5,0 445.5,-21.5"/>
<text text-anchor="middle" x="382.75" y="-6.1" font-family="Helvetica,sans-Serif" font-size="12.00">gameStatus::addWin</text>
</a>
</g>
</g>
<!-- Node6&#45;&gt;Node7 -->
<g id="edge14_Node000006_Node000007" class="edge">
<title>Node6&#45;&gt;Node7</title>
<g id="a_edge14_Node000006_Node000007"><a xlink:title=" ">
<path fill="none" stroke="#63b8ff" d="M280.46,-36.63C295.75,-32.72 311.98,-28.58 326.86,-24.77"/>
<polygon fill="#63b8ff" stroke="#63b8ff" points="327.65,-28.18 336.48,-22.32 325.92,-21.4 327.65,-28.18"/>
</a>
</g>
</g>
</g>
</svg>
