<?xml version="1.0" encoding="UTF-8" standalone="no"?>
<!DOCTYPE svg PUBLIC "-//W3C//DTD SVG 1.1//EN"
 "http://www.w3.org/Graphics/SVG/1.1/DTD/svg11.dtd">
<!-- Generated by graphviz version 11.0.0 (20240428.1522)
 -->
<!-- Title: stringUtils Pages: 1 -->
<svg width="149pt" height="196pt"
 viewBox="0.00 0.00 149.00 196.00" xmlns="http://www.w3.org/2000/svg" xmlns:xlink="http://www.w3.org/1999/xlink">
<g id="graph0" class="graph" transform="scale(1 1) rotate(0) translate(4 192)">
<title>stringUtils</title>
<!-- Node1 -->
<g id="Node000001" class="node">
<title>Node1</title>
<g id="a_Node000001"><a xlink:title=" ">
<polygon fill="#999999" stroke="none" points="141,-188 0,-188 0,0 141,0 141,-188"/>
<text text-anchor="start" x="45" y="-172.6" font-family="Helvetica,sans-Serif" font-size="12.00">stringUtils</text>
<text text-anchor="start" x="69" y="-155.6" font-family="Helvetica,sans-Serif" font-size="12.00"> </text>
<text text-anchor="start" x="3.62" y="-138.6" font-family="Helvetica,sans-Serif" font-size="12.00">+</text>
<text text-anchor="start" x="14" y="-138.6" font-family="Helvetica,sans-Serif" font-size="12.00">stringUtils()</text>
<text text-anchor="start" x="3.62" y="-121.6" font-family="Helvetica,sans-Serif" font-size="12.00">+</text>
<text text-anchor="start" x="14" y="-121.6" font-family="Helvetica,sans-Serif" font-size="12.00">~stringUtils()</text>
<text text-anchor="start" x="3.62" y="-104.6" font-family="Helvetica,sans-Serif" font-size="12.00">+</text>
<text text-anchor="start" x="14" y="-104.6" font-family="Helvetica,sans-Serif" font-size="12.00">static std::vector</text>
<text text-anchor="start" x="14" y="-91.1" font-family="Helvetica,sans-Serif" font-size="12.00">&lt; std::string &gt; split</text>
<text text-anchor="start" x="14" y="-77.6" font-family="Helvetica,sans-Serif" font-size="12.00">(std::string text, char</text>
<text text-anchor="start" x="14" y="-64.1" font-family="Helvetica,sans-Serif" font-size="12.00"> deliminator)</text>
<text text-anchor="start" x="3.62" y="-46.6" font-family="Helvetica,sans-Serif" font-size="12.00">+</text>
<text text-anchor="start" x="14" y="-46.6" font-family="Helvetica,sans-Serif" font-size="12.00">static std::vector</text>
<text text-anchor="start" x="14" y="-33.1" font-family="Helvetica,sans-Serif" font-size="12.00">&lt; std::string &gt; splitInTwo</text>
<text text-anchor="start" x="14" y="-19.6" font-family="Helvetica,sans-Serif" font-size="12.00">(std::string text, char</text>
<text text-anchor="start" x="14" y="-6.1" font-family="Helvetica,sans-Serif" font-size="12.00"> deliminator)</text>
<polygon fill="#666666" stroke="#666666" points="0,-169 0,-169 141,-169 141,-169 0,-169"/>
<polygon fill="#666666" stroke="#666666" points="0,-152 0,-152 141,-152 141,-152 0,-152"/>
<polygon fill="none" stroke="#666666" points="0,0 0,-188 141,-188 141,0 0,0"/>
</a>
</g>
</g>
</g>
</svg>
