<?xml version="1.0" encoding="UTF-8" standalone="no"?>
<!DOCTYPE svg PUBLIC "-//W3C//DTD SVG 1.1//EN"
 "http://www.w3.org/Graphics/SVG/1.1/DTD/svg11.dtd">
<!-- Generated by graphviz version 11.0.0 (20240428.1522)
 -->
<!-- Title: gameStatus::getName Pages: 1 -->
<svg width="553pt" height="96pt"
 viewBox="0.00 0.00 552.75 96.00" xmlns="http://www.w3.org/2000/svg" xmlns:xlink="http://www.w3.org/1999/xlink">
<g id="graph0" class="graph" transform="scale(1 1) rotate(0) translate(4 92)">
<title>gameStatus::getName</title>
<!-- Node1 -->
<g id="Node000001" class="node">
<title>Node1</title>
<g id="a_Node000001"><a xlink:title="get Name">
<polygon fill="#999999" stroke="#666666" points="544.75,-54.25 411.75,-54.25 411.75,-32.75 544.75,-32.75 544.75,-54.25"/>
<text text-anchor="middle" x="478.25" y="-38.85" font-family="Helvetica,sans-Serif" font-size="12.00">gameStatus::getName</text>
</a>
</g>
</g>
<!-- Node2 -->
<g id="Node000002" class="node">
<title>Node2</title>
<g id="a_Node000002"><a xlink:href="$classplayers_management.html#a4f80e5e54d1cd2273b86af3345c3ece1" xlink:title="Add a lose in the game for the player nick passed.">
<polygon fill="white" stroke="#666666" points="375.75,-88 248,-88 248,-53 375.75,-53 375.75,-88"/>
<text text-anchor="start" x="256" y="-72.6" font-family="Helvetica,sans-Serif" font-size="12.00">playersManagement::</text>
<text text-anchor="middle" x="311.88" y="-59.1" font-family="Helvetica,sans-Serif" font-size="12.00">addLose</text>
</a>
</g>
</g>
<!-- Node1&#45;&gt;Node2 -->
<g id="edge6_Node000001_Node000002" class="edge">
<title>Node1&#45;&gt;Node2</title>
<g id="a_edge6_Node000001_Node000002"><a xlink:title=" ">
<path fill="none" stroke="#63b8ff" d="M400.08,-56.18C392.05,-57.49 383.97,-58.82 376.13,-60.11"/>
<polygon fill="#63b8ff" stroke="#63b8ff" points="400.55,-59.65 409.85,-54.57 399.41,-52.74 400.55,-59.65"/>
</a>
</g>
</g>
<!-- Node5 -->
<g id="Node000005" class="node">
<title>Node5</title>
<g id="a_Node000005"><a xlink:href="$classplayers_management.html#adbef5e6113980c06e9c88dec87a53747" xlink:title="Add a win in the game for the player nick passed.">
<polygon fill="white" stroke="#666666" points="375.75,-35 248,-35 248,0 375.75,0 375.75,-35"/>
<text text-anchor="start" x="256" y="-19.6" font-family="Helvetica,sans-Serif" font-size="12.00">playersManagement::</text>
<text text-anchor="middle" x="311.88" y="-6.1" font-family="Helvetica,sans-Serif" font-size="12.00">addWin</text>
</a>
</g>
</g>
<!-- Node1&#45;&gt;Node5 -->
<g id="edge9_Node000001_Node000005" class="edge">
<title>Node1&#45;&gt;Node5</title>
<g id="a_edge9_Node000001_Node000005"><a xlink:title=" ">
<path fill="none" stroke="#63b8ff" d="M400.08,-31.29C392.05,-30.02 383.97,-28.75 376.13,-27.51"/>
<polygon fill="#63b8ff" stroke="#63b8ff" points="399.42,-34.73 409.84,-32.84 400.51,-27.82 399.42,-34.73"/>
</a>
</g>
</g>
<!-- Node3 -->
<g id="Node000003" class="node">
<title>Node3</title>
<g id="a_Node000003"><a xlink:href="$classgame.html#aa73e185d035361027c0df359d7a6c750" xlink:title="Add one win to the winner and one lose for the loser.">
<polygon fill="white" stroke="#666666" points="212,-54.25 95.5,-54.25 95.5,-32.75 212,-32.75 212,-54.25"/>
<text text-anchor="middle" x="153.75" y="-38.85" font-family="Helvetica,sans-Serif" font-size="12.00">game::winAndLose</text>
</a>
</g>
</g>
<!-- Node2&#45;&gt;Node3 -->
<g id="edge7_Node000002_Node000003" class="edge">
<title>Node2&#45;&gt;Node3</title>
<g id="a_edge7_Node000002_Node000003"><a xlink:title=" ">
<path fill="none" stroke="#63b8ff" d="M236.49,-57.64C228.43,-56.24 220.31,-54.84 212.49,-53.49"/>
<polygon fill="#63b8ff" stroke="#63b8ff" points="235.88,-61.08 246.33,-59.34 237.07,-54.18 235.88,-61.08"/>
</a>
</g>
</g>
<!-- Node4 -->
<g id="Node000004" class="node">
<title>Node4</title>
<g id="a_Node000004"><a xlink:href="$classlig4.html#a412d6bbcae4077e520282b295060abe1" xlink:title=" ">
<polygon fill="white" stroke="#666666" points="59.5,-54.25 0,-54.25 0,-32.75 59.5,-32.75 59.5,-54.25"/>
<text text-anchor="middle" x="29.75" y="-38.85" font-family="Helvetica,sans-Serif" font-size="12.00">lig4::lig4</text>
</a>
</g>
</g>
<!-- Node3&#45;&gt;Node4 -->
<g id="edge8_Node000003_Node000004" class="edge">
<title>Node3&#45;&gt;Node4</title>
<g id="a_edge8_Node000003_Node000004"><a xlink:title=" ">
<path fill="none" stroke="#63b8ff" d="M84.03,-43.5C75.48,-43.5 67.14,-43.5 59.69,-43.5"/>
<polygon fill="#63b8ff" stroke="#63b8ff" points="83.81,-47 93.81,-43.5 83.81,-40 83.81,-47"/>
</a>
</g>
</g>
<!-- Node5&#45;&gt;Node3 -->
<g id="edge10_Node000005_Node000003" class="edge">
<title>Node5&#45;&gt;Node3</title>
<g id="a_edge10_Node000005_Node000003"><a xlink:title=" ">
<path fill="none" stroke="#63b8ff" d="M236.49,-29.89C228.43,-31.23 220.31,-32.58 212.49,-33.88"/>
<polygon fill="#63b8ff" stroke="#63b8ff" points="237.04,-33.34 246.33,-28.25 235.89,-26.44 237.04,-33.34"/>
</a>
</g>
</g>
</g>
</svg>
