<?xml version="1.0" encoding="UTF-8" standalone="no"?>
<!DOCTYPE svg PUBLIC "-//W3C//DTD SVG 1.1//EN"
 "http://www.w3.org/Graphics/SVG/1.1/DTD/svg11.dtd">
<!-- Generated by graphviz version 11.0.0 (20240428.1522)
 -->
<!-- Title: lig4::lig4 Pages: 1 -->
<svg width="504pt" height="252pt"
 viewBox="0.00 0.00 504.00 252.00" xmlns="http://www.w3.org/2000/svg" xmlns:xlink="http://www.w3.org/1999/xlink">
<g id="graph0" class="graph" transform="scale(1 1) rotate(0) translate(4 248)">
<title>lig4::lig4</title>
<!-- Node1 -->
<g id="Node000001" class="node">
<title>Node1</title>
<g id="a_Node000001"><a xlink:title=" ">
<polygon fill="#999999" stroke="#666666" points="52,-156 0,-156 0,-136 52,-136 52,-156"/>
<text text-anchor="middle" x="26" y="-142.5" font-family="Helvetica,sans-Serif" font-size="10.00">lig4::lig4</text>
</a>
</g>
</g>
<!-- Node2 -->
<g id="Node000002" class="node">
<title>Node2</title>
<g id="a_Node000002"><a xlink:href="$classplayers_management.html#a5fbc67ce627de58a27992f49814036d5" xlink:title="Verify the player nick exists in the players.">
<polygon fill="white" stroke="#666666" points="199.25,-244 89.5,-244 89.5,-212 199.25,-212 199.25,-244"/>
<text text-anchor="start" x="97.5" y="-230.5" font-family="Helvetica,sans-Serif" font-size="10.00">playersManagement::</text>
<text text-anchor="middle" x="144.38" y="-218.5" font-family="Helvetica,sans-Serif" font-size="10.00">existPlayer</text>
</a>
</g>
</g>
<!-- Node1&#45;&gt;Node2 -->
<g id="edge15_Node000001_Node000002" class="edge">
<title>Node1&#45;&gt;Node2</title>
<g id="a_edge15_Node000001_Node000002"><a xlink:title=" ">
<path fill="none" stroke="#63b8ff" d="M36.08,-156.35C47.32,-168.68 67.5,-189.34 88,-203 89.6,-204.07 91.25,-205.11 92.94,-206.12"/>
<polygon fill="#63b8ff" stroke="#63b8ff" points="91.14,-209.12 101.59,-210.89 94.52,-202.99 91.14,-209.12"/>
</a>
</g>
</g>
<!-- Node4 -->
<g id="Node000004" class="node">
<title>Node4</title>
<g id="a_Node000004"><a xlink:href="$classlig4.html#ae4f552bdb9d881c9e65817c823f2e4ec" xlink:title=" ">
<polygon fill="white" stroke="#666666" points="177.12,-194 111.62,-194 111.62,-174 177.12,-174 177.12,-194"/>
<text text-anchor="middle" x="144.38" y="-180.5" font-family="Helvetica,sans-Serif" font-size="10.00">lig4::jogada</text>
</a>
</g>
</g>
<!-- Node1&#45;&gt;Node4 -->
<g id="edge17_Node000001_Node000004" class="edge">
<title>Node1&#45;&gt;Node4</title>
<g id="a_edge17_Node000001_Node000004"><a xlink:title=" ">
<path fill="none" stroke="#63b8ff" d="M52.25,-154.25C66.37,-158.86 84.35,-164.73 100.61,-170.03"/>
<polygon fill="#63b8ff" stroke="#63b8ff" points="99.48,-173.35 110.07,-173.13 101.65,-166.69 99.48,-173.35"/>
</a>
</g>
</g>
<!-- Node5 -->
<g id="Node000005" class="node">
<title>Node5</title>
<g id="a_Node000005"><a xlink:href="$classlig4.html#a7dd147e1e5ad2a5f263d291ea60348b9" xlink:title=" ">
<polygon fill="white" stroke="#666666" points="198.88,-156 89.88,-156 89.88,-136 198.88,-136 198.88,-156"/>
<text text-anchor="middle" x="144.38" y="-142.5" font-family="Helvetica,sans-Serif" font-size="10.00">lig4::mostrarTabuleiro</text>
</a>
</g>
</g>
<!-- Node1&#45;&gt;Node5 -->
<g id="edge18_Node000001_Node000005" class="edge">
<title>Node1&#45;&gt;Node5</title>
<g id="a_edge18_Node000001_Node000005"><a xlink:title=" ">
<path fill="none" stroke="#63b8ff" d="M52.25,-146C60.05,-146 69.02,-146 78.22,-146"/>
<polygon fill="#63b8ff" stroke="#63b8ff" points="77.99,-149.5 87.99,-146 77.99,-142.5 77.99,-149.5"/>
</a>
</g>
</g>
<!-- Node6 -->
<g id="Node000006" class="node">
<title>Node6</title>
<g id="a_Node000006"><a xlink:href="$classlig4.html#a4585a1ae772b89f411210402f77335a0" xlink:title=" ">
<polygon fill="white" stroke="#666666" points="200.75,-118 88,-118 88,-98 200.75,-98 200.75,-118"/>
<text text-anchor="middle" x="144.38" y="-104.5" font-family="Helvetica,sans-Serif" font-size="10.00">lig4::verificarAdjacente</text>
</a>
</g>
</g>
<!-- Node1&#45;&gt;Node6 -->
<g id="edge19_Node000001_Node000006" class="edge">
<title>Node1&#45;&gt;Node6</title>
<g id="a_edge19_Node000001_Node000006"><a xlink:title=" ">
<path fill="none" stroke="#63b8ff" d="M52.25,-137.75C66.37,-133.14 84.35,-127.27 100.61,-121.97"/>
<polygon fill="#63b8ff" stroke="#63b8ff" points="101.65,-125.31 110.07,-118.87 99.48,-118.65 101.65,-125.31"/>
</a>
</g>
</g>
<!-- Node7 -->
<g id="Node000007" class="node">
<title>Node7</title>
<g id="a_Node000007"><a xlink:href="$classgame.html#aa73e185d035361027c0df359d7a6c750" xlink:title="Add one win to the winner and one lose for the loser.">
<polygon fill="white" stroke="#666666" points="193.62,-80 95.12,-80 95.12,-60 193.62,-60 193.62,-80"/>
<text text-anchor="middle" x="144.38" y="-66.5" font-family="Helvetica,sans-Serif" font-size="10.00">game::winAndLose</text>
</a>
</g>
</g>
<!-- Node1&#45;&gt;Node7 -->
<g id="edge20_Node000001_Node000007" class="edge">
<title>Node1&#45;&gt;Node7</title>
<g id="a_edge20_Node000001_Node000007"><a xlink:title=" ">
<path fill="none" stroke="#63b8ff" d="M35.49,-135.76C46.44,-123.16 66.63,-101.84 88,-89 90.32,-87.61 92.75,-86.3 95.25,-85.08"/>
<polygon fill="#63b8ff" stroke="#63b8ff" points="96.61,-88.3 104.38,-81.1 93.82,-81.88 96.61,-88.3"/>
</a>
</g>
</g>
<!-- Node3 -->
<g id="Node000003" class="node">
<title>Node3</title>
<g id="a_Node000003"><a xlink:href="$classplayers_management.html#a204346c6cac88493bc66ebdebc4ca537" xlink:title="Load the player data from playersStatics.txt.">
<polygon fill="white" stroke="#666666" points="346.5,-244 236.75,-244 236.75,-212 346.5,-212 346.5,-244"/>
<text text-anchor="start" x="244.75" y="-230.5" font-family="Helvetica,sans-Serif" font-size="10.00">playersManagement::</text>
<text text-anchor="middle" x="291.62" y="-218.5" font-family="Helvetica,sans-Serif" font-size="10.00">loadData</text>
</a>
</g>
</g>
<!-- Node2&#45;&gt;Node3 -->
<g id="edge16_Node000002_Node000003" class="edge">
<title>Node2&#45;&gt;Node3</title>
<g id="a_edge16_Node000002_Node000003"><a xlink:title=" ">
<path fill="none" stroke="#63b8ff" d="M199.46,-228C207.87,-228 216.64,-228 225.27,-228"/>
<polygon fill="#63b8ff" stroke="#63b8ff" points="224.98,-231.5 234.98,-228 224.98,-224.5 224.98,-231.5"/>
</a>
</g>
</g>
<!-- Node8 -->
<g id="Node000008" class="node">
<title>Node8</title>
<g id="a_Node000008"><a xlink:href="$classplayers_management.html#a4f80e5e54d1cd2273b86af3345c3ece1" xlink:title="Add a lose in the game for the player nick passed.">
<polygon fill="white" stroke="#666666" points="346.5,-61 236.75,-61 236.75,-29 346.5,-29 346.5,-61"/>
<text text-anchor="start" x="244.75" y="-47.5" font-family="Helvetica,sans-Serif" font-size="10.00">playersManagement::</text>
<text text-anchor="middle" x="291.62" y="-35.5" font-family="Helvetica,sans-Serif" font-size="10.00">addLose</text>
</a>
</g>
</g>
<!-- Node7&#45;&gt;Node8 -->
<g id="edge21_Node000007_Node000008" class="edge">
<title>Node7&#45;&gt;Node8</title>
<g id="a_edge21_Node000007_Node000008"><a xlink:title=" ">
<path fill="none" stroke="#63b8ff" d="M193.74,-61.68C203.8,-59.94 214.56,-58.09 225.12,-56.27"/>
<polygon fill="#63b8ff" stroke="#63b8ff" points="225.71,-59.73 234.97,-54.58 224.52,-52.83 225.71,-59.73"/>
</a>
</g>
</g>
<!-- Node12 -->
<g id="Node000012" class="node">
<title>Node12</title>
<g id="a_Node000012"><a xlink:href="$classplayers_management.html#adbef5e6113980c06e9c88dec87a53747" xlink:title="Add a win in the game for the player nick passed.">
<polygon fill="white" stroke="#666666" points="346.5,-111 236.75,-111 236.75,-79 346.5,-79 346.5,-111"/>
<text text-anchor="start" x="244.75" y="-97.5" font-family="Helvetica,sans-Serif" font-size="10.00">playersManagement::</text>
<text text-anchor="middle" x="291.62" y="-85.5" font-family="Helvetica,sans-Serif" font-size="10.00">addWin</text>
</a>
</g>
</g>
<!-- Node7&#45;&gt;Node12 -->
<g id="edge25_Node000007_Node000012" class="edge">
<title>Node7&#45;&gt;Node12</title>
<g id="a_edge25_Node000007_Node000012"><a xlink:title=" ">
<path fill="none" stroke="#63b8ff" d="M193.74,-78.32C203.8,-80.06 214.56,-81.91 225.12,-83.73"/>
<polygon fill="#63b8ff" stroke="#63b8ff" points="224.52,-87.17 234.97,-85.42 225.71,-80.27 224.52,-87.17"/>
</a>
</g>
</g>
<!-- Node9 -->
<g id="Node000009" class="node">
<title>Node9</title>
<g id="a_Node000009"><a xlink:href="$classgame_status.html#a72e4abd5d73b95d8c5300b7e9c210579" xlink:title="Add a lose for the player in this game.">
<polygon fill="white" stroke="#666666" points="494.88,-20 383.62,-20 383.62,0 494.88,0 494.88,-20"/>
<text text-anchor="middle" x="439.25" y="-6.5" font-family="Helvetica,sans-Serif" font-size="10.00">gameStatus::addLose</text>
</a>
</g>
</g>
<!-- Node8&#45;&gt;Node9 -->
<g id="edge22_Node000008_Node000009" class="edge">
<title>Node8&#45;&gt;Node9</title>
<g id="a_edge22_Node000008_Node000009"><a xlink:title=" ">
<path fill="none" stroke="#63b8ff" d="M346.85,-31.97C358.99,-29.05 371.86,-25.96 383.99,-23.04"/>
<polygon fill="#63b8ff" stroke="#63b8ff" points="384.51,-26.51 393.42,-20.77 382.88,-19.71 384.51,-26.51"/>
</a>
</g>
</g>
<!-- Node10 -->
<g id="Node000010" class="node">
<title>Node10</title>
<g id="a_Node000010"><a xlink:href="$classgame_status.html#a4ab21c8ec9f2dbe1f408dbdb553e5e52" xlink:title="get Name">
<polygon fill="white" stroke="#666666" points="496,-58 382.5,-58 382.5,-38 496,-38 496,-58"/>
<text text-anchor="middle" x="439.25" y="-44.5" font-family="Helvetica,sans-Serif" font-size="10.00">gameStatus::getName</text>
</a>
</g>
</g>
<!-- Node8&#45;&gt;Node10 -->
<g id="edge23_Node000008_Node000010" class="edge">
<title>Node8&#45;&gt;Node10</title>
<g id="a_edge23_Node000008_Node000010"><a xlink:title=" ">
<path fill="none" stroke="#63b8ff" d="M346.85,-46.12C354.66,-46.28 362.77,-46.44 370.79,-46.61"/>
<polygon fill="#63b8ff" stroke="#63b8ff" points="370.45,-50.1 380.52,-46.81 370.59,-43.11 370.45,-50.1"/>
</a>
</g>
</g>
<!-- Node11 -->
<g id="Node000011" class="node">
<title>Node11</title>
<g id="a_Node000011"><a xlink:href="$classplayers_management.html#ae11bf55369752a338e8084f18269517a" xlink:title="Save the players data in the playersStatics.txt.">
<polygon fill="white" stroke="#666666" points="494.12,-108 384.38,-108 384.38,-76 494.12,-76 494.12,-108"/>
<text text-anchor="start" x="392.38" y="-94.5" font-family="Helvetica,sans-Serif" font-size="10.00">playersManagement::</text>
<text text-anchor="middle" x="439.25" y="-82.5" font-family="Helvetica,sans-Serif" font-size="10.00">saveData</text>
</a>
</g>
</g>
<!-- Node8&#45;&gt;Node11 -->
<g id="edge24_Node000008_Node000011" class="edge">
<title>Node8&#45;&gt;Node11</title>
<g id="a_edge24_Node000008_Node000011"><a xlink:title=" ">
<path fill="none" stroke="#63b8ff" d="M343.56,-61.44C354.26,-64.89 365.66,-68.57 376.7,-72.14"/>
<polygon fill="#63b8ff" stroke="#63b8ff" points="375.56,-75.44 386.15,-75.19 377.71,-68.78 375.56,-75.44"/>
</a>
</g>
</g>
<!-- Node12&#45;&gt;Node10 -->
<g id="edge27_Node000012_Node000010" class="edge">
<title>Node12&#45;&gt;Node10</title>
<g id="a_edge27_Node000012_Node000010"><a xlink:title=" ">
<path fill="none" stroke="#63b8ff" d="M343.56,-78.56C360.35,-73.14 378.86,-67.17 395.02,-61.95"/>
<polygon fill="#63b8ff" stroke="#63b8ff" points="395.9,-65.35 404.34,-58.94 393.75,-58.68 395.9,-65.35"/>
</a>
</g>
</g>
<!-- Node12&#45;&gt;Node11 -->
<g id="edge28_Node000012_Node000011" class="edge">
<title>Node12&#45;&gt;Node11</title>
<g id="a_edge28_Node000012_Node000011"><a xlink:title=" ">
<path fill="none" stroke="#63b8ff" d="M346.85,-93.88C355.28,-93.71 364.08,-93.53 372.73,-93.35"/>
<polygon fill="#63b8ff" stroke="#63b8ff" points="372.54,-96.85 382.47,-93.15 372.4,-89.86 372.54,-96.85"/>
</a>
</g>
</g>
<!-- Node13 -->
<g id="Node000013" class="node">
<title>Node13</title>
<g id="a_Node000013"><a xlink:href="$classgame_status.html#a8a3a06ec0e05e77736aa5994808c9311" xlink:title="Add a win for the player in this game.">
<polygon fill="white" stroke="#666666" points="493,-146 385.5,-146 385.5,-126 493,-126 493,-146"/>
<text text-anchor="middle" x="439.25" y="-132.5" font-family="Helvetica,sans-Serif" font-size="10.00">gameStatus::addWin</text>
</a>
</g>
</g>
<!-- Node12&#45;&gt;Node13 -->
<g id="edge26_Node000012_Node000013" class="edge">
<title>Node12&#45;&gt;Node13</title>
<g id="a_edge26_Node000012_Node000013"><a xlink:title=" ">
<path fill="none" stroke="#63b8ff" d="M346.85,-110.27C361.14,-114.29 376.46,-118.6 390.39,-122.53"/>
<polygon fill="#63b8ff" stroke="#63b8ff" points="389.19,-125.82 399.76,-125.16 391.09,-119.09 389.19,-125.82"/>
</a>
</g>
</g>
</g>
</svg>
