<?xml version="1.0" encoding="UTF-8" standalone="no"?>
<!DOCTYPE svg PUBLIC "-//W3C//DTD SVG 1.1//EN"
 "http://www.w3.org/Graphics/SVG/1.1/DTD/svg11.dtd">
<!-- Generated by graphviz version 11.0.0 (20240428.1522)
 -->
<!-- Title: player::player Pages: 1 -->
<svg width="253pt" height="70pt"
 viewBox="0.00 0.00 253.00 69.50" xmlns="http://www.w3.org/2000/svg" xmlns:xlink="http://www.w3.org/1999/xlink">
<g id="graph0" class="graph" transform="scale(1 1) rotate(0) translate(4 65.5)">
<title>player::player</title>
<!-- Node1 -->
<g id="Node000001" class="node">
<title>Node1</title>
<g id="a_Node000001"><a xlink:title="Create the player class based by player string line.">
<polygon fill="#999999" stroke="#666666" points="85,-41.5 0,-41.5 0,-20 85,-20 85,-41.5"/>
<text text-anchor="middle" x="42.5" y="-26.1" font-family="Helvetica,sans-Serif" font-size="12.00">player::player</text>
</a>
</g>
</g>
<!-- Node2 -->
<g id="Node000002" class="node">
<title>Node2</title>
<g id="a_Node000002"><a xlink:href="$classstring_utils.html#a13c1603c08fd6d8e43399d0fe90d7f86" xlink:title="Split a string with end deliminator.">
<polygon fill="white" stroke="#666666" points="230,-61.5 136,-61.5 136,-40 230,-40 230,-61.5"/>
<text text-anchor="middle" x="183" y="-46.1" font-family="Helvetica,sans-Serif" font-size="12.00">stringUtils::split</text>
</a>
</g>
</g>
<!-- Node1&#45;&gt;Node2 -->
<g id="edge3_Node000001_Node000002" class="edge">
<title>Node1&#45;&gt;Node2</title>
<g id="a_edge3_Node000001_Node000002"><a xlink:title=" ">
<path fill="none" stroke="#63b8ff" d="M85.43,-36.8C97.75,-38.58 111.44,-40.56 124.54,-42.45"/>
<polygon fill="#63b8ff" stroke="#63b8ff" points="123.97,-45.91 134.37,-43.87 124.97,-38.98 123.97,-45.91"/>
</a>
</g>
</g>
<!-- Node3 -->
<g id="Node000003" class="node">
<title>Node3</title>
<g id="a_Node000003"><a xlink:href="$classstring_utils.html#a56360121f6f79af10301405900535ea2" xlink:title=" ">
<polygon fill="white" stroke="#666666" points="245,-21.5 121,-21.5 121,0 245,0 245,-21.5"/>
<text text-anchor="middle" x="183" y="-6.1" font-family="Helvetica,sans-Serif" font-size="12.00">stringUtils::splitInTwo</text>
</a>
</g>
</g>
<!-- Node1&#45;&gt;Node3 -->
<g id="edge4_Node000001_Node000003" class="edge">
<title>Node1&#45;&gt;Node3</title>
<g id="a_edge4_Node000001_Node000003"><a xlink:title=" ">
<path fill="none" stroke="#63b8ff" d="M85.43,-24.7C93.04,-23.6 101.17,-22.42 109.37,-21.24"/>
<polygon fill="#63b8ff" stroke="#63b8ff" points="109.64,-24.73 119.04,-19.84 108.64,-17.81 109.64,-24.73"/>
</a>
</g>
</g>
</g>
</svg>
