<?xml version="1.0" encoding="UTF-8" standalone="no"?>
<!DOCTYPE svg PUBLIC "-//W3C//DTD SVG 1.1//EN"
 "http://www.w3.org/Graphics/SVG/1.1/DTD/svg11.dtd">
<!-- Generated by graphviz version 11.0.0 (20240428.1522)
 -->
<!-- Title: playersManagement::saveData Pages: 1 -->
<svg width="585pt" height="202pt"
 viewBox="0.00 0.00 585.00 202.00" xmlns="http://www.w3.org/2000/svg" xmlns:xlink="http://www.w3.org/1999/xlink">
<g id="graph0" class="graph" transform="scale(1 1) rotate(0) translate(4 198)">
<title>playersManagement::saveData</title>
<!-- Node1 -->
<g id="Node000001" class="node">
<title>Node1</title>
<g id="a_Node000001"><a xlink:title="Save the players data in the playersStatics.txt.">
<polygon fill="#999999" stroke="#666666" points="577,-114 449.25,-114 449.25,-79 577,-79 577,-114"/>
<text text-anchor="start" x="457.25" y="-98.6" font-family="Helvetica,sans-Serif" font-size="12.00">playersManagement::</text>
<text text-anchor="middle" x="513.12" y="-85.1" font-family="Helvetica,sans-Serif" font-size="12.00">saveData</text>
</a>
</g>
</g>
<!-- Node2 -->
<g id="Node000002" class="node">
<title>Node2</title>
<g id="a_Node000002"><a xlink:href="$classplayers_management.html#a4f80e5e54d1cd2273b86af3345c3ece1" xlink:title="Add a lose in the game for the player nick passed.">
<polygon fill="white" stroke="#666666" points="413.25,-194 285.5,-194 285.5,-159 413.25,-159 413.25,-194"/>
<text text-anchor="start" x="293.5" y="-178.6" font-family="Helvetica,sans-Serif" font-size="12.00">playersManagement::</text>
<text text-anchor="middle" x="349.38" y="-165.1" font-family="Helvetica,sans-Serif" font-size="12.00">addLose</text>
</a>
</g>
</g>
<!-- Node1&#45;&gt;Node2 -->
<g id="edge10_Node000001_Node000002" class="edge">
<title>Node1&#45;&gt;Node2</title>
<g id="a_edge10_Node000001_Node000002"><a xlink:title=" ">
<path fill="none" stroke="#63b8ff" d="M471.43,-120.01C453.78,-129.87 432.72,-141.19 413.25,-150.5 407.5,-153.25 401.37,-156 395.29,-158.62"/>
<polygon fill="#63b8ff" stroke="#63b8ff" points="473.09,-123.1 480.08,-115.14 469.65,-117 473.09,-123.1"/>
</a>
</g>
</g>
<!-- Node5 -->
<g id="Node000005" class="node">
<title>Node5</title>
<g id="a_Node000005"><a xlink:href="$classplayers_management.html#a4811873370311ad6f3a50600d1fd9237" xlink:title="Add a player by the name or nickname.">
<polygon fill="white" stroke="#666666" points="413.25,-88 285.5,-88 285.5,-53 413.25,-53 413.25,-88"/>
<text text-anchor="start" x="293.5" y="-72.6" font-family="Helvetica,sans-Serif" font-size="12.00">playersManagement::</text>
<text text-anchor="middle" x="349.38" y="-59.1" font-family="Helvetica,sans-Serif" font-size="12.00">addPlayer</text>
</a>
</g>
</g>
<!-- Node1&#45;&gt;Node5 -->
<g id="edge13_Node000001_Node000005" class="edge">
<title>Node1&#45;&gt;Node5</title>
<g id="a_edge13_Node000001_Node000005"><a xlink:title=" ">
<path fill="none" stroke="#63b8ff" d="M437.83,-84.56C429.78,-83.26 421.64,-81.96 413.74,-80.68"/>
<polygon fill="#63b8ff" stroke="#63b8ff" points="437.2,-88 447.63,-86.13 438.31,-81.09 437.2,-88"/>
</a>
</g>
</g>
<!-- Node7 -->
<g id="Node000007" class="node">
<title>Node7</title>
<g id="a_Node000007"><a xlink:href="$classplayers_management.html#adbef5e6113980c06e9c88dec87a53747" xlink:title="Add a win in the game for the player nick passed.">
<polygon fill="white" stroke="#666666" points="413.25,-141 285.5,-141 285.5,-106 413.25,-106 413.25,-141"/>
<text text-anchor="start" x="293.5" y="-125.6" font-family="Helvetica,sans-Serif" font-size="12.00">playersManagement::</text>
<text text-anchor="middle" x="349.38" y="-112.1" font-family="Helvetica,sans-Serif" font-size="12.00">addWin</text>
</a>
</g>
</g>
<!-- Node1&#45;&gt;Node7 -->
<g id="edge15_Node000001_Node000007" class="edge">
<title>Node1&#45;&gt;Node7</title>
<g id="a_edge15_Node000001_Node000007"><a xlink:title=" ">
<path fill="none" stroke="#63b8ff" d="M437.83,-108.9C429.78,-110.25 421.64,-111.6 413.74,-112.92"/>
<polygon fill="#63b8ff" stroke="#63b8ff" points="438.34,-112.36 447.63,-107.27 437.19,-105.46 438.34,-112.36"/>
</a>
</g>
</g>
<!-- Node8 -->
<g id="Node000008" class="node">
<title>Node8</title>
<g id="a_Node000008"><a xlink:href="$classplayers_management.html#af87e977506a2a553a91a4e047e9d713b" xlink:title="Remove a player by the name or nickname.">
<polygon fill="white" stroke="#666666" points="413.25,-35 285.5,-35 285.5,0 413.25,0 413.25,-35"/>
<text text-anchor="start" x="293.5" y="-19.6" font-family="Helvetica,sans-Serif" font-size="12.00">playersManagement::</text>
<text text-anchor="middle" x="349.38" y="-6.1" font-family="Helvetica,sans-Serif" font-size="12.00">removePlayer</text>
</a>
</g>
</g>
<!-- Node1&#45;&gt;Node8 -->
<g id="edge17_Node000001_Node000008" class="edge">
<title>Node1&#45;&gt;Node8</title>
<g id="a_edge17_Node000001_Node000008"><a xlink:title=" ">
<path fill="none" stroke="#63b8ff" d="M469.67,-73.24C452.33,-63.98 431.98,-53.43 413.25,-44.5 406.92,-41.48 400.17,-38.42 393.53,-35.5"/>
<polygon fill="#63b8ff" stroke="#63b8ff" points="467.7,-76.15 478.16,-77.8 471.01,-69.98 467.7,-76.15"/>
</a>
</g>
</g>
<!-- Node3 -->
<g id="Node000003" class="node">
<title>Node3</title>
<g id="a_Node000003"><a xlink:href="$classgame.html#aa73e185d035361027c0df359d7a6c750" xlink:title="Add one win to the winner and one lose for the loser.">
<polygon fill="white" stroke="#666666" points="230.75,-160.25 114.25,-160.25 114.25,-138.75 230.75,-138.75 230.75,-160.25"/>
<text text-anchor="middle" x="172.5" y="-144.85" font-family="Helvetica,sans-Serif" font-size="12.00">game::winAndLose</text>
</a>
</g>
</g>
<!-- Node2&#45;&gt;Node3 -->
<g id="edge11_Node000002_Node000003" class="edge">
<title>Node2&#45;&gt;Node3</title>
<g id="a_edge11_Node000002_Node000003"><a xlink:title=" ">
<path fill="none" stroke="#63b8ff" d="M273.87,-165C259.53,-162.78 244.72,-160.5 231.02,-158.38"/>
<polygon fill="#63b8ff" stroke="#63b8ff" points="273.33,-168.45 283.75,-166.52 274.4,-161.54 273.33,-168.45"/>
</a>
</g>
</g>
<!-- Node4 -->
<g id="Node000004" class="node">
<title>Node4</title>
<g id="a_Node000004"><a xlink:href="$classlig4.html#a412d6bbcae4077e520282b295060abe1" xlink:title=" ">
<polygon fill="white" stroke="#666666" points="59.5,-160.25 0,-160.25 0,-138.75 59.5,-138.75 59.5,-160.25"/>
<text text-anchor="middle" x="29.75" y="-144.85" font-family="Helvetica,sans-Serif" font-size="12.00">lig4::lig4</text>
</a>
</g>
</g>
<!-- Node3&#45;&gt;Node4 -->
<g id="edge12_Node000003_Node000004" class="edge">
<title>Node3&#45;&gt;Node4</title>
<g id="a_edge12_Node000003_Node000004"><a xlink:title=" ">
<path fill="none" stroke="#63b8ff" d="M102.45,-149.5C87.47,-149.5 72.41,-149.5 59.99,-149.5"/>
<polygon fill="#63b8ff" stroke="#63b8ff" points="102.33,-153 112.33,-149.5 102.33,-146 102.33,-153"/>
</a>
</g>
</g>
<!-- Node6 -->
<g id="Node000006" class="node">
<title>Node6</title>
<g id="a_Node000006"><a xlink:href="$classplayers_menu.html#adebfb8ff936b89b3ff360585910dbd47" xlink:title=" ">
<polygon fill="white" stroke="#666666" points="249.5,-55.25 95.5,-55.25 95.5,-33.75 249.5,-33.75 249.5,-55.25"/>
<text text-anchor="middle" x="172.5" y="-39.85" font-family="Helvetica,sans-Serif" font-size="12.00">playersMenu::playersMenu</text>
</a>
</g>
</g>
<!-- Node5&#45;&gt;Node6 -->
<g id="edge14_Node000005_Node000006" class="edge">
<title>Node5&#45;&gt;Node6</title>
<g id="a_edge14_Node000005_Node000006"><a xlink:title=" ">
<path fill="none" stroke="#63b8ff" d="M274.08,-59.45C265.8,-58.22 257.35,-56.97 249.06,-55.73"/>
<polygon fill="#63b8ff" stroke="#63b8ff" points="273.34,-62.88 283.74,-60.89 274.37,-55.96 273.34,-62.88"/>
</a>
</g>
</g>
<!-- Node7&#45;&gt;Node3 -->
<g id="edge16_Node000007_Node000003" class="edge">
<title>Node7&#45;&gt;Node3</title>
<g id="a_edge16_Node000007_Node000003"><a xlink:title=" ">
<path fill="none" stroke="#63b8ff" d="M273.87,-134.58C259.53,-136.71 244.72,-138.91 231.02,-140.95"/>
<polygon fill="#63b8ff" stroke="#63b8ff" points="274.37,-138.04 283.74,-133.11 273.34,-131.12 274.37,-138.04"/>
</a>
</g>
</g>
<!-- Node8&#45;&gt;Node6 -->
<g id="edge18_Node000008_Node000006" class="edge">
<title>Node8&#45;&gt;Node6</title>
<g id="a_edge18_Node000008_Node000006"><a xlink:title=" ">
<path fill="none" stroke="#63b8ff" d="M274.14,-28.96C264.94,-30.38 255.53,-31.83 246.35,-33.25"/>
<polygon fill="#63b8ff" stroke="#63b8ff" points="274.4,-32.46 283.75,-27.48 273.33,-25.55 274.4,-32.46"/>
</a>
</g>
</g>
</g>
</svg>
