<?xml version="1.0" encoding="UTF-8" standalone="no"?>
<!DOCTYPE svg PUBLIC "-//W3C//DTD SVG 1.1//EN"
 "http://www.w3.org/Graphics/SVG/1.1/DTD/svg11.dtd">
<!-- Generated by graphviz version 11.0.0 (20240428.1522)
 -->
<!-- Title: game Pages: 1 -->
<svg width="203pt" height="420pt"
 viewBox="0.00 0.00 203.00 420.00" xmlns="http://www.w3.org/2000/svg" xmlns:xlink="http://www.w3.org/1999/xlink">
<g id="graph0" class="graph" transform="scale(1 1) rotate(0) translate(4 416)">
<title>game</title>
<!-- Node1 -->
<g id="Node000001" class="node">
<title>Node1</title>
<g id="a_Node000001"><a xlink:title="Abstract class game.">
<polygon fill="#999999" stroke="none" points="195,-412 0,-412 0,-169 195,-169 195,-412"/>
<text text-anchor="start" x="82.5" y="-396.6" font-family="Helvetica,sans-Serif" font-size="12.00">game</text>
<text text-anchor="start" x="3.62" y="-379.6" font-family="Helvetica,sans-Serif" font-size="12.00">#</text>
<text text-anchor="start" x="14" y="-379.6" font-family="Helvetica,sans-Serif" font-size="12.00">std::string name</text>
<text text-anchor="start" x="3.62" y="-362.6" font-family="Helvetica,sans-Serif" font-size="12.00">#</text>
<text text-anchor="start" x="14" y="-362.6" font-family="Helvetica,sans-Serif" font-size="12.00">int rows</text>
<text text-anchor="start" x="3.62" y="-345.6" font-family="Helvetica,sans-Serif" font-size="12.00">#</text>
<text text-anchor="start" x="14" y="-345.6" font-family="Helvetica,sans-Serif" font-size="12.00">int cols</text>
<text text-anchor="start" x="3.62" y="-328.6" font-family="Helvetica,sans-Serif" font-size="12.00">#</text>
<text text-anchor="start" x="14" y="-328.6" font-family="Helvetica,sans-Serif" font-size="12.00">std::vector&lt; std::vector</text>
<text text-anchor="start" x="14" y="-315.1" font-family="Helvetica,sans-Serif" font-size="12.00">&lt; char &gt; &gt; tabuleiro</text>
<text text-anchor="start" x="3.62" y="-297.6" font-family="Helvetica,sans-Serif" font-size="12.00">#</text>
<text text-anchor="start" x="14" y="-297.6" font-family="Helvetica,sans-Serif" font-size="12.00">playersManagement management</text>
<text text-anchor="start" x="3.62" y="-280.6" font-family="Helvetica,sans-Serif" font-size="12.00">+</text>
<text text-anchor="start" x="14" y="-280.6" font-family="Helvetica,sans-Serif" font-size="12.00">game(int _rows, int</text>
<text text-anchor="start" x="14" y="-267.1" font-family="Helvetica,sans-Serif" font-size="12.00"> _cols)</text>
<text text-anchor="start" x="3.62" y="-249.6" font-family="Helvetica,sans-Serif" font-size="12.00">+</text>
<text text-anchor="start" x="14" y="-249.6" font-family="Helvetica,sans-Serif" font-size="12.00">~game()</text>
<text text-anchor="start" x="3.62" y="-232.6" font-family="Helvetica,sans-Serif" font-size="12.00">+</text>
<text text-anchor="start" x="14" y="-232.6" font-family="Helvetica,sans-Serif" font-size="12.00">virtual void changeElement</text>
<text text-anchor="start" x="14" y="-219.1" font-family="Helvetica,sans-Serif" font-size="12.00">(int x, int y, char element)</text>
<text text-anchor="start" x="3.62" y="-201.6" font-family="Helvetica,sans-Serif" font-size="12.00">+</text>
<text text-anchor="start" x="14" y="-201.6" font-family="Helvetica,sans-Serif" font-size="12.00">virtual void winAndLose</text>
<text text-anchor="start" x="14" y="-188.1" font-family="Helvetica,sans-Serif" font-size="12.00">(std::string winner, std</text>
<text text-anchor="start" x="14" y="-174.6" font-family="Helvetica,sans-Serif" font-size="12.00">::string loser)</text>
<polygon fill="#666666" stroke="#666666" points="0,-393 0,-393 195,-393 195,-393 0,-393"/>
<polygon fill="#666666" stroke="#666666" points="0,-294 0,-294 12,-294 12,-294 0,-294"/>
<polygon fill="#666666" stroke="#666666" points="12,-294 12,-294 195,-294 195,-294 12,-294"/>
<polygon fill="none" stroke="#666666" points="0,-169 0,-412 195,-412 195,-169 0,-169"/>
</a>
</g>
</g>
<!-- Node2 -->
<g id="Node000002" class="node">
<title>Node2</title>
<g id="a_Node000002"><a xlink:href="$classlig4.html" xlink:title=" ">
<polygon fill="white" stroke="none" points="169,-133 26,-133 26,0 169,0 169,-133"/>
<text text-anchor="start" x="88.12" y="-117.6" font-family="Helvetica,sans-Serif" font-size="12.00">lig4</text>
<text text-anchor="start" x="96" y="-100.6" font-family="Helvetica,sans-Serif" font-size="12.00"> </text>
<text text-anchor="start" x="29.62" y="-83.6" font-family="Helvetica,sans-Serif" font-size="12.00">+</text>
<text text-anchor="start" x="40" y="-83.6" font-family="Helvetica,sans-Serif" font-size="12.00">lig4()</text>
<text text-anchor="start" x="29.62" y="-66.6" font-family="Helvetica,sans-Serif" font-size="12.00">+</text>
<text text-anchor="start" x="40" y="-66.6" font-family="Helvetica,sans-Serif" font-size="12.00">void mostrarTabuleiro()</text>
<text text-anchor="start" x="29.62" y="-49.6" font-family="Helvetica,sans-Serif" font-size="12.00">+</text>
<text text-anchor="start" x="40" y="-49.6" font-family="Helvetica,sans-Serif" font-size="12.00">void jogada(int posicao)</text>
<text text-anchor="start" x="29.62" y="-32.6" font-family="Helvetica,sans-Serif" font-size="12.00">+</text>
<text text-anchor="start" x="40" y="-32.6" font-family="Helvetica,sans-Serif" font-size="12.00">bool verificarAdjacente</text>
<text text-anchor="start" x="40" y="-19.1" font-family="Helvetica,sans-Serif" font-size="12.00">(int linha, int coluna,</text>
<text text-anchor="start" x="40" y="-5.6" font-family="Helvetica,sans-Serif" font-size="12.00"> char time)</text>
<polygon fill="#666666" stroke="#666666" points="26,-114 26,-114 169,-114 169,-114 26,-114"/>
<polygon fill="#666666" stroke="#666666" points="26,-97 26,-97 169,-97 169,-97 26,-97"/>
<polygon fill="none" stroke="#666666" points="26,0 26,-133 169,-133 169,0 26,0"/>
</a>
</g>
</g>
<!-- Node1&#45;&gt;Node2 -->
<g id="edge2_Node000001_Node000002" class="edge">
<title>Node1&#45;&gt;Node2</title>
<g id="a_edge2_Node000001_Node000002"><a xlink:title=" ">
<path fill="none" stroke="#63b8ff" d="M97.5,-157.77C97.5,-149.24 97.5,-140.87 97.5,-132.88"/>
<polygon fill="none" stroke="#63b8ff" points="94,-157.57 97.5,-167.57 101,-157.57 94,-157.57"/>
</a>
</g>
</g>
</g>
</svg>
