<?xml version="1.0" encoding="UTF-8" standalone="no"?>
<!DOCTYPE svg PUBLIC "-//W3C//DTD SVG 1.1//EN"
 "http://www.w3.org/Graphics/SVG/1.1/DTD/svg11.dtd">
<!-- Generated by graphviz version 11.0.0 (20240428.1522)
 -->
<!-- Title: player::player Pages: 1 -->
<svg width="227pt" height="66pt"
 viewBox="0.00 0.00 226.75 66.00" xmlns="http://www.w3.org/2000/svg" xmlns:xlink="http://www.w3.org/1999/xlink">
<g id="graph0" class="graph" transform="scale(1 1) rotate(0) translate(4 62)">
<title>player::player</title>
<!-- Node1 -->
<g id="Node000001" class="node">
<title>Node1</title>
<g id="a_Node000001"><a xlink:title="Create the player class based by player string line.">
<polygon fill="#999999" stroke="#666666" points="74.5,-39 0,-39 0,-19 74.5,-19 74.5,-39"/>
<text text-anchor="middle" x="37.25" y="-25.5" font-family="Helvetica,sans-Serif" font-size="10.00">player::player</text>
</a>
</g>
</g>
<!-- Node2 -->
<g id="Node000002" class="node">
<title>Node2</title>
<g id="a_Node000002"><a xlink:href="$classstring_utils.html#a13c1603c08fd6d8e43399d0fe90d7f86" xlink:title="Split a string with end deliminator.">
<polygon fill="white" stroke="#666666" points="206.38,-58 122.88,-58 122.88,-38 206.38,-38 206.38,-58"/>
<text text-anchor="middle" x="164.62" y="-44.5" font-family="Helvetica,sans-Serif" font-size="10.00">stringUtils::split</text>
</a>
</g>
</g>
<!-- Node1&#45;&gt;Node2 -->
<g id="edge3_Node000001_Node000002" class="edge">
<title>Node1&#45;&gt;Node2</title>
<g id="a_edge3_Node000001_Node000002"><a xlink:title=" ">
<path fill="none" stroke="#63b8ff" d="M74.85,-34.55C86.36,-36.29 99.3,-38.25 111.66,-40.13"/>
<polygon fill="#63b8ff" stroke="#63b8ff" points="110.89,-43.55 121.3,-41.59 111.94,-36.63 110.89,-43.55"/>
</a>
</g>
</g>
<!-- Node3 -->
<g id="Node000003" class="node">
<title>Node3</title>
<g id="a_Node000003"><a xlink:href="$classstring_utils.html#a56360121f6f79af10301405900535ea2" xlink:title=" ">
<polygon fill="white" stroke="#666666" points="218.75,-20 110.5,-20 110.5,0 218.75,0 218.75,-20"/>
<text text-anchor="middle" x="164.62" y="-6.5" font-family="Helvetica,sans-Serif" font-size="10.00">stringUtils::splitInTwo</text>
</a>
</g>
</g>
<!-- Node1&#45;&gt;Node3 -->
<g id="edge4_Node000001_Node000003" class="edge">
<title>Node1&#45;&gt;Node3</title>
<g id="a_edge4_Node000001_Node000003"><a xlink:title=" ">
<path fill="none" stroke="#63b8ff" d="M74.85,-23.45C82.5,-22.29 90.79,-21.04 99.11,-19.78"/>
<polygon fill="#63b8ff" stroke="#63b8ff" points="99.58,-23.25 108.94,-18.29 98.53,-16.32 99.58,-23.25"/>
</a>
</g>
</g>
</g>
</svg>
