<?xml version="1.0" encoding="UTF-8" standalone="no"?>
<!DOCTYPE svg PUBLIC "-//W3C//DTD SVG 1.1//EN"
 "http://www.w3.org/Graphics/SVG/1.1/DTD/svg11.dtd">
<!-- Generated by graphviz version 11.0.0 (20240428.1522)
 -->
<!-- Title: playersMenu::playersMenu Pages: 1 -->
<svg width="433pt" height="140pt"
 viewBox="0.00 0.00 432.50 140.00" xmlns="http://www.w3.org/2000/svg" xmlns:xlink="http://www.w3.org/1999/xlink">
<g id="graph0" class="graph" transform="scale(1 1) rotate(0) translate(4 136)">
<title>playersMenu::playersMenu</title>
<!-- Node1 -->
<g id="Node000001" class="node">
<title>Node1</title>
<g id="a_Node000001"><a xlink:title=" ">
<polygon fill="#999999" stroke="#666666" points="133,-76 0,-76 0,-56 133,-56 133,-76"/>
<text text-anchor="middle" x="66.5" y="-62.5" font-family="Helvetica,sans-Serif" font-size="10.00">playersMenu::playersMenu</text>
</a>
</g>
</g>
<!-- Node2 -->
<g id="Node000002" class="node">
<title>Node2</title>
<g id="a_Node000002"><a xlink:href="$classplayers_management.html#a4811873370311ad6f3a50600d1fd9237" xlink:title="Add a player by the name or nickname.">
<polygon fill="white" stroke="#666666" points="278.75,-132 169,-132 169,-100 278.75,-100 278.75,-132"/>
<text text-anchor="start" x="177" y="-118.5" font-family="Helvetica,sans-Serif" font-size="10.00">playersManagement::</text>
<text text-anchor="middle" x="223.88" y="-106.5" font-family="Helvetica,sans-Serif" font-size="10.00">addPlayer</text>
</a>
</g>
</g>
<!-- Node1&#45;&gt;Node2 -->
<g id="edge6_Node000001_Node000002" class="edge">
<title>Node1&#45;&gt;Node2</title>
<g id="a_edge6_Node000001_Node000002"><a xlink:title=" ">
<path fill="none" stroke="#63b8ff" d="M100.07,-76.48C117.73,-82.16 140.14,-89.38 160.97,-96.08"/>
<polygon fill="#63b8ff" stroke="#63b8ff" points="159.66,-99.33 170.25,-99.07 161.8,-92.67 159.66,-99.33"/>
</a>
</g>
</g>
<!-- Node4 -->
<g id="Node000004" class="node">
<title>Node4</title>
<g id="a_Node000004"><a xlink:href="$classplayers_management.html#aa3fde658085eafe54f35f8d862a2a30b" xlink:title="List all the player and them statics.">
<polygon fill="white" stroke="#666666" points="278.75,-82 169,-82 169,-50 278.75,-50 278.75,-82"/>
<text text-anchor="start" x="177" y="-68.5" font-family="Helvetica,sans-Serif" font-size="10.00">playersManagement::</text>
<text text-anchor="middle" x="223.88" y="-56.5" font-family="Helvetica,sans-Serif" font-size="10.00">listPlayers</text>
</a>
</g>
</g>
<!-- Node1&#45;&gt;Node4 -->
<g id="edge8_Node000001_Node000004" class="edge">
<title>Node1&#45;&gt;Node4</title>
<g id="a_edge8_Node000001_Node000004"><a xlink:title=" ">
<path fill="none" stroke="#63b8ff" d="M133.39,-66C141.28,-66 149.34,-66 157.23,-66"/>
<polygon fill="#63b8ff" stroke="#63b8ff" points="157.11,-69.5 167.11,-66 157.11,-62.5 157.11,-69.5"/>
</a>
</g>
</g>
<!-- Node5 -->
<g id="Node000005" class="node">
<title>Node5</title>
<g id="a_Node000005"><a xlink:href="$classplayers_management.html#af87e977506a2a553a91a4e047e9d713b" xlink:title="Remove a player by the name or nickname.">
<polygon fill="white" stroke="#666666" points="278.75,-32 169,-32 169,0 278.75,0 278.75,-32"/>
<text text-anchor="start" x="177" y="-18.5" font-family="Helvetica,sans-Serif" font-size="10.00">playersManagement::</text>
<text text-anchor="middle" x="223.88" y="-6.5" font-family="Helvetica,sans-Serif" font-size="10.00">removePlayer</text>
</a>
</g>
</g>
<!-- Node1&#45;&gt;Node5 -->
<g id="edge9_Node000001_Node000005" class="edge">
<title>Node1&#45;&gt;Node5</title>
<g id="a_edge9_Node000001_Node000005"><a xlink:title=" ">
<path fill="none" stroke="#63b8ff" d="M100.07,-55.52C117.73,-49.84 140.14,-42.62 160.97,-35.92"/>
<polygon fill="#63b8ff" stroke="#63b8ff" points="161.8,-39.33 170.25,-32.93 159.66,-32.67 161.8,-39.33"/>
</a>
</g>
</g>
<!-- Node3 -->
<g id="Node000003" class="node">
<title>Node3</title>
<g id="a_Node000003"><a xlink:href="$classplayers_management.html#ae11bf55369752a338e8084f18269517a" xlink:title="Save the players data in the playersStatics.txt.">
<polygon fill="white" stroke="#666666" points="424.5,-82 314.75,-82 314.75,-50 424.5,-50 424.5,-82"/>
<text text-anchor="start" x="322.75" y="-68.5" font-family="Helvetica,sans-Serif" font-size="10.00">playersManagement::</text>
<text text-anchor="middle" x="369.62" y="-56.5" font-family="Helvetica,sans-Serif" font-size="10.00">saveData</text>
</a>
</g>
</g>
<!-- Node2&#45;&gt;Node3 -->
<g id="edge7_Node000002_Node000003" class="edge">
<title>Node2&#45;&gt;Node3</title>
<g id="a_edge7_Node000002_Node000003"><a xlink:title=" ">
<path fill="none" stroke="#63b8ff" d="M271.94,-99.63C284.35,-95.31 297.89,-90.6 310.8,-86.11"/>
<polygon fill="#63b8ff" stroke="#63b8ff" points="311.73,-89.5 320.02,-82.91 309.43,-82.89 311.73,-89.5"/>
</a>
</g>
</g>
<!-- Node5&#45;&gt;Node3 -->
<g id="edge10_Node000005_Node000003" class="edge">
<title>Node5&#45;&gt;Node3</title>
<g id="a_edge10_Node000005_Node000003"><a xlink:title=" ">
<path fill="none" stroke="#63b8ff" d="M271.94,-32.37C284.35,-36.69 297.89,-41.4 310.8,-45.89"/>
<polygon fill="#63b8ff" stroke="#63b8ff" points="309.43,-49.11 320.02,-49.09 311.73,-42.5 309.43,-49.11"/>
</a>
</g>
</g>
</g>
</svg>
