<?xml version="1.0" encoding="UTF-8" standalone="no"?>
<!DOCTYPE svg PUBLIC "-//W3C//DTD SVG 1.1//EN"
 "http://www.w3.org/Graphics/SVG/1.1/DTD/svg11.dtd">
<!-- Generated by graphviz version 11.0.0 (20240428.1522)
 -->
<!-- Title: Tabuleiro Pages: 1 -->
<svg width="162pt" height="258pt"
 viewBox="0.00 0.00 162.00 258.00" xmlns="http://www.w3.org/2000/svg" xmlns:xlink="http://www.w3.org/1999/xlink">
<g id="graph0" class="graph" transform="scale(1 1) rotate(0) translate(4 254)">
<title>Tabuleiro</title>
<!-- Node1 -->
<g id="Node000001" class="node">
<title>Node1</title>
<g id="a_Node000001"><a xlink:title=" ">
<polygon fill="#999999" stroke="none" points="154,-250 0,-250 0,0 154,0 154,-250"/>
<text text-anchor="start" x="52.62" y="-234.6" font-family="Helvetica,sans-Serif" font-size="12.00">Tabuleiro</text>
<text text-anchor="start" x="75.5" y="-217.6" font-family="Helvetica,sans-Serif" font-size="12.00"> </text>
<text text-anchor="start" x="3.62" y="-200.6" font-family="Helvetica,sans-Serif" font-size="12.00">+</text>
<text text-anchor="start" x="14" y="-200.6" font-family="Helvetica,sans-Serif" font-size="12.00">Tabuleiro(int linhas,</text>
<text text-anchor="start" x="14" y="-187.1" font-family="Helvetica,sans-Serif" font-size="12.00"> int colunas)</text>
<text text-anchor="start" x="3.62" y="-169.6" font-family="Helvetica,sans-Serif" font-size="12.00">+</text>
<text text-anchor="start" x="14" y="-169.6" font-family="Helvetica,sans-Serif" font-size="12.00">void imprimir_tabuleiro()</text>
<text text-anchor="start" x="3.62" y="-152.6" font-family="Helvetica,sans-Serif" font-size="12.00">+</text>
<text text-anchor="start" x="14" y="-152.6" font-family="Helvetica,sans-Serif" font-size="12.00">void realizar_movimento</text>
<text text-anchor="start" x="14" y="-139.1" font-family="Helvetica,sans-Serif" font-size="12.00">_O(char jogada1, char</text>
<text text-anchor="start" x="14" y="-125.6" font-family="Helvetica,sans-Serif" font-size="12.00"> jogada2, char jogada3,</text>
<text text-anchor="start" x="14" y="-112.1" font-family="Helvetica,sans-Serif" font-size="12.00"> char jogada4)</text>
<text text-anchor="start" x="3.62" y="-94.6" font-family="Helvetica,sans-Serif" font-size="12.00">+</text>
<text text-anchor="start" x="14" y="-94.6" font-family="Helvetica,sans-Serif" font-size="12.00">void realizar_movimento</text>
<text text-anchor="start" x="14" y="-81.1" font-family="Helvetica,sans-Serif" font-size="12.00">_X(char jogada1, char</text>
<text text-anchor="start" x="14" y="-67.6" font-family="Helvetica,sans-Serif" font-size="12.00"> jogada2, char jogada3,</text>
<text text-anchor="start" x="14" y="-54.1" font-family="Helvetica,sans-Serif" font-size="12.00"> char jogada4)</text>
<text text-anchor="start" x="3.62" y="-36.6" font-family="Helvetica,sans-Serif" font-size="12.00">+</text>
<text text-anchor="start" x="14" y="-36.6" font-family="Helvetica,sans-Serif" font-size="12.00">int transcrever_movimento</text>
<text text-anchor="start" x="14" y="-23.1" font-family="Helvetica,sans-Serif" font-size="12.00">(char jogada1)</text>
<text text-anchor="start" x="3.62" y="-5.6" font-family="Helvetica,sans-Serif" font-size="12.00">+</text>
<text text-anchor="start" x="14" y="-5.6" font-family="Helvetica,sans-Serif" font-size="12.00">char resultado_final()</text>
<polygon fill="#666666" stroke="#666666" points="0,-231 0,-231 154,-231 154,-231 0,-231"/>
<polygon fill="#666666" stroke="#666666" points="0,-214 0,-214 154,-214 154,-214 0,-214"/>
<polygon fill="none" stroke="#666666" points="0,0 0,-250 154,-250 154,0 0,0"/>
</a>
</g>
</g>
</g>
</svg>
