<?xml version="1.0" encoding="UTF-8" standalone="no"?>
<!DOCTYPE svg PUBLIC "-//W3C//DTD SVG 1.1//EN"
 "http://www.w3.org/Graphics/SVG/1.1/DTD/svg11.dtd">
<!-- Generated by graphviz version 11.0.0 (20240428.1522)
 -->
<!-- Title: game::winAndLose Pages: 1 -->
<svg width="402pt" height="154pt"
 viewBox="0.00 0.00 401.75 154.00" xmlns="http://www.w3.org/2000/svg" xmlns:xlink="http://www.w3.org/1999/xlink">
<g id="graph0" class="graph" transform="scale(1 1) rotate(0) translate(4 150)">
<title>game::winAndLose</title>
<!-- Node1 -->
<g id="Node000001" class="node">
<title>Node1</title>
<g id="a_Node000001"><a xlink:title="Add one win to the winner and one lose for the loser.">
<polygon fill="#999999" stroke="#666666" points="98.5,-86 0,-86 0,-66 98.5,-66 98.5,-86"/>
<text text-anchor="middle" x="49.25" y="-72.5" font-family="Helvetica,sans-Serif" font-size="10.00">game::winAndLose</text>
</a>
</g>
</g>
<!-- Node2 -->
<g id="Node000002" class="node">
<title>Node2</title>
<g id="a_Node000002"><a xlink:href="$classplayers_management.html#a4f80e5e54d1cd2273b86af3345c3ece1" xlink:title="Add a lose in the game for the player nick passed.">
<polygon fill="white" stroke="#666666" points="244.25,-117 134.5,-117 134.5,-85 244.25,-85 244.25,-117"/>
<text text-anchor="start" x="142.5" y="-103.5" font-family="Helvetica,sans-Serif" font-size="10.00">playersManagement::</text>
<text text-anchor="middle" x="189.38" y="-91.5" font-family="Helvetica,sans-Serif" font-size="10.00">addLose</text>
</a>
</g>
</g>
<!-- Node1&#45;&gt;Node2 -->
<g id="edge9_Node000001_Node000002" class="edge">
<title>Node1&#45;&gt;Node2</title>
<g id="a_edge9_Node000001_Node000002"><a xlink:title=" ">
<path fill="none" stroke="#63b8ff" d="M98.95,-84.81C106.85,-86.24 115.14,-87.75 123.36,-89.23"/>
<polygon fill="#63b8ff" stroke="#63b8ff" points="122.52,-92.64 132.99,-90.97 123.77,-85.75 122.52,-92.64"/>
</a>
</g>
</g>
<!-- Node6 -->
<g id="Node000006" class="node">
<title>Node6</title>
<g id="a_Node000006"><a xlink:href="$classplayers_management.html#adbef5e6113980c06e9c88dec87a53747" xlink:title="Add a win in the game for the player nick passed.">
<polygon fill="white" stroke="#666666" points="244.25,-67 134.5,-67 134.5,-35 244.25,-35 244.25,-67"/>
<text text-anchor="start" x="142.5" y="-53.5" font-family="Helvetica,sans-Serif" font-size="10.00">playersManagement::</text>
<text text-anchor="middle" x="189.38" y="-41.5" font-family="Helvetica,sans-Serif" font-size="10.00">addWin</text>
</a>
</g>
</g>
<!-- Node1&#45;&gt;Node6 -->
<g id="edge13_Node000001_Node000006" class="edge">
<title>Node1&#45;&gt;Node6</title>
<g id="a_edge13_Node000001_Node000006"><a xlink:title=" ">
<path fill="none" stroke="#63b8ff" d="M98.95,-67.19C106.85,-65.76 115.14,-64.25 123.36,-62.77"/>
<polygon fill="#63b8ff" stroke="#63b8ff" points="123.77,-66.25 132.99,-61.03 122.52,-59.36 123.77,-66.25"/>
</a>
</g>
</g>
<!-- Node3 -->
<g id="Node000003" class="node">
<title>Node3</title>
<g id="a_Node000003"><a xlink:href="$classgame_status.html#a72e4abd5d73b95d8c5300b7e9c210579" xlink:title="Add a lose for the player in this game.">
<polygon fill="white" stroke="#666666" points="392.62,-146 281.38,-146 281.38,-126 392.62,-126 392.62,-146"/>
<text text-anchor="middle" x="337" y="-132.5" font-family="Helvetica,sans-Serif" font-size="10.00">gameStatus::addLose</text>
</a>
</g>
</g>
<!-- Node2&#45;&gt;Node3 -->
<g id="edge10_Node000002_Node000003" class="edge">
<title>Node2&#45;&gt;Node3</title>
<g id="a_edge10_Node000002_Node000003"><a xlink:title=" ">
<path fill="none" stroke="#63b8ff" d="M244.6,-114.03C256.74,-116.95 269.61,-120.04 281.74,-122.96"/>
<polygon fill="#63b8ff" stroke="#63b8ff" points="280.63,-126.29 291.17,-125.23 282.26,-119.49 280.63,-126.29"/>
</a>
</g>
</g>
<!-- Node4 -->
<g id="Node000004" class="node">
<title>Node4</title>
<g id="a_Node000004"><a xlink:href="$classgame_status.html#a4ab21c8ec9f2dbe1f408dbdb553e5e52" xlink:title="get Name">
<polygon fill="white" stroke="#666666" points="393.75,-108 280.25,-108 280.25,-88 393.75,-88 393.75,-108"/>
<text text-anchor="middle" x="337" y="-94.5" font-family="Helvetica,sans-Serif" font-size="10.00">gameStatus::getName</text>
</a>
</g>
</g>
<!-- Node2&#45;&gt;Node4 -->
<g id="edge11_Node000002_Node000004" class="edge">
<title>Node2&#45;&gt;Node4</title>
<g id="a_edge11_Node000002_Node000004"><a xlink:title=" ">
<path fill="none" stroke="#63b8ff" d="M244.6,-99.88C252.41,-99.72 260.52,-99.56 268.54,-99.39"/>
<polygon fill="#63b8ff" stroke="#63b8ff" points="268.34,-102.89 278.27,-99.19 268.2,-95.9 268.34,-102.89"/>
</a>
</g>
</g>
<!-- Node5 -->
<g id="Node000005" class="node">
<title>Node5</title>
<g id="a_Node000005"><a xlink:href="$classplayers_management.html#ae11bf55369752a338e8084f18269517a" xlink:title="Save the players data in the playersStatics.txt.">
<polygon fill="white" stroke="#666666" points="391.88,-70 282.12,-70 282.12,-38 391.88,-38 391.88,-70"/>
<text text-anchor="start" x="290.12" y="-56.5" font-family="Helvetica,sans-Serif" font-size="10.00">playersManagement::</text>
<text text-anchor="middle" x="337" y="-44.5" font-family="Helvetica,sans-Serif" font-size="10.00">saveData</text>
</a>
</g>
</g>
<!-- Node2&#45;&gt;Node5 -->
<g id="edge12_Node000002_Node000005" class="edge">
<title>Node2&#45;&gt;Node5</title>
<g id="a_edge12_Node000002_Node000005"><a xlink:title=" ">
<path fill="none" stroke="#63b8ff" d="M241.31,-84.56C252.01,-81.11 263.41,-77.43 274.45,-73.86"/>
<polygon fill="#63b8ff" stroke="#63b8ff" points="275.46,-77.22 283.9,-70.81 273.31,-70.56 275.46,-77.22"/>
</a>
</g>
</g>
<!-- Node6&#45;&gt;Node4 -->
<g id="edge15_Node000006_Node000004" class="edge">
<title>Node6&#45;&gt;Node4</title>
<g id="a_edge15_Node000006_Node000004"><a xlink:title=" ">
<path fill="none" stroke="#63b8ff" d="M241.31,-67.44C258.1,-72.86 276.61,-78.83 292.77,-84.05"/>
<polygon fill="#63b8ff" stroke="#63b8ff" points="291.5,-87.32 302.09,-87.06 293.65,-80.65 291.5,-87.32"/>
</a>
</g>
</g>
<!-- Node6&#45;&gt;Node5 -->
<g id="edge16_Node000006_Node000005" class="edge">
<title>Node6&#45;&gt;Node5</title>
<g id="a_edge16_Node000006_Node000005"><a xlink:title=" ">
<path fill="none" stroke="#63b8ff" d="M244.6,-52.12C253.03,-52.29 261.83,-52.47 270.48,-52.65"/>
<polygon fill="#63b8ff" stroke="#63b8ff" points="270.15,-56.14 280.22,-52.85 270.29,-49.15 270.15,-56.14"/>
</a>
</g>
</g>
<!-- Node7 -->
<g id="Node000007" class="node">
<title>Node7</title>
<g id="a_Node000007"><a xlink:href="$classgame_status.html#a8a3a06ec0e05e77736aa5994808c9311" xlink:title="Add a win for the player in this game.">
<polygon fill="white" stroke="#666666" points="390.75,-20 283.25,-20 283.25,0 390.75,0 390.75,-20"/>
<text text-anchor="middle" x="337" y="-6.5" font-family="Helvetica,sans-Serif" font-size="10.00">gameStatus::addWin</text>
</a>
</g>
</g>
<!-- Node6&#45;&gt;Node7 -->
<g id="edge14_Node000006_Node000007" class="edge">
<title>Node6&#45;&gt;Node7</title>
<g id="a_edge14_Node000006_Node000007"><a xlink:title=" ">
<path fill="none" stroke="#63b8ff" d="M244.6,-35.73C258.89,-31.71 274.21,-27.4 288.14,-23.47"/>
<polygon fill="#63b8ff" stroke="#63b8ff" points="288.84,-26.91 297.51,-20.84 286.94,-20.18 288.84,-26.91"/>
</a>
</g>
</g>
</g>
</svg>
