<?xml version="1.0" encoding="UTF-8" standalone="no"?>
<!DOCTYPE svg PUBLIC "-//W3C//DTD SVG 1.1//EN"
 "http://www.w3.org/Graphics/SVG/1.1/DTD/svg11.dtd">
<!-- Generated by graphviz version 11.0.0 (20240428.1522)
 -->
<!-- Title: playersMenu::playersMenu Pages: 1 -->
<svg width="490pt" height="149pt"
 viewBox="0.00 0.00 489.50 149.00" xmlns="http://www.w3.org/2000/svg" xmlns:xlink="http://www.w3.org/1999/xlink">
<g id="graph0" class="graph" transform="scale(1 1) rotate(0) translate(4 145)">
<title>playersMenu::playersMenu</title>
<!-- Node1 -->
<g id="Node000001" class="node">
<title>Node1</title>
<g id="a_Node000001"><a xlink:title=" ">
<polygon fill="#999999" stroke="#666666" points="154,-81.25 0,-81.25 0,-59.75 154,-59.75 154,-81.25"/>
<text text-anchor="middle" x="77" y="-65.85" font-family="Helvetica,sans-Serif" font-size="12.00">playersMenu::playersMenu</text>
</a>
</g>
</g>
<!-- Node2 -->
<g id="Node000002" class="node">
<title>Node2</title>
<g id="a_Node000002"><a xlink:href="$classplayers_management.html#a4811873370311ad6f3a50600d1fd9237" xlink:title="Add a player by the name or nickname.">
<polygon fill="white" stroke="#666666" points="317.75,-141 190,-141 190,-106 317.75,-106 317.75,-141"/>
<text text-anchor="start" x="198" y="-125.6" font-family="Helvetica,sans-Serif" font-size="12.00">playersManagement::</text>
<text text-anchor="middle" x="253.88" y="-112.1" font-family="Helvetica,sans-Serif" font-size="12.00">addPlayer</text>
</a>
</g>
</g>
<!-- Node1&#45;&gt;Node2 -->
<g id="edge6_Node000001_Node000002" class="edge">
<title>Node1&#45;&gt;Node2</title>
<g id="a_edge6_Node000001_Node000002"><a xlink:title=" ">
<path fill="none" stroke="#63b8ff" d="M115.09,-81.74C134.82,-87.72 159.74,-95.27 182.95,-102.31"/>
<polygon fill="#63b8ff" stroke="#63b8ff" points="181.79,-105.61 192.37,-105.16 183.82,-98.91 181.79,-105.61"/>
</a>
</g>
</g>
<!-- Node4 -->
<g id="Node000004" class="node">
<title>Node4</title>
<g id="a_Node000004"><a xlink:href="$classplayers_management.html#aa3fde658085eafe54f35f8d862a2a30b" xlink:title="List all the player and them statics.">
<polygon fill="white" stroke="#666666" points="317.75,-88 190,-88 190,-53 317.75,-53 317.75,-88"/>
<text text-anchor="start" x="198" y="-72.6" font-family="Helvetica,sans-Serif" font-size="12.00">playersManagement::</text>
<text text-anchor="middle" x="253.88" y="-59.1" font-family="Helvetica,sans-Serif" font-size="12.00">listPlayers</text>
</a>
</g>
</g>
<!-- Node1&#45;&gt;Node4 -->
<g id="edge8_Node000001_Node000004" class="edge">
<title>Node1&#45;&gt;Node4</title>
<g id="a_edge8_Node000001_Node000004"><a xlink:title=" ">
<path fill="none" stroke="#63b8ff" d="M154.45,-70.5C162.35,-70.5 170.38,-70.5 178.26,-70.5"/>
<polygon fill="#63b8ff" stroke="#63b8ff" points="178.17,-74 188.17,-70.5 178.17,-67 178.17,-74"/>
</a>
</g>
</g>
<!-- Node5 -->
<g id="Node000005" class="node">
<title>Node5</title>
<g id="a_Node000005"><a xlink:href="$classplayers_management.html#af87e977506a2a553a91a4e047e9d713b" xlink:title="Remove a player by the name or nickname.">
<polygon fill="white" stroke="#666666" points="317.75,-35 190,-35 190,0 317.75,0 317.75,-35"/>
<text text-anchor="start" x="198" y="-19.6" font-family="Helvetica,sans-Serif" font-size="12.00">playersManagement::</text>
<text text-anchor="middle" x="253.88" y="-6.1" font-family="Helvetica,sans-Serif" font-size="12.00">removePlayer</text>
</a>
</g>
</g>
<!-- Node1&#45;&gt;Node5 -->
<g id="edge9_Node000001_Node000005" class="edge">
<title>Node1&#45;&gt;Node5</title>
<g id="a_edge9_Node000001_Node000005"><a xlink:title=" ">
<path fill="none" stroke="#63b8ff" d="M115.09,-59.26C134.82,-53.28 159.74,-45.73 182.95,-38.69"/>
<polygon fill="#63b8ff" stroke="#63b8ff" points="183.82,-42.09 192.37,-35.84 181.79,-35.39 183.82,-42.09"/>
</a>
</g>
</g>
<!-- Node3 -->
<g id="Node000003" class="node">
<title>Node3</title>
<g id="a_Node000003"><a xlink:href="$classplayers_management.html#ae11bf55369752a338e8084f18269517a" xlink:title="Save the players data in the playersStatics.txt.">
<polygon fill="white" stroke="#666666" points="481.5,-88 353.75,-88 353.75,-53 481.5,-53 481.5,-88"/>
<text text-anchor="start" x="361.75" y="-72.6" font-family="Helvetica,sans-Serif" font-size="12.00">playersManagement::</text>
<text text-anchor="middle" x="417.62" y="-59.1" font-family="Helvetica,sans-Serif" font-size="12.00">saveData</text>
</a>
</g>
</g>
<!-- Node2&#45;&gt;Node3 -->
<g id="edge7_Node000002_Node000003" class="edge">
<title>Node2&#45;&gt;Node3</title>
<g id="a_edge7_Node000002_Node000003"><a xlink:title=" ">
<path fill="none" stroke="#63b8ff" d="M309.64,-105.56C322.94,-101.2 337.31,-96.49 351.06,-91.98"/>
<polygon fill="#63b8ff" stroke="#63b8ff" points="352.07,-95.34 360.48,-88.9 349.89,-88.68 352.07,-95.34"/>
</a>
</g>
</g>
<!-- Node5&#45;&gt;Node3 -->
<g id="edge10_Node000005_Node000003" class="edge">
<title>Node5&#45;&gt;Node3</title>
<g id="a_edge10_Node000005_Node000003"><a xlink:title=" ">
<path fill="none" stroke="#63b8ff" d="M309.64,-35.44C322.94,-39.8 337.31,-44.51 351.06,-49.02"/>
<polygon fill="#63b8ff" stroke="#63b8ff" points="349.89,-52.32 360.48,-52.1 352.07,-45.66 349.89,-52.32"/>
</a>
</g>
</g>
</g>
</svg>
