<?xml version="1.0" encoding="UTF-8" standalone="no"?>
<!DOCTYPE svg PUBLIC "-//W3C//DTD SVG 1.1//EN"
 "http://www.w3.org/Graphics/SVG/1.1/DTD/svg11.dtd">
<!-- Generated by graphviz version 11.0.0 (20240428.1522)
 -->
<!-- Title: playersManagement::saveData Pages: 1 -->
<svg width="521pt" height="190pt"
 viewBox="0.00 0.00 520.50 190.00" xmlns="http://www.w3.org/2000/svg" xmlns:xlink="http://www.w3.org/1999/xlink">
<g id="graph0" class="graph" transform="scale(1 1) rotate(0) translate(4 186)">
<title>playersManagement::saveData</title>
<!-- Node1 -->
<g id="Node000001" class="node">
<title>Node1</title>
<g id="a_Node000001"><a xlink:title="Save the players data in the playersStatics.txt.">
<polygon fill="#999999" stroke="#666666" points="512.5,-107 402.75,-107 402.75,-75 512.5,-75 512.5,-107"/>
<text text-anchor="start" x="410.75" y="-93.5" font-family="Helvetica,sans-Serif" font-size="10.00">playersManagement::</text>
<text text-anchor="middle" x="457.62" y="-81.5" font-family="Helvetica,sans-Serif" font-size="10.00">saveData</text>
</a>
</g>
</g>
<!-- Node2 -->
<g id="Node000002" class="node">
<title>Node2</title>
<g id="a_Node000002"><a xlink:href="$classplayers_management.html#a4f80e5e54d1cd2273b86af3345c3ece1" xlink:title="Add a lose in the game for the player nick passed.">
<polygon fill="white" stroke="#666666" points="366.75,-182 257,-182 257,-150 366.75,-150 366.75,-182"/>
<text text-anchor="start" x="265" y="-168.5" font-family="Helvetica,sans-Serif" font-size="10.00">playersManagement::</text>
<text text-anchor="middle" x="311.88" y="-156.5" font-family="Helvetica,sans-Serif" font-size="10.00">addLose</text>
</a>
</g>
</g>
<!-- Node1&#45;&gt;Node2 -->
<g id="edge10_Node000001_Node000002" class="edge">
<title>Node1&#45;&gt;Node2</title>
<g id="a_edge10_Node000001_Node000002"><a xlink:title=" ">
<path fill="none" stroke="#63b8ff" d="M418.59,-112.97C402.71,-121.93 383.98,-132.23 366.75,-141 361.15,-143.85 355.15,-146.77 349.28,-149.55"/>
<polygon fill="#63b8ff" stroke="#63b8ff" points="420.29,-116.03 427.26,-108.05 416.84,-109.94 420.29,-116.03"/>
</a>
</g>
</g>
<!-- Node5 -->
<g id="Node000005" class="node">
<title>Node5</title>
<g id="a_Node000005"><a xlink:href="$classplayers_management.html#a4811873370311ad6f3a50600d1fd9237" xlink:title="Add a player by the name or nickname.">
<polygon fill="white" stroke="#666666" points="366.75,-82 257,-82 257,-50 366.75,-50 366.75,-82"/>
<text text-anchor="start" x="265" y="-68.5" font-family="Helvetica,sans-Serif" font-size="10.00">playersManagement::</text>
<text text-anchor="middle" x="311.88" y="-56.5" font-family="Helvetica,sans-Serif" font-size="10.00">addPlayer</text>
</a>
</g>
</g>
<!-- Node1&#45;&gt;Node5 -->
<g id="edge13_Node000001_Node000005" class="edge">
<title>Node1&#45;&gt;Node5</title>
<g id="a_edge13_Node000001_Node000005"><a xlink:title=" ">
<path fill="none" stroke="#63b8ff" d="M390.97,-79.58C382.89,-78.18 374.7,-76.75 366.82,-75.38"/>
<polygon fill="#63b8ff" stroke="#63b8ff" points="390.34,-83.02 400.79,-81.29 391.54,-76.13 390.34,-83.02"/>
</a>
</g>
</g>
<!-- Node7 -->
<g id="Node000007" class="node">
<title>Node7</title>
<g id="a_Node000007"><a xlink:href="$classplayers_management.html#adbef5e6113980c06e9c88dec87a53747" xlink:title="Add a win in the game for the player nick passed.">
<polygon fill="white" stroke="#666666" points="366.75,-132 257,-132 257,-100 366.75,-100 366.75,-132"/>
<text text-anchor="start" x="265" y="-118.5" font-family="Helvetica,sans-Serif" font-size="10.00">playersManagement::</text>
<text text-anchor="middle" x="311.88" y="-106.5" font-family="Helvetica,sans-Serif" font-size="10.00">addWin</text>
</a>
</g>
</g>
<!-- Node1&#45;&gt;Node7 -->
<g id="edge15_Node000001_Node000007" class="edge">
<title>Node1&#45;&gt;Node7</title>
<g id="a_edge15_Node000001_Node000007"><a xlink:title=" ">
<path fill="none" stroke="#63b8ff" d="M390.97,-102.42C382.89,-103.82 374.7,-105.25 366.82,-106.62"/>
<polygon fill="#63b8ff" stroke="#63b8ff" points="391.54,-105.87 400.79,-100.71 390.34,-98.98 391.54,-105.87"/>
</a>
</g>
</g>
<!-- Node8 -->
<g id="Node000008" class="node">
<title>Node8</title>
<g id="a_Node000008"><a xlink:href="$classplayers_management.html#af87e977506a2a553a91a4e047e9d713b" xlink:title="Remove a player by the name or nickname.">
<polygon fill="white" stroke="#666666" points="366.75,-32 257,-32 257,0 366.75,0 366.75,-32"/>
<text text-anchor="start" x="265" y="-18.5" font-family="Helvetica,sans-Serif" font-size="10.00">playersManagement::</text>
<text text-anchor="middle" x="311.88" y="-6.5" font-family="Helvetica,sans-Serif" font-size="10.00">removePlayer</text>
</a>
</g>
</g>
<!-- Node1&#45;&gt;Node8 -->
<g id="edge17_Node000001_Node000008" class="edge">
<title>Node1&#45;&gt;Node8</title>
<g id="a_edge17_Node000001_Node000008"><a xlink:title=" ">
<path fill="none" stroke="#63b8ff" d="M418.59,-69.03C402.71,-60.07 383.98,-49.77 366.75,-41 361.15,-38.15 355.15,-35.23 349.28,-32.45"/>
<polygon fill="#63b8ff" stroke="#63b8ff" points="416.84,-72.06 427.26,-73.95 420.29,-65.97 416.84,-72.06"/>
</a>
</g>
</g>
<!-- Node3 -->
<g id="Node000003" class="node">
<title>Node3</title>
<g id="a_Node000003"><a xlink:href="$classgame.html#aa73e185d035361027c0df359d7a6c750" xlink:title="Add one win to the winner and one lose for the loser.">
<polygon fill="white" stroke="#666666" points="203.75,-151 105.25,-151 105.25,-131 203.75,-131 203.75,-151"/>
<text text-anchor="middle" x="154.5" y="-137.5" font-family="Helvetica,sans-Serif" font-size="10.00">game::winAndLose</text>
</a>
</g>
</g>
<!-- Node2&#45;&gt;Node3 -->
<g id="edge11_Node000002_Node000003" class="edge">
<title>Node2&#45;&gt;Node3</title>
<g id="a_edge11_Node000002_Node000003"><a xlink:title=" ">
<path fill="none" stroke="#63b8ff" d="M245.55,-155.49C231.66,-153.25 217.24,-150.93 204.11,-148.82"/>
<polygon fill="#63b8ff" stroke="#63b8ff" points="244.61,-158.88 255.04,-157.02 245.72,-151.97 244.61,-158.88"/>
</a>
</g>
</g>
<!-- Node4 -->
<g id="Node000004" class="node">
<title>Node4</title>
<g id="a_Node000004"><a xlink:href="$classlig4.html#a412d6bbcae4077e520282b295060abe1" xlink:title=" ">
<polygon fill="white" stroke="#666666" points="52,-151 0,-151 0,-131 52,-131 52,-151"/>
<text text-anchor="middle" x="26" y="-137.5" font-family="Helvetica,sans-Serif" font-size="10.00">lig4::lig4</text>
</a>
</g>
</g>
<!-- Node3&#45;&gt;Node4 -->
<g id="edge12_Node000003_Node000004" class="edge">
<title>Node3&#45;&gt;Node4</title>
<g id="a_edge12_Node000003_Node000004"><a xlink:title=" ">
<path fill="none" stroke="#63b8ff" d="M93.84,-141C79.18,-141 64.26,-141 52.25,-141"/>
<polygon fill="#63b8ff" stroke="#63b8ff" points="93.44,-144.5 103.44,-141 93.44,-137.5 93.44,-144.5"/>
</a>
</g>
</g>
<!-- Node6 -->
<g id="Node000006" class="node">
<title>Node6</title>
<g id="a_Node000006"><a xlink:href="$classplayers_menu.html#adebfb8ff936b89b3ff360585910dbd47" xlink:title=" ">
<polygon fill="white" stroke="#666666" points="221,-51 88,-51 88,-31 221,-31 221,-51"/>
<text text-anchor="middle" x="154.5" y="-37.5" font-family="Helvetica,sans-Serif" font-size="10.00">playersMenu::playersMenu</text>
</a>
</g>
</g>
<!-- Node5&#45;&gt;Node6 -->
<g id="edge14_Node000005_Node000006" class="edge">
<title>Node5&#45;&gt;Node6</title>
<g id="a_edge14_Node000005_Node000006"><a xlink:title=" ">
<path fill="none" stroke="#63b8ff" d="M245.43,-55.47C237.18,-54.14 228.74,-52.78 220.49,-51.46"/>
<polygon fill="#63b8ff" stroke="#63b8ff" points="244.61,-58.88 255.04,-57.02 245.72,-51.97 244.61,-58.88"/>
</a>
</g>
</g>
<!-- Node7&#45;&gt;Node3 -->
<g id="edge16_Node000007_Node000003" class="edge">
<title>Node7&#45;&gt;Node3</title>
<g id="a_edge16_Node000007_Node000003"><a xlink:title=" ">
<path fill="none" stroke="#63b8ff" d="M245.55,-126.51C231.66,-128.75 217.24,-131.07 204.11,-133.18"/>
<polygon fill="#63b8ff" stroke="#63b8ff" points="245.72,-130.03 255.04,-124.98 244.61,-123.12 245.72,-130.03"/>
</a>
</g>
</g>
<!-- Node8&#45;&gt;Node6 -->
<g id="edge18_Node000008_Node000006" class="edge">
<title>Node8&#45;&gt;Node6</title>
<g id="a_edge18_Node000008_Node000006"><a xlink:title=" ">
<path fill="none" stroke="#63b8ff" d="M245.43,-26.53C237.18,-27.86 228.74,-29.22 220.49,-30.54"/>
<polygon fill="#63b8ff" stroke="#63b8ff" points="245.72,-30.03 255.04,-24.98 244.61,-23.12 245.72,-30.03"/>
</a>
</g>
</g>
</g>
</svg>
