<?xml version="1.0" encoding="UTF-8" standalone="no"?>
<!DOCTYPE svg PUBLIC "-//W3C//DTD SVG 1.1//EN"
 "http://www.w3.org/Graphics/SVG/1.1/DTD/svg11.dtd">
<!-- Generated by graphviz version 11.0.0 (20240428.1522)
 -->
<!-- Title: lig4 Pages: 1 -->
<svg width="172pt" height="775pt"
 viewBox="0.00 0.00 172.00 774.50" xmlns="http://www.w3.org/2000/svg" xmlns:xlink="http://www.w3.org/1999/xlink">
<g id="graph0" class="graph" transform="scale(1 1) rotate(0) translate(4 770.5)">
<title>lig4</title>
<!-- Node1 -->
<g id="Node000001" class="node">
<title>Node1</title>
<g id="a_Node000001"><a xlink:title=" ">
<polygon fill="#999999" stroke="none" points="153.5,-133 10.5,-133 10.5,0 153.5,0 153.5,-133"/>
<text text-anchor="start" x="72.62" y="-117.6" font-family="Helvetica,sans-Serif" font-size="12.00">lig4</text>
<text text-anchor="start" x="80.5" y="-100.6" font-family="Helvetica,sans-Serif" font-size="12.00"> </text>
<text text-anchor="start" x="14.12" y="-83.6" font-family="Helvetica,sans-Serif" font-size="12.00">+</text>
<text text-anchor="start" x="24.5" y="-83.6" font-family="Helvetica,sans-Serif" font-size="12.00">lig4()</text>
<text text-anchor="start" x="14.12" y="-66.6" font-family="Helvetica,sans-Serif" font-size="12.00">+</text>
<text text-anchor="start" x="24.5" y="-66.6" font-family="Helvetica,sans-Serif" font-size="12.00">void mostrarTabuleiro()</text>
<text text-anchor="start" x="14.12" y="-49.6" font-family="Helvetica,sans-Serif" font-size="12.00">+</text>
<text text-anchor="start" x="24.5" y="-49.6" font-family="Helvetica,sans-Serif" font-size="12.00">void jogada(int posicao)</text>
<text text-anchor="start" x="14.12" y="-32.6" font-family="Helvetica,sans-Serif" font-size="12.00">+</text>
<text text-anchor="start" x="24.5" y="-32.6" font-family="Helvetica,sans-Serif" font-size="12.00">bool verificarAdjacente</text>
<text text-anchor="start" x="24.5" y="-19.1" font-family="Helvetica,sans-Serif" font-size="12.00">(int linha, int coluna,</text>
<text text-anchor="start" x="24.5" y="-5.6" font-family="Helvetica,sans-Serif" font-size="12.00"> char time)</text>
<polygon fill="#666666" stroke="#666666" points="10.5,-114 10.5,-114 153.5,-114 153.5,-114 10.5,-114"/>
<polygon fill="#666666" stroke="#666666" points="10.5,-97 10.5,-97 153.5,-97 153.5,-97 10.5,-97"/>
<polygon fill="none" stroke="#666666" points="10.5,0 10.5,-133 153.5,-133 153.5,0 10.5,0"/>
</a>
</g>
</g>
<!-- Node2 -->
<g id="Node000002" class="node">
<title>Node2</title>
<g id="a_Node000002"><a xlink:href="$classgame.html" xlink:title="Abstract class game.">
<polygon fill="white" stroke="none" points="160,-395 4,-395 4,-169 160,-169 160,-395"/>
<text text-anchor="start" x="67" y="-379.6" font-family="Helvetica,sans-Serif" font-size="12.00">game</text>
<text text-anchor="start" x="7.62" y="-362.6" font-family="Helvetica,sans-Serif" font-size="12.00">#</text>
<text text-anchor="start" x="18" y="-362.6" font-family="Helvetica,sans-Serif" font-size="12.00">std::string name</text>
<text text-anchor="start" x="7.62" y="-345.6" font-family="Helvetica,sans-Serif" font-size="12.00">#</text>
<text text-anchor="start" x="18" y="-345.6" font-family="Helvetica,sans-Serif" font-size="12.00">int rows</text>
<text text-anchor="start" x="7.62" y="-328.6" font-family="Helvetica,sans-Serif" font-size="12.00">#</text>
<text text-anchor="start" x="18" y="-328.6" font-family="Helvetica,sans-Serif" font-size="12.00">int cols</text>
<text text-anchor="start" x="7.62" y="-311.6" font-family="Helvetica,sans-Serif" font-size="12.00">#</text>
<text text-anchor="start" x="18" y="-311.6" font-family="Helvetica,sans-Serif" font-size="12.00">std::vector&lt; std::vector</text>
<text text-anchor="start" x="18" y="-298.1" font-family="Helvetica,sans-Serif" font-size="12.00">&lt; char &gt; &gt; tabuleiro</text>
<text text-anchor="start" x="7.62" y="-280.6" font-family="Helvetica,sans-Serif" font-size="12.00">+</text>
<text text-anchor="start" x="18" y="-280.6" font-family="Helvetica,sans-Serif" font-size="12.00">game(int _rows, int</text>
<text text-anchor="start" x="18" y="-267.1" font-family="Helvetica,sans-Serif" font-size="12.00"> _cols)</text>
<text text-anchor="start" x="7.62" y="-249.6" font-family="Helvetica,sans-Serif" font-size="12.00">+</text>
<text text-anchor="start" x="18" y="-249.6" font-family="Helvetica,sans-Serif" font-size="12.00">~game()</text>
<text text-anchor="start" x="7.62" y="-232.6" font-family="Helvetica,sans-Serif" font-size="12.00">+</text>
<text text-anchor="start" x="18" y="-232.6" font-family="Helvetica,sans-Serif" font-size="12.00">virtual void changeElement</text>
<text text-anchor="start" x="18" y="-219.1" font-family="Helvetica,sans-Serif" font-size="12.00">(int x, int y, char element)</text>
<text text-anchor="start" x="7.62" y="-201.6" font-family="Helvetica,sans-Serif" font-size="12.00">+</text>
<text text-anchor="start" x="18" y="-201.6" font-family="Helvetica,sans-Serif" font-size="12.00">virtual void winAndLose</text>
<text text-anchor="start" x="18" y="-188.1" font-family="Helvetica,sans-Serif" font-size="12.00">(std::string winner, std</text>
<text text-anchor="start" x="18" y="-174.6" font-family="Helvetica,sans-Serif" font-size="12.00">::string loser)</text>
<polygon fill="#666666" stroke="#666666" points="4,-376 4,-376 160,-376 160,-376 4,-376"/>
<polygon fill="#666666" stroke="#666666" points="4,-294 4,-294 16,-294 16,-294 4,-294"/>
<polygon fill="#666666" stroke="#666666" points="16,-294 16,-294 160,-294 160,-294 16,-294"/>
<polygon fill="none" stroke="#666666" points="4,-169 4,-395 160,-395 160,-169 4,-169"/>
</a>
</g>
</g>
<!-- Node2&#45;&gt;Node1 -->
<g id="edge3_Node000001_Node000002" class="edge">
<title>Node2&#45;&gt;Node1</title>
<g id="a_edge3_Node000001_Node000002"><a xlink:title=" ">
<path fill="none" stroke="#63b8ff" d="M82,-157.95C82,-149.4 82,-141 82,-132.96"/>
<polygon fill="none" stroke="#63b8ff" points="78.5,-157.73 82,-167.73 85.5,-157.73 78.5,-157.73"/>
</a>
</g>
</g>
<!-- Node3 -->
<g id="Node000003" class="node">
<title>Node3</title>
<g id="a_Node000003"><a xlink:href="$classplayers_management.html" xlink:title=" ">
<polygon fill="white" stroke="none" points="164,-766.5 0,-766.5 0,-444.5 164,-444.5 164,-766.5"/>
<text text-anchor="start" x="29.12" y="-751.1" font-family="Helvetica,sans-Serif" font-size="12.00">playersManagement</text>
<text text-anchor="start" x="80.5" y="-734.1" font-family="Helvetica,sans-Serif" font-size="12.00"> </text>
<text text-anchor="start" x="3.62" y="-717.1" font-family="Helvetica,sans-Serif" font-size="12.00">+</text>
<text text-anchor="start" x="14" y="-717.1" font-family="Helvetica,sans-Serif" font-size="12.00">playersManagement()</text>
<text text-anchor="start" x="3.62" y="-700.1" font-family="Helvetica,sans-Serif" font-size="12.00">+</text>
<text text-anchor="start" x="14" y="-700.1" font-family="Helvetica,sans-Serif" font-size="12.00">~playersManagement()</text>
<text text-anchor="start" x="3.62" y="-683.1" font-family="Helvetica,sans-Serif" font-size="12.00">+</text>
<text text-anchor="start" x="14" y="-683.1" font-family="Helvetica,sans-Serif" font-size="12.00">void loadData()</text>
<text text-anchor="start" x="3.62" y="-666.1" font-family="Helvetica,sans-Serif" font-size="12.00">+</text>
<text text-anchor="start" x="14" y="-666.1" font-family="Helvetica,sans-Serif" font-size="12.00">void saveData()</text>
<text text-anchor="start" x="3.62" y="-649.1" font-family="Helvetica,sans-Serif" font-size="12.00">+</text>
<text text-anchor="start" x="14" y="-649.1" font-family="Helvetica,sans-Serif" font-size="12.00">int addPlayer(std::</text>
<text text-anchor="start" x="14" y="-635.6" font-family="Helvetica,sans-Serif" font-size="12.00">string name, std::string</text>
<text text-anchor="start" x="14" y="-622.1" font-family="Helvetica,sans-Serif" font-size="12.00"> nickname)</text>
<text text-anchor="start" x="3.62" y="-605.1" font-family="Helvetica,sans-Serif" font-size="12.00">+</text>
<text text-anchor="start" x="14" y="-605.1" font-family="Helvetica,sans-Serif" font-size="12.00">int removePlayer(std</text>
<text text-anchor="start" x="14" y="-591.6" font-family="Helvetica,sans-Serif" font-size="12.00">::string name)</text>
<text text-anchor="start" x="3.62" y="-574.1" font-family="Helvetica,sans-Serif" font-size="12.00">+</text>
<text text-anchor="start" x="14" y="-574.1" font-family="Helvetica,sans-Serif" font-size="12.00">void listPlayers()</text>
<text text-anchor="start" x="3.62" y="-557.1" font-family="Helvetica,sans-Serif" font-size="12.00">+</text>
<text text-anchor="start" x="14" y="-557.1" font-family="Helvetica,sans-Serif" font-size="12.00">void listPlayers(std</text>
<text text-anchor="start" x="14" y="-543.6" font-family="Helvetica,sans-Serif" font-size="12.00">::string name)</text>
<text text-anchor="start" x="3.62" y="-526.1" font-family="Helvetica,sans-Serif" font-size="12.00">+</text>
<text text-anchor="start" x="14" y="-526.1" font-family="Helvetica,sans-Serif" font-size="12.00">int addLose(std::string</text>
<text text-anchor="start" x="14" y="-512.6" font-family="Helvetica,sans-Serif" font-size="12.00"> game, std::string nickname)</text>
<text text-anchor="start" x="3.62" y="-495.1" font-family="Helvetica,sans-Serif" font-size="12.00">+</text>
<text text-anchor="start" x="14" y="-495.1" font-family="Helvetica,sans-Serif" font-size="12.00">int addWin(std::string</text>
<text text-anchor="start" x="14" y="-481.6" font-family="Helvetica,sans-Serif" font-size="12.00"> game, std::string nickname)</text>
<text text-anchor="start" x="3.62" y="-464.1" font-family="Helvetica,sans-Serif" font-size="12.00">+</text>
<text text-anchor="start" x="14" y="-464.1" font-family="Helvetica,sans-Serif" font-size="12.00">int existPlayer(std</text>
<text text-anchor="start" x="14" y="-450.6" font-family="Helvetica,sans-Serif" font-size="12.00">::string nick)</text>
<polygon fill="#666666" stroke="#666666" points="0,-747.5 0,-747.5 164,-747.5 164,-747.5 0,-747.5"/>
<polygon fill="#666666" stroke="#666666" points="0,-730.5 0,-730.5 164,-730.5 164,-730.5 0,-730.5"/>
<polygon fill="none" stroke="#666666" points="0,-444.5 0,-766.5 164,-766.5 164,-444.5 0,-444.5"/>
</a>
</g>
</g>
<!-- Node3&#45;&gt;Node2 -->
<g id="edge4_Node000002_Node000003" class="edge">
<title>Node3&#45;&gt;Node2</title>
<g id="a_edge4_Node000002_Node000003"><a xlink:title=" ">
<path fill="none" stroke="#63b8ff" d="M82,-444.69C82,-432.31 82,-419.92 82,-407.81"/>
<polygon fill="none" stroke="#63b8ff" points="82,-407.71 78,-401.71 82,-395.71 86,-401.71 82,-407.71"/>
</a>
</g>
<text text-anchor="middle" x="121" y="-415.1" font-family="Helvetica,sans-Serif" font-size="12.00" fill="grey"> #management</text>
</g>
</g>
</svg>
