<?xml version="1.0" encoding="UTF-8" standalone="no"?>
<!DOCTYPE svg PUBLIC "-//W3C//DTD SVG 1.1//EN"
 "http://www.w3.org/Graphics/SVG/1.1/DTD/svg11.dtd">
<!-- Generated by graphviz version 11.0.0 (20240428.1522)
 -->
<!-- Title: gameStatus::addLose Pages: 1 -->
<svg width="488pt" height="40pt"
 viewBox="0.00 0.00 487.50 40.00" xmlns="http://www.w3.org/2000/svg" xmlns:xlink="http://www.w3.org/1999/xlink">
<g id="graph0" class="graph" transform="scale(1 1) rotate(0) translate(4 36)">
<title>gameStatus::addLose</title>
<!-- Node1 -->
<g id="Node000001" class="node">
<title>Node1</title>
<g id="a_Node000001"><a xlink:title="Add a lose for the player in this game.">
<polygon fill="#999999" stroke="#666666" points="479.5,-26 368.25,-26 368.25,-6 479.5,-6 479.5,-26"/>
<text text-anchor="middle" x="423.88" y="-12.5" font-family="Helvetica,sans-Serif" font-size="10.00">gameStatus::addLose</text>
</a>
</g>
</g>
<!-- Node2 -->
<g id="Node000002" class="node">
<title>Node2</title>
<g id="a_Node000002"><a xlink:href="$classplayers_management.html#a4f80e5e54d1cd2273b86af3345c3ece1" xlink:title="Add a lose in the game for the player nick passed.">
<polygon fill="white" stroke="#666666" points="332.25,-32 222.5,-32 222.5,0 332.25,0 332.25,-32"/>
<text text-anchor="start" x="230.5" y="-18.5" font-family="Helvetica,sans-Serif" font-size="10.00">playersManagement::</text>
<text text-anchor="middle" x="277.38" y="-6.5" font-family="Helvetica,sans-Serif" font-size="10.00">addLose</text>
</a>
</g>
</g>
<!-- Node1&#45;&gt;Node2 -->
<g id="edge4_Node000001_Node000002" class="edge">
<title>Node1&#45;&gt;Node2</title>
<g id="a_edge4_Node000001_Node000002"><a xlink:title=" ">
<path fill="none" stroke="#63b8ff" d="M356.49,-16C348.39,-16 340.19,-16 332.31,-16"/>
<polygon fill="#63b8ff" stroke="#63b8ff" points="356.32,-19.5 366.32,-16 356.32,-12.5 356.32,-19.5"/>
</a>
</g>
</g>
<!-- Node3 -->
<g id="Node000003" class="node">
<title>Node3</title>
<g id="a_Node000003"><a xlink:href="$classgame.html#aa73e185d035361027c0df359d7a6c750" xlink:title="Add one win to the winner and one lose for the loser.">
<polygon fill="white" stroke="#666666" points="186.5,-26 88,-26 88,-6 186.5,-6 186.5,-26"/>
<text text-anchor="middle" x="137.25" y="-12.5" font-family="Helvetica,sans-Serif" font-size="10.00">game::winAndLose</text>
</a>
</g>
</g>
<!-- Node2&#45;&gt;Node3 -->
<g id="edge5_Node000002_Node000003" class="edge">
<title>Node2&#45;&gt;Node3</title>
<g id="a_edge5_Node000002_Node000003"><a xlink:title=" ">
<path fill="none" stroke="#63b8ff" d="M210.86,-16C202.79,-16 194.66,-16 186.9,-16"/>
<polygon fill="#63b8ff" stroke="#63b8ff" points="210.67,-19.5 220.67,-16 210.67,-12.5 210.67,-19.5"/>
</a>
</g>
</g>
<!-- Node4 -->
<g id="Node000004" class="node">
<title>Node4</title>
<g id="a_Node000004"><a xlink:href="$classlig4.html#a412d6bbcae4077e520282b295060abe1" xlink:title=" ">
<polygon fill="white" stroke="#666666" points="52,-26 0,-26 0,-6 52,-6 52,-26"/>
<text text-anchor="middle" x="26" y="-12.5" font-family="Helvetica,sans-Serif" font-size="10.00">lig4::lig4</text>
</a>
</g>
</g>
<!-- Node3&#45;&gt;Node4 -->
<g id="edge6_Node000003_Node000004" class="edge">
<title>Node3&#45;&gt;Node4</title>
<g id="a_edge6_Node000003_Node000004"><a xlink:title=" ">
<path fill="none" stroke="#63b8ff" d="M76.22,-16C67.82,-16 59.6,-16 52.35,-16"/>
<polygon fill="#63b8ff" stroke="#63b8ff" points="76.18,-19.5 86.18,-16 76.18,-12.5 76.18,-19.5"/>
</a>
</g>
</g>
</g>
</svg>
