<?xml version="1.0" encoding="UTF-8" standalone="no"?>
<!DOCTYPE svg PUBLIC "-//W3C//DTD SVG 1.1//EN"
 "http://www.w3.org/Graphics/SVG/1.1/DTD/svg11.dtd">
<!-- Generated by graphviz version 11.0.0 (20240428.1522)
 -->
<!-- Title: main Pages: 1 -->
<svg width="326pt" height="190pt"
 viewBox="0.00 0.00 326.00 190.00" xmlns="http://www.w3.org/2000/svg" xmlns:xlink="http://www.w3.org/1999/xlink">
<g id="graph0" class="graph" transform="scale(1 1) rotate(0) translate(4 186)">
<title>main</title>
<!-- Node1 -->
<g id="Node000001" class="node">
<title>Node1</title>
<g id="a_Node000001"><a xlink:title=" ">
<polygon fill="#999999" stroke="#666666" points="37,-101 0,-101 0,-81 37,-81 37,-101"/>
<text text-anchor="middle" x="18.5" y="-87.5" font-family="Helvetica,sans-Serif" font-size="10.00">main</text>
</a>
</g>
</g>
<!-- Node2 -->
<g id="Node000002" class="node">
<title>Node2</title>
<g id="a_Node000002"><a xlink:href="$class_tabuleiro.html#ade77bfdec5eb028f1ad96d5aca32bafa" xlink:title=" ">
<polygon fill="white" stroke="#666666" points="171.12,-182 75.62,-182 75.62,-150 171.12,-150 171.12,-182"/>
<text text-anchor="start" x="83.62" y="-168.5" font-family="Helvetica,sans-Serif" font-size="10.00">Tabuleiro::imprimir</text>
<text text-anchor="middle" x="123.38" y="-156.5" font-family="Helvetica,sans-Serif" font-size="10.00">_tabuleiro</text>
</a>
</g>
</g>
<!-- Node1&#45;&gt;Node2 -->
<g id="edge7_Node000001_Node000002" class="edge">
<title>Node1&#45;&gt;Node2</title>
<g id="a_edge7_Node000001_Node000002"><a xlink:title=" ">
<path fill="none" stroke="#63b8ff" d="M28.64,-101.1C38.76,-111.89 55.91,-129.05 73,-141 74.35,-141.95 75.75,-142.88 77.17,-143.79"/>
<polygon fill="#63b8ff" stroke="#63b8ff" points="75.18,-146.68 85.57,-148.79 78.77,-140.67 75.18,-146.68"/>
</a>
</g>
</g>
<!-- Node3 -->
<g id="Node000003" class="node">
<title>Node3</title>
<g id="a_Node000003"><a xlink:href="$class_tabuleiro.html#a23df17f6abf3d5cc0e3f742e32f8dab2" xlink:title=" ">
<polygon fill="white" stroke="#666666" points="169.62,-132 77.12,-132 77.12,-100 169.62,-100 169.62,-132"/>
<text text-anchor="start" x="85.12" y="-118.5" font-family="Helvetica,sans-Serif" font-size="10.00">Tabuleiro::realizar</text>
<text text-anchor="middle" x="123.38" y="-106.5" font-family="Helvetica,sans-Serif" font-size="10.00">_movimento_O</text>
</a>
</g>
</g>
<!-- Node1&#45;&gt;Node3 -->
<g id="edge8_Node000001_Node000003" class="edge">
<title>Node1&#45;&gt;Node3</title>
<g id="a_edge8_Node000001_Node000003"><a xlink:title=" ">
<path fill="none" stroke="#63b8ff" d="M37.42,-95.35C45.45,-97.31 55.42,-99.73 65.66,-102.22"/>
<polygon fill="#63b8ff" stroke="#63b8ff" points="64.8,-105.61 75.34,-104.57 66.45,-98.81 64.8,-105.61"/>
</a>
</g>
</g>
<!-- Node5 -->
<g id="Node000005" class="node">
<title>Node5</title>
<g id="a_Node000005"><a xlink:href="$class_tabuleiro.html#a9772d5ccc551c898a79f09bab626e6b8" xlink:title=" ">
<polygon fill="white" stroke="#666666" points="169.62,-82 77.12,-82 77.12,-50 169.62,-50 169.62,-82"/>
<text text-anchor="start" x="85.12" y="-68.5" font-family="Helvetica,sans-Serif" font-size="10.00">Tabuleiro::realizar</text>
<text text-anchor="middle" x="123.38" y="-56.5" font-family="Helvetica,sans-Serif" font-size="10.00">_movimento_X</text>
</a>
</g>
</g>
<!-- Node1&#45;&gt;Node5 -->
<g id="edge10_Node000001_Node000005" class="edge">
<title>Node1&#45;&gt;Node5</title>
<g id="a_edge10_Node000001_Node000005"><a xlink:title=" ">
<path fill="none" stroke="#63b8ff" d="M37.42,-86.65C45.45,-84.69 55.42,-82.27 65.66,-79.78"/>
<polygon fill="#63b8ff" stroke="#63b8ff" points="66.45,-83.19 75.34,-77.43 64.8,-76.39 66.45,-83.19"/>
</a>
</g>
</g>
<!-- Node6 -->
<g id="Node000006" class="node">
<title>Node6</title>
<g id="a_Node000006"><a xlink:href="$class_tabuleiro.html#a5c1daf00d818ead70092b3386a670d79" xlink:title=" ">
<polygon fill="white" stroke="#666666" points="173.75,-32 73,-32 73,0 173.75,0 173.75,-32"/>
<text text-anchor="start" x="81" y="-18.5" font-family="Helvetica,sans-Serif" font-size="10.00">Tabuleiro::resultado</text>
<text text-anchor="middle" x="123.38" y="-6.5" font-family="Helvetica,sans-Serif" font-size="10.00">_final</text>
</a>
</g>
</g>
<!-- Node1&#45;&gt;Node6 -->
<g id="edge12_Node000001_Node000006" class="edge">
<title>Node1&#45;&gt;Node6</title>
<g id="a_edge12_Node000001_Node000006"><a xlink:title=" ">
<path fill="none" stroke="#63b8ff" d="M28.64,-80.9C38.76,-70.11 55.91,-52.95 73,-41 74.35,-40.05 75.75,-39.12 77.17,-38.21"/>
<polygon fill="#63b8ff" stroke="#63b8ff" points="78.77,-41.33 85.57,-33.21 75.18,-35.32 78.77,-41.33"/>
</a>
</g>
</g>
<!-- Node4 -->
<g id="Node000004" class="node">
<title>Node4</title>
<g id="a_Node000004"><a xlink:href="$class_tabuleiro.html#a74b6f6861e98f2f5d7b812fc27aec594" xlink:title=" ">
<polygon fill="white" stroke="#666666" points="318,-107 209.75,-107 209.75,-75 318,-75 318,-107"/>
<text text-anchor="start" x="217.75" y="-93.5" font-family="Helvetica,sans-Serif" font-size="10.00">Tabuleiro::transcrever</text>
<text text-anchor="middle" x="263.88" y="-81.5" font-family="Helvetica,sans-Serif" font-size="10.00">_movimento</text>
</a>
</g>
</g>
<!-- Node3&#45;&gt;Node4 -->
<g id="edge9_Node000003_Node000004" class="edge">
<title>Node3&#45;&gt;Node4</title>
<g id="a_edge9_Node000003_Node000004"><a xlink:title=" ">
<path fill="none" stroke="#63b8ff" d="M170.11,-107.74C179.17,-106.11 188.84,-104.36 198.39,-102.64"/>
<polygon fill="#63b8ff" stroke="#63b8ff" points="198.79,-106.12 208.01,-100.9 197.55,-99.24 198.79,-106.12"/>
</a>
</g>
</g>
<!-- Node5&#45;&gt;Node4 -->
<g id="edge11_Node000005_Node000004" class="edge">
<title>Node5&#45;&gt;Node4</title>
<g id="a_edge11_Node000005_Node000004"><a xlink:title=" ">
<path fill="none" stroke="#63b8ff" d="M170.11,-74.26C179.17,-75.89 188.84,-77.64 198.39,-79.36"/>
<polygon fill="#63b8ff" stroke="#63b8ff" points="197.55,-82.76 208.01,-81.1 198.79,-75.88 197.55,-82.76"/>
</a>
</g>
</g>
</g>
</svg>
