<?xml version="1.0" encoding="UTF-8" standalone="no"?>
<!DOCTYPE svg PUBLIC "-//W3C//DTD SVG 1.1//EN"
 "http://www.w3.org/Graphics/SVG/1.1/DTD/svg11.dtd">
<!-- Generated by graphviz version 11.0.0 (20240428.1522)
 -->
<!-- Title: src/game.cpp Pages: 1 -->
<svg width="259pt" height="317pt"
 viewBox="0.00 0.00 259.38 317.00" xmlns="http://www.w3.org/2000/svg" xmlns:xlink="http://www.w3.org/1999/xlink">
<g id="graph0" class="graph" transform="scale(1 1) rotate(0) translate(4 313)">
<title>src/game.cpp</title>
<!-- Node1 -->
<g id="Node000001" class="node">
<title>Node1</title>
<g id="a_Node000001"><a xlink:title=" ">
<polygon fill="#999999" stroke="#666666" points="87.25,-309 0,-309 0,-287.5 87.25,-287.5 87.25,-309"/>
<text text-anchor="middle" x="43.62" y="-293.6" font-family="Helvetica,sans-Serif" font-size="12.00">src/game.cpp</text>
</a>
</g>
</g>
<!-- Node2 -->
<g id="Node000002" class="node">
<title>Node2</title>
<g id="a_Node000002"><a xlink:href="$game_8hpp.html" xlink:title=" ">
<polygon fill="white" stroke="#666666" points="77.88,-251.5 9.38,-251.5 9.38,-230 77.88,-230 77.88,-251.5"/>
<text text-anchor="middle" x="43.62" y="-236.1" font-family="Helvetica,sans-Serif" font-size="12.00">game.hpp</text>
</a>
</g>
</g>
<!-- Node1&#45;&gt;Node2 -->
<g id="edge11_Node000001_Node000002" class="edge">
<title>Node1&#45;&gt;Node2</title>
<g id="a_edge11_Node000001_Node000002"><a xlink:title=" ">
<path fill="none" stroke="#63b8ff" d="M43.62,-287.07C43.62,-280.42 43.62,-271.48 43.62,-263.3"/>
<polygon fill="#63b8ff" stroke="#63b8ff" points="47.13,-263.38 43.63,-253.38 40.13,-263.38 47.13,-263.38"/>
</a>
</g>
</g>
<!-- Node3 -->
<g id="Node000003" class="node">
<title>Node3</title>
<g id="a_Node000003"><a xlink:title=" ">
<polygon fill="#e0e0e0" stroke="#999999" points="143.88,-21.5 99.38,-21.5 99.38,0 143.88,0 143.88,-21.5"/>
<text text-anchor="middle" x="121.62" y="-6.1" font-family="Helvetica,sans-Serif" font-size="12.00">string</text>
</a>
</g>
</g>
<!-- Node2&#45;&gt;Node3 -->
<g id="edge12_Node000002_Node000003" class="edge">
<title>Node2&#45;&gt;Node3</title>
<g id="a_edge12_Node000002_Node000003"><a xlink:title=" ">
<path fill="none" stroke="#63b8ff" d="M39.72,-229.74C29.08,-200.65 2.52,-114.58 36.62,-57.5 47.78,-38.83 69.48,-27.33 88.15,-20.53"/>
<polygon fill="#63b8ff" stroke="#63b8ff" points="89.14,-23.89 97.55,-17.44 86.95,-17.24 89.14,-23.89"/>
</a>
</g>
</g>
<!-- Node4 -->
<g id="Node000004" class="node">
<title>Node4</title>
<g id="a_Node000004"><a xlink:title=" ">
<polygon fill="#e0e0e0" stroke="#999999" points="93.38,-79 45.88,-79 45.88,-57.5 93.38,-57.5 93.38,-79"/>
<text text-anchor="middle" x="69.62" y="-63.6" font-family="Helvetica,sans-Serif" font-size="12.00">vector</text>
</a>
</g>
</g>
<!-- Node2&#45;&gt;Node4 -->
<g id="edge13_Node000002_Node000004" class="edge">
<title>Node2&#45;&gt;Node4</title>
<g id="a_edge13_Node000002_Node000004"><a xlink:title=" ">
<path fill="none" stroke="#63b8ff" d="M45.17,-229.6C49.32,-202.4 60.74,-127.51 66.38,-90.51"/>
<polygon fill="#63b8ff" stroke="#63b8ff" points="69.84,-91.05 67.89,-80.63 62.92,-89.99 69.84,-91.05"/>
</a>
</g>
</g>
<!-- Node5 -->
<g id="Node000005" class="node">
<title>Node5</title>
<g id="a_Node000005"><a xlink:href="$players_management_8hpp.html" xlink:title=" ">
<polygon fill="white" stroke="#666666" points="215.75,-194 71.5,-194 71.5,-172.5 215.75,-172.5 215.75,-194"/>
<text text-anchor="middle" x="143.62" y="-178.6" font-family="Helvetica,sans-Serif" font-size="12.00">playersManagement.hpp</text>
</a>
</g>
</g>
<!-- Node2&#45;&gt;Node5 -->
<g id="edge14_Node000002_Node000005" class="edge">
<title>Node2&#45;&gt;Node5</title>
<g id="a_edge14_Node000002_Node000005"><a xlink:title=" ">
<path fill="none" stroke="#63b8ff" d="M61.97,-229.57C76.91,-221.28 98.26,-209.43 115.38,-199.93"/>
<polygon fill="#63b8ff" stroke="#63b8ff" points="117.03,-203.01 124.08,-195.1 113.63,-196.89 117.03,-203.01"/>
</a>
</g>
</g>
<!-- Node5&#45;&gt;Node4 -->
<g id="edge15_Node000005_Node000004" class="edge">
<title>Node5&#45;&gt;Node4</title>
<g id="a_edge15_Node000005_Node000004"><a xlink:title=" ">
<path fill="none" stroke="#63b8ff" d="M132.31,-172.19C122.96,-163.43 109.76,-150.06 100.62,-136.5 90.74,-121.84 82.53,-103.53 77.05,-89.72"/>
<polygon fill="#63b8ff" stroke="#63b8ff" points="80.47,-88.87 73.65,-80.77 73.93,-91.36 80.47,-88.87"/>
</a>
</g>
</g>
<!-- Node6 -->
<g id="Node000006" class="node">
<title>Node6</title>
<g id="a_Node000006"><a xlink:href="$player_8hpp.html" xlink:title=" ">
<polygon fill="white" stroke="#666666" points="179.62,-136.5 109.62,-136.5 109.62,-115 179.62,-115 179.62,-136.5"/>
<text text-anchor="middle" x="144.62" y="-121.1" font-family="Helvetica,sans-Serif" font-size="12.00">player.hpp</text>
</a>
</g>
</g>
<!-- Node5&#45;&gt;Node6 -->
<g id="edge16_Node000005_Node000006" class="edge">
<title>Node5&#45;&gt;Node6</title>
<g id="a_edge16_Node000005_Node000006"><a xlink:title=" ">
<path fill="none" stroke="#63b8ff" d="M143.81,-172.07C143.93,-165.42 144.09,-156.48 144.24,-148.3"/>
<polygon fill="#63b8ff" stroke="#63b8ff" points="147.73,-148.44 144.42,-138.38 140.74,-148.31 147.73,-148.44"/>
</a>
</g>
</g>
<!-- Node6&#45;&gt;Node3 -->
<g id="edge17_Node000006_Node000003" class="edge">
<title>Node6&#45;&gt;Node3</title>
<g id="a_edge17_Node000006_Node000003"><a xlink:title=" ">
<path fill="none" stroke="#63b8ff" d="M142.58,-114.72C138.88,-96.51 130.96,-57.62 125.99,-33.19"/>
<polygon fill="#63b8ff" stroke="#63b8ff" points="129.42,-32.5 124,-23.4 122.56,-33.9 129.42,-32.5"/>
</a>
</g>
</g>
<!-- Node6&#45;&gt;Node4 -->
<g id="edge18_Node000006_Node000004" class="edge">
<title>Node6&#45;&gt;Node4</title>
<g id="a_edge18_Node000006_Node000004"><a xlink:title=" ">
<path fill="none" stroke="#63b8ff" d="M130.87,-114.57C120.09,-106.59 104.85,-95.32 92.28,-86.01"/>
<polygon fill="#63b8ff" stroke="#63b8ff" points="94.63,-83.4 84.51,-80.27 90.47,-89.03 94.63,-83.4"/>
</a>
</g>
</g>
<!-- Node7 -->
<g id="Node000007" class="node">
<title>Node7</title>
<g id="a_Node000007"><a xlink:href="$game_status_8hpp.html" xlink:title=" ">
<polygon fill="white" stroke="#666666" points="251.38,-79 149.88,-79 149.88,-57.5 251.38,-57.5 251.38,-79"/>
<text text-anchor="middle" x="200.62" y="-63.6" font-family="Helvetica,sans-Serif" font-size="12.00">gameStatus.hpp</text>
</a>
</g>
</g>
<!-- Node6&#45;&gt;Node7 -->
<g id="edge19_Node000006_Node000007" class="edge">
<title>Node6&#45;&gt;Node7</title>
<g id="a_edge19_Node000006_Node000007"><a xlink:title=" ">
<path fill="none" stroke="#63b8ff" d="M154.9,-114.57C162.55,-106.98 173.22,-96.41 182.32,-87.39"/>
<polygon fill="#63b8ff" stroke="#63b8ff" points="184.7,-89.96 189.34,-80.43 179.78,-84.98 184.7,-89.96"/>
</a>
</g>
</g>
<!-- Node7&#45;&gt;Node3 -->
<g id="edge20_Node000007_Node000003" class="edge">
<title>Node7&#45;&gt;Node3</title>
<g id="a_edge20_Node000007_Node000003"><a xlink:title=" ">
<path fill="none" stroke="#63b8ff" d="M186.14,-57.07C174.67,-49.01 158.42,-37.6 145.09,-28.24"/>
<polygon fill="#63b8ff" stroke="#63b8ff" points="147.46,-25.62 137.26,-22.74 143.43,-31.35 147.46,-25.62"/>
</a>
</g>
</g>
</g>
</svg>
