<?xml version="1.0" encoding="UTF-8" standalone="no"?>
<!DOCTYPE svg PUBLIC "-//W3C//DTD SVG 1.1//EN"
 "http://www.w3.org/Graphics/SVG/1.1/DTD/svg11.dtd">
<!-- Generated by graphviz version 11.0.0 (20240428.1522)
 -->
<!-- Title: include/game.hpp Pages: 1 -->
<svg width="219pt" height="140pt"
 viewBox="0.00 0.00 218.75 140.00" xmlns="http://www.w3.org/2000/svg" xmlns:xlink="http://www.w3.org/1999/xlink">
<g id="graph0" class="graph" transform="scale(1 1) rotate(0) translate(4 136)">
<title>include/game.hpp</title>
<!-- Node1 -->
<g id="Node000001" class="node">
<title>Node1</title>
<g id="a_Node000001"><a xlink:title=" ">
<polygon fill="#999999" stroke="#666666" points="170.38,-132 77.88,-132 77.88,-112 170.38,-112 170.38,-132"/>
<text text-anchor="middle" x="124.12" y="-118.5" font-family="Helvetica,sans-Serif" font-size="10.00">include/game.hpp</text>
</a>
</g>
</g>
<!-- Node2 -->
<g id="Node000002" class="node">
<title>Node2</title>
<g id="a_Node000002"><a xlink:href="$lig4_8hpp.html" xlink:title=" ">
<polygon fill="white" stroke="#666666" points="117.88,-76 34.38,-76 34.38,-56 117.88,-56 117.88,-76"/>
<text text-anchor="middle" x="76.12" y="-62.5" font-family="Helvetica,sans-Serif" font-size="10.00">include/lig4.hpp</text>
</a>
</g>
</g>
<!-- Node1&#45;&gt;Node2 -->
<g id="edge5_Node000001_Node000002" class="edge">
<title>Node1&#45;&gt;Node2</title>
<g id="a_edge5_Node000001_Node000002"><a xlink:title=" ">
<path fill="none" stroke="#63b8ff" d="M108.13,-103C100.18,-94.06 90.9,-83.62 84.39,-76.3"/>
<polygon fill="#63b8ff" stroke="#63b8ff" points="105.5,-105.31 114.76,-110.46 110.73,-100.66 105.5,-105.31"/>
</a>
</g>
</g>
<!-- Node5 -->
<g id="Node000005" class="node">
<title>Node5</title>
<g id="a_Node000005"><a xlink:href="$game_8cpp.html" xlink:title=" ">
<polygon fill="white" stroke="#666666" points="210.75,-76 135.5,-76 135.5,-56 210.75,-56 210.75,-76"/>
<text text-anchor="middle" x="173.12" y="-62.5" font-family="Helvetica,sans-Serif" font-size="10.00">src/game.cpp</text>
</a>
</g>
</g>
<!-- Node1&#45;&gt;Node5 -->
<g id="edge8_Node000001_Node000005" class="edge">
<title>Node1&#45;&gt;Node5</title>
<g id="a_edge8_Node000001_Node000005"><a xlink:title=" ">
<path fill="none" stroke="#63b8ff" d="M140.2,-103.29C148.37,-94.28 157.97,-83.7 164.69,-76.3"/>
<polygon fill="#63b8ff" stroke="#63b8ff" points="137.81,-100.72 133.68,-110.47 142.99,-105.42 137.81,-100.72"/>
</a>
</g>
</g>
<!-- Node3 -->
<g id="Node000003" class="node">
<title>Node3</title>
<g id="a_Node000003"><a xlink:href="$lig4_8cpp.html" xlink:title=" ">
<polygon fill="white" stroke="#666666" points="66.25,-20 0,-20 0,0 66.25,0 66.25,-20"/>
<text text-anchor="middle" x="33.12" y="-6.5" font-family="Helvetica,sans-Serif" font-size="10.00">src/lig4.cpp</text>
</a>
</g>
</g>
<!-- Node2&#45;&gt;Node3 -->
<g id="edge6_Node000002_Node000003" class="edge">
<title>Node2&#45;&gt;Node3</title>
<g id="a_edge6_Node000002_Node000003"><a xlink:title=" ">
<path fill="none" stroke="#63b8ff" d="M61.57,-46.72C54.5,-37.84 46.3,-27.55 40.53,-20.3"/>
<polygon fill="#63b8ff" stroke="#63b8ff" points="58.72,-48.77 67.69,-54.41 64.2,-44.41 58.72,-48.77"/>
</a>
</g>
</g>
<!-- Node4 -->
<g id="Node000004" class="node">
<title>Node4</title>
<g id="a_Node000004"><a xlink:href="$main_8cpp.html" xlink:title=" ">
<polygon fill="white" stroke="#666666" points="156.25,-20 84,-20 84,0 156.25,0 156.25,-20"/>
<text text-anchor="middle" x="120.12" y="-6.5" font-family="Helvetica,sans-Serif" font-size="10.00">src/main.cpp</text>
</a>
</g>
</g>
<!-- Node2&#45;&gt;Node4 -->
<g id="edge7_Node000002_Node000004" class="edge">
<title>Node2&#45;&gt;Node4</title>
<g id="a_edge7_Node000002_Node000004"><a xlink:title=" ">
<path fill="none" stroke="#63b8ff" d="M91.02,-46.72C98.26,-37.84 106.64,-27.55 112.55,-20.3"/>
<polygon fill="#63b8ff" stroke="#63b8ff" points="88.35,-44.46 84.75,-54.42 93.78,-48.88 88.35,-44.46"/>
</a>
</g>
</g>
</g>
</svg>
