<?xml version="1.0" encoding="UTF-8" standalone="no"?>
<!DOCTYPE svg PUBLIC "-//W3C//DTD SVG 1.1//EN"
 "http://www.w3.org/Graphics/SVG/1.1/DTD/svg11.dtd">
<!-- Generated by graphviz version 11.0.0 (20240428.1522)
 -->
<!-- Title: src/gameStatus.cpp Pages: 1 -->
<svg width="266pt" height="145pt"
 viewBox="0.00 0.00 265.75 144.50" xmlns="http://www.w3.org/2000/svg" xmlns:xlink="http://www.w3.org/1999/xlink">
<g id="graph0" class="graph" transform="scale(1 1) rotate(0) translate(4 140.5)">
<title>src/gameStatus.cpp</title>
<!-- Node1 -->
<g id="Node000001" class="node">
<title>Node1</title>
<g id="a_Node000001"><a xlink:title=" ">
<polygon fill="#999999" stroke="#666666" points="210.88,-136.5 90.62,-136.5 90.62,-115 210.88,-115 210.88,-136.5"/>
<text text-anchor="middle" x="150.75" y="-121.1" font-family="Helvetica,sans-Serif" font-size="12.00">src/gameStatus.cpp</text>
</a>
</g>
</g>
<!-- Node2 -->
<g id="Node000002" class="node">
<title>Node2</title>
<g id="a_Node000002"><a xlink:href="$game_status_8hpp.html" xlink:title=" ">
<polygon fill="white" stroke="#666666" points="101.5,-79 0,-79 0,-57.5 101.5,-57.5 101.5,-79"/>
<text text-anchor="middle" x="50.75" y="-63.6" font-family="Helvetica,sans-Serif" font-size="12.00">gameStatus.hpp</text>
</a>
</g>
</g>
<!-- Node1&#45;&gt;Node2 -->
<g id="edge5_Node000001_Node000002" class="edge">
<title>Node1&#45;&gt;Node2</title>
<g id="a_edge5_Node000001_Node000002"><a xlink:title=" ">
<path fill="none" stroke="#63b8ff" d="M132.41,-114.57C117.47,-106.28 96.12,-94.43 78.99,-84.93"/>
<polygon fill="#63b8ff" stroke="#63b8ff" points="80.74,-81.89 70.3,-80.1 77.34,-88.01 80.74,-81.89"/>
</a>
</g>
</g>
<!-- Node4 -->
<g id="Node000004" class="node">
<title>Node4</title>
<g id="a_Node000004"><a xlink:title=" ">
<polygon fill="#e0e0e0" stroke="#999999" points="181.62,-79 119.88,-79 119.88,-57.5 181.62,-57.5 181.62,-79"/>
<text text-anchor="middle" x="150.75" y="-63.6" font-family="Helvetica,sans-Serif" font-size="12.00">iostream</text>
</a>
</g>
</g>
<!-- Node1&#45;&gt;Node4 -->
<g id="edge7_Node000001_Node000004" class="edge">
<title>Node1&#45;&gt;Node4</title>
<g id="a_edge7_Node000001_Node000004"><a xlink:title=" ">
<path fill="none" stroke="#63b8ff" d="M150.75,-114.57C150.75,-107.92 150.75,-98.98 150.75,-90.8"/>
<polygon fill="#63b8ff" stroke="#63b8ff" points="154.25,-90.88 150.75,-80.88 147.25,-90.88 154.25,-90.88"/>
</a>
</g>
</g>
<!-- Node5 -->
<g id="Node000005" class="node">
<title>Node5</title>
<g id="a_Node000005"><a xlink:title=" ">
<polygon fill="#e0e0e0" stroke="#999999" points="257.75,-79 199.75,-79 199.75,-57.5 257.75,-57.5 257.75,-79"/>
<text text-anchor="middle" x="228.75" y="-63.6" font-family="Helvetica,sans-Serif" font-size="12.00">iomanip</text>
</a>
</g>
</g>
<!-- Node1&#45;&gt;Node5 -->
<g id="edge8_Node000001_Node000005" class="edge">
<title>Node1&#45;&gt;Node5</title>
<g id="a_edge8_Node000001_Node000005"><a xlink:title=" ">
<path fill="none" stroke="#63b8ff" d="M165.06,-114.57C176.27,-106.59 192.11,-95.32 205.19,-86.01"/>
<polygon fill="#63b8ff" stroke="#63b8ff" points="207.18,-88.89 213.3,-80.24 203.12,-83.19 207.18,-88.89"/>
</a>
</g>
</g>
<!-- Node3 -->
<g id="Node000003" class="node">
<title>Node3</title>
<g id="a_Node000003"><a xlink:title=" ">
<polygon fill="#e0e0e0" stroke="#999999" points="73,-21.5 28.5,-21.5 28.5,0 73,0 73,-21.5"/>
<text text-anchor="middle" x="50.75" y="-6.1" font-family="Helvetica,sans-Serif" font-size="12.00">string</text>
</a>
</g>
</g>
<!-- Node2&#45;&gt;Node3 -->
<g id="edge6_Node000002_Node000003" class="edge">
<title>Node2&#45;&gt;Node3</title>
<g id="a_edge6_Node000002_Node000003"><a xlink:title=" ">
<path fill="none" stroke="#63b8ff" d="M50.75,-57.07C50.75,-50.42 50.75,-41.48 50.75,-33.3"/>
<polygon fill="#63b8ff" stroke="#63b8ff" points="54.25,-33.38 50.75,-23.38 47.25,-33.38 54.25,-33.38"/>
</a>
</g>
</g>
</g>
</svg>
