<?xml version="1.0" encoding="UTF-8" standalone="no"?>
<!DOCTYPE svg PUBLIC "-//W3C//DTD SVG 1.1//EN"
 "http://www.w3.org/Graphics/SVG/1.1/DTD/svg11.dtd">
<!-- Generated by graphviz version 11.0.0 (20240428.1522)
 -->
<!-- Title: src/game.cpp Pages: 1 -->
<svg width="234pt" height="308pt"
 viewBox="0.00 0.00 234.25 308.00" xmlns="http://www.w3.org/2000/svg" xmlns:xlink="http://www.w3.org/1999/xlink">
<g id="graph0" class="graph" transform="scale(1 1) rotate(0) translate(4 304)">
<title>src/game.cpp</title>
<!-- Node1 -->
<g id="Node000001" class="node">
<title>Node1</title>
<g id="a_Node000001"><a xlink:title=" ">
<polygon fill="#999999" stroke="#666666" points="75.25,-300 0,-300 0,-280 75.25,-280 75.25,-300"/>
<text text-anchor="middle" x="37.62" y="-286.5" font-family="Helvetica,sans-Serif" font-size="10.00">src/game.cpp</text>
</a>
</g>
</g>
<!-- Node2 -->
<g id="Node000002" class="node">
<title>Node2</title>
<g id="a_Node000002"><a xlink:href="$game_8hpp.html" xlink:title=" ">
<polygon fill="white" stroke="#666666" points="67,-244 8.25,-244 8.25,-224 67,-224 67,-244"/>
<text text-anchor="middle" x="37.62" y="-230.5" font-family="Helvetica,sans-Serif" font-size="10.00">game.hpp</text>
</a>
</g>
</g>
<!-- Node1&#45;&gt;Node2 -->
<g id="edge11_Node000001_Node000002" class="edge">
<title>Node1&#45;&gt;Node2</title>
<g id="a_edge11_Node000001_Node000002"><a xlink:title=" ">
<path fill="none" stroke="#63b8ff" d="M37.62,-279.59C37.62,-273.01 37.62,-263.96 37.62,-255.73"/>
<polygon fill="#63b8ff" stroke="#63b8ff" points="41.13,-255.81 37.63,-245.81 34.13,-255.81 41.13,-255.81"/>
</a>
</g>
</g>
<!-- Node3 -->
<g id="Node000003" class="node">
<title>Node3</title>
<g id="a_Node000003"><a xlink:title=" ">
<polygon fill="#e0e0e0" stroke="#999999" points="130.62,-20 90.62,-20 90.62,0 130.62,0 130.62,-20"/>
<text text-anchor="middle" x="110.62" y="-6.5" font-family="Helvetica,sans-Serif" font-size="10.00">string</text>
</a>
</g>
</g>
<!-- Node2&#45;&gt;Node3 -->
<g id="edge12_Node000002_Node000003" class="edge">
<title>Node2&#45;&gt;Node3</title>
<g id="a_edge12_Node000002_Node000003"><a xlink:title=" ">
<path fill="none" stroke="#63b8ff" d="M34.11,-223.71C24.24,-195.96 -0.98,-112.09 31.62,-56 42,-38.14 62.41,-26.79 79.88,-19.95"/>
<polygon fill="#63b8ff" stroke="#63b8ff" points="80.59,-23.41 88.84,-16.76 78.25,-16.81 80.59,-23.41"/>
</a>
</g>
</g>
<!-- Node4 -->
<g id="Node000004" class="node">
<title>Node4</title>
<g id="a_Node000004"><a xlink:title=" ">
<polygon fill="#e0e0e0" stroke="#999999" points="82.38,-76 40.88,-76 40.88,-56 82.38,-56 82.38,-76"/>
<text text-anchor="middle" x="61.62" y="-62.5" font-family="Helvetica,sans-Serif" font-size="10.00">vector</text>
</a>
</g>
</g>
<!-- Node2&#45;&gt;Node4 -->
<g id="edge13_Node000002_Node000004" class="edge">
<title>Node2&#45;&gt;Node4</title>
<g id="a_edge13_Node000002_Node000004"><a xlink:title=" ">
<path fill="none" stroke="#63b8ff" d="M38.98,-223.6C42.76,-197.46 53.46,-123.48 58.68,-87.36"/>
<polygon fill="#63b8ff" stroke="#63b8ff" points="62.1,-88.19 60.06,-77.8 55.17,-87.19 62.1,-88.19"/>
</a>
</g>
</g>
<!-- Node5 -->
<g id="Node000005" class="node">
<title>Node5</title>
<g id="a_Node000005"><a xlink:href="$players_management_8hpp.html" xlink:title=" ">
<polygon fill="white" stroke="#666666" points="187.88,-188 65.38,-188 65.38,-168 187.88,-168 187.88,-188"/>
<text text-anchor="middle" x="126.62" y="-174.5" font-family="Helvetica,sans-Serif" font-size="10.00">playersManagement.hpp</text>
</a>
</g>
</g>
<!-- Node2&#45;&gt;Node5 -->
<g id="edge14_Node000002_Node000005" class="edge">
<title>Node2&#45;&gt;Node5</title>
<g id="a_edge14_Node000002_Node000005"><a xlink:title=" ">
<path fill="none" stroke="#63b8ff" d="M53.13,-223.59C66.45,-215.51 85.9,-203.71 101.45,-194.27"/>
<polygon fill="#63b8ff" stroke="#63b8ff" points="102.97,-197.44 109.71,-189.26 99.34,-191.46 102.97,-197.44"/>
</a>
</g>
</g>
<!-- Node5&#45;&gt;Node4 -->
<g id="edge15_Node000005_Node000004" class="edge">
<title>Node5&#45;&gt;Node4</title>
<g id="a_edge15_Node000005_Node000004"><a xlink:title=" ">
<path fill="none" stroke="#63b8ff" d="M119.33,-167.62C112.55,-158.71 102.36,-144.8 94.62,-132 85.71,-117.26 76.94,-99.82 70.69,-86.71"/>
<polygon fill="#63b8ff" stroke="#63b8ff" points="73.96,-85.43 66.54,-77.86 67.62,-88.4 73.96,-85.43"/>
</a>
</g>
</g>
<!-- Node6 -->
<g id="Node000006" class="node">
<title>Node6</title>
<g id="a_Node000006"><a xlink:href="$player_8hpp.html" xlink:title=" ">
<polygon fill="white" stroke="#666666" points="165.12,-132 104.12,-132 104.12,-112 165.12,-112 165.12,-132"/>
<text text-anchor="middle" x="134.62" y="-118.5" font-family="Helvetica,sans-Serif" font-size="10.00">player.hpp</text>
</a>
</g>
</g>
<!-- Node5&#45;&gt;Node6 -->
<g id="edge16_Node000005_Node000006" class="edge">
<title>Node5&#45;&gt;Node6</title>
<g id="a_edge16_Node000005_Node000006"><a xlink:title=" ">
<path fill="none" stroke="#63b8ff" d="M128.02,-167.59C129.01,-160.93 130.37,-151.75 131.6,-143.44"/>
<polygon fill="#63b8ff" stroke="#63b8ff" points="135.02,-144.2 133.03,-133.8 128.1,-143.17 135.02,-144.2"/>
</a>
</g>
</g>
<!-- Node6&#45;&gt;Node3 -->
<g id="edge17_Node000006_Node000003" class="edge">
<title>Node6&#45;&gt;Node3</title>
<g id="a_edge17_Node000006_Node000003"><a xlink:title=" ">
<path fill="none" stroke="#63b8ff" d="M132.58,-111.62C128.72,-93.92 120.28,-55.24 115.06,-31.32"/>
<polygon fill="#63b8ff" stroke="#63b8ff" points="118.54,-30.86 112.99,-21.83 111.7,-32.35 118.54,-30.86"/>
</a>
</g>
</g>
<!-- Node6&#45;&gt;Node4 -->
<g id="edge18_Node000006_Node000004" class="edge">
<title>Node6&#45;&gt;Node4</title>
<g id="a_edge18_Node000006_Node000004"><a xlink:title=" ">
<path fill="none" stroke="#63b8ff" d="M121.91,-111.59C111.23,-103.7 95.75,-92.24 83.14,-82.92"/>
<polygon fill="#63b8ff" stroke="#63b8ff" points="85.53,-80.33 75.41,-77.2 81.37,-85.96 85.53,-80.33"/>
</a>
</g>
</g>
<!-- Node7 -->
<g id="Node000007" class="node">
<title>Node7</title>
<g id="a_Node000007"><a xlink:href="$game_status_8hpp.html" xlink:title=" ">
<polygon fill="white" stroke="#666666" points="226.25,-76 139,-76 139,-56 226.25,-56 226.25,-76"/>
<text text-anchor="middle" x="182.62" y="-62.5" font-family="Helvetica,sans-Serif" font-size="10.00">gameStatus.hpp</text>
</a>
</g>
</g>
<!-- Node6&#45;&gt;Node7 -->
<g id="edge19_Node000006_Node000007" class="edge">
<title>Node6&#45;&gt;Node7</title>
<g id="a_edge19_Node000006_Node000007"><a xlink:title=" ">
<path fill="none" stroke="#63b8ff" d="M142.99,-111.59C149.52,-104.24 158.81,-93.8 166.74,-84.87"/>
<polygon fill="#63b8ff" stroke="#63b8ff" points="169.33,-87.23 173.35,-77.43 164.09,-82.58 169.33,-87.23"/>
</a>
</g>
</g>
<!-- Node7&#45;&gt;Node3 -->
<g id="edge20_Node000007_Node000003" class="edge">
<title>Node7&#45;&gt;Node3</title>
<g id="a_edge20_Node000007_Node000003"><a xlink:title=" ">
<path fill="none" stroke="#63b8ff" d="M170.08,-55.59C159.66,-47.77 144.58,-36.46 132.21,-27.19"/>
<polygon fill="#63b8ff" stroke="#63b8ff" points="134.33,-24.41 124.23,-21.21 130.13,-30.01 134.33,-24.41"/>
</a>
</g>
</g>
</g>
</svg>
