<?xml version="1.0" encoding="UTF-8" standalone="no"?>
<!DOCTYPE svg PUBLIC "-//W3C//DTD SVG 1.1//EN"
 "http://www.w3.org/Graphics/SVG/1.1/DTD/svg11.dtd">
<!-- Generated by graphviz version 11.0.0 (20240428.1522)
 -->
<!-- Title: include/game.hpp Pages: 1 -->
<svg width="243pt" height="252pt"
 viewBox="0.00 0.00 242.88 252.00" xmlns="http://www.w3.org/2000/svg" xmlns:xlink="http://www.w3.org/1999/xlink">
<g id="graph0" class="graph" transform="scale(1 1) rotate(0) translate(4 248)">
<title>include/game.hpp</title>
<!-- Node1 -->
<g id="Node000001" class="node">
<title>Node1</title>
<g id="a_Node000001"><a xlink:title=" ">
<polygon fill="#999999" stroke="#666666" points="92.5,-244 0,-244 0,-224 92.5,-224 92.5,-244"/>
<text text-anchor="middle" x="46.25" y="-230.5" font-family="Helvetica,sans-Serif" font-size="10.00">include/game.hpp</text>
</a>
</g>
</g>
<!-- Node2 -->
<g id="Node000002" class="node">
<title>Node2</title>
<g id="a_Node000002"><a xlink:title=" ">
<polygon fill="#e0e0e0" stroke="#999999" points="139.25,-20 99.25,-20 99.25,0 139.25,0 139.25,-20"/>
<text text-anchor="middle" x="119.25" y="-6.5" font-family="Helvetica,sans-Serif" font-size="10.00">string</text>
</a>
</g>
</g>
<!-- Node1&#45;&gt;Node2 -->
<g id="edge10_Node000001_Node000002" class="edge">
<title>Node1&#45;&gt;Node2</title>
<g id="a_edge10_Node000001_Node000002"><a xlink:title=" ">
<path fill="none" stroke="#63b8ff" d="M42.74,-223.71C32.86,-195.96 7.65,-112.09 40.25,-56 50.63,-38.14 71.04,-26.79 88.51,-19.95"/>
<polygon fill="#63b8ff" stroke="#63b8ff" points="89.22,-23.41 97.47,-16.76 86.87,-16.81 89.22,-23.41"/>
</a>
</g>
</g>
<!-- Node3 -->
<g id="Node000003" class="node">
<title>Node3</title>
<g id="a_Node000003"><a xlink:title=" ">
<polygon fill="#e0e0e0" stroke="#999999" points="91,-76 49.5,-76 49.5,-56 91,-56 91,-76"/>
<text text-anchor="middle" x="70.25" y="-62.5" font-family="Helvetica,sans-Serif" font-size="10.00">vector</text>
</a>
</g>
</g>
<!-- Node1&#45;&gt;Node3 -->
<g id="edge11_Node000001_Node000003" class="edge">
<title>Node1&#45;&gt;Node3</title>
<g id="a_edge11_Node000001_Node000003"><a xlink:title=" ">
<path fill="none" stroke="#63b8ff" d="M47.61,-223.6C51.39,-197.46 62.08,-123.48 67.31,-87.36"/>
<polygon fill="#63b8ff" stroke="#63b8ff" points="70.72,-88.19 68.69,-77.8 63.79,-87.19 70.72,-88.19"/>
</a>
</g>
</g>
<!-- Node4 -->
<g id="Node000004" class="node">
<title>Node4</title>
<g id="a_Node000004"><a xlink:href="$players_management_8hpp.html" xlink:title=" ">
<polygon fill="white" stroke="#666666" points="196.5,-188 74,-188 74,-168 196.5,-168 196.5,-188"/>
<text text-anchor="middle" x="135.25" y="-174.5" font-family="Helvetica,sans-Serif" font-size="10.00">playersManagement.hpp</text>
</a>
</g>
</g>
<!-- Node1&#45;&gt;Node4 -->
<g id="edge12_Node000001_Node000004" class="edge">
<title>Node1&#45;&gt;Node4</title>
<g id="a_edge12_Node000001_Node000004"><a xlink:title=" ">
<path fill="none" stroke="#63b8ff" d="M61.75,-223.59C75.07,-215.51 94.53,-203.71 110.08,-194.27"/>
<polygon fill="#63b8ff" stroke="#63b8ff" points="111.6,-197.44 118.33,-189.26 107.97,-191.46 111.6,-197.44"/>
</a>
</g>
</g>
<!-- Node4&#45;&gt;Node3 -->
<g id="edge13_Node000004_Node000003" class="edge">
<title>Node4&#45;&gt;Node3</title>
<g id="a_edge13_Node000004_Node000003"><a xlink:title=" ">
<path fill="none" stroke="#63b8ff" d="M127.96,-167.62C121.18,-158.71 110.99,-144.8 103.25,-132 94.33,-117.26 85.57,-99.82 79.32,-86.71"/>
<polygon fill="#63b8ff" stroke="#63b8ff" points="82.58,-85.43 75.17,-77.86 76.24,-88.4 82.58,-85.43"/>
</a>
</g>
</g>
<!-- Node5 -->
<g id="Node000005" class="node">
<title>Node5</title>
<g id="a_Node000005"><a xlink:href="$player_8hpp.html" xlink:title=" ">
<polygon fill="white" stroke="#666666" points="173.75,-132 112.75,-132 112.75,-112 173.75,-112 173.75,-132"/>
<text text-anchor="middle" x="143.25" y="-118.5" font-family="Helvetica,sans-Serif" font-size="10.00">player.hpp</text>
</a>
</g>
</g>
<!-- Node4&#45;&gt;Node5 -->
<g id="edge14_Node000004_Node000005" class="edge">
<title>Node4&#45;&gt;Node5</title>
<g id="a_edge14_Node000004_Node000005"><a xlink:title=" ">
<path fill="none" stroke="#63b8ff" d="M136.64,-167.59C137.63,-160.93 138.99,-151.75 140.22,-143.44"/>
<polygon fill="#63b8ff" stroke="#63b8ff" points="143.65,-144.2 141.65,-133.8 136.72,-143.17 143.65,-144.2"/>
</a>
</g>
</g>
<!-- Node5&#45;&gt;Node2 -->
<g id="edge15_Node000005_Node000002" class="edge">
<title>Node5&#45;&gt;Node2</title>
<g id="a_edge15_Node000005_Node000002"><a xlink:title=" ">
<path fill="none" stroke="#63b8ff" d="M141.2,-111.62C137.34,-93.92 128.9,-55.24 123.68,-31.32"/>
<polygon fill="#63b8ff" stroke="#63b8ff" points="127.16,-30.86 121.61,-21.83 120.33,-32.35 127.16,-30.86"/>
</a>
</g>
</g>
<!-- Node5&#45;&gt;Node3 -->
<g id="edge16_Node000005_Node000003" class="edge">
<title>Node5&#45;&gt;Node3</title>
<g id="a_edge16_Node000005_Node000003"><a xlink:title=" ">
<path fill="none" stroke="#63b8ff" d="M130.53,-111.59C119.86,-103.7 104.37,-92.24 91.77,-82.92"/>
<polygon fill="#63b8ff" stroke="#63b8ff" points="94.16,-80.33 84.04,-77.2 89.99,-85.96 94.16,-80.33"/>
</a>
</g>
</g>
<!-- Node6 -->
<g id="Node000006" class="node">
<title>Node6</title>
<g id="a_Node000006"><a xlink:href="$game_status_8hpp.html" xlink:title=" ">
<polygon fill="white" stroke="#666666" points="234.88,-76 147.62,-76 147.62,-56 234.88,-56 234.88,-76"/>
<text text-anchor="middle" x="191.25" y="-62.5" font-family="Helvetica,sans-Serif" font-size="10.00">gameStatus.hpp</text>
</a>
</g>
</g>
<!-- Node5&#45;&gt;Node6 -->
<g id="edge17_Node000005_Node000006" class="edge">
<title>Node5&#45;&gt;Node6</title>
<g id="a_edge17_Node000005_Node000006"><a xlink:title=" ">
<path fill="none" stroke="#63b8ff" d="M151.61,-111.59C158.15,-104.24 167.43,-93.8 175.37,-84.87"/>
<polygon fill="#63b8ff" stroke="#63b8ff" points="177.95,-87.23 181.98,-77.43 172.72,-82.58 177.95,-87.23"/>
</a>
</g>
</g>
<!-- Node6&#45;&gt;Node2 -->
<g id="edge18_Node000006_Node000002" class="edge">
<title>Node6&#45;&gt;Node2</title>
<g id="a_edge18_Node000006_Node000002"><a xlink:title=" ">
<path fill="none" stroke="#63b8ff" d="M178.71,-55.59C168.28,-47.77 153.2,-36.46 140.84,-27.19"/>
<polygon fill="#63b8ff" stroke="#63b8ff" points="142.96,-24.41 132.86,-21.21 138.76,-30.01 142.96,-24.41"/>
</a>
</g>
</g>
</g>
</svg>
