<?xml version="1.0" encoding="UTF-8" standalone="no"?>
<!DOCTYPE svg PUBLIC "-//W3C//DTD SVG 1.1//EN"
 "http://www.w3.org/Graphics/SVG/1.1/DTD/svg11.dtd">
<!-- Generated by graphviz version 11.0.0 (20240428.1522)
 -->
<!-- Title: include/gameStatus.hpp Pages: 1 -->
<svg width="525pt" height="308pt"
 viewBox="0.00 0.00 524.62 308.00" xmlns="http://www.w3.org/2000/svg" xmlns:xlink="http://www.w3.org/1999/xlink">
<g id="graph0" class="graph" transform="scale(1 1) rotate(0) translate(4 304)">
<title>include/gameStatus.hpp</title>
<!-- Node1 -->
<g id="Node000001" class="node">
<title>Node1</title>
<g id="a_Node000001"><a xlink:title=" ">
<polygon fill="#999999" stroke="#666666" points="445.25,-300 324.25,-300 324.25,-280 445.25,-280 445.25,-300"/>
<text text-anchor="middle" x="384.75" y="-286.5" font-family="Helvetica,sans-Serif" font-size="10.00">include/gameStatus.hpp</text>
</a>
</g>
</g>
<!-- Node2 -->
<g id="Node000002" class="node">
<title>Node2</title>
<g id="a_Node000002"><a xlink:href="$player_8hpp.html" xlink:title=" ">
<polygon fill="white" stroke="#666666" points="357.12,-244 262.38,-244 262.38,-224 357.12,-224 357.12,-244"/>
<text text-anchor="middle" x="309.75" y="-230.5" font-family="Helvetica,sans-Serif" font-size="10.00">include/player.hpp</text>
</a>
</g>
</g>
<!-- Node1&#45;&gt;Node2 -->
<g id="edge16_Node000001_Node000002" class="edge">
<title>Node1&#45;&gt;Node2</title>
<g id="a_edge16_Node000001_Node000002"><a xlink:title=" ">
<path fill="none" stroke="#63b8ff" d="M362.53,-273C349.64,-263.72 333.85,-252.35 322.92,-244.48"/>
<polygon fill="#63b8ff" stroke="#63b8ff" points="360.3,-275.71 370.46,-278.71 364.39,-270.03 360.3,-275.71"/>
</a>
</g>
</g>
<!-- Node12 -->
<g id="Node000012" class="node">
<title>Node12</title>
<g id="a_Node000012"><a xlink:href="$player_8cpp.html" xlink:title=" ">
<polygon fill="white" stroke="#666666" points="423.5,-188 346,-188 346,-168 423.5,-168 423.5,-188"/>
<text text-anchor="middle" x="384.75" y="-174.5" font-family="Helvetica,sans-Serif" font-size="10.00">src/player.cpp</text>
</a>
</g>
</g>
<!-- Node1&#45;&gt;Node12 -->
<g id="edge30_Node000001_Node000012" class="edge">
<title>Node1&#45;&gt;Node12</title>
<g id="a_edge30_Node000001_Node000012"><a xlink:title=" ">
<path fill="none" stroke="#63b8ff" d="M384.75,-268.31C384.75,-244.36 384.75,-205.95 384.75,-188.35"/>
<polygon fill="#63b8ff" stroke="#63b8ff" points="381.25,-268.11 384.75,-278.11 388.25,-268.11 381.25,-268.11"/>
</a>
</g>
</g>
<!-- Node13 -->
<g id="Node000013" class="node">
<title>Node13</title>
<g id="a_Node000013"><a xlink:href="$game_status_8cpp.html" xlink:title=" ">
<polygon fill="white" stroke="#666666" points="516.62,-244 412.88,-244 412.88,-224 516.62,-224 516.62,-244"/>
<text text-anchor="middle" x="464.75" y="-230.5" font-family="Helvetica,sans-Serif" font-size="10.00">src/gameStatus.cpp</text>
</a>
</g>
</g>
<!-- Node1&#45;&gt;Node13 -->
<g id="edge29_Node000001_Node000013" class="edge">
<title>Node1&#45;&gt;Node13</title>
<g id="a_edge29_Node000001_Node000013"><a xlink:title=" ">
<path fill="none" stroke="#63b8ff" d="M408.05,-273.27C421.87,-263.94 438.93,-252.43 450.71,-244.48"/>
<polygon fill="#63b8ff" stroke="#63b8ff" points="406.27,-270.25 399.94,-278.75 410.19,-276.05 406.27,-270.25"/>
</a>
</g>
</g>
<!-- Node3 -->
<g id="Node000003" class="node">
<title>Node3</title>
<g id="a_Node000003"><a xlink:href="$players_management_8hpp.html" xlink:title=" ">
<polygon fill="white" stroke="#666666" points="327.88,-188 171.62,-188 171.62,-168 327.88,-168 327.88,-188"/>
<text text-anchor="middle" x="249.75" y="-174.5" font-family="Helvetica,sans-Serif" font-size="10.00">include/playersManagement.hpp</text>
</a>
</g>
</g>
<!-- Node2&#45;&gt;Node3 -->
<g id="edge17_Node000002_Node000003" class="edge">
<title>Node2&#45;&gt;Node3</title>
<g id="a_edge17_Node000002_Node000003"><a xlink:title=" ">
<path fill="none" stroke="#63b8ff" d="M291,-216.13C280.8,-206.94 268.56,-195.93 260.08,-188.3"/>
<polygon fill="#63b8ff" stroke="#63b8ff" points="288.4,-218.49 298.17,-222.58 293.08,-213.29 288.4,-218.49"/>
</a>
</g>
</g>
<!-- Node2&#45;&gt;Node12 -->
<g id="edge28_Node000002_Node000012" class="edge">
<title>Node2&#45;&gt;Node12</title>
<g id="a_edge28_Node000002_Node000012"><a xlink:title=" ">
<path fill="none" stroke="#63b8ff" d="M331.97,-217C344.86,-207.72 360.65,-196.35 371.58,-188.48"/>
<polygon fill="#63b8ff" stroke="#63b8ff" points="330.11,-214.03 324.04,-222.71 334.2,-219.71 330.11,-214.03"/>
</a>
</g>
</g>
<!-- Node4 -->
<g id="Node000004" class="node">
<title>Node4</title>
<g id="a_Node000004"><a xlink:href="$game_8hpp.html" xlink:title=" ">
<polygon fill="white" stroke="#666666" points="177,-132 84.5,-132 84.5,-112 177,-112 177,-132"/>
<text text-anchor="middle" x="130.75" y="-118.5" font-family="Helvetica,sans-Serif" font-size="10.00">include/game.hpp</text>
</a>
</g>
</g>
<!-- Node3&#45;&gt;Node4 -->
<g id="edge18_Node000003_Node000004" class="edge">
<title>Node3&#45;&gt;Node4</title>
<g id="a_edge18_Node000003_Node000004"><a xlink:title=" ">
<path fill="none" stroke="#63b8ff" d="M218.63,-162.88C197.52,-153.3 170.18,-140.89 151.64,-132.48"/>
<polygon fill="#63b8ff" stroke="#63b8ff" points="217.09,-166.02 227.64,-166.97 219.98,-159.65 217.09,-166.02"/>
</a>
</g>
</g>
<!-- Node7 -->
<g id="Node000007" class="node">
<title>Node7</title>
<g id="a_Node000007"><a xlink:href="$main_8cpp.html" xlink:title=" ">
<polygon fill="white" stroke="#666666" points="240.88,-20 168.62,-20 168.62,0 240.88,0 240.88,-20"/>
<text text-anchor="middle" x="204.75" y="-6.5" font-family="Helvetica,sans-Serif" font-size="10.00">src/main.cpp</text>
</a>
</g>
</g>
<!-- Node3&#45;&gt;Node7 -->
<g id="edge26_Node000003_Node000007" class="edge">
<title>Node3&#45;&gt;Node7</title>
<g id="a_edge26_Node000003_Node000007"><a xlink:title=" ">
<path fill="none" stroke="#63b8ff" d="M236.7,-158.02C231.93,-150.26 226.93,-141.01 223.75,-132 209.64,-92.1 205.99,-41.12 205.06,-20.39"/>
<polygon fill="#63b8ff" stroke="#63b8ff" points="233.65,-159.75 242.04,-166.23 239.52,-155.94 233.65,-159.75"/>
</a>
</g>
</g>
<!-- Node9 -->
<g id="Node000009" class="node">
<title>Node9</title>
<g id="a_Node000009"><a xlink:href="$players_menu_8hpp.html" xlink:title=" ">
<polygon fill="white" stroke="#666666" points="356.75,-132 232.75,-132 232.75,-112 356.75,-112 356.75,-132"/>
<text text-anchor="middle" x="294.75" y="-118.5" font-family="Helvetica,sans-Serif" font-size="10.00">include/playersMenu.hpp</text>
</a>
</g>
</g>
<!-- Node3&#45;&gt;Node9 -->
<g id="edge23_Node000003_Node000009" class="edge">
<title>Node3&#45;&gt;Node9</title>
<g id="a_edge23_Node000003_Node000009"><a xlink:title=" ">
<path fill="none" stroke="#63b8ff" d="M264.75,-159C272.2,-150.06 280.9,-139.62 287,-132.3"/>
<polygon fill="#63b8ff" stroke="#63b8ff" points="262.27,-156.51 258.56,-166.43 267.65,-160.99 262.27,-156.51"/>
</a>
</g>
</g>
<!-- Node11 -->
<g id="Node000011" class="node">
<title>Node11</title>
<g id="a_Node000011"><a xlink:href="$players_management_8cpp.html" xlink:title=" ">
<polygon fill="white" stroke="#666666" points="514.25,-132 375.25,-132 375.25,-112 514.25,-112 514.25,-132"/>
<text text-anchor="middle" x="444.75" y="-118.5" font-family="Helvetica,sans-Serif" font-size="10.00">src/playersManagement.cpp</text>
</a>
</g>
</g>
<!-- Node3&#45;&gt;Node11 -->
<g id="edge27_Node000003_Node000011" class="edge">
<title>Node3&#45;&gt;Node11</title>
<g id="a_edge27_Node000003_Node000011"><a xlink:title=" ">
<path fill="none" stroke="#63b8ff" d="M294.67,-164.56C329.95,-154.79 378.33,-141.39 410.52,-132.48"/>
<polygon fill="#63b8ff" stroke="#63b8ff" points="293.88,-161.15 285.18,-167.19 295.75,-167.89 293.88,-161.15"/>
</a>
</g>
</g>
<!-- Node5 -->
<g id="Node000005" class="node">
<title>Node5</title>
<g id="a_Node000005"><a xlink:href="$lig4_8hpp.html" xlink:title=" ">
<polygon fill="white" stroke="#666666" points="83.5,-76 0,-76 0,-56 83.5,-56 83.5,-76"/>
<text text-anchor="middle" x="41.75" y="-62.5" font-family="Helvetica,sans-Serif" font-size="10.00">include/lig4.hpp</text>
</a>
</g>
</g>
<!-- Node4&#45;&gt;Node5 -->
<g id="edge19_Node000004_Node000005" class="edge">
<title>Node4&#45;&gt;Node5</title>
<g id="a_edge19_Node000004_Node000005"><a xlink:title=" ">
<path fill="none" stroke="#63b8ff" d="M105.72,-105.81C90.19,-96.39 70.73,-84.58 57.37,-76.48"/>
<polygon fill="#63b8ff" stroke="#63b8ff" points="103.59,-108.61 113.95,-110.81 107.22,-102.63 103.59,-108.61"/>
</a>
</g>
</g>
<!-- Node8 -->
<g id="Node000008" class="node">
<title>Node8</title>
<g id="a_Node000008"><a xlink:href="$game_8cpp.html" xlink:title=" ">
<polygon fill="white" stroke="#666666" points="176.38,-76 101.12,-76 101.12,-56 176.38,-56 176.38,-76"/>
<text text-anchor="middle" x="138.75" y="-62.5" font-family="Helvetica,sans-Serif" font-size="10.00">src/game.cpp</text>
</a>
</g>
</g>
<!-- Node4&#45;&gt;Node8 -->
<g id="edge22_Node000004_Node000008" class="edge">
<title>Node4&#45;&gt;Node8</title>
<g id="a_edge22_Node000004_Node000008"><a xlink:title=" ">
<path fill="none" stroke="#63b8ff" d="M133.8,-100.43C135.03,-92.11 136.39,-82.93 137.37,-76.3"/>
<polygon fill="#63b8ff" stroke="#63b8ff" points="130.37,-99.69 132.37,-110.1 137.29,-100.72 130.37,-99.69"/>
</a>
</g>
</g>
<!-- Node6 -->
<g id="Node000006" class="node">
<title>Node6</title>
<g id="a_Node000006"><a xlink:href="$lig4_8cpp.html" xlink:title=" ">
<polygon fill="white" stroke="#666666" points="74.88,-20 8.62,-20 8.62,0 74.88,0 74.88,-20"/>
<text text-anchor="middle" x="41.75" y="-6.5" font-family="Helvetica,sans-Serif" font-size="10.00">src/lig4.cpp</text>
</a>
</g>
</g>
<!-- Node5&#45;&gt;Node6 -->
<g id="edge20_Node000005_Node000006" class="edge">
<title>Node5&#45;&gt;Node6</title>
<g id="a_edge20_Node000005_Node000006"><a xlink:title=" ">
<path fill="none" stroke="#63b8ff" d="M41.75,-44.13C41.75,-35.9 41.75,-26.85 41.75,-20.3"/>
<polygon fill="#63b8ff" stroke="#63b8ff" points="38.25,-44.08 41.75,-54.08 45.25,-44.08 38.25,-44.08"/>
</a>
</g>
</g>
<!-- Node5&#45;&gt;Node7 -->
<g id="edge21_Node000005_Node000007" class="edge">
<title>Node5&#45;&gt;Node7</title>
<g id="a_edge21_Node000005_Node000007"><a xlink:title=" ">
<path fill="none" stroke="#63b8ff" d="M80.84,-52.05C110.19,-42.33 149.7,-29.24 176.14,-20.48"/>
<polygon fill="#63b8ff" stroke="#63b8ff" points="79.97,-48.65 71.58,-55.12 82.17,-55.3 79.97,-48.65"/>
</a>
</g>
</g>
<!-- Node9&#45;&gt;Node7 -->
<g id="edge24_Node000009_Node000007" class="edge">
<title>Node9&#45;&gt;Node7</title>
<g id="a_edge24_Node000009_Node000007"><a xlink:title=" ">
<path fill="none" stroke="#63b8ff" d="M279.94,-102.9C260.57,-79.22 227.33,-38.6 212.4,-20.35"/>
<polygon fill="#63b8ff" stroke="#63b8ff" points="277.08,-104.93 286.12,-110.45 282.49,-100.49 277.08,-104.93"/>
</a>
</g>
</g>
<!-- Node10 -->
<g id="Node000010" class="node">
<title>Node10</title>
<g id="a_Node000010"><a xlink:href="$players_menu_8cpp.html" xlink:title=" ">
<polygon fill="white" stroke="#666666" points="377.12,-76 270.38,-76 270.38,-56 377.12,-56 377.12,-76"/>
<text text-anchor="middle" x="323.75" y="-62.5" font-family="Helvetica,sans-Serif" font-size="10.00">src/playersMenu.cpp</text>
</a>
</g>
</g>
<!-- Node9&#45;&gt;Node10 -->
<g id="edge25_Node000009_Node000010" class="edge">
<title>Node9&#45;&gt;Node10</title>
<g id="a_edge25_Node000009_Node000010"><a xlink:title=" ">
<path fill="none" stroke="#63b8ff" d="M305.18,-101.58C309.8,-92.97 315.03,-83.24 318.76,-76.3"/>
<polygon fill="#63b8ff" stroke="#63b8ff" points="302.17,-99.79 300.52,-110.26 308.33,-103.11 302.17,-99.79"/>
</a>
</g>
</g>
</g>
</svg>
