<?xml version="1.0" encoding="UTF-8" standalone="no"?>
<!DOCTYPE svg PUBLIC "-//W3C//DTD SVG 1.1//EN"
 "http://www.w3.org/Graphics/SVG/1.1/DTD/svg11.dtd">
<!-- Generated by graphviz version 11.0.0 (20240428.1522)
 -->
<!-- Title: include/game.hpp Pages: 1 -->
<svg width="248pt" height="145pt"
 viewBox="0.00 0.00 247.62 144.50" xmlns="http://www.w3.org/2000/svg" xmlns:xlink="http://www.w3.org/1999/xlink">
<g id="graph0" class="graph" transform="scale(1 1) rotate(0) translate(4 140.5)">
<title>include/game.hpp</title>
<!-- Node1 -->
<g id="Node000001" class="node">
<title>Node1</title>
<g id="a_Node000001"><a xlink:title=" ">
<polygon fill="#999999" stroke="#666666" points="195.12,-136.5 86.88,-136.5 86.88,-115 195.12,-115 195.12,-136.5"/>
<text text-anchor="middle" x="141" y="-121.1" font-family="Helvetica,sans-Serif" font-size="12.00">include/game.hpp</text>
</a>
</g>
</g>
<!-- Node2 -->
<g id="Node000002" class="node">
<title>Node2</title>
<g id="a_Node000002"><a xlink:href="$lig4_8hpp.html" xlink:title=" ">
<polygon fill="white" stroke="#666666" points="134.5,-79 37.5,-79 37.5,-57.5 134.5,-57.5 134.5,-79"/>
<text text-anchor="middle" x="86" y="-63.6" font-family="Helvetica,sans-Serif" font-size="12.00">include/lig4.hpp</text>
</a>
</g>
</g>
<!-- Node1&#45;&gt;Node2 -->
<g id="edge5_Node000001_Node000002" class="edge">
<title>Node1&#45;&gt;Node2</title>
<g id="a_edge5_Node000001_Node000002"><a xlink:title=" ">
<path fill="none" stroke="#63b8ff" d="M122.94,-106.53C114,-97.5 103.53,-86.94 96.02,-79.37"/>
<polygon fill="#63b8ff" stroke="#63b8ff" points="120.32,-108.86 129.85,-113.5 125.29,-103.93 120.32,-108.86"/>
</a>
</g>
</g>
<!-- Node5 -->
<g id="Node000005" class="node">
<title>Node5</title>
<g id="a_Node000005"><a xlink:href="$game_8cpp.html" xlink:title=" ">
<polygon fill="white" stroke="#666666" points="239.62,-79 152.38,-79 152.38,-57.5 239.62,-57.5 239.62,-79"/>
<text text-anchor="middle" x="196" y="-63.6" font-family="Helvetica,sans-Serif" font-size="12.00">src/game.cpp</text>
</a>
</g>
</g>
<!-- Node1&#45;&gt;Node5 -->
<g id="edge8_Node000001_Node000005" class="edge">
<title>Node1&#45;&gt;Node5</title>
<g id="a_edge8_Node000001_Node000005"><a xlink:title=" ">
<path fill="none" stroke="#63b8ff" d="M159.06,-106.53C168,-97.5 178.47,-86.94 185.98,-79.37"/>
<polygon fill="#63b8ff" stroke="#63b8ff" points="156.71,-103.93 152.15,-113.5 161.68,-108.86 156.71,-103.93"/>
</a>
</g>
</g>
<!-- Node3 -->
<g id="Node000003" class="node">
<title>Node3</title>
<g id="a_Node000003"><a xlink:href="$lig4_8cpp.html" xlink:title=" ">
<polygon fill="white" stroke="#666666" points="76,-21.5 0,-21.5 0,0 76,0 76,-21.5"/>
<text text-anchor="middle" x="38" y="-6.1" font-family="Helvetica,sans-Serif" font-size="12.00">src/lig4.cpp</text>
</a>
</g>
</g>
<!-- Node2&#45;&gt;Node3 -->
<g id="edge6_Node000002_Node000003" class="edge">
<title>Node2&#45;&gt;Node3</title>
<g id="a_edge6_Node000002_Node000003"><a xlink:title=" ">
<path fill="none" stroke="#63b8ff" d="M69.76,-48.47C62.06,-39.57 53.16,-29.28 46.75,-21.87"/>
<polygon fill="#63b8ff" stroke="#63b8ff" points="67.02,-50.65 76.21,-55.93 72.31,-46.07 67.02,-50.65"/>
</a>
</g>
</g>
<!-- Node4 -->
<g id="Node000004" class="node">
<title>Node4</title>
<g id="a_Node000004"><a xlink:href="$main_8cpp.html" xlink:title=" ">
<polygon fill="white" stroke="#666666" points="176.38,-21.5 93.62,-21.5 93.62,0 176.38,0 176.38,-21.5"/>
<text text-anchor="middle" x="135" y="-6.1" font-family="Helvetica,sans-Serif" font-size="12.00">src/main.cpp</text>
</a>
</g>
</g>
<!-- Node2&#45;&gt;Node4 -->
<g id="edge7_Node000002_Node000004" class="edge">
<title>Node2&#45;&gt;Node4</title>
<g id="a_edge7_Node000002_Node000004"><a xlink:title=" ">
<path fill="none" stroke="#63b8ff" d="M102.58,-48.47C110.44,-39.57 119.52,-29.28 126.07,-21.87"/>
<polygon fill="#63b8ff" stroke="#63b8ff" points="99.98,-46.12 95.99,-55.94 105.23,-50.76 99.98,-46.12"/>
</a>
</g>
</g>
</g>
</svg>
