<?xml version="1.0" encoding="UTF-8" standalone="no"?>
<!DOCTYPE svg PUBLIC "-//W3C//DTD SVG 1.1//EN"
 "http://www.w3.org/Graphics/SVG/1.1/DTD/svg11.dtd">
<!-- Generated by graphviz version 11.0.0 (20240428.1522)
 -->
<!-- Title: include/lig4.hpp Pages: 1 -->
<svg width="164pt" height="84pt"
 viewBox="0.00 0.00 164.25 84.00" xmlns="http://www.w3.org/2000/svg" xmlns:xlink="http://www.w3.org/1999/xlink">
<g id="graph0" class="graph" transform="scale(1 1) rotate(0) translate(4 80)">
<title>include/lig4.hpp</title>
<!-- Node1 -->
<g id="Node000001" class="node">
<title>Node1</title>
<g id="a_Node000001"><a xlink:title=" ">
<polygon fill="#999999" stroke="#666666" points="117.88,-76 34.38,-76 34.38,-56 117.88,-56 117.88,-76"/>
<text text-anchor="middle" x="76.12" y="-62.5" font-family="Helvetica,sans-Serif" font-size="10.00">include/lig4.hpp</text>
</a>
</g>
</g>
<!-- Node2 -->
<g id="Node000002" class="node">
<title>Node2</title>
<g id="a_Node000002"><a xlink:href="$lig4_8cpp.html" xlink:title=" ">
<polygon fill="white" stroke="#666666" points="66.25,-20 0,-20 0,0 66.25,0 66.25,-20"/>
<text text-anchor="middle" x="33.12" y="-6.5" font-family="Helvetica,sans-Serif" font-size="10.00">src/lig4.cpp</text>
</a>
</g>
</g>
<!-- Node1&#45;&gt;Node2 -->
<g id="edge3_Node000001_Node000002" class="edge">
<title>Node1&#45;&gt;Node2</title>
<g id="a_edge3_Node000001_Node000002"><a xlink:title=" ">
<path fill="none" stroke="#63b8ff" d="M61.57,-46.72C54.5,-37.84 46.3,-27.55 40.53,-20.3"/>
<polygon fill="#63b8ff" stroke="#63b8ff" points="58.72,-48.77 67.69,-54.41 64.2,-44.41 58.72,-48.77"/>
</a>
</g>
</g>
<!-- Node3 -->
<g id="Node000003" class="node">
<title>Node3</title>
<g id="a_Node000003"><a xlink:href="$main_8cpp.html" xlink:title=" ">
<polygon fill="white" stroke="#666666" points="156.25,-20 84,-20 84,0 156.25,0 156.25,-20"/>
<text text-anchor="middle" x="120.12" y="-6.5" font-family="Helvetica,sans-Serif" font-size="10.00">src/main.cpp</text>
</a>
</g>
</g>
<!-- Node1&#45;&gt;Node3 -->
<g id="edge4_Node000001_Node000003" class="edge">
<title>Node1&#45;&gt;Node3</title>
<g id="a_edge4_Node000001_Node000003"><a xlink:title=" ">
<path fill="none" stroke="#63b8ff" d="M91.02,-46.72C98.26,-37.84 106.64,-27.55 112.55,-20.3"/>
<polygon fill="#63b8ff" stroke="#63b8ff" points="88.35,-44.46 84.75,-54.42 93.78,-48.88 88.35,-44.46"/>
</a>
</g>
</g>
</g>
</svg>
