<?xml version="1.0" encoding="UTF-8" standalone="no"?>
<!DOCTYPE svg PUBLIC "-//W3C//DTD SVG 1.1//EN"
 "http://www.w3.org/Graphics/SVG/1.1/DTD/svg11.dtd">
<!-- Generated by graphviz version 11.0.0 (20240428.1522)
 -->
<!-- Title: include/lig4.hpp Pages: 1 -->
<svg width="184pt" height="87pt"
 viewBox="0.00 0.00 184.38 87.00" xmlns="http://www.w3.org/2000/svg" xmlns:xlink="http://www.w3.org/1999/xlink">
<g id="graph0" class="graph" transform="scale(1 1) rotate(0) translate(4 83)">
<title>include/lig4.hpp</title>
<!-- Node1 -->
<g id="Node000001" class="node">
<title>Node1</title>
<g id="a_Node000001"><a xlink:title=" ">
<polygon fill="#999999" stroke="#666666" points="134.5,-79 37.5,-79 37.5,-57.5 134.5,-57.5 134.5,-79"/>
<text text-anchor="middle" x="86" y="-63.6" font-family="Helvetica,sans-Serif" font-size="12.00">include/lig4.hpp</text>
</a>
</g>
</g>
<!-- Node2 -->
<g id="Node000002" class="node">
<title>Node2</title>
<g id="a_Node000002"><a xlink:href="$lig4_8cpp.html" xlink:title=" ">
<polygon fill="white" stroke="#666666" points="76,-21.5 0,-21.5 0,0 76,0 76,-21.5"/>
<text text-anchor="middle" x="38" y="-6.1" font-family="Helvetica,sans-Serif" font-size="12.00">src/lig4.cpp</text>
</a>
</g>
</g>
<!-- Node1&#45;&gt;Node2 -->
<g id="edge3_Node000001_Node000002" class="edge">
<title>Node1&#45;&gt;Node2</title>
<g id="a_edge3_Node000001_Node000002"><a xlink:title=" ">
<path fill="none" stroke="#63b8ff" d="M69.76,-48.47C62.06,-39.57 53.16,-29.28 46.75,-21.87"/>
<polygon fill="#63b8ff" stroke="#63b8ff" points="67.02,-50.65 76.21,-55.93 72.31,-46.07 67.02,-50.65"/>
</a>
</g>
</g>
<!-- Node3 -->
<g id="Node000003" class="node">
<title>Node3</title>
<g id="a_Node000003"><a xlink:href="$main_8cpp.html" xlink:title=" ">
<polygon fill="white" stroke="#666666" points="176.38,-21.5 93.62,-21.5 93.62,0 176.38,0 176.38,-21.5"/>
<text text-anchor="middle" x="135" y="-6.1" font-family="Helvetica,sans-Serif" font-size="12.00">src/main.cpp</text>
</a>
</g>
</g>
<!-- Node1&#45;&gt;Node3 -->
<g id="edge4_Node000001_Node000003" class="edge">
<title>Node1&#45;&gt;Node3</title>
<g id="a_edge4_Node000001_Node000003"><a xlink:title=" ">
<path fill="none" stroke="#63b8ff" d="M102.58,-48.47C110.44,-39.57 119.52,-29.28 126.07,-21.87"/>
<polygon fill="#63b8ff" stroke="#63b8ff" points="99.98,-46.12 95.99,-55.94 105.23,-50.76 99.98,-46.12"/>
</a>
</g>
</g>
</g>
</svg>
