<?xml version="1.0" encoding="UTF-8" standalone="no"?>
<!DOCTYPE svg PUBLIC "-//W3C//DTD SVG 1.1//EN"
 "http://www.w3.org/Graphics/SVG/1.1/DTD/svg11.dtd">
<!-- Generated by graphviz version 11.0.0 (20240428.1522)
 -->
<!-- Title: src/lig4.cpp Pages: 1 -->
<svg width="333pt" height="364pt"
 viewBox="0.00 0.00 332.99 364.00" xmlns="http://www.w3.org/2000/svg" xmlns:xlink="http://www.w3.org/1999/xlink">
<g id="graph0" class="graph" transform="scale(1 1) rotate(0) translate(4 360)">
<title>src/lig4.cpp</title>
<!-- Node1 -->
<g id="Node000001" class="node">
<title>Node1</title>
<g id="a_Node000001"><a xlink:title=" ">
<polygon fill="#999999" stroke="#666666" points="275.11,-356 208.86,-356 208.86,-336 275.11,-336 275.11,-356"/>
<text text-anchor="middle" x="241.99" y="-342.5" font-family="Helvetica,sans-Serif" font-size="10.00">src/lig4.cpp</text>
</a>
</g>
</g>
<!-- Node2 -->
<g id="Node000002" class="node">
<title>Node2</title>
<g id="a_Node000002"><a xlink:title=" ">
<polygon fill="#e0e0e0" stroke="#999999" points="110.11,-244 61.86,-244 61.86,-224 110.11,-224 110.11,-244"/>
<text text-anchor="middle" x="85.99" y="-230.5" font-family="Helvetica,sans-Serif" font-size="10.00">fstream</text>
</a>
</g>
</g>
<!-- Node1&#45;&gt;Node2 -->
<g id="edge18_Node000001_Node000002" class="edge">
<title>Node1&#45;&gt;Node2</title>
<g id="a_edge18_Node000001_Node000002"><a xlink:title=" ">
<path fill="none" stroke="#63b8ff" d="M228.69,-335.62C201.98,-316.79 141.56,-274.18 108.55,-250.91"/>
<polygon fill="#63b8ff" stroke="#63b8ff" points="110.68,-248.13 100.49,-245.23 106.65,-253.85 110.68,-248.13"/>
</a>
</g>
</g>
<!-- Node3 -->
<g id="Node000003" class="node">
<title>Node3</title>
<g id="a_Node000003"><a xlink:title=" ">
<polygon fill="#e0e0e0" stroke="#999999" points="296.74,-244 243.24,-244 243.24,-224 296.74,-224 296.74,-244"/>
<text text-anchor="middle" x="269.99" y="-230.5" font-family="Helvetica,sans-Serif" font-size="10.00">iostream</text>
</a>
</g>
</g>
<!-- Node1&#45;&gt;Node3 -->
<g id="edge19_Node000001_Node000003" class="edge">
<title>Node1&#45;&gt;Node3</title>
<g id="a_edge19_Node000001_Node000003"><a xlink:title=" ">
<path fill="none" stroke="#63b8ff" d="M244.37,-335.62C248.88,-317.92 258.73,-279.24 264.81,-255.32"/>
<polygon fill="#63b8ff" stroke="#63b8ff" points="268.16,-256.38 267.23,-245.82 261.37,-254.65 268.16,-256.38"/>
</a>
</g>
</g>
<!-- Node4 -->
<g id="Node000004" class="node">
<title>Node4</title>
<g id="a_Node000004"><a xlink:title=" ">
<polygon fill="#e0e0e0" stroke="#999999" points="204.74,-76 163.24,-76 163.24,-56 204.74,-56 204.74,-76"/>
<text text-anchor="middle" x="183.99" y="-62.5" font-family="Helvetica,sans-Serif" font-size="10.00">vector</text>
</a>
</g>
</g>
<!-- Node1&#45;&gt;Node4 -->
<g id="edge20_Node000001_Node000004" class="edge">
<title>Node1&#45;&gt;Node4</title>
<g id="a_edge20_Node000001_Node000004"><a xlink:title=" ">
<path fill="none" stroke="#63b8ff" d="M256.07,-335.63C279.75,-318.62 324.99,-280.22 324.99,-235 324.99,-235 324.99,-235 324.99,-177 324.99,-121.97 257.39,-90.41 215.81,-76.2"/>
<polygon fill="#63b8ff" stroke="#63b8ff" points="217.13,-72.95 206.54,-73.19 214.97,-79.61 217.13,-72.95"/>
</a>
</g>
</g>
<!-- Node5 -->
<g id="Node000005" class="node">
<title>Node5</title>
<g id="a_Node000005"><a xlink:href="$lig4_8hpp.html" xlink:title=" ">
<polygon fill="white" stroke="#666666" points="239.86,-300 190.11,-300 190.11,-280 239.86,-280 239.86,-300"/>
<text text-anchor="middle" x="214.99" y="-286.5" font-family="Helvetica,sans-Serif" font-size="10.00">lig4.hpp</text>
</a>
</g>
</g>
<!-- Node1&#45;&gt;Node5 -->
<g id="edge21_Node000001_Node000005" class="edge">
<title>Node1&#45;&gt;Node5</title>
<g id="a_edge21_Node000001_Node000005"><a xlink:title=" ">
<path fill="none" stroke="#63b8ff" d="M237.28,-335.59C233.84,-328.7 229.04,-319.1 224.77,-310.57"/>
<polygon fill="#63b8ff" stroke="#63b8ff" points="227.92,-309.03 220.31,-301.65 221.65,-312.16 227.92,-309.03"/>
</a>
</g>
</g>
<!-- Node5&#45;&gt;Node2 -->
<g id="edge22_Node000005_Node000002" class="edge">
<title>Node5&#45;&gt;Node2</title>
<g id="a_edge22_Node000005_Node000002"><a xlink:title=" ">
<path fill="none" stroke="#63b8ff" d="M192.52,-279.59C172.2,-271.09 142.03,-258.46 118.98,-248.81"/>
<polygon fill="#63b8ff" stroke="#63b8ff" points="120.6,-245.7 110.03,-245.06 117.9,-252.15 120.6,-245.7"/>
</a>
</g>
</g>
<!-- Node5&#45;&gt;Node3 -->
<g id="edge23_Node000005_Node000003" class="edge">
<title>Node5&#45;&gt;Node3</title>
<g id="a_edge23_Node000005_Node000003"><a xlink:title=" ">
<path fill="none" stroke="#63b8ff" d="M224.57,-279.59C232.22,-272.08 243.14,-261.35 252.36,-252.3"/>
<polygon fill="#63b8ff" stroke="#63b8ff" points="254.75,-254.86 259.44,-245.36 249.85,-249.87 254.75,-254.86"/>
</a>
</g>
</g>
<!-- Node5&#45;&gt;Node4 -->
<g id="edge24_Node000005_Node000004" class="edge">
<title>Node5&#45;&gt;Node4</title>
<g id="a_edge24_Node000005_Node000004"><a xlink:title=" ">
<path fill="none" stroke="#63b8ff" d="M213.69,-279.74C209.09,-246.74 193.39,-134.31 186.86,-87.61"/>
<polygon fill="#63b8ff" stroke="#63b8ff" points="190.34,-87.21 185.49,-77.79 183.41,-88.18 190.34,-87.21"/>
</a>
</g>
</g>
<!-- Node6 -->
<g id="Node000006" class="node">
<title>Node6</title>
<g id="a_Node000006"><a xlink:href="$game_8hpp.html" xlink:title=" ">
<polygon fill="white" stroke="#666666" points="187.36,-244 128.61,-244 128.61,-224 187.36,-224 187.36,-244"/>
<text text-anchor="middle" x="157.99" y="-230.5" font-family="Helvetica,sans-Serif" font-size="10.00">game.hpp</text>
</a>
</g>
</g>
<!-- Node5&#45;&gt;Node6 -->
<g id="edge25_Node000005_Node000006" class="edge">
<title>Node5&#45;&gt;Node6</title>
<g id="a_edge25_Node000005_Node000006"><a xlink:title=" ">
<path fill="none" stroke="#63b8ff" d="M205.06,-279.59C197.05,-272.01 185.57,-261.13 175.96,-252.02"/>
<polygon fill="#63b8ff" stroke="#63b8ff" points="178.57,-249.68 168.9,-245.34 173.75,-254.76 178.57,-249.68"/>
</a>
</g>
</g>
<!-- Node6&#45;&gt;Node4 -->
<g id="edge27_Node000006_Node000004" class="edge">
<title>Node6&#45;&gt;Node4</title>
<g id="a_edge27_Node000006_Node000004"><a xlink:title=" ">
<path fill="none" stroke="#63b8ff" d="M159.46,-223.6C163.55,-197.46 175.14,-123.48 180.8,-87.36"/>
<polygon fill="#63b8ff" stroke="#63b8ff" points="184.21,-88.21 182.3,-77.79 177.29,-87.13 184.21,-88.21"/>
</a>
</g>
</g>
<!-- Node7 -->
<g id="Node000007" class="node">
<title>Node7</title>
<g id="a_Node000007"><a xlink:title=" ">
<polygon fill="#e0e0e0" stroke="#999999" points="49.99,-20 9.99,-20 9.99,0 49.99,0 49.99,-20"/>
<text text-anchor="middle" x="29.99" y="-6.5" font-family="Helvetica,sans-Serif" font-size="10.00">string</text>
</a>
</g>
</g>
<!-- Node6&#45;&gt;Node7 -->
<g id="edge26_Node000006_Node000007" class="edge">
<title>Node6&#45;&gt;Node7</title>
<g id="a_edge26_Node000006_Node000007"><a xlink:title=" ">
<path fill="none" stroke="#63b8ff" d="M128.12,-225.4C89.02,-215.15 24.64,-197.13 17.99,-188 -16.57,-140.59 6.94,-65.75 21.24,-30.54"/>
<polygon fill="#63b8ff" stroke="#63b8ff" points="24.34,-32.18 25.04,-21.61 17.9,-29.43 24.34,-32.18"/>
</a>
</g>
</g>
<!-- Node8 -->
<g id="Node000008" class="node">
<title>Node8</title>
<g id="a_Node000008"><a xlink:href="$players_management_8hpp.html" xlink:title=" ">
<polygon fill="white" stroke="#666666" points="149.24,-188 26.74,-188 26.74,-168 149.24,-168 149.24,-188"/>
<text text-anchor="middle" x="87.99" y="-174.5" font-family="Helvetica,sans-Serif" font-size="10.00">playersManagement.hpp</text>
</a>
</g>
</g>
<!-- Node6&#45;&gt;Node8 -->
<g id="edge28_Node000006_Node000008" class="edge">
<title>Node6&#45;&gt;Node8</title>
<g id="a_edge28_Node000006_Node000008"><a xlink:title=" ">
<path fill="none" stroke="#63b8ff" d="M145.79,-223.59C135.66,-215.77 121,-204.46 108.98,-195.19"/>
<polygon fill="#63b8ff" stroke="#63b8ff" points="111.29,-192.56 101.24,-189.22 107.02,-198.1 111.29,-192.56"/>
</a>
</g>
</g>
<!-- Node8&#45;&gt;Node4 -->
<g id="edge29_Node000008_Node000004" class="edge">
<title>Node8&#45;&gt;Node4</title>
<g id="a_edge29_Node000008_Node000004"><a xlink:title=" ">
<path fill="none" stroke="#63b8ff" d="M96.17,-167.62C112.18,-149.27 147.88,-108.37 168.49,-84.75"/>
<polygon fill="#63b8ff" stroke="#63b8ff" points="170.89,-87.33 174.83,-77.5 165.61,-82.73 170.89,-87.33"/>
</a>
</g>
</g>
<!-- Node9 -->
<g id="Node000009" class="node">
<title>Node9</title>
<g id="a_Node000009"><a xlink:href="$player_8hpp.html" xlink:title=" ">
<polygon fill="white" stroke="#666666" points="110.49,-132 49.49,-132 49.49,-112 110.49,-112 110.49,-132"/>
<text text-anchor="middle" x="79.99" y="-118.5" font-family="Helvetica,sans-Serif" font-size="10.00">player.hpp</text>
</a>
</g>
</g>
<!-- Node8&#45;&gt;Node9 -->
<g id="edge30_Node000008_Node000009" class="edge">
<title>Node8&#45;&gt;Node9</title>
<g id="a_edge30_Node000008_Node000009"><a xlink:title=" ">
<path fill="none" stroke="#63b8ff" d="M86.59,-167.59C85.61,-160.93 84.25,-151.75 83.01,-143.44"/>
<polygon fill="#63b8ff" stroke="#63b8ff" points="86.51,-143.17 81.59,-133.8 79.59,-144.2 86.51,-143.17"/>
</a>
</g>
</g>
<!-- Node9&#45;&gt;Node4 -->
<g id="edge32_Node000009_Node000004" class="edge">
<title>Node9&#45;&gt;Node4</title>
<g id="a_edge32_Node000009_Node000004"><a xlink:title=" ">
<path fill="none" stroke="#63b8ff" d="M98.1,-111.59C113.96,-103.36 137.27,-91.26 155.6,-81.74"/>
<polygon fill="#63b8ff" stroke="#63b8ff" points="157.12,-84.89 164.39,-77.18 153.9,-78.68 157.12,-84.89"/>
</a>
</g>
</g>
<!-- Node9&#45;&gt;Node7 -->
<g id="edge31_Node000009_Node000007" class="edge">
<title>Node9&#45;&gt;Node7</title>
<g id="a_edge31_Node000009_Node000007"><a xlink:title=" ">
<path fill="none" stroke="#63b8ff" d="M72.13,-111.55C65.2,-102.8 55.26,-89.19 48.99,-76 42.18,-61.68 37.27,-44.4 34.15,-31.26"/>
<polygon fill="#63b8ff" stroke="#63b8ff" points="37.6,-30.65 32.03,-21.64 30.76,-32.16 37.6,-30.65"/>
</a>
</g>
</g>
<!-- Node10 -->
<g id="Node000010" class="node">
<title>Node10</title>
<g id="a_Node000010"><a xlink:href="$game_status_8hpp.html" xlink:title=" ">
<polygon fill="white" stroke="#666666" points="145.61,-76 58.36,-76 58.36,-56 145.61,-56 145.61,-76"/>
<text text-anchor="middle" x="101.99" y="-62.5" font-family="Helvetica,sans-Serif" font-size="10.00">gameStatus.hpp</text>
</a>
</g>
</g>
<!-- Node9&#45;&gt;Node10 -->
<g id="edge33_Node000009_Node000010" class="edge">
<title>Node9&#45;&gt;Node10</title>
<g id="a_edge33_Node000009_Node000010"><a xlink:title=" ">
<path fill="none" stroke="#63b8ff" d="M83.82,-111.59C86.59,-104.78 90.45,-95.32 93.89,-86.86"/>
<polygon fill="#63b8ff" stroke="#63b8ff" points="97.1,-88.28 97.63,-77.7 90.61,-85.64 97.1,-88.28"/>
</a>
</g>
</g>
<!-- Node10&#45;&gt;Node7 -->
<g id="edge34_Node000010_Node000007" class="edge">
<title>Node10&#45;&gt;Node7</title>
<g id="a_edge34_Node000010_Node000007"><a xlink:title=" ">
<path fill="none" stroke="#63b8ff" d="M89.45,-55.59C79.02,-47.77 63.94,-36.46 51.58,-27.19"/>
<polygon fill="#63b8ff" stroke="#63b8ff" points="53.7,-24.41 43.6,-21.21 49.5,-30.01 53.7,-24.41"/>
</a>
</g>
</g>
</g>
</svg>
