<?xml version="1.0" encoding="UTF-8" standalone="no"?>
<!DOCTYPE svg PUBLIC "-//W3C//DTD SVG 1.1//EN"
 "http://www.w3.org/Graphics/SVG/1.1/DTD/svg11.dtd">
<!-- Generated by graphviz version 11.0.0 (20240428.1522)
 -->
<!-- Title: include/lig4.hpp Pages: 1 -->
<svg width="419pt" height="317pt"
 viewBox="0.00 0.00 418.99 317.00" xmlns="http://www.w3.org/2000/svg" xmlns:xlink="http://www.w3.org/1999/xlink">
<g id="graph0" class="graph" transform="scale(1 1) rotate(0) translate(4 313)">
<title>include/lig4.hpp</title>
<!-- Node1 -->
<g id="Node000001" class="node">
<title>Node1</title>
<g id="a_Node000001"><a xlink:title=" ">
<polygon fill="#999999" stroke="#666666" points="181,-309 84,-309 84,-287.5 181,-287.5 181,-309"/>
<text text-anchor="middle" x="132.5" y="-293.6" font-family="Helvetica,sans-Serif" font-size="12.00">include/lig4.hpp</text>
</a>
</g>
</g>
<!-- Node2 -->
<g id="Node000002" class="node">
<title>Node2</title>
<g id="a_Node000002"><a xlink:title=" ">
<polygon fill="#e0e0e0" stroke="#999999" points="55,-251.5 0,-251.5 0,-230 55,-230 55,-251.5"/>
<text text-anchor="middle" x="27.5" y="-236.1" font-family="Helvetica,sans-Serif" font-size="12.00">fstream</text>
</a>
</g>
</g>
<!-- Node1&#45;&gt;Node2 -->
<g id="edge14_Node000001_Node000002" class="edge">
<title>Node1&#45;&gt;Node2</title>
<g id="a_edge14_Node000001_Node000002"><a xlink:title=" ">
<path fill="none" stroke="#63b8ff" d="M113.24,-287.07C97.4,-278.7 74.71,-266.7 56.65,-257.16"/>
<polygon fill="#63b8ff" stroke="#63b8ff" points="58.45,-254.15 47.97,-252.57 55.18,-260.34 58.45,-254.15"/>
</a>
</g>
</g>
<!-- Node3 -->
<g id="Node000003" class="node">
<title>Node3</title>
<g id="a_Node000003"><a xlink:title=" ">
<polygon fill="#e0e0e0" stroke="#999999" points="134.38,-251.5 72.62,-251.5 72.62,-230 134.38,-230 134.38,-251.5"/>
<text text-anchor="middle" x="103.5" y="-236.1" font-family="Helvetica,sans-Serif" font-size="12.00">iostream</text>
</a>
</g>
</g>
<!-- Node1&#45;&gt;Node3 -->
<g id="edge15_Node000001_Node000003" class="edge">
<title>Node1&#45;&gt;Node3</title>
<g id="a_edge15_Node000001_Node000003"><a xlink:title=" ">
<path fill="none" stroke="#63b8ff" d="M127.18,-287.07C123.5,-280.03 118.48,-270.42 114.01,-261.87"/>
<polygon fill="#63b8ff" stroke="#63b8ff" points="117.22,-260.45 109.49,-253.21 111.02,-263.69 117.22,-260.45"/>
</a>
</g>
</g>
<!-- Node4 -->
<g id="Node000004" class="node">
<title>Node4</title>
<g id="a_Node000004"><a xlink:title=" ">
<polygon fill="#e0e0e0" stroke="#999999" points="224.25,-79 176.75,-79 176.75,-57.5 224.25,-57.5 224.25,-79"/>
<text text-anchor="middle" x="200.5" y="-63.6" font-family="Helvetica,sans-Serif" font-size="12.00">vector</text>
</a>
</g>
</g>
<!-- Node1&#45;&gt;Node4 -->
<g id="edge16_Node000001_Node000004" class="edge">
<title>Node1&#45;&gt;Node4</title>
<g id="a_edge16_Node000001_Node000004"><a xlink:title=" ">
<path fill="none" stroke="#63b8ff" d="M135.51,-287.16C145.84,-252.51 180.02,-137.93 194.22,-90.3"/>
<polygon fill="#63b8ff" stroke="#63b8ff" points="197.51,-91.52 197.02,-80.93 190.8,-89.52 197.51,-91.52"/>
</a>
</g>
</g>
<!-- Node5 -->
<g id="Node000005" class="node">
<title>Node5</title>
<g id="a_Node000005"><a xlink:href="$game_8hpp.html" xlink:title=" ">
<polygon fill="white" stroke="#666666" points="296.75,-251.5 228.25,-251.5 228.25,-230 296.75,-230 296.75,-251.5"/>
<text text-anchor="middle" x="262.5" y="-236.1" font-family="Helvetica,sans-Serif" font-size="12.00">game.hpp</text>
</a>
</g>
</g>
<!-- Node1&#45;&gt;Node5 -->
<g id="edge17_Node000001_Node000005" class="edge">
<title>Node1&#45;&gt;Node5</title>
<g id="a_edge17_Node000001_Node000005"><a xlink:title=" ">
<path fill="none" stroke="#63b8ff" d="M156.34,-287.07C176.5,-278.46 205.63,-266.03 228.28,-256.36"/>
<polygon fill="#63b8ff" stroke="#63b8ff" points="229.59,-259.6 237.42,-252.46 226.84,-253.17 229.59,-259.6"/>
</a>
</g>
</g>
<!-- Node5&#45;&gt;Node4 -->
<g id="edge19_Node000005_Node000004" class="edge">
<title>Node5&#45;&gt;Node4</title>
<g id="a_edge19_Node000005_Node000004"><a xlink:title=" ">
<path fill="none" stroke="#63b8ff" d="M249.36,-229.6C239.47,-221.18 226.46,-208.31 219.5,-194 203.18,-160.46 200.17,-116.36 199.98,-90.58"/>
<polygon fill="#63b8ff" stroke="#63b8ff" points="203.47,-90.76 200.06,-80.73 196.47,-90.7 203.47,-90.76"/>
</a>
</g>
</g>
<!-- Node6 -->
<g id="Node000006" class="node">
<title>Node6</title>
<g id="a_Node000006"><a xlink:title=" ">
<polygon fill="#e0e0e0" stroke="#999999" points="353.75,-21.5 309.25,-21.5 309.25,0 353.75,0 353.75,-21.5"/>
<text text-anchor="middle" x="331.5" y="-6.1" font-family="Helvetica,sans-Serif" font-size="12.00">string</text>
</a>
</g>
</g>
<!-- Node5&#45;&gt;Node6 -->
<g id="edge18_Node000005_Node000006" class="edge">
<title>Node5&#45;&gt;Node6</title>
<g id="a_edge18_Node000005_Node000006"><a xlink:title=" ">
<path fill="none" stroke="#63b8ff" d="M297.09,-236.26C324.61,-231.52 361.67,-220.35 381.5,-194 418.08,-145.4 418.49,-112.02 391.5,-57.5 385.39,-45.15 374.17,-35.23 363.07,-27.82"/>
<polygon fill="#63b8ff" stroke="#63b8ff" points="365.13,-24.98 354.77,-22.75 361.48,-30.95 365.13,-24.98"/>
</a>
</g>
</g>
<!-- Node7 -->
<g id="Node000007" class="node">
<title>Node7</title>
<g id="a_Node000007"><a xlink:href="$players_management_8hpp.html" xlink:title=" ">
<polygon fill="white" stroke="#666666" points="372.62,-194 228.38,-194 228.38,-172.5 372.62,-172.5 372.62,-194"/>
<text text-anchor="middle" x="300.5" y="-178.6" font-family="Helvetica,sans-Serif" font-size="12.00">playersManagement.hpp</text>
</a>
</g>
</g>
<!-- Node5&#45;&gt;Node7 -->
<g id="edge20_Node000005_Node000007" class="edge">
<title>Node5&#45;&gt;Node7</title>
<g id="a_edge20_Node000005_Node000007"><a xlink:title=" ">
<path fill="none" stroke="#63b8ff" d="M269.47,-229.57C274.4,-222.37 281.16,-212.5 287.11,-203.8"/>
<polygon fill="#63b8ff" stroke="#63b8ff" points="289.96,-205.84 292.72,-195.61 284.18,-201.89 289.96,-205.84"/>
</a>
</g>
</g>
<!-- Node7&#45;&gt;Node4 -->
<g id="edge21_Node000007_Node000004" class="edge">
<title>Node7&#45;&gt;Node4</title>
<g id="a_edge21_Node000007_Node000004"><a xlink:title=" ">
<path fill="none" stroke="#63b8ff" d="M290.78,-172.21C281.97,-163.03 268.68,-149.02 257.5,-136.5 243.09,-120.36 227.21,-101.54 215.88,-87.92"/>
<polygon fill="#63b8ff" stroke="#63b8ff" points="218.88,-86.05 209.81,-80.58 213.49,-90.51 218.88,-86.05"/>
</a>
</g>
</g>
<!-- Node8 -->
<g id="Node000008" class="node">
<title>Node8</title>
<g id="a_Node000008"><a xlink:href="$player_8hpp.html" xlink:title=" ">
<polygon fill="white" stroke="#666666" points="336.5,-136.5 266.5,-136.5 266.5,-115 336.5,-115 336.5,-136.5"/>
<text text-anchor="middle" x="301.5" y="-121.1" font-family="Helvetica,sans-Serif" font-size="12.00">player.hpp</text>
</a>
</g>
</g>
<!-- Node7&#45;&gt;Node8 -->
<g id="edge22_Node000007_Node000008" class="edge">
<title>Node7&#45;&gt;Node8</title>
<g id="a_edge22_Node000007_Node000008"><a xlink:title=" ">
<path fill="none" stroke="#63b8ff" d="M300.68,-172.07C300.8,-165.42 300.96,-156.48 301.11,-148.3"/>
<polygon fill="#63b8ff" stroke="#63b8ff" points="304.61,-148.44 301.29,-138.38 297.61,-148.31 304.61,-148.44"/>
</a>
</g>
</g>
<!-- Node8&#45;&gt;Node4 -->
<g id="edge24_Node000008_Node000004" class="edge">
<title>Node8&#45;&gt;Node4</title>
<g id="a_edge24_Node000008_Node000004"><a xlink:title=" ">
<path fill="none" stroke="#63b8ff" d="M282.98,-114.57C267.74,-106.2 245.91,-94.2 228.54,-84.66"/>
<polygon fill="#63b8ff" stroke="#63b8ff" points="230.68,-81.84 220.23,-80.09 227.31,-87.98 230.68,-81.84"/>
</a>
</g>
</g>
<!-- Node8&#45;&gt;Node6 -->
<g id="edge23_Node000008_Node000006" class="edge">
<title>Node8&#45;&gt;Node6</title>
<g id="a_edge23_Node000008_Node000006"><a xlink:title=" ">
<path fill="none" stroke="#63b8ff" d="M291.2,-114.61C279.04,-101.34 261.63,-77.44 271.5,-57.5 277.61,-45.15 288.83,-35.23 299.93,-27.82"/>
<polygon fill="#63b8ff" stroke="#63b8ff" points="301.52,-30.95 308.23,-22.75 297.87,-24.98 301.52,-30.95"/>
</a>
</g>
</g>
<!-- Node9 -->
<g id="Node000009" class="node">
<title>Node9</title>
<g id="a_Node000009"><a xlink:href="$game_status_8hpp.html" xlink:title=" ">
<polygon fill="white" stroke="#666666" points="382.25,-79 280.75,-79 280.75,-57.5 382.25,-57.5 382.25,-79"/>
<text text-anchor="middle" x="331.5" y="-63.6" font-family="Helvetica,sans-Serif" font-size="12.00">gameStatus.hpp</text>
</a>
</g>
</g>
<!-- Node8&#45;&gt;Node9 -->
<g id="edge25_Node000008_Node000009" class="edge">
<title>Node8&#45;&gt;Node9</title>
<g id="a_edge25_Node000008_Node000009"><a xlink:title=" ">
<path fill="none" stroke="#63b8ff" d="M307,-114.57C310.81,-107.53 316,-97.92 320.62,-89.37"/>
<polygon fill="#63b8ff" stroke="#63b8ff" points="323.64,-91.16 325.31,-80.7 317.48,-87.83 323.64,-91.16"/>
</a>
</g>
</g>
<!-- Node9&#45;&gt;Node6 -->
<g id="edge26_Node000009_Node000006" class="edge">
<title>Node9&#45;&gt;Node6</title>
<g id="a_edge26_Node000009_Node000006"><a xlink:title=" ">
<path fill="none" stroke="#63b8ff" d="M331.5,-57.07C331.5,-50.42 331.5,-41.48 331.5,-33.3"/>
<polygon fill="#63b8ff" stroke="#63b8ff" points="335,-33.38 331.5,-23.38 328,-33.38 335,-33.38"/>
</a>
</g>
</g>
</g>
</svg>
