<?xml version="1.0" encoding="UTF-8" standalone="no"?>
<!DOCTYPE svg PUBLIC "-//W3C//DTD SVG 1.1//EN"
 "http://www.w3.org/Graphics/SVG/1.1/DTD/svg11.dtd">
<!-- Generated by graphviz version 11.0.0 (20240428.1522)
 -->
<!-- Title: src/player.cpp Pages: 1 -->
<svg width="355pt" height="196pt"
 viewBox="0.00 0.00 354.90 196.00" xmlns="http://www.w3.org/2000/svg" xmlns:xlink="http://www.w3.org/1999/xlink">
<g id="graph0" class="graph" transform="scale(1 1) rotate(0) translate(4 192)">
<title>src/player.cpp</title>
<!-- Node1 -->
<g id="Node000001" class="node">
<title>Node1</title>
<g id="a_Node000001"><a xlink:title=" ">
<polygon fill="#999999" stroke="#666666" points="177.9,-188 100.4,-188 100.4,-168 177.9,-168 177.9,-188"/>
<text text-anchor="middle" x="139.15" y="-174.5" font-family="Helvetica,sans-Serif" font-size="10.00">src/player.cpp</text>
</a>
</g>
</g>
<!-- Node2 -->
<g id="Node000002" class="node">
<title>Node2</title>
<g id="a_Node000002"><a xlink:href="$player_8hpp.html" xlink:title=" ">
<polygon fill="white" stroke="#666666" points="140.65,-132 79.65,-132 79.65,-112 140.65,-112 140.65,-132"/>
<text text-anchor="middle" x="110.15" y="-118.5" font-family="Helvetica,sans-Serif" font-size="10.00">player.hpp</text>
</a>
</g>
</g>
<!-- Node1&#45;&gt;Node2 -->
<g id="edge13_Node000001_Node000002" class="edge">
<title>Node1&#45;&gt;Node2</title>
<g id="a_edge13_Node000001_Node000002"><a xlink:title=" ">
<path fill="none" stroke="#63b8ff" d="M134.1,-167.59C130.36,-160.63 125.13,-150.89 120.51,-142.29"/>
<polygon fill="#63b8ff" stroke="#63b8ff" points="123.68,-140.79 115.86,-133.63 117.51,-144.1 123.68,-140.79"/>
</a>
</g>
</g>
<!-- Node3 -->
<g id="Node000003" class="node">
<title>Node3</title>
<g id="a_Node000003"><a xlink:title=" ">
<polygon fill="#e0e0e0" stroke="#999999" points="111.15,-20 71.15,-20 71.15,0 111.15,0 111.15,-20"/>
<text text-anchor="middle" x="91.15" y="-6.5" font-family="Helvetica,sans-Serif" font-size="10.00">string</text>
</a>
</g>
</g>
<!-- Node1&#45;&gt;Node3 -->
<g id="edge21_Node000001_Node000003" class="edge">
<title>Node1&#45;&gt;Node3</title>
<g id="a_edge21_Node000001_Node000003"><a xlink:title=" ">
<path fill="none" stroke="#63b8ff" d="M112.86,-167.56C78.89,-153.66 21.78,-124 2.15,-76 -9.66,-47.11 29.73,-28.64 59.86,-19.05"/>
<polygon fill="#63b8ff" stroke="#63b8ff" points="60.78,-22.42 69.38,-16.23 58.8,-15.71 60.78,-22.42"/>
</a>
</g>
</g>
<!-- Node4 -->
<g id="Node000004" class="node">
<title>Node4</title>
<g id="a_Node000004"><a xlink:title=" ">
<polygon fill="#e0e0e0" stroke="#999999" points="196.9,-76 155.4,-76 155.4,-56 196.9,-56 196.9,-76"/>
<text text-anchor="middle" x="176.15" y="-62.5" font-family="Helvetica,sans-Serif" font-size="10.00">vector</text>
</a>
</g>
</g>
<!-- Node1&#45;&gt;Node4 -->
<g id="edge22_Node000001_Node000004" class="edge">
<title>Node1&#45;&gt;Node4</title>
<g id="a_edge22_Node000001_Node000004"><a xlink:title=" ">
<path fill="none" stroke="#63b8ff" d="M142.31,-167.62C148.29,-149.84 161.39,-110.88 169.43,-87"/>
<polygon fill="#63b8ff" stroke="#63b8ff" points="172.65,-88.38 172.52,-77.79 166.02,-86.15 172.65,-88.38"/>
</a>
</g>
</g>
<!-- Node5 -->
<g id="Node000005" class="node">
<title>Node5</title>
<g id="a_Node000005"><a xlink:href="$game_status_8hpp.html" xlink:title=" ">
<polygon fill="white" stroke="#666666" points="98.78,-76 11.53,-76 11.53,-56 98.78,-56 98.78,-76"/>
<text text-anchor="middle" x="55.15" y="-62.5" font-family="Helvetica,sans-Serif" font-size="10.00">gameStatus.hpp</text>
</a>
</g>
</g>
<!-- Node1&#45;&gt;Node5 -->
<g id="edge23_Node000001_Node000005" class="edge">
<title>Node1&#45;&gt;Node5</title>
<g id="a_edge23_Node000001_Node000005"><a xlink:title=" ">
<path fill="none" stroke="#63b8ff" d="M116.95,-167.63C101.84,-160.14 82.57,-148.2 71.15,-132 61.93,-118.91 58,-101.07 56.34,-87.4"/>
<polygon fill="#63b8ff" stroke="#63b8ff" points="59.85,-87.43 55.49,-77.77 52.88,-88.04 59.85,-87.43"/>
</a>
</g>
</g>
<!-- Node6 -->
<g id="Node000006" class="node">
<title>Node6</title>
<g id="a_Node000006"><a xlink:href="$string_utils_8hpp.html" xlink:title=" ">
<polygon fill="white" stroke="#666666" points="275.28,-132 197.03,-132 197.03,-112 275.28,-112 275.28,-132"/>
<text text-anchor="middle" x="236.15" y="-118.5" font-family="Helvetica,sans-Serif" font-size="10.00">stringUtils.hpp</text>
</a>
</g>
</g>
<!-- Node1&#45;&gt;Node6 -->
<g id="edge18_Node000001_Node000006" class="edge">
<title>Node1&#45;&gt;Node6</title>
<g id="a_edge18_Node000001_Node000006"><a xlink:title=" ">
<path fill="none" stroke="#63b8ff" d="M156.05,-167.59C170.7,-159.44 192.18,-147.48 209.2,-138"/>
<polygon fill="#63b8ff" stroke="#63b8ff" points="210.77,-141.14 217.8,-133.22 207.36,-135.02 210.77,-141.14"/>
</a>
</g>
</g>
<!-- Node7 -->
<g id="Node000007" class="node">
<title>Node7</title>
<g id="a_Node000007"><a xlink:title=" ">
<polygon fill="#e0e0e0" stroke="#999999" points="346.9,-132 293.4,-132 293.4,-112 346.9,-112 346.9,-132"/>
<text text-anchor="middle" x="320.15" y="-118.5" font-family="Helvetica,sans-Serif" font-size="10.00">iostream</text>
</a>
</g>
</g>
<!-- Node1&#45;&gt;Node7 -->
<g id="edge24_Node000001_Node000007" class="edge">
<title>Node1&#45;&gt;Node7</title>
<g id="a_edge24_Node000001_Node000007"><a xlink:title=" ">
<path fill="none" stroke="#63b8ff" d="M170.68,-167.59C201.8,-158.31 249.4,-144.11 282.5,-134.23"/>
<polygon fill="#63b8ff" stroke="#63b8ff" points="283.09,-137.71 291.67,-131.5 281.08,-131 283.09,-137.71"/>
</a>
</g>
</g>
<!-- Node2&#45;&gt;Node3 -->
<g id="edge14_Node000002_Node000003" class="edge">
<title>Node2&#45;&gt;Node3</title>
<g id="a_edge14_Node000002_Node000003"><a xlink:title=" ">
<path fill="none" stroke="#63b8ff" d="M110.82,-111.63C111.52,-98.9 112.02,-75.49 108.15,-56 106.47,-47.51 103.36,-38.53 100.26,-30.83"/>
<polygon fill="#63b8ff" stroke="#63b8ff" points="103.53,-29.57 96.35,-21.77 97.1,-32.34 103.53,-29.57"/>
</a>
</g>
</g>
<!-- Node2&#45;&gt;Node4 -->
<g id="edge15_Node000002_Node000004" class="edge">
<title>Node2&#45;&gt;Node4</title>
<g id="a_edge15_Node000002_Node000004"><a xlink:title=" ">
<path fill="none" stroke="#63b8ff" d="M121.65,-111.59C131.11,-103.85 144.76,-92.69 156.03,-83.47"/>
<polygon fill="#63b8ff" stroke="#63b8ff" points="158.09,-86.3 163.62,-77.26 153.66,-80.88 158.09,-86.3"/>
</a>
</g>
</g>
<!-- Node2&#45;&gt;Node5 -->
<g id="edge16_Node000002_Node000005" class="edge">
<title>Node2&#45;&gt;Node5</title>
<g id="a_edge16_Node000002_Node000005"><a xlink:title=" ">
<path fill="none" stroke="#63b8ff" d="M100.57,-111.59C92.92,-104.08 82,-93.35 72.78,-84.3"/>
<polygon fill="#63b8ff" stroke="#63b8ff" points="75.29,-81.87 65.7,-77.36 70.39,-86.86 75.29,-81.87"/>
</a>
</g>
</g>
<!-- Node5&#45;&gt;Node3 -->
<g id="edge17_Node000005_Node000003" class="edge">
<title>Node5&#45;&gt;Node3</title>
<g id="a_edge17_Node000005_Node000003"><a xlink:title=" ">
<path fill="none" stroke="#63b8ff" d="M61.42,-55.59C66.17,-48.47 72.85,-38.45 78.68,-29.72"/>
<polygon fill="#63b8ff" stroke="#63b8ff" points="81.48,-31.82 84.12,-21.56 75.66,-27.94 81.48,-31.82"/>
</a>
</g>
</g>
<!-- Node6&#45;&gt;Node3 -->
<g id="edge19_Node000006_Node000003" class="edge">
<title>Node6&#45;&gt;Node3</title>
<g id="a_edge19_Node000006_Node000003"><a xlink:title=" ">
<path fill="none" stroke="#63b8ff" d="M234.21,-111.73C230.83,-97.82 222.62,-71.51 206.15,-56 182.99,-34.17 148,-22.52 122.71,-16.59"/>
<polygon fill="#63b8ff" stroke="#63b8ff" points="123.5,-13.18 112.98,-14.5 122.03,-20.03 123.5,-13.18"/>
</a>
</g>
</g>
<!-- Node6&#45;&gt;Node4 -->
<g id="edge20_Node000006_Node000004" class="edge">
<title>Node6&#45;&gt;Node4</title>
<g id="a_edge20_Node000006_Node000004"><a xlink:title=" ">
<path fill="none" stroke="#63b8ff" d="M225.7,-111.59C217.19,-103.93 204.94,-92.91 194.76,-83.75"/>
<polygon fill="#63b8ff" stroke="#63b8ff" points="197.38,-81.4 187.61,-77.31 192.7,-86.6 197.38,-81.4"/>
</a>
</g>
</g>
</g>
</svg>
