<?xml version="1.0" encoding="UTF-8" standalone="no"?>
<!DOCTYPE svg PUBLIC "-//W3C//DTD SVG 1.1//EN"
 "http://www.w3.org/Graphics/SVG/1.1/DTD/svg11.dtd">
<!-- Generated by graphviz version 11.0.0 (20240428.1522)
 -->
<!-- Title: include/playersMenu.hpp Pages: 1 -->
<svg width="232pt" height="87pt"
 viewBox="0.00 0.00 232.00 87.00" xmlns="http://www.w3.org/2000/svg" xmlns:xlink="http://www.w3.org/1999/xlink">
<g id="graph0" class="graph" transform="scale(1 1) rotate(0) translate(4 83)">
<title>include/playersMenu.hpp</title>
<!-- Node1 -->
<g id="Node000001" class="node">
<title>Node1</title>
<g id="a_Node000001"><a xlink:title=" ">
<polygon fill="#999999" stroke="#666666" points="173.5,-79 29.25,-79 29.25,-57.5 173.5,-57.5 173.5,-79"/>
<text text-anchor="middle" x="101.38" y="-63.6" font-family="Helvetica,sans-Serif" font-size="12.00">include/playersMenu.hpp</text>
</a>
</g>
</g>
<!-- Node2 -->
<g id="Node000002" class="node">
<title>Node2</title>
<g id="a_Node000002"><a xlink:href="$main_8cpp.html" xlink:title=" ">
<polygon fill="white" stroke="#666666" points="82.75,-21.5 0,-21.5 0,0 82.75,0 82.75,-21.5"/>
<text text-anchor="middle" x="41.38" y="-6.1" font-family="Helvetica,sans-Serif" font-size="12.00">src/main.cpp</text>
</a>
</g>
</g>
<!-- Node1&#45;&gt;Node2 -->
<g id="edge3_Node000001_Node000002" class="edge">
<title>Node1&#45;&gt;Node2</title>
<g id="a_edge3_Node000001_Node000002"><a xlink:title=" ">
<path fill="none" stroke="#63b8ff" d="M81.98,-49.31C72.15,-40.22 60.58,-29.51 52.31,-21.87"/>
<polygon fill="#63b8ff" stroke="#63b8ff" points="79.54,-51.82 89.26,-56.04 84.29,-46.68 79.54,-51.82"/>
</a>
</g>
</g>
<!-- Node3 -->
<g id="Node000003" class="node">
<title>Node3</title>
<g id="a_Node000003"><a xlink:href="$players_menu_8cpp.html" xlink:title=" ">
<polygon fill="white" stroke="#666666" points="224,-21.5 100.75,-21.5 100.75,0 224,0 224,-21.5"/>
<text text-anchor="middle" x="162.38" y="-6.1" font-family="Helvetica,sans-Serif" font-size="12.00">src/playersMenu.cpp</text>
</a>
</g>
</g>
<!-- Node1&#45;&gt;Node3 -->
<g id="edge4_Node000001_Node000003" class="edge">
<title>Node1&#45;&gt;Node3</title>
<g id="a_edge4_Node000001_Node000003"><a xlink:title=" ">
<path fill="none" stroke="#63b8ff" d="M120.79,-49.59C130.85,-40.44 142.76,-29.59 151.26,-21.87"/>
<polygon fill="#63b8ff" stroke="#63b8ff" points="118.72,-46.73 113.68,-56.05 123.43,-51.91 118.72,-46.73"/>
</a>
</g>
</g>
</g>
</svg>
