<?xml version="1.0" encoding="UTF-8" standalone="no"?>
<!DOCTYPE svg PUBLIC "-//W3C//DTD SVG 1.1//EN"
 "http://www.w3.org/Graphics/SVG/1.1/DTD/svg11.dtd">
<!-- Generated by graphviz version 11.0.0 (20240428.1522)
 -->
<!-- Title: include/playersMenu.hpp Pages: 1 -->
<svg width="206pt" height="84pt"
 viewBox="0.00 0.00 205.50 84.00" xmlns="http://www.w3.org/2000/svg" xmlns:xlink="http://www.w3.org/1999/xlink">
<g id="graph0" class="graph" transform="scale(1 1) rotate(0) translate(4 80)">
<title>include/playersMenu.hpp</title>
<!-- Node1 -->
<g id="Node000001" class="node">
<title>Node1</title>
<g id="a_Node000001"><a xlink:title=" ">
<polygon fill="#999999" stroke="#666666" points="152.12,-76 28.12,-76 28.12,-56 152.12,-56 152.12,-76"/>
<text text-anchor="middle" x="90.12" y="-62.5" font-family="Helvetica,sans-Serif" font-size="10.00">include/playersMenu.hpp</text>
</a>
</g>
</g>
<!-- Node2 -->
<g id="Node000002" class="node">
<title>Node2</title>
<g id="a_Node000002"><a xlink:href="$main_8cpp.html" xlink:title=" ">
<polygon fill="white" stroke="#666666" points="72.25,-20 0,-20 0,0 72.25,0 72.25,-20"/>
<text text-anchor="middle" x="36.12" y="-6.5" font-family="Helvetica,sans-Serif" font-size="10.00">src/main.cpp</text>
</a>
</g>
</g>
<!-- Node1&#45;&gt;Node2 -->
<g id="edge3_Node000001_Node000002" class="edge">
<title>Node1&#45;&gt;Node2</title>
<g id="a_edge3_Node000001_Node000002"><a xlink:title=" ">
<path fill="none" stroke="#63b8ff" d="M72.69,-47.57C63.62,-38.5 52.9,-27.78 45.42,-20.3"/>
<polygon fill="#63b8ff" stroke="#63b8ff" points="70.1,-49.93 79.65,-54.52 75.05,-44.98 70.1,-49.93"/>
</a>
</g>
</g>
<!-- Node3 -->
<g id="Node000003" class="node">
<title>Node3</title>
<g id="a_Node000003"><a xlink:href="$players_menu_8cpp.html" xlink:title=" ">
<polygon fill="white" stroke="#666666" points="197.5,-20 90.75,-20 90.75,0 197.5,0 197.5,-20"/>
<text text-anchor="middle" x="144.12" y="-6.5" font-family="Helvetica,sans-Serif" font-size="10.00">src/playersMenu.cpp</text>
</a>
</g>
</g>
<!-- Node1&#45;&gt;Node3 -->
<g id="edge4_Node000001_Node000003" class="edge">
<title>Node1&#45;&gt;Node3</title>
<g id="a_edge4_Node000001_Node000003"><a xlink:title=" ">
<path fill="none" stroke="#63b8ff" d="M107.56,-47.57C116.63,-38.5 127.35,-27.78 134.83,-20.3"/>
<polygon fill="#63b8ff" stroke="#63b8ff" points="105.2,-44.98 100.6,-54.52 110.15,-49.93 105.2,-44.98"/>
</a>
</g>
</g>
</g>
</svg>
