<?xml version="1.0" encoding="UTF-8" standalone="no"?>
<!DOCTYPE svg PUBLIC "-//W3C//DTD SVG 1.1//EN"
 "http://www.w3.org/Graphics/SVG/1.1/DTD/svg11.dtd">
<!-- Generated by graphviz version 11.0.0 (20240428.1522)
 -->
<!-- Title: src/playersManagement.cpp Pages: 1 -->
<svg width="405pt" height="260pt"
 viewBox="0.00 0.00 404.62 259.50" xmlns="http://www.w3.org/2000/svg" xmlns:xlink="http://www.w3.org/1999/xlink">
<g id="graph0" class="graph" transform="scale(1 1) rotate(0) translate(4 255.5)">
<title>src/playersManagement.cpp</title>
<!-- Node1 -->
<g id="Node000001" class="node">
<title>Node1</title>
<g id="a_Node000001"><a xlink:title=" ">
<polygon fill="#999999" stroke="#666666" points="343.25,-251.5 180.25,-251.5 180.25,-230 343.25,-230 343.25,-251.5"/>
<text text-anchor="middle" x="261.75" y="-236.1" font-family="Helvetica,sans-Serif" font-size="12.00">src/playersManagement.cpp</text>
</a>
</g>
</g>
<!-- Node2 -->
<g id="Node000002" class="node">
<title>Node2</title>
<g id="a_Node000002"><a xlink:href="$players_management_8hpp.html" xlink:title=" ">
<polygon fill="white" stroke="#666666" points="158.88,-194 14.62,-194 14.62,-172.5 158.88,-172.5 158.88,-194"/>
<text text-anchor="middle" x="86.75" y="-178.6" font-family="Helvetica,sans-Serif" font-size="12.00">playersManagement.hpp</text>
</a>
</g>
</g>
<!-- Node1&#45;&gt;Node2 -->
<g id="edge11_Node000001_Node000002" class="edge">
<title>Node1&#45;&gt;Node2</title>
<g id="a_edge11_Node000001_Node000002"><a xlink:title=" ">
<path fill="none" stroke="#63b8ff" d="M229.65,-229.57C201.62,-220.68 160.69,-207.7 129.82,-197.91"/>
<polygon fill="#63b8ff" stroke="#63b8ff" points="130.97,-194.6 120.38,-194.92 128.86,-201.28 130.97,-194.6"/>
</a>
</g>
</g>
<!-- Node5 -->
<g id="Node000005" class="node">
<title>Node5</title>
<g id="a_Node000005"><a xlink:title=" ">
<polygon fill="#e0e0e0" stroke="#999999" points="177,-21.5 132.5,-21.5 132.5,0 177,0 177,-21.5"/>
<text text-anchor="middle" x="154.75" y="-6.1" font-family="Helvetica,sans-Serif" font-size="12.00">string</text>
</a>
</g>
</g>
<!-- Node1&#45;&gt;Node5 -->
<g id="edge18_Node000001_Node000005" class="edge">
<title>Node1&#45;&gt;Node5</title>
<g id="a_edge18_Node000001_Node000005"><a xlink:title=" ">
<path fill="none" stroke="#63b8ff" d="M260.1,-229.95C254.31,-196.44 234.26,-86.9 214.75,-57.5 206.85,-45.6 194.79,-35.53 183.55,-27.9"/>
<polygon fill="#63b8ff" stroke="#63b8ff" points="185.61,-25.06 175.29,-22.65 181.85,-30.97 185.61,-25.06"/>
</a>
</g>
</g>
<!-- Node7 -->
<g id="Node000007" class="node">
<title>Node7</title>
<g id="a_Node000007"><a xlink:title=" ">
<polygon fill="#e0e0e0" stroke="#999999" points="317.25,-194 262.25,-194 262.25,-172.5 317.25,-172.5 317.25,-194"/>
<text text-anchor="middle" x="289.75" y="-178.6" font-family="Helvetica,sans-Serif" font-size="12.00">fstream</text>
</a>
</g>
</g>
<!-- Node1&#45;&gt;Node7 -->
<g id="edge19_Node000001_Node000007" class="edge">
<title>Node1&#45;&gt;Node7</title>
<g id="a_edge19_Node000001_Node000007"><a xlink:title=" ">
<path fill="none" stroke="#63b8ff" d="M266.89,-229.57C270.44,-222.53 275.28,-212.92 279.6,-204.37"/>
<polygon fill="#63b8ff" stroke="#63b8ff" points="282.59,-206.22 283.97,-195.72 276.34,-203.07 282.59,-206.22"/>
</a>
</g>
</g>
<!-- Node8 -->
<g id="Node000008" class="node">
<title>Node8</title>
<g id="a_Node000008"><a xlink:title=" ">
<polygon fill="#e0e0e0" stroke="#999999" points="396.62,-194 334.88,-194 334.88,-172.5 396.62,-172.5 396.62,-194"/>
<text text-anchor="middle" x="365.75" y="-178.6" font-family="Helvetica,sans-Serif" font-size="12.00">iostream</text>
</a>
</g>
</g>
<!-- Node1&#45;&gt;Node8 -->
<g id="edge20_Node000001_Node000008" class="edge">
<title>Node1&#45;&gt;Node8</title>
<g id="a_edge20_Node000001_Node000008"><a xlink:title=" ">
<path fill="none" stroke="#63b8ff" d="M280.83,-229.57C296.51,-221.2 318.99,-209.2 336.88,-199.66"/>
<polygon fill="#63b8ff" stroke="#63b8ff" points="338.29,-202.87 345.46,-195.08 334.99,-196.7 338.29,-202.87"/>
</a>
</g>
</g>
<!-- Node3 -->
<g id="Node000003" class="node">
<title>Node3</title>
<g id="a_Node000003"><a xlink:title=" ">
<polygon fill="#e0e0e0" stroke="#999999" points="47.5,-79 0,-79 0,-57.5 47.5,-57.5 47.5,-79"/>
<text text-anchor="middle" x="23.75" y="-63.6" font-family="Helvetica,sans-Serif" font-size="12.00">vector</text>
</a>
</g>
</g>
<!-- Node2&#45;&gt;Node3 -->
<g id="edge12_Node000002_Node000003" class="edge">
<title>Node2&#45;&gt;Node3</title>
<g id="a_edge12_Node000002_Node000003"><a xlink:title=" ">
<path fill="none" stroke="#63b8ff" d="M74.2,-172.25C64.3,-163.73 50.86,-150.65 42.75,-136.5 34.62,-122.32 29.78,-104.43 27.03,-90.67"/>
<polygon fill="#63b8ff" stroke="#63b8ff" points="30.49,-90.15 25.31,-80.91 23.59,-91.37 30.49,-90.15"/>
</a>
</g>
</g>
<!-- Node4 -->
<g id="Node000004" class="node">
<title>Node4</title>
<g id="a_Node000004"><a xlink:href="$player_8hpp.html" xlink:title=" ">
<polygon fill="white" stroke="#666666" points="121.75,-136.5 51.75,-136.5 51.75,-115 121.75,-115 121.75,-136.5"/>
<text text-anchor="middle" x="86.75" y="-121.1" font-family="Helvetica,sans-Serif" font-size="12.00">player.hpp</text>
</a>
</g>
</g>
<!-- Node2&#45;&gt;Node4 -->
<g id="edge13_Node000002_Node000004" class="edge">
<title>Node2&#45;&gt;Node4</title>
<g id="a_edge13_Node000002_Node000004"><a xlink:title=" ">
<path fill="none" stroke="#63b8ff" d="M86.75,-172.07C86.75,-165.42 86.75,-156.48 86.75,-148.3"/>
<polygon fill="#63b8ff" stroke="#63b8ff" points="90.25,-148.38 86.75,-138.38 83.25,-148.38 90.25,-148.38"/>
</a>
</g>
</g>
<!-- Node4&#45;&gt;Node3 -->
<g id="edge15_Node000004_Node000003" class="edge">
<title>Node4&#45;&gt;Node3</title>
<g id="a_edge15_Node000004_Node000003"><a xlink:title=" ">
<path fill="none" stroke="#63b8ff" d="M75.19,-114.57C66.4,-106.83 54.09,-95.98 43.71,-86.84"/>
<polygon fill="#63b8ff" stroke="#63b8ff" points="46.18,-84.35 36.37,-80.37 41.56,-89.6 46.18,-84.35"/>
</a>
</g>
</g>
<!-- Node4&#45;&gt;Node5 -->
<g id="edge14_Node000004_Node000005" class="edge">
<title>Node4&#45;&gt;Node5</title>
<g id="a_edge14_Node000004_Node000005"><a xlink:title=" ">
<path fill="none" stroke="#63b8ff" d="M85.63,-114.89C84.56,-101.09 84.37,-75.67 94.75,-57.5 101.68,-45.36 113.27,-35.39 124.41,-27.89"/>
<polygon fill="#63b8ff" stroke="#63b8ff" points="126.04,-31 132.69,-22.74 122.35,-25.05 126.04,-31"/>
</a>
</g>
</g>
<!-- Node6 -->
<g id="Node000006" class="node">
<title>Node6</title>
<g id="a_Node000006"><a xlink:href="$game_status_8hpp.html" xlink:title=" ">
<polygon fill="white" stroke="#666666" points="205.5,-79 104,-79 104,-57.5 205.5,-57.5 205.5,-79"/>
<text text-anchor="middle" x="154.75" y="-63.6" font-family="Helvetica,sans-Serif" font-size="12.00">gameStatus.hpp</text>
</a>
</g>
</g>
<!-- Node4&#45;&gt;Node6 -->
<g id="edge16_Node000004_Node000006" class="edge">
<title>Node4&#45;&gt;Node6</title>
<g id="a_edge16_Node000004_Node000006"><a xlink:title=" ">
<path fill="none" stroke="#63b8ff" d="M99.22,-114.57C108.81,-106.75 122.27,-95.76 133.54,-86.56"/>
<polygon fill="#63b8ff" stroke="#63b8ff" points="135.65,-89.36 141.18,-80.32 131.22,-83.93 135.65,-89.36"/>
</a>
</g>
</g>
<!-- Node6&#45;&gt;Node5 -->
<g id="edge17_Node000006_Node000005" class="edge">
<title>Node6&#45;&gt;Node5</title>
<g id="a_edge17_Node000006_Node000005"><a xlink:title=" ">
<path fill="none" stroke="#63b8ff" d="M154.75,-57.07C154.75,-50.42 154.75,-41.48 154.75,-33.3"/>
<polygon fill="#63b8ff" stroke="#63b8ff" points="158.25,-33.38 154.75,-23.38 151.25,-33.38 158.25,-33.38"/>
</a>
</g>
</g>
</g>
</svg>
