<?xml version="1.0" encoding="UTF-8" standalone="no"?>
<!DOCTYPE svg PUBLIC "-//W3C//DTD SVG 1.1//EN"
 "http://www.w3.org/Graphics/SVG/1.1/DTD/svg11.dtd">
<!-- Generated by graphviz version 11.0.0 (20240428.1522)
 -->
<!-- Title: include/playersMenu.hpp Pages: 1 -->
<svg width="213pt" height="252pt"
 viewBox="0.00 0.00 212.62 252.00" xmlns="http://www.w3.org/2000/svg" xmlns:xlink="http://www.w3.org/1999/xlink">
<g id="graph0" class="graph" transform="scale(1 1) rotate(0) translate(4 248)">
<title>include/playersMenu.hpp</title>
<!-- Node1 -->
<g id="Node000001" class="node">
<title>Node1</title>
<g id="a_Node000001"><a xlink:title=" ">
<polygon fill="#999999" stroke="#666666" points="124,-244 0,-244 0,-224 124,-224 124,-244"/>
<text text-anchor="middle" x="62" y="-230.5" font-family="Helvetica,sans-Serif" font-size="10.00">include/playersMenu.hpp</text>
</a>
</g>
</g>
<!-- Node2 -->
<g id="Node000002" class="node">
<title>Node2</title>
<g id="a_Node000002"><a xlink:href="$players_management_8hpp.html" xlink:title=" ">
<polygon fill="white" stroke="#666666" points="123.25,-188 0.75,-188 0.75,-168 123.25,-168 123.25,-188"/>
<text text-anchor="middle" x="62" y="-174.5" font-family="Helvetica,sans-Serif" font-size="10.00">playersManagement.hpp</text>
</a>
</g>
</g>
<!-- Node1&#45;&gt;Node2 -->
<g id="edge8_Node000001_Node000002" class="edge">
<title>Node1&#45;&gt;Node2</title>
<g id="a_edge8_Node000001_Node000002"><a xlink:title=" ">
<path fill="none" stroke="#63b8ff" d="M62,-223.59C62,-217.01 62,-207.96 62,-199.73"/>
<polygon fill="#63b8ff" stroke="#63b8ff" points="65.5,-199.81 62,-189.81 58.5,-199.81 65.5,-199.81"/>
</a>
</g>
</g>
<!-- Node3 -->
<g id="Node000003" class="node">
<title>Node3</title>
<g id="a_Node000003"><a xlink:title=" ">
<polygon fill="#e0e0e0" stroke="#999999" points="58.75,-76 17.25,-76 17.25,-56 58.75,-56 58.75,-76"/>
<text text-anchor="middle" x="38" y="-62.5" font-family="Helvetica,sans-Serif" font-size="10.00">vector</text>
</a>
</g>
</g>
<!-- Node2&#45;&gt;Node3 -->
<g id="edge9_Node000002_Node000003" class="edge">
<title>Node2&#45;&gt;Node3</title>
<g id="a_edge9_Node000002_Node000003"><a xlink:title=" ">
<path fill="none" stroke="#63b8ff" d="M59.91,-167.7C57.88,-158.6 54.7,-144.35 52,-132 48.74,-117.11 45.12,-100.3 42.38,-87.5"/>
<polygon fill="#63b8ff" stroke="#63b8ff" points="45.81,-86.79 40.29,-77.74 38.96,-88.25 45.81,-86.79"/>
</a>
</g>
</g>
<!-- Node4 -->
<g id="Node000004" class="node">
<title>Node4</title>
<g id="a_Node000004"><a xlink:href="$player_8hpp.html" xlink:title=" ">
<polygon fill="white" stroke="#666666" points="122.5,-132 61.5,-132 61.5,-112 122.5,-112 122.5,-132"/>
<text text-anchor="middle" x="92" y="-118.5" font-family="Helvetica,sans-Serif" font-size="10.00">player.hpp</text>
</a>
</g>
</g>
<!-- Node2&#45;&gt;Node4 -->
<g id="edge10_Node000002_Node000004" class="edge">
<title>Node2&#45;&gt;Node4</title>
<g id="a_edge10_Node000002_Node000004"><a xlink:title=" ">
<path fill="none" stroke="#63b8ff" d="M67.23,-167.59C71.1,-160.63 76.51,-150.89 81.28,-142.29"/>
<polygon fill="#63b8ff" stroke="#63b8ff" points="84.3,-144.06 86.1,-133.62 78.18,-140.66 84.3,-144.06"/>
</a>
</g>
</g>
<!-- Node4&#45;&gt;Node3 -->
<g id="edge12_Node000004_Node000003" class="edge">
<title>Node4&#45;&gt;Node3</title>
<g id="a_edge12_Node000004_Node000003"><a xlink:title=" ">
<path fill="none" stroke="#63b8ff" d="M82.59,-111.59C75.08,-104.08 64.35,-93.35 55.3,-84.3"/>
<polygon fill="#63b8ff" stroke="#63b8ff" points="57.91,-81.96 48.37,-77.37 52.96,-86.91 57.91,-81.96"/>
</a>
</g>
</g>
<!-- Node5 -->
<g id="Node000005" class="node">
<title>Node5</title>
<g id="a_Node000005"><a xlink:title=" ">
<polygon fill="#e0e0e0" stroke="#999999" points="145,-20 105,-20 105,0 145,0 145,-20"/>
<text text-anchor="middle" x="125" y="-6.5" font-family="Helvetica,sans-Serif" font-size="10.00">string</text>
</a>
</g>
</g>
<!-- Node4&#45;&gt;Node5 -->
<g id="edge11_Node000004_Node000005" class="edge">
<title>Node4&#45;&gt;Node5</title>
<g id="a_edge11_Node000004_Node000005"><a xlink:title=" ">
<path fill="none" stroke="#63b8ff" d="M93.93,-111.65C96.64,-98.93 101.93,-75.53 108,-56 110.6,-47.63 113.92,-38.56 116.94,-30.78"/>
<polygon fill="#63b8ff" stroke="#63b8ff" points="120.15,-32.19 120.6,-21.6 113.64,-29.6 120.15,-32.19"/>
</a>
</g>
</g>
<!-- Node6 -->
<g id="Node000006" class="node">
<title>Node6</title>
<g id="a_Node000006"><a xlink:href="$game_status_8hpp.html" xlink:title=" ">
<polygon fill="white" stroke="#666666" points="204.62,-76 117.38,-76 117.38,-56 204.62,-56 204.62,-76"/>
<text text-anchor="middle" x="161" y="-62.5" font-family="Helvetica,sans-Serif" font-size="10.00">gameStatus.hpp</text>
</a>
</g>
</g>
<!-- Node4&#45;&gt;Node6 -->
<g id="edge13_Node000004_Node000006" class="edge">
<title>Node4&#45;&gt;Node6</title>
<g id="a_edge13_Node000004_Node000006"><a xlink:title=" ">
<path fill="none" stroke="#63b8ff" d="M104.02,-111.59C114.01,-103.77 128.46,-92.46 140.31,-83.19"/>
<polygon fill="#63b8ff" stroke="#63b8ff" points="142.21,-86.15 147.93,-77.23 137.89,-80.64 142.21,-86.15"/>
</a>
</g>
</g>
<!-- Node6&#45;&gt;Node5 -->
<g id="edge14_Node000006_Node000005" class="edge">
<title>Node6&#45;&gt;Node5</title>
<g id="a_edge14_Node000006_Node000005"><a xlink:title=" ">
<path fill="none" stroke="#63b8ff" d="M154.73,-55.59C149.98,-48.47 143.3,-38.45 137.48,-29.72"/>
<polygon fill="#63b8ff" stroke="#63b8ff" points="140.5,-27.94 132.04,-21.56 134.67,-31.82 140.5,-27.94"/>
</a>
</g>
</g>
</g>
</svg>
