<?xml version="1.0" encoding="UTF-8" standalone="no"?>
<!DOCTYPE svg PUBLIC "-//W3C//DTD SVG 1.1//EN"
 "http://www.w3.org/Graphics/SVG/1.1/DTD/svg11.dtd">
<!-- Generated by graphviz version 11.0.0 (20240428.1522)
 -->
<!-- Title: src/stringUtils.cpp Pages: 1 -->
<svg width="118pt" height="145pt"
 viewBox="0.00 0.00 118.00 144.50" xmlns="http://www.w3.org/2000/svg" xmlns:xlink="http://www.w3.org/1999/xlink">
<g id="graph0" class="graph" transform="scale(1 1) rotate(0) translate(4 140.5)">
<title>src/stringUtils.cpp</title>
<!-- Node1 -->
<g id="Node000001" class="node">
<title>Node1</title>
<g id="a_Node000001"><a xlink:title=" ">
<polygon fill="#999999" stroke="#666666" points="108.38,-136.5 0.12,-136.5 0.12,-115 108.38,-115 108.38,-136.5"/>
<text text-anchor="middle" x="54.25" y="-121.1" font-family="Helvetica,sans-Serif" font-size="12.00">src/stringUtils.cpp</text>
</a>
</g>
</g>
<!-- Node2 -->
<g id="Node000002" class="node">
<title>Node2</title>
<g id="a_Node000002"><a xlink:href="$string_utils_8hpp.html" xlink:title=" ">
<polygon fill="white" stroke="#666666" points="99,-79 9.5,-79 9.5,-57.5 99,-57.5 99,-79"/>
<text text-anchor="middle" x="54.25" y="-63.6" font-family="Helvetica,sans-Serif" font-size="12.00">stringUtils.hpp</text>
</a>
</g>
</g>
<!-- Node1&#45;&gt;Node2 -->
<g id="edge4_Node000001_Node000002" class="edge">
<title>Node1&#45;&gt;Node2</title>
<g id="a_edge4_Node000001_Node000002"><a xlink:title=" ">
<path fill="none" stroke="#63b8ff" d="M54.25,-114.57C54.25,-107.92 54.25,-98.98 54.25,-90.8"/>
<polygon fill="#63b8ff" stroke="#63b8ff" points="57.75,-90.88 54.25,-80.88 50.75,-90.88 57.75,-90.88"/>
</a>
</g>
</g>
<!-- Node3 -->
<g id="Node000003" class="node">
<title>Node3</title>
<g id="a_Node000003"><a xlink:title=" ">
<polygon fill="#e0e0e0" stroke="#999999" points="44.5,-21.5 0,-21.5 0,0 44.5,0 44.5,-21.5"/>
<text text-anchor="middle" x="22.25" y="-6.1" font-family="Helvetica,sans-Serif" font-size="12.00">string</text>
</a>
</g>
</g>
<!-- Node2&#45;&gt;Node3 -->
<g id="edge5_Node000002_Node000003" class="edge">
<title>Node2&#45;&gt;Node3</title>
<g id="a_edge5_Node000002_Node000003"><a xlink:title=" ">
<path fill="none" stroke="#63b8ff" d="M48.38,-57.07C44.28,-49.95 38.66,-40.21 33.69,-31.58"/>
<polygon fill="#63b8ff" stroke="#63b8ff" points="36.87,-30.09 28.84,-23.18 30.8,-33.59 36.87,-30.09"/>
</a>
</g>
</g>
<!-- Node4 -->
<g id="Node000004" class="node">
<title>Node4</title>
<g id="a_Node000004"><a xlink:title=" ">
<polygon fill="#e0e0e0" stroke="#999999" points="110,-21.5 62.5,-21.5 62.5,0 110,0 110,-21.5"/>
<text text-anchor="middle" x="86.25" y="-6.1" font-family="Helvetica,sans-Serif" font-size="12.00">vector</text>
</a>
</g>
</g>
<!-- Node2&#45;&gt;Node4 -->
<g id="edge6_Node000002_Node000004" class="edge">
<title>Node2&#45;&gt;Node4</title>
<g id="a_edge6_Node000002_Node000004"><a xlink:title=" ">
<path fill="none" stroke="#63b8ff" d="M60.12,-57.07C64.22,-49.95 69.84,-40.21 74.81,-31.58"/>
<polygon fill="#63b8ff" stroke="#63b8ff" points="77.7,-33.59 79.66,-23.18 71.63,-30.09 77.7,-33.59"/>
</a>
</g>
</g>
</g>
</svg>
