<?xml version="1.0" encoding="UTF-8" standalone="no"?>
<!DOCTYPE svg PUBLIC "-//W3C//DTD SVG 1.1//EN"
 "http://www.w3.org/Graphics/SVG/1.1/DTD/svg11.dtd">
<!-- Generated by graphviz version 11.0.0 (20240428.1522)
 -->
<!-- Title: include/stringUtils.hpp Pages: 1 -->
<svg width="198pt" height="84pt"
 viewBox="0.00 0.00 198.12 84.00" xmlns="http://www.w3.org/2000/svg" xmlns:xlink="http://www.w3.org/1999/xlink">
<g id="graph0" class="graph" transform="scale(1 1) rotate(0) translate(4 80)">
<title>include/stringUtils.hpp</title>
<!-- Node1 -->
<g id="Node000001" class="node">
<title>Node1</title>
<g id="a_Node000001"><a xlink:title=" ">
<polygon fill="#999999" stroke="#666666" points="146.75,-76 34.75,-76 34.75,-56 146.75,-56 146.75,-76"/>
<text text-anchor="middle" x="90.75" y="-62.5" font-family="Helvetica,sans-Serif" font-size="10.00">include/stringUtils.hpp</text>
</a>
</g>
</g>
<!-- Node2 -->
<g id="Node000002" class="node">
<title>Node2</title>
<g id="a_Node000002"><a xlink:href="$player_8cpp.html" xlink:title=" ">
<polygon fill="white" stroke="#666666" points="77.5,-20 0,-20 0,0 77.5,0 77.5,-20"/>
<text text-anchor="middle" x="38.75" y="-6.5" font-family="Helvetica,sans-Serif" font-size="10.00">src/player.cpp</text>
</a>
</g>
</g>
<!-- Node1&#45;&gt;Node2 -->
<g id="edge3_Node000001_Node000002" class="edge">
<title>Node1&#45;&gt;Node2</title>
<g id="a_edge3_Node000001_Node000002"><a xlink:title=" ">
<path fill="none" stroke="#63b8ff" d="M73.96,-47.57C65.23,-38.5 54.91,-27.78 47.7,-20.3"/>
<polygon fill="#63b8ff" stroke="#63b8ff" points="71.18,-49.73 80.64,-54.5 76.23,-44.87 71.18,-49.73"/>
</a>
</g>
</g>
<!-- Node3 -->
<g id="Node000003" class="node">
<title>Node3</title>
<g id="a_Node000003"><a xlink:href="$string_utils_8cpp.html" xlink:title=" ">
<polygon fill="white" stroke="#666666" points="190.12,-20 95.38,-20 95.38,0 190.12,0 190.12,-20"/>
<text text-anchor="middle" x="142.75" y="-6.5" font-family="Helvetica,sans-Serif" font-size="10.00">src/stringUtils.cpp</text>
</a>
</g>
</g>
<!-- Node1&#45;&gt;Node3 -->
<g id="edge4_Node000001_Node000003" class="edge">
<title>Node1&#45;&gt;Node3</title>
<g id="a_edge4_Node000001_Node000003"><a xlink:title=" ">
<path fill="none" stroke="#63b8ff" d="M107.54,-47.57C116.27,-38.5 126.59,-27.78 133.8,-20.3"/>
<polygon fill="#63b8ff" stroke="#63b8ff" points="105.27,-44.87 100.86,-54.5 110.32,-49.73 105.27,-44.87"/>
</a>
</g>
</g>
</g>
</svg>
