<?xml version="1.0" encoding="UTF-8" standalone="no"?>
<!DOCTYPE svg PUBLIC "-//W3C//DTD SVG 1.1//EN"
 "http://www.w3.org/Graphics/SVG/1.1/DTD/svg11.dtd">
<!-- Generated by graphviz version 11.0.0 (20240428.1522)
 -->
<!-- Title: game Pages: 1 -->
<svg width="172pt" height="606pt"
 viewBox="0.00 0.00 172.00 605.50" xmlns="http://www.w3.org/2000/svg" xmlns:xlink="http://www.w3.org/1999/xlink">
<g id="graph0" class="graph" transform="scale(1 1) rotate(0) translate(4 601.5)">
<title>game</title>
<!-- Node1 -->
<g id="Node000001" class="node">
<title>Node1</title>
<g id="a_Node000001"><a xlink:title="Abstract class game.">
<polygon fill="#999999" stroke="none" points="160,-226 4,-226 4,0 160,0 160,-226"/>
<text text-anchor="start" x="67" y="-210.6" font-family="Helvetica,sans-Serif" font-size="12.00">game</text>
<text text-anchor="start" x="7.62" y="-193.6" font-family="Helvetica,sans-Serif" font-size="12.00">#</text>
<text text-anchor="start" x="18" y="-193.6" font-family="Helvetica,sans-Serif" font-size="12.00">std::string name</text>
<text text-anchor="start" x="7.62" y="-176.6" font-family="Helvetica,sans-Serif" font-size="12.00">#</text>
<text text-anchor="start" x="18" y="-176.6" font-family="Helvetica,sans-Serif" font-size="12.00">int rows</text>
<text text-anchor="start" x="7.62" y="-159.6" font-family="Helvetica,sans-Serif" font-size="12.00">#</text>
<text text-anchor="start" x="18" y="-159.6" font-family="Helvetica,sans-Serif" font-size="12.00">int cols</text>
<text text-anchor="start" x="7.62" y="-142.6" font-family="Helvetica,sans-Serif" font-size="12.00">#</text>
<text text-anchor="start" x="18" y="-142.6" font-family="Helvetica,sans-Serif" font-size="12.00">std::vector&lt; std::vector</text>
<text text-anchor="start" x="18" y="-129.1" font-family="Helvetica,sans-Serif" font-size="12.00">&lt; char &gt; &gt; tabuleiro</text>
<text text-anchor="start" x="7.62" y="-111.6" font-family="Helvetica,sans-Serif" font-size="12.00">+</text>
<text text-anchor="start" x="18" y="-111.6" font-family="Helvetica,sans-Serif" font-size="12.00">game(int _rows, int</text>
<text text-anchor="start" x="18" y="-98.1" font-family="Helvetica,sans-Serif" font-size="12.00"> _cols)</text>
<text text-anchor="start" x="7.62" y="-80.6" font-family="Helvetica,sans-Serif" font-size="12.00">+</text>
<text text-anchor="start" x="18" y="-80.6" font-family="Helvetica,sans-Serif" font-size="12.00">~game()</text>
<text text-anchor="start" x="7.62" y="-63.6" font-family="Helvetica,sans-Serif" font-size="12.00">+</text>
<text text-anchor="start" x="18" y="-63.6" font-family="Helvetica,sans-Serif" font-size="12.00">virtual void changeElement</text>
<text text-anchor="start" x="18" y="-50.1" font-family="Helvetica,sans-Serif" font-size="12.00">(int x, int y, char element)</text>
<text text-anchor="start" x="7.62" y="-32.6" font-family="Helvetica,sans-Serif" font-size="12.00">+</text>
<text text-anchor="start" x="18" y="-32.6" font-family="Helvetica,sans-Serif" font-size="12.00">virtual void winAndLose</text>
<text text-anchor="start" x="18" y="-19.1" font-family="Helvetica,sans-Serif" font-size="12.00">(std::string winner, std</text>
<text text-anchor="start" x="18" y="-5.6" font-family="Helvetica,sans-Serif" font-size="12.00">::string loser)</text>
<polygon fill="#666666" stroke="#666666" points="4,-207 4,-207 160,-207 160,-207 4,-207"/>
<polygon fill="#666666" stroke="#666666" points="4,-125 4,-125 16,-125 16,-125 4,-125"/>
<polygon fill="#666666" stroke="#666666" points="16,-125 16,-125 160,-125 160,-125 16,-125"/>
<polygon fill="none" stroke="#666666" points="4,0 4,-226 160,-226 160,0 4,0"/>
</a>
</g>
</g>
<!-- Node2 -->
<g id="Node000002" class="node">
<title>Node2</title>
<g id="a_Node000002"><a xlink:href="classplayers_management.html" target="_top" xlink:title=" ">
<polygon fill="white" stroke="none" points="164,-597.5 0,-597.5 0,-275.5 164,-275.5 164,-597.5"/>
<text text-anchor="start" x="29.12" y="-582.1" font-family="Helvetica,sans-Serif" font-size="12.00">playersManagement</text>
<text text-anchor="start" x="80.5" y="-565.1" font-family="Helvetica,sans-Serif" font-size="12.00"> </text>
<text text-anchor="start" x="3.62" y="-548.1" font-family="Helvetica,sans-Serif" font-size="12.00">+</text>
<text text-anchor="start" x="14" y="-548.1" font-family="Helvetica,sans-Serif" font-size="12.00">playersManagement()</text>
<text text-anchor="start" x="3.62" y="-531.1" font-family="Helvetica,sans-Serif" font-size="12.00">+</text>
<text text-anchor="start" x="14" y="-531.1" font-family="Helvetica,sans-Serif" font-size="12.00">~playersManagement()</text>
<text text-anchor="start" x="3.62" y="-514.1" font-family="Helvetica,sans-Serif" font-size="12.00">+</text>
<text text-anchor="start" x="14" y="-514.1" font-family="Helvetica,sans-Serif" font-size="12.00">void loadData()</text>
<text text-anchor="start" x="3.62" y="-497.1" font-family="Helvetica,sans-Serif" font-size="12.00">+</text>
<text text-anchor="start" x="14" y="-497.1" font-family="Helvetica,sans-Serif" font-size="12.00">void saveData()</text>
<text text-anchor="start" x="3.62" y="-480.1" font-family="Helvetica,sans-Serif" font-size="12.00">+</text>
<text text-anchor="start" x="14" y="-480.1" font-family="Helvetica,sans-Serif" font-size="12.00">int addPlayer(std::</text>
<text text-anchor="start" x="14" y="-466.6" font-family="Helvetica,sans-Serif" font-size="12.00">string name, std::string</text>
<text text-anchor="start" x="14" y="-453.1" font-family="Helvetica,sans-Serif" font-size="12.00"> nickname)</text>
<text text-anchor="start" x="3.62" y="-436.1" font-family="Helvetica,sans-Serif" font-size="12.00">+</text>
<text text-anchor="start" x="14" y="-436.1" font-family="Helvetica,sans-Serif" font-size="12.00">int removePlayer(std</text>
<text text-anchor="start" x="14" y="-422.6" font-family="Helvetica,sans-Serif" font-size="12.00">::string name)</text>
<text text-anchor="start" x="3.62" y="-405.1" font-family="Helvetica,sans-Serif" font-size="12.00">+</text>
<text text-anchor="start" x="14" y="-405.1" font-family="Helvetica,sans-Serif" font-size="12.00">void listPlayers()</text>
<text text-anchor="start" x="3.62" y="-388.1" font-family="Helvetica,sans-Serif" font-size="12.00">+</text>
<text text-anchor="start" x="14" y="-388.1" font-family="Helvetica,sans-Serif" font-size="12.00">void listPlayers(std</text>
<text text-anchor="start" x="14" y="-374.6" font-family="Helvetica,sans-Serif" font-size="12.00">::string name)</text>
<text text-anchor="start" x="3.62" y="-357.1" font-family="Helvetica,sans-Serif" font-size="12.00">+</text>
<text text-anchor="start" x="14" y="-357.1" font-family="Helvetica,sans-Serif" font-size="12.00">int addLose(std::string</text>
<text text-anchor="start" x="14" y="-343.6" font-family="Helvetica,sans-Serif" font-size="12.00"> game, std::string nickname)</text>
<text text-anchor="start" x="3.62" y="-326.1" font-family="Helvetica,sans-Serif" font-size="12.00">+</text>
<text text-anchor="start" x="14" y="-326.1" font-family="Helvetica,sans-Serif" font-size="12.00">int addWin(std::string</text>
<text text-anchor="start" x="14" y="-312.6" font-family="Helvetica,sans-Serif" font-size="12.00"> game, std::string nickname)</text>
<text text-anchor="start" x="3.62" y="-295.1" font-family="Helvetica,sans-Serif" font-size="12.00">+</text>
<text text-anchor="start" x="14" y="-295.1" font-family="Helvetica,sans-Serif" font-size="12.00">int existPlayer(std</text>
<text text-anchor="start" x="14" y="-281.6" font-family="Helvetica,sans-Serif" font-size="12.00">::string nick)</text>
<polygon fill="#666666" stroke="#666666" points="0,-578.5 0,-578.5 164,-578.5 164,-578.5 0,-578.5"/>
<polygon fill="#666666" stroke="#666666" points="0,-561.5 0,-561.5 164,-561.5 164,-561.5 0,-561.5"/>
<polygon fill="none" stroke="#666666" points="0,-275.5 0,-597.5 164,-597.5 164,-275.5 0,-275.5"/>
</a>
</g>
</g>
<!-- Node2&#45;&gt;Node1 -->
<g id="edge1_Node000001_Node000002" class="edge">
<title>Node2&#45;&gt;Node1</title>
<g id="a_edge1_Node000001_Node000002"><a xlink:title=" ">
<path fill="none" stroke="#63b8ff" d="M82,-275.69C82,-263.31 82,-250.92 82,-238.81"/>
<polygon fill="none" stroke="#63b8ff" points="82,-238.71 78,-232.71 82,-226.71 86,-232.71 82,-238.71"/>
</a>
</g>
<text text-anchor="middle" x="121" y="-246.1" font-family="Helvetica,sans-Serif" font-size="12.00" fill="grey"> #management</text>
</g>
</g>
</svg>
