<?xml version="1.0" encoding="UTF-8" standalone="no"?>
<!DOCTYPE svg PUBLIC "-//W3C//DTD SVG 1.1//EN"
 "http://www.w3.org/Graphics/SVG/1.1/DTD/svg11.dtd">
<!-- Generated by graphviz version 11.0.0 (20240428.1522)
 -->
<!-- Title: playersManagement::loadData Pages: 1 -->
<svg width="352pt" height="90pt"
 viewBox="0.00 0.00 351.50 90.00" xmlns="http://www.w3.org/2000/svg" xmlns:xlink="http://www.w3.org/1999/xlink">
<g id="graph0" class="graph" transform="scale(1 1) rotate(0) translate(4 86)">
<title>playersManagement::loadData</title>
<!-- Node1 -->
<g id="Node000001" class="node">
<title>Node1</title>
<g id="a_Node000001"><a xlink:title="Load the player data from playersStatics.txt.">
<polygon fill="#999999" stroke="#666666" points="343.5,-57 233.75,-57 233.75,-25 343.5,-25 343.5,-57"/>
<text text-anchor="start" x="241.75" y="-43.5" font-family="Helvetica,sans-Serif" font-size="10.00">playersManagement::</text>
<text text-anchor="middle" x="288.62" y="-31.5" font-family="Helvetica,sans-Serif" font-size="10.00">loadData</text>
</a>
</g>
</g>
<!-- Node2 -->
<g id="Node000002" class="node">
<title>Node2</title>
<g id="a_Node000002"><a xlink:href="classplayers_management.html#a5fbc67ce627de58a27992f49814036d5" target="_top" xlink:title="Verify the player nick exists in the players.">
<polygon fill="white" stroke="#666666" points="197.75,-82 88,-82 88,-50 197.75,-50 197.75,-82"/>
<text text-anchor="start" x="96" y="-68.5" font-family="Helvetica,sans-Serif" font-size="10.00">playersManagement::</text>
<text text-anchor="middle" x="142.88" y="-56.5" font-family="Helvetica,sans-Serif" font-size="10.00">existPlayer</text>
</a>
</g>
</g>
<!-- Node1&#45;&gt;Node2 -->
<g id="edge1_Node000001_Node000002" class="edge">
<title>Node1&#45;&gt;Node2</title>
<g id="a_edge1_Node000001_Node000002"><a xlink:title=" ">
<path fill="none" stroke="#63b8ff" d="M221.97,-52.42C213.89,-53.82 205.7,-55.25 197.82,-56.62"/>
<polygon fill="#63b8ff" stroke="#63b8ff" points="222.54,-55.87 231.79,-50.71 221.34,-48.98 222.54,-55.87"/>
</a>
</g>
</g>
<!-- Node4 -->
<g id="Node000004" class="node">
<title>Node4</title>
<g id="a_Node000004"><a xlink:href="classplayers_management.html#ab5da98673e152322e5cc45c4d4720f72" target="_top" xlink:title="Constructor and load data.">
<polygon fill="white" stroke="#666666" points="197.75,-32 88,-32 88,0 197.75,0 197.75,-32"/>
<text text-anchor="start" x="96" y="-18.5" font-family="Helvetica,sans-Serif" font-size="10.00">playersManagement::</text>
<text text-anchor="middle" x="142.88" y="-6.5" font-family="Helvetica,sans-Serif" font-size="10.00">playersManagement</text>
</a>
</g>
</g>
<!-- Node1&#45;&gt;Node4 -->
<g id="edge3_Node000001_Node000004" class="edge">
<title>Node1&#45;&gt;Node4</title>
<g id="a_edge3_Node000001_Node000004"><a xlink:title=" ">
<path fill="none" stroke="#63b8ff" d="M221.97,-29.58C213.89,-28.18 205.7,-26.75 197.82,-25.38"/>
<polygon fill="#63b8ff" stroke="#63b8ff" points="221.34,-33.02 231.79,-31.29 222.54,-26.13 221.34,-33.02"/>
</a>
</g>
</g>
<!-- Node3 -->
<g id="Node000003" class="node">
<title>Node3</title>
<g id="a_Node000003"><a xlink:href="classlig4.html#a412d6bbcae4077e520282b295060abe1" target="_top" xlink:title=" ">
<polygon fill="white" stroke="#666666" points="52,-76 0,-76 0,-56 52,-56 52,-76"/>
<text text-anchor="middle" x="26" y="-62.5" font-family="Helvetica,sans-Serif" font-size="10.00">lig4::lig4</text>
</a>
</g>
</g>
<!-- Node2&#45;&gt;Node3 -->
<g id="edge2_Node000002_Node000003" class="edge">
<title>Node2&#45;&gt;Node3</title>
<g id="a_edge2_Node000002_Node000003"><a xlink:title=" ">
<path fill="none" stroke="#63b8ff" d="M76.53,-66C68.01,-66 59.73,-66 52.45,-66"/>
<polygon fill="#63b8ff" stroke="#63b8ff" points="76.29,-69.5 86.29,-66 76.29,-62.5 76.29,-69.5"/>
</a>
</g>
</g>
</g>
</svg>
