<?xml version="1.0" encoding="UTF-8" standalone="no"?>
<!DOCTYPE svg PUBLIC "-//W3C//DTD SVG 1.1//EN"
 "http://www.w3.org/Graphics/SVG/1.1/DTD/svg11.dtd">
<!-- Generated by graphviz version 11.0.0 (20240428.1522)
 -->
<!-- Title: game Pages: 1 -->
<svg width="150pt" height="560pt"
 viewBox="0.00 0.00 150.00 560.00" xmlns="http://www.w3.org/2000/svg" xmlns:xlink="http://www.w3.org/1999/xlink">
<g id="graph0" class="graph" transform="scale(1 1) rotate(0) translate(4 556)">
<title>game</title>
<!-- Node1 -->
<g id="Node000001" class="node">
<title>Node1</title>
<g id="a_Node000001"><a xlink:title="Abstract class game.">
<polygon fill="#999999" stroke="none" points="137,-208 5,-208 5,0 137,0 137,-208"/>
<text text-anchor="start" x="59" y="-194.5" font-family="Helvetica,sans-Serif" font-size="10.00">game</text>
<text text-anchor="start" x="9.38" y="-178.5" font-family="Helvetica,sans-Serif" font-size="10.00">#</text>
<text text-anchor="start" x="19" y="-178.5" font-family="Helvetica,sans-Serif" font-size="10.00">std::string name</text>
<text text-anchor="start" x="9.38" y="-162.5" font-family="Helvetica,sans-Serif" font-size="10.00">#</text>
<text text-anchor="start" x="19" y="-162.5" font-family="Helvetica,sans-Serif" font-size="10.00">int rows</text>
<text text-anchor="start" x="9.38" y="-146.5" font-family="Helvetica,sans-Serif" font-size="10.00">#</text>
<text text-anchor="start" x="19" y="-146.5" font-family="Helvetica,sans-Serif" font-size="10.00">int cols</text>
<text text-anchor="start" x="9.38" y="-130.5" font-family="Helvetica,sans-Serif" font-size="10.00">#</text>
<text text-anchor="start" x="19" y="-130.5" font-family="Helvetica,sans-Serif" font-size="10.00">std::vector&lt; std::vector</text>
<text text-anchor="start" x="19" y="-118.5" font-family="Helvetica,sans-Serif" font-size="10.00">&lt; char &gt; &gt; tabuleiro</text>
<text text-anchor="start" x="9" y="-102.5" font-family="Helvetica,sans-Serif" font-size="10.00">+</text>
<text text-anchor="start" x="19" y="-102.5" font-family="Helvetica,sans-Serif" font-size="10.00">game(int _rows, int</text>
<text text-anchor="start" x="19" y="-90.5" font-family="Helvetica,sans-Serif" font-size="10.00"> _cols)</text>
<text text-anchor="start" x="9" y="-74.5" font-family="Helvetica,sans-Serif" font-size="10.00">+</text>
<text text-anchor="start" x="19" y="-74.5" font-family="Helvetica,sans-Serif" font-size="10.00">~game()</text>
<text text-anchor="start" x="9" y="-58.5" font-family="Helvetica,sans-Serif" font-size="10.00">+</text>
<text text-anchor="start" x="19" y="-58.5" font-family="Helvetica,sans-Serif" font-size="10.00">virtual void changeElement</text>
<text text-anchor="start" x="19" y="-46.5" font-family="Helvetica,sans-Serif" font-size="10.00">(int x, int y, char element)</text>
<text text-anchor="start" x="9" y="-30.5" font-family="Helvetica,sans-Serif" font-size="10.00">+</text>
<text text-anchor="start" x="19" y="-30.5" font-family="Helvetica,sans-Serif" font-size="10.00">virtual void winAndLose</text>
<text text-anchor="start" x="19" y="-18.5" font-family="Helvetica,sans-Serif" font-size="10.00">(std::string winner, std</text>
<text text-anchor="start" x="19" y="-6.5" font-family="Helvetica,sans-Serif" font-size="10.00">::string loser)</text>
<polygon fill="#666666" stroke="#666666" points="5,-190 5,-190 137,-190 137,-190 5,-190"/>
<polygon fill="#666666" stroke="#666666" points="5,-114 5,-114 17,-114 17,-114 5,-114"/>
<polygon fill="#666666" stroke="#666666" points="17,-114 17,-114 137,-114 137,-114 17,-114"/>
<polygon fill="none" stroke="#666666" points="5,0 5,-208 137,-208 137,0 5,0"/>
</a>
</g>
</g>
<!-- Node2 -->
<g id="Node000002" class="node">
<title>Node2</title>
<g id="a_Node000002"><a xlink:href="classplayers_management.html" target="_top" xlink:title=" ">
<polygon fill="white" stroke="none" points="142,-552 0,-552 0,-256 142,-256 142,-552"/>
<text text-anchor="start" x="27.12" y="-538.5" font-family="Helvetica,sans-Serif" font-size="10.00">playersManagement</text>
<text text-anchor="start" x="69.5" y="-522.5" font-family="Helvetica,sans-Serif" font-size="10.00"> </text>
<text text-anchor="start" x="4" y="-506.5" font-family="Helvetica,sans-Serif" font-size="10.00">+</text>
<text text-anchor="start" x="14" y="-506.5" font-family="Helvetica,sans-Serif" font-size="10.00">playersManagement()</text>
<text text-anchor="start" x="4" y="-490.5" font-family="Helvetica,sans-Serif" font-size="10.00">+</text>
<text text-anchor="start" x="14" y="-490.5" font-family="Helvetica,sans-Serif" font-size="10.00">~playersManagement()</text>
<text text-anchor="start" x="4" y="-474.5" font-family="Helvetica,sans-Serif" font-size="10.00">+</text>
<text text-anchor="start" x="14" y="-474.5" font-family="Helvetica,sans-Serif" font-size="10.00">void loadData()</text>
<text text-anchor="start" x="4" y="-458.5" font-family="Helvetica,sans-Serif" font-size="10.00">+</text>
<text text-anchor="start" x="14" y="-458.5" font-family="Helvetica,sans-Serif" font-size="10.00">void saveData()</text>
<text text-anchor="start" x="4" y="-442.5" font-family="Helvetica,sans-Serif" font-size="10.00">+</text>
<text text-anchor="start" x="14" y="-442.5" font-family="Helvetica,sans-Serif" font-size="10.00">int addPlayer(std::</text>
<text text-anchor="start" x="14" y="-430.5" font-family="Helvetica,sans-Serif" font-size="10.00">string name, std::string</text>
<text text-anchor="start" x="14" y="-418.5" font-family="Helvetica,sans-Serif" font-size="10.00"> nickname)</text>
<text text-anchor="start" x="4" y="-402.5" font-family="Helvetica,sans-Serif" font-size="10.00">+</text>
<text text-anchor="start" x="14" y="-402.5" font-family="Helvetica,sans-Serif" font-size="10.00">int removePlayer(std</text>
<text text-anchor="start" x="14" y="-390.5" font-family="Helvetica,sans-Serif" font-size="10.00">::string name)</text>
<text text-anchor="start" x="4" y="-374.5" font-family="Helvetica,sans-Serif" font-size="10.00">+</text>
<text text-anchor="start" x="14" y="-374.5" font-family="Helvetica,sans-Serif" font-size="10.00">void listPlayers()</text>
<text text-anchor="start" x="4" y="-358.5" font-family="Helvetica,sans-Serif" font-size="10.00">+</text>
<text text-anchor="start" x="14" y="-358.5" font-family="Helvetica,sans-Serif" font-size="10.00">void listPlayers(std</text>
<text text-anchor="start" x="14" y="-346.5" font-family="Helvetica,sans-Serif" font-size="10.00">::string name)</text>
<text text-anchor="start" x="4" y="-330.5" font-family="Helvetica,sans-Serif" font-size="10.00">+</text>
<text text-anchor="start" x="14" y="-330.5" font-family="Helvetica,sans-Serif" font-size="10.00">int addLose(std::string</text>
<text text-anchor="start" x="14" y="-318.5" font-family="Helvetica,sans-Serif" font-size="10.00"> game, std::string nickname)</text>
<text text-anchor="start" x="4" y="-302.5" font-family="Helvetica,sans-Serif" font-size="10.00">+</text>
<text text-anchor="start" x="14" y="-302.5" font-family="Helvetica,sans-Serif" font-size="10.00">int addWin(std::string</text>
<text text-anchor="start" x="14" y="-290.5" font-family="Helvetica,sans-Serif" font-size="10.00"> game, std::string nickname)</text>
<text text-anchor="start" x="4" y="-274.5" font-family="Helvetica,sans-Serif" font-size="10.00">+</text>
<text text-anchor="start" x="14" y="-274.5" font-family="Helvetica,sans-Serif" font-size="10.00">int existPlayer(std</text>
<text text-anchor="start" x="14" y="-262.5" font-family="Helvetica,sans-Serif" font-size="10.00">::string nick)</text>
<polygon fill="#666666" stroke="#666666" points="0,-534 0,-534 142,-534 142,-534 0,-534"/>
<polygon fill="#666666" stroke="#666666" points="0,-518 0,-518 142,-518 142,-518 0,-518"/>
<polygon fill="none" stroke="#666666" points="0,-256 0,-552 142,-552 142,-256 0,-256"/>
</a>
</g>
</g>
<!-- Node2&#45;&gt;Node1 -->
<g id="edge1_Node000001_Node000002" class="edge">
<title>Node2&#45;&gt;Node1</title>
<g id="a_edge1_Node000001_Node000002"><a xlink:title=" ">
<path fill="none" stroke="#63b8ff" d="M71,-256.18C71,-244.33 71,-232.47 71,-220.88"/>
<polygon fill="none" stroke="#63b8ff" points="71,-220.84 67,-214.84 71,-208.84 75,-214.84 71,-220.84"/>
</a>
</g>
<text text-anchor="middle" x="103.25" y="-228.5" font-family="Helvetica,sans-Serif" font-size="10.00" fill="grey"> #management</text>
</g>
</g>
</svg>
