<?xml version="1.0" encoding="UTF-8" standalone="no"?>
<!DOCTYPE svg PUBLIC "-//W3C//DTD SVG 1.1//EN"
 "http://www.w3.org/Graphics/SVG/1.1/DTD/svg11.dtd">
<!-- Generated by graphviz version 11.0.0 (20240428.1522)
 -->
<!-- Title: gameStatus Pages: 1 -->
<svg width="163pt" height="226pt"
 viewBox="0.00 0.00 163.00 226.00" xmlns="http://www.w3.org/2000/svg" xmlns:xlink="http://www.w3.org/1999/xlink">
<g id="graph0" class="graph" transform="scale(1 1) rotate(0) translate(4 222)">
<title>gameStatus</title>
<!-- Node1 -->
<g id="Node000001" class="node">
<title>Node1</title>
<g id="a_Node000001"><a xlink:title=" ">
<polygon fill="#999999" stroke="none" points="155,-218 0,-218 0,0 155,0 155,-218"/>
<text text-anchor="start" x="46" y="-202.6" font-family="Helvetica,sans-Serif" font-size="12.00">gameStatus</text>
<text text-anchor="start" x="76" y="-185.6" font-family="Helvetica,sans-Serif" font-size="12.00"> </text>
<text text-anchor="start" x="3.62" y="-168.6" font-family="Helvetica,sans-Serif" font-size="12.00">+</text>
<text text-anchor="start" x="14" y="-168.6" font-family="Helvetica,sans-Serif" font-size="12.00">gameStatus(std::string</text>
<text text-anchor="start" x="14" y="-155.1" font-family="Helvetica,sans-Serif" font-size="12.00"> _name, int _wins, int</text>
<text text-anchor="start" x="14" y="-141.6" font-family="Helvetica,sans-Serif" font-size="12.00"> _loses)</text>
<text text-anchor="start" x="3.62" y="-124.6" font-family="Helvetica,sans-Serif" font-size="12.00">+</text>
<text text-anchor="start" x="14" y="-124.6" font-family="Helvetica,sans-Serif" font-size="12.00">~gameStatus()</text>
<text text-anchor="start" x="3.62" y="-107.6" font-family="Helvetica,sans-Serif" font-size="12.00">+</text>
<text text-anchor="start" x="14" y="-107.6" font-family="Helvetica,sans-Serif" font-size="12.00">double winRate()</text>
<text text-anchor="start" x="3.62" y="-90.6" font-family="Helvetica,sans-Serif" font-size="12.00">+</text>
<text text-anchor="start" x="14" y="-90.6" font-family="Helvetica,sans-Serif" font-size="12.00">double loseRate()</text>
<text text-anchor="start" x="3.62" y="-73.6" font-family="Helvetica,sans-Serif" font-size="12.00">+</text>
<text text-anchor="start" x="14" y="-73.6" font-family="Helvetica,sans-Serif" font-size="12.00">void gameStatics()</text>
<text text-anchor="start" x="3.62" y="-56.6" font-family="Helvetica,sans-Serif" font-size="12.00">+</text>
<text text-anchor="start" x="14" y="-56.6" font-family="Helvetica,sans-Serif" font-size="12.00">std::string winsAndLoses()</text>
<text text-anchor="start" x="3.62" y="-39.6" font-family="Helvetica,sans-Serif" font-size="12.00">+</text>
<text text-anchor="start" x="14" y="-39.6" font-family="Helvetica,sans-Serif" font-size="12.00">std::string getName()</text>
<text text-anchor="start" x="3.62" y="-22.6" font-family="Helvetica,sans-Serif" font-size="12.00">+</text>
<text text-anchor="start" x="14" y="-22.6" font-family="Helvetica,sans-Serif" font-size="12.00">void addWin()</text>
<text text-anchor="start" x="3.62" y="-5.6" font-family="Helvetica,sans-Serif" font-size="12.00">+</text>
<text text-anchor="start" x="14" y="-5.6" font-family="Helvetica,sans-Serif" font-size="12.00">void addLose()</text>
<polygon fill="#666666" stroke="#666666" points="0,-199 0,-199 155,-199 155,-199 0,-199"/>
<polygon fill="#666666" stroke="#666666" points="0,-182 0,-182 155,-182 155,-182 0,-182"/>
<polygon fill="none" stroke="#666666" points="0,0 0,-218 155,-218 155,0 0,0"/>
</a>
</g>
</g>
</g>
</svg>
