<?xml version="1.0" encoding="UTF-8" standalone="no"?>
<!DOCTYPE svg PUBLIC "-//W3C//DTD SVG 1.1//EN"
 "http://www.w3.org/Graphics/SVG/1.1/DTD/svg11.dtd">
<!-- Generated by graphviz version 11.0.0 (20240428.1522)
 -->
<!-- Title: playersManagement::addWin Pages: 1 -->
<svg width="305pt" height="122pt"
 viewBox="0.00 0.00 304.75 122.25" xmlns="http://www.w3.org/2000/svg" xmlns:xlink="http://www.w3.org/1999/xlink">
<g id="graph0" class="graph" transform="scale(1 1) rotate(0) translate(4 118.25)">
<title>playersManagement::addWin</title>
<!-- Node1 -->
<g id="Node000001" class="node">
<title>Node1</title>
<g id="a_Node000001"><a xlink:title="Add a win in the game for the player nick passed.">
<polygon fill="#999999" stroke="#666666" points="127.75,-81 0,-81 0,-46 127.75,-46 127.75,-81"/>
<text text-anchor="start" x="8" y="-65.6" font-family="Helvetica,sans-Serif" font-size="12.00">playersManagement::</text>
<text text-anchor="middle" x="63.88" y="-52.1" font-family="Helvetica,sans-Serif" font-size="12.00">addWin</text>
</a>
</g>
</g>
<!-- Node2 -->
<g id="Node000002" class="node">
<title>Node2</title>
<g id="a_Node000002"><a xlink:href="classgame_status.html#a8a3a06ec0e05e77736aa5994808c9311" target="_top" xlink:title="Add a win for the player in this game.">
<polygon fill="white" stroke="#666666" points="293,-114.25 167.5,-114.25 167.5,-92.75 293,-92.75 293,-114.25"/>
<text text-anchor="middle" x="230.25" y="-98.85" font-family="Helvetica,sans-Serif" font-size="12.00">gameStatus::addWin</text>
</a>
</g>
</g>
<!-- Node1&#45;&gt;Node2 -->
<g id="edge1_Node000001_Node000002" class="edge">
<title>Node1&#45;&gt;Node2</title>
<g id="a_edge1_Node000001_Node000002"><a xlink:title=" ">
<path fill="none" stroke="#63b8ff" d="M127.96,-78.85C142.46,-82.38 157.8,-86.11 172.04,-89.58"/>
<polygon fill="#63b8ff" stroke="#63b8ff" points="171.17,-92.97 181.71,-91.93 172.82,-86.17 171.17,-92.97"/>
</a>
</g>
</g>
<!-- Node3 -->
<g id="Node000003" class="node">
<title>Node3</title>
<g id="a_Node000003"><a xlink:href="classgame_status.html#a4ab21c8ec9f2dbe1f408dbdb553e5e52" target="_top" xlink:title="get Name">
<polygon fill="white" stroke="#666666" points="296.75,-74.25 163.75,-74.25 163.75,-52.75 296.75,-52.75 296.75,-74.25"/>
<text text-anchor="middle" x="230.25" y="-58.85" font-family="Helvetica,sans-Serif" font-size="12.00">gameStatus::getName</text>
</a>
</g>
</g>
<!-- Node1&#45;&gt;Node3 -->
<g id="edge2_Node000001_Node000003" class="edge">
<title>Node1&#45;&gt;Node3</title>
<g id="a_edge2_Node000001_Node000003"><a xlink:title=" ">
<path fill="none" stroke="#63b8ff" d="M127.96,-63.5C135.83,-63.5 143.96,-63.5 152.02,-63.5"/>
<polygon fill="#63b8ff" stroke="#63b8ff" points="151.83,-67 161.83,-63.5 151.83,-60 151.83,-67"/>
</a>
</g>
</g>
<!-- Node4 -->
<g id="Node000004" class="node">
<title>Node4</title>
<g id="a_Node000004"><a xlink:href="classplayers_management.html#ae11bf55369752a338e8084f18269517a" target="_top" xlink:title="Save the players data in the playersStatics.txt.">
<polygon fill="white" stroke="#666666" points="294.12,-35 166.38,-35 166.38,0 294.12,0 294.12,-35"/>
<text text-anchor="start" x="174.38" y="-19.6" font-family="Helvetica,sans-Serif" font-size="12.00">playersManagement::</text>
<text text-anchor="middle" x="230.25" y="-6.1" font-family="Helvetica,sans-Serif" font-size="12.00">saveData</text>
</a>
</g>
</g>
<!-- Node1&#45;&gt;Node4 -->
<g id="edge3_Node000001_Node000004" class="edge">
<title>Node1&#45;&gt;Node4</title>
<g id="a_edge3_Node000001_Node000004"><a xlink:title=" ">
<path fill="none" stroke="#63b8ff" d="M127.96,-45.85C136.84,-43.36 146.04,-40.79 155.1,-38.25"/>
<polygon fill="#63b8ff" stroke="#63b8ff" points="155.92,-41.66 164.61,-35.59 154.03,-34.91 155.92,-41.66"/>
</a>
</g>
</g>
</g>
</svg>
