<?xml version="1.0" encoding="UTF-8" standalone="no"?>
<!DOCTYPE svg PUBLIC "-//W3C//DTD SVG 1.1//EN"
 "http://www.w3.org/Graphics/SVG/1.1/DTD/svg11.dtd">
<!-- Generated by graphviz version 11.0.0 (20240428.1522)
 -->
<!-- Title: gameStatus::gameStatics Pages: 1 -->
<svg width="286pt" height="66pt"
 viewBox="0.00 0.00 286.00 66.00" xmlns="http://www.w3.org/2000/svg" xmlns:xlink="http://www.w3.org/1999/xlink">
<g id="graph0" class="graph" transform="scale(1 1) rotate(0) translate(4 62)">
<title>gameStatus::gameStatics</title>
<!-- Node1 -->
<g id="Node000001" class="node">
<title>Node1</title>
<g id="a_Node000001"><a xlink:title="Show in the console the statics of the player in this game.">
<polygon fill="#999999" stroke="#666666" points="129.25,-39 0,-39 0,-19 129.25,-19 129.25,-39"/>
<text text-anchor="middle" x="64.62" y="-25.5" font-family="Helvetica,sans-Serif" font-size="10.00">gameStatus::gameStatics</text>
</a>
</g>
</g>
<!-- Node2 -->
<g id="Node000002" class="node">
<title>Node2</title>
<g id="a_Node000002"><a xlink:href="classgame_status.html#aa2bd52310e99845ad5d720038dbdb986" target="_top" xlink:title="Lose Rate at this game.">
<polygon fill="white" stroke="#666666" points="278,-58 165.25,-58 165.25,-38 278,-38 278,-58"/>
<text text-anchor="middle" x="221.62" y="-44.5" font-family="Helvetica,sans-Serif" font-size="10.00">gameStatus::loseRate</text>
</a>
</g>
</g>
<!-- Node1&#45;&gt;Node2 -->
<g id="edge1_Node000001_Node000002" class="edge">
<title>Node1&#45;&gt;Node2</title>
<g id="a_edge1_Node000001_Node000002"><a xlink:title=" ">
<path fill="none" stroke="#63b8ff" d="M129.56,-36.84C137.41,-37.8 145.44,-38.78 153.34,-39.75"/>
<polygon fill="#63b8ff" stroke="#63b8ff" points="152.9,-43.22 163.25,-40.97 153.75,-36.28 152.9,-43.22"/>
</a>
</g>
</g>
<!-- Node3 -->
<g id="Node000003" class="node">
<title>Node3</title>
<g id="a_Node000003"><a xlink:href="classgame_status.html#a26d2ca02ed54983d79afc345432e0226" target="_top" xlink:title="Win Rate at this game.">
<polygon fill="white" stroke="#666666" points="276.12,-20 167.12,-20 167.12,0 276.12,0 276.12,-20"/>
<text text-anchor="middle" x="221.62" y="-6.5" font-family="Helvetica,sans-Serif" font-size="10.00">gameStatus::winRate</text>
</a>
</g>
</g>
<!-- Node1&#45;&gt;Node3 -->
<g id="edge2_Node000001_Node000003" class="edge">
<title>Node1&#45;&gt;Node3</title>
<g id="a_edge2_Node000001_Node000003"><a xlink:title=" ">
<path fill="none" stroke="#63b8ff" d="M129.56,-21.16C138.15,-20.11 146.96,-19.03 155.56,-17.98"/>
<polygon fill="#63b8ff" stroke="#63b8ff" points="155.7,-21.48 165.2,-16.79 154.85,-14.54 155.7,-21.48"/>
</a>
</g>
</g>
</g>
</svg>
