<?xml version="1.0" encoding="UTF-8" standalone="no"?>
<!DOCTYPE svg PUBLIC "-//W3C//DTD SVG 1.1//EN"
 "http://www.w3.org/Graphics/SVG/1.1/DTD/svg11.dtd">
<!-- Generated by graphviz version 11.0.0 (20240428.1522)
 -->
<!-- Title: lig4 Pages: 1 -->
<svg width="173pt" height="392pt"
 viewBox="0.00 0.00 173.00 392.00" xmlns="http://www.w3.org/2000/svg" xmlns:xlink="http://www.w3.org/1999/xlink">
<g id="graph0" class="graph" transform="scale(1 1) rotate(0) translate(4 388)">
<title>lig4</title>
<!-- Node1 -->
<g id="Node000001" class="node">
<title>Node1</title>
<g id="a_Node000001"><a xlink:title=" ">
<polygon fill="#999999" stroke="none" points="142,-124 23,-124 23,0 142,0 142,-124"/>
<text text-anchor="start" x="75" y="-110.5" font-family="Helvetica,sans-Serif" font-size="10.00">lig4</text>
<text text-anchor="start" x="81" y="-94.5" font-family="Helvetica,sans-Serif" font-size="10.00"> </text>
<text text-anchor="start" x="27" y="-78.5" font-family="Helvetica,sans-Serif" font-size="10.00">+</text>
<text text-anchor="start" x="37" y="-78.5" font-family="Helvetica,sans-Serif" font-size="10.00">lig4()</text>
<text text-anchor="start" x="27" y="-62.5" font-family="Helvetica,sans-Serif" font-size="10.00">+</text>
<text text-anchor="start" x="37" y="-62.5" font-family="Helvetica,sans-Serif" font-size="10.00">void mostrarTabuleiro()</text>
<text text-anchor="start" x="27" y="-46.5" font-family="Helvetica,sans-Serif" font-size="10.00">+</text>
<text text-anchor="start" x="37" y="-46.5" font-family="Helvetica,sans-Serif" font-size="10.00">void jogada(int posicao)</text>
<text text-anchor="start" x="27" y="-30.5" font-family="Helvetica,sans-Serif" font-size="10.00">+</text>
<text text-anchor="start" x="37" y="-30.5" font-family="Helvetica,sans-Serif" font-size="10.00">bool verificarAdjacente</text>
<text text-anchor="start" x="37" y="-18.5" font-family="Helvetica,sans-Serif" font-size="10.00">(int linha, int coluna,</text>
<text text-anchor="start" x="37" y="-6.5" font-family="Helvetica,sans-Serif" font-size="10.00"> char time)</text>
<polygon fill="#666666" stroke="#666666" points="23,-106 23,-106 142,-106 142,-106 23,-106"/>
<polygon fill="#666666" stroke="#666666" points="23,-90 23,-90 142,-90 142,-90 23,-90"/>
<polygon fill="none" stroke="#666666" points="23,0 23,-124 142,-124 142,0 23,0"/>
</a>
</g>
</g>
<!-- Node2 -->
<g id="Node000002" class="node">
<title>Node2</title>
<g id="a_Node000002"><a xlink:href="classgame.html" target="_top" xlink:title="Abstract class game.">
<polygon fill="white" stroke="none" points="165,-384 0,-384 0,-160 165,-160 165,-384"/>
<text text-anchor="start" x="70.5" y="-370.5" font-family="Helvetica,sans-Serif" font-size="10.00">game</text>
<text text-anchor="start" x="4.38" y="-354.5" font-family="Helvetica,sans-Serif" font-size="10.00">#</text>
<text text-anchor="start" x="14" y="-354.5" font-family="Helvetica,sans-Serif" font-size="10.00">std::string name</text>
<text text-anchor="start" x="4.38" y="-338.5" font-family="Helvetica,sans-Serif" font-size="10.00">#</text>
<text text-anchor="start" x="14" y="-338.5" font-family="Helvetica,sans-Serif" font-size="10.00">int rows</text>
<text text-anchor="start" x="4.38" y="-322.5" font-family="Helvetica,sans-Serif" font-size="10.00">#</text>
<text text-anchor="start" x="14" y="-322.5" font-family="Helvetica,sans-Serif" font-size="10.00">int cols</text>
<text text-anchor="start" x="4.38" y="-306.5" font-family="Helvetica,sans-Serif" font-size="10.00">#</text>
<text text-anchor="start" x="14" y="-306.5" font-family="Helvetica,sans-Serif" font-size="10.00">std::vector&lt; std::vector</text>
<text text-anchor="start" x="14" y="-294.5" font-family="Helvetica,sans-Serif" font-size="10.00">&lt; char &gt; &gt; tabuleiro</text>
<text text-anchor="start" x="4.38" y="-278.5" font-family="Helvetica,sans-Serif" font-size="10.00">#</text>
<text text-anchor="start" x="14" y="-278.5" font-family="Helvetica,sans-Serif" font-size="10.00">playersManagement management</text>
<text text-anchor="start" x="4" y="-262.5" font-family="Helvetica,sans-Serif" font-size="10.00">+</text>
<text text-anchor="start" x="14" y="-262.5" font-family="Helvetica,sans-Serif" font-size="10.00">game(int _rows, int</text>
<text text-anchor="start" x="14" y="-250.5" font-family="Helvetica,sans-Serif" font-size="10.00"> _cols)</text>
<text text-anchor="start" x="4" y="-234.5" font-family="Helvetica,sans-Serif" font-size="10.00">+</text>
<text text-anchor="start" x="14" y="-234.5" font-family="Helvetica,sans-Serif" font-size="10.00">~game()</text>
<text text-anchor="start" x="4" y="-218.5" font-family="Helvetica,sans-Serif" font-size="10.00">+</text>
<text text-anchor="start" x="14" y="-218.5" font-family="Helvetica,sans-Serif" font-size="10.00">virtual void changeElement</text>
<text text-anchor="start" x="14" y="-206.5" font-family="Helvetica,sans-Serif" font-size="10.00">(int x, int y, char element)</text>
<text text-anchor="start" x="4" y="-190.5" font-family="Helvetica,sans-Serif" font-size="10.00">+</text>
<text text-anchor="start" x="14" y="-190.5" font-family="Helvetica,sans-Serif" font-size="10.00">virtual void winAndLose</text>
<text text-anchor="start" x="14" y="-178.5" font-family="Helvetica,sans-Serif" font-size="10.00">(std::string winner, std</text>
<text text-anchor="start" x="14" y="-166.5" font-family="Helvetica,sans-Serif" font-size="10.00">::string loser)</text>
<polygon fill="#666666" stroke="#666666" points="0,-366 0,-366 165,-366 165,-366 0,-366"/>
<polygon fill="#666666" stroke="#666666" points="0,-274 0,-274 12,-274 12,-274 0,-274"/>
<polygon fill="#666666" stroke="#666666" points="12,-274 12,-274 165,-274 165,-274 12,-274"/>
<polygon fill="none" stroke="#666666" points="0,-160 0,-384 165,-384 165,-160 0,-160"/>
</a>
</g>
</g>
<!-- Node2&#45;&gt;Node1 -->
<g id="edge1_Node000001_Node000002" class="edge">
<title>Node2&#45;&gt;Node1</title>
<g id="a_edge1_Node000001_Node000002"><a xlink:title=" ">
<path fill="none" stroke="#63b8ff" d="M82.5,-148.92C82.5,-140.32 82.5,-131.89 82.5,-123.87"/>
<polygon fill="none" stroke="#63b8ff" points="79,-148.79 82.5,-158.79 86,-148.79 79,-148.79"/>
</a>
</g>
</g>
</g>
</svg>
