<?xml version="1.0" encoding="UTF-8" standalone="no"?>
<!DOCTYPE svg PUBLIC "-//W3C//DTD SVG 1.1//EN"
 "http://www.w3.org/Graphics/SVG/1.1/DTD/svg11.dtd">
<!-- Generated by graphviz version 11.0.0 (20240428.1522)
 -->
<!-- Title: main Pages: 1 -->
<svg width="369pt" height="202pt"
 viewBox="0.00 0.00 368.75 202.00" xmlns="http://www.w3.org/2000/svg" xmlns:xlink="http://www.w3.org/1999/xlink">
<g id="graph0" class="graph" transform="scale(1 1) rotate(0) translate(4 198)">
<title>main</title>
<!-- Node1 -->
<g id="Node000001" class="node">
<title>Node1</title>
<g id="a_Node000001"><a xlink:title=" ">
<polygon fill="#999999" stroke="#666666" points="41.5,-107.25 0,-107.25 0,-85.75 41.5,-85.75 41.5,-107.25"/>
<text text-anchor="middle" x="20.75" y="-91.85" font-family="Helvetica,sans-Serif" font-size="12.00">main</text>
</a>
</g>
</g>
<!-- Node2 -->
<g id="Node000002" class="node">
<title>Node2</title>
<g id="a_Node000002"><a xlink:href="class_tabuleiro.html#ade77bfdec5eb028f1ad96d5aca32bafa" target="_top" xlink:title=" ">
<polygon fill="white" stroke="#666666" points="193.62,-194 80.12,-194 80.12,-159 193.62,-159 193.62,-194"/>
<text text-anchor="start" x="88.12" y="-178.6" font-family="Helvetica,sans-Serif" font-size="12.00">Tabuleiro::imprimir</text>
<text text-anchor="middle" x="136.88" y="-165.1" font-family="Helvetica,sans-Serif" font-size="12.00">_tabuleiro</text>
</a>
</g>
</g>
<!-- Node1&#45;&gt;Node2 -->
<g id="edge1_Node000001_Node000002" class="edge">
<title>Node1&#45;&gt;Node2</title>
<g id="a_edge1_Node000001_Node000002"><a xlink:title=" ">
<path fill="none" stroke="#63b8ff" d="M31.08,-107.62C41.46,-119.45 59.19,-138.13 77.5,-150.5 78.85,-151.41 80.24,-152.31 81.65,-153.18"/>
<polygon fill="#63b8ff" stroke="#63b8ff" points="79.57,-156.02 90,-157.9 83.02,-149.93 79.57,-156.02"/>
</a>
</g>
</g>
<!-- Node3 -->
<g id="Node000003" class="node">
<title>Node3</title>
<g id="a_Node000003"><a xlink:href="class_tabuleiro.html#a23df17f6abf3d5cc0e3f742e32f8dab2" target="_top" xlink:title=" ">
<polygon fill="white" stroke="#666666" points="191.38,-141 82.38,-141 82.38,-106 191.38,-106 191.38,-141"/>
<text text-anchor="start" x="90.38" y="-125.6" font-family="Helvetica,sans-Serif" font-size="12.00">Tabuleiro::realizar</text>
<text text-anchor="middle" x="136.88" y="-112.1" font-family="Helvetica,sans-Serif" font-size="12.00">_movimento_O</text>
</a>
</g>
</g>
<!-- Node1&#45;&gt;Node3 -->
<g id="edge2_Node000001_Node000003" class="edge">
<title>Node1&#45;&gt;Node3</title>
<g id="a_edge2_Node000001_Node000003"><a xlink:title=" ">
<path fill="none" stroke="#63b8ff" d="M41.89,-101.26C50.25,-103.24 60.46,-105.66 71.03,-108.16"/>
<polygon fill="#63b8ff" stroke="#63b8ff" points="70.11,-111.54 80.65,-110.43 71.72,-104.73 70.11,-111.54"/>
</a>
</g>
</g>
<!-- Node5 -->
<g id="Node000005" class="node">
<title>Node5</title>
<g id="a_Node000005"><a xlink:href="class_tabuleiro.html#a9772d5ccc551c898a79f09bab626e6b8" target="_top" xlink:title=" ">
<polygon fill="white" stroke="#666666" points="191.38,-88 82.38,-88 82.38,-53 191.38,-53 191.38,-88"/>
<text text-anchor="start" x="90.38" y="-72.6" font-family="Helvetica,sans-Serif" font-size="12.00">Tabuleiro::realizar</text>
<text text-anchor="middle" x="136.88" y="-59.1" font-family="Helvetica,sans-Serif" font-size="12.00">_movimento_X</text>
</a>
</g>
</g>
<!-- Node1&#45;&gt;Node5 -->
<g id="edge4_Node000001_Node000005" class="edge">
<title>Node1&#45;&gt;Node5</title>
<g id="a_edge4_Node000001_Node000005"><a xlink:title=" ">
<path fill="none" stroke="#63b8ff" d="M41.89,-91.91C50.25,-90.01 60.46,-87.68 71.03,-85.27"/>
<polygon fill="#63b8ff" stroke="#63b8ff" points="71.67,-88.72 80.65,-83.08 70.12,-81.89 71.67,-88.72"/>
</a>
</g>
</g>
<!-- Node6 -->
<g id="Node000006" class="node">
<title>Node6</title>
<g id="a_Node000006"><a xlink:href="class_tabuleiro.html#a5c1daf00d818ead70092b3386a670d79" target="_top" xlink:title=" ">
<polygon fill="white" stroke="#666666" points="196.25,-35 77.5,-35 77.5,0 196.25,0 196.25,-35"/>
<text text-anchor="start" x="85.5" y="-19.6" font-family="Helvetica,sans-Serif" font-size="12.00">Tabuleiro::resultado</text>
<text text-anchor="middle" x="136.88" y="-6.1" font-family="Helvetica,sans-Serif" font-size="12.00">_final</text>
</a>
</g>
</g>
<!-- Node1&#45;&gt;Node6 -->
<g id="edge6_Node000001_Node000006" class="edge">
<title>Node1&#45;&gt;Node6</title>
<g id="a_edge6_Node000001_Node000006"><a xlink:title=" ">
<path fill="none" stroke="#63b8ff" d="M31.58,-85.45C42.11,-74.11 59.71,-56.46 77.5,-44.5 79.31,-43.29 81.18,-42.1 83.09,-40.94"/>
<polygon fill="#63b8ff" stroke="#63b8ff" points="84.59,-44.12 91.61,-36.18 81.17,-38.01 84.59,-44.12"/>
</a>
</g>
</g>
<!-- Node4 -->
<g id="Node000004" class="node">
<title>Node4</title>
<g id="a_Node000004"><a xlink:href="class_tabuleiro.html#a74b6f6861e98f2f5d7b812fc27aec594" target="_top" xlink:title=" ">
<polygon fill="white" stroke="#666666" points="360.75,-114 232.25,-114 232.25,-79 360.75,-79 360.75,-114"/>
<text text-anchor="start" x="240.25" y="-98.6" font-family="Helvetica,sans-Serif" font-size="12.00">Tabuleiro::transcrever</text>
<text text-anchor="middle" x="296.5" y="-85.1" font-family="Helvetica,sans-Serif" font-size="12.00">_movimento</text>
</a>
</g>
</g>
<!-- Node3&#45;&gt;Node4 -->
<g id="edge3_Node000003_Node000004" class="edge">
<title>Node3&#45;&gt;Node4</title>
<g id="a_edge3_Node000003_Node000004"><a xlink:title=" ">
<path fill="none" stroke="#63b8ff" d="M191.68,-114.28C201.08,-112.67 211,-110.97 220.84,-109.29"/>
<polygon fill="#63b8ff" stroke="#63b8ff" points="221.12,-112.79 230.39,-107.65 219.94,-105.89 221.12,-112.79"/>
</a>
</g>
</g>
<!-- Node5&#45;&gt;Node4 -->
<g id="edge5_Node000005_Node000004" class="edge">
<title>Node5&#45;&gt;Node4</title>
<g id="a_edge5_Node000005_Node000004"><a xlink:title=" ">
<path fill="none" stroke="#63b8ff" d="M191.68,-79.38C200.97,-80.91 210.79,-82.53 220.52,-84.13"/>
<polygon fill="#63b8ff" stroke="#63b8ff" points="219.95,-87.58 230.38,-85.76 221.09,-80.68 219.95,-87.58"/>
</a>
</g>
</g>
</g>
</svg>
