<?xml version="1.0" encoding="UTF-8" standalone="no"?>
<!DOCTYPE svg PUBLIC "-//W3C//DTD SVG 1.1//EN"
 "http://www.w3.org/Graphics/SVG/1.1/DTD/svg11.dtd">
<!-- Generated by graphviz version 11.0.0 (20240428.1522)
 -->
<!-- Title: src/damas.cpp Pages: 1 -->
<svg width="136pt" height="87pt"
 viewBox="0.00 0.00 135.62 87.00" xmlns="http://www.w3.org/2000/svg" xmlns:xlink="http://www.w3.org/1999/xlink">
<g id="graph0" class="graph" transform="scale(1 1) rotate(0) translate(4 83)">
<title>src/damas.cpp</title>
<!-- Node1 -->
<g id="Node000001" class="node">
<title>Node1</title>
<g id="a_Node000001"><a xlink:title=" ">
<polygon fill="#999999" stroke="#666666" points="113.5,-79 20.25,-79 20.25,-57.5 113.5,-57.5 113.5,-79"/>
<text text-anchor="middle" x="66.88" y="-63.6" font-family="Helvetica,sans-Serif" font-size="12.00">src/damas.cpp</text>
</a>
</g>
</g>
<!-- Node2 -->
<g id="Node000002" class="node">
<title>Node2</title>
<g id="a_Node000002"><a xlink:title=" ">
<polygon fill="#e0e0e0" stroke="#999999" points="61.75,-21.5 0,-21.5 0,0 61.75,0 61.75,-21.5"/>
<text text-anchor="middle" x="30.88" y="-6.1" font-family="Helvetica,sans-Serif" font-size="12.00">iostream</text>
</a>
</g>
</g>
<!-- Node1&#45;&gt;Node2 -->
<g id="edge1_Node000001_Node000002" class="edge">
<title>Node1&#45;&gt;Node2</title>
<g id="a_edge1_Node000001_Node000002"><a xlink:title=" ">
<path fill="none" stroke="#63b8ff" d="M60.27,-57.07C55.6,-49.87 49.2,-40 43.56,-31.3"/>
<polygon fill="#63b8ff" stroke="#63b8ff" points="46.64,-29.62 38.26,-23.13 40.77,-33.43 46.64,-29.62"/>
</a>
</g>
</g>
<!-- Node3 -->
<g id="Node000003" class="node">
<title>Node3</title>
<g id="a_Node000003"><a xlink:title=" ">
<polygon fill="#e0e0e0" stroke="#999999" points="127.62,-21.5 80.12,-21.5 80.12,0 127.62,0 127.62,-21.5"/>
<text text-anchor="middle" x="103.88" y="-6.1" font-family="Helvetica,sans-Serif" font-size="12.00">vector</text>
</a>
</g>
</g>
<!-- Node1&#45;&gt;Node3 -->
<g id="edge2_Node000001_Node000003" class="edge">
<title>Node1&#45;&gt;Node3</title>
<g id="a_edge2_Node000001_Node000003"><a xlink:title=" ">
<path fill="none" stroke="#63b8ff" d="M73.66,-57.07C78.46,-49.87 85.04,-40 90.84,-31.3"/>
<polygon fill="#63b8ff" stroke="#63b8ff" points="93.66,-33.39 96.29,-23.12 87.83,-29.5 93.66,-33.39"/>
</a>
</g>
</g>
</g>
</svg>
