<?xml version="1.0" encoding="UTF-8" standalone="no"?>
<!DOCTYPE svg PUBLIC "-//W3C//DTD SVG 1.1//EN"
 "http://www.w3.org/Graphics/SVG/1.1/DTD/svg11.dtd">
<!-- Generated by graphviz version 11.0.0 (20240428.1522)
 -->
<!-- Title: include/game.hpp Pages: 1 -->
<svg width="270pt" height="260pt"
 viewBox="0.00 0.00 269.88 259.50" xmlns="http://www.w3.org/2000/svg" xmlns:xlink="http://www.w3.org/1999/xlink">
<g id="graph0" class="graph" transform="scale(1 1) rotate(0) translate(4 255.5)">
<title>include/game.hpp</title>
<!-- Node1 -->
<g id="Node000001" class="node">
<title>Node1</title>
<g id="a_Node000001"><a xlink:title=" ">
<polygon fill="#999999" stroke="#666666" points="108.25,-251.5 0,-251.5 0,-230 108.25,-230 108.25,-251.5"/>
<text text-anchor="middle" x="54.12" y="-236.1" font-family="Helvetica,sans-Serif" font-size="12.00">include/game.hpp</text>
</a>
</g>
</g>
<!-- Node2 -->
<g id="Node000002" class="node">
<title>Node2</title>
<g id="a_Node000002"><a xlink:title=" ">
<polygon fill="#e0e0e0" stroke="#999999" points="154.38,-21.5 109.88,-21.5 109.88,0 154.38,0 154.38,-21.5"/>
<text text-anchor="middle" x="132.12" y="-6.1" font-family="Helvetica,sans-Serif" font-size="12.00">string</text>
</a>
</g>
</g>
<!-- Node1&#45;&gt;Node2 -->
<g id="edge1_Node000001_Node000002" class="edge">
<title>Node1&#45;&gt;Node2</title>
<g id="a_edge1_Node000001_Node000002"><a xlink:title=" ">
<path fill="none" stroke="#63b8ff" d="M50.22,-229.74C39.58,-200.65 13.02,-114.58 47.12,-57.5 58.28,-38.83 79.98,-27.33 98.65,-20.53"/>
<polygon fill="#63b8ff" stroke="#63b8ff" points="99.64,-23.89 108.05,-17.44 97.45,-17.24 99.64,-23.89"/>
</a>
</g>
</g>
<!-- Node3 -->
<g id="Node000003" class="node">
<title>Node3</title>
<g id="a_Node000003"><a xlink:title=" ">
<polygon fill="#e0e0e0" stroke="#999999" points="103.88,-79 56.38,-79 56.38,-57.5 103.88,-57.5 103.88,-79"/>
<text text-anchor="middle" x="80.12" y="-63.6" font-family="Helvetica,sans-Serif" font-size="12.00">vector</text>
</a>
</g>
</g>
<!-- Node1&#45;&gt;Node3 -->
<g id="edge2_Node000001_Node000003" class="edge">
<title>Node1&#45;&gt;Node3</title>
<g id="a_edge2_Node000001_Node000003"><a xlink:title=" ">
<path fill="none" stroke="#63b8ff" d="M55.67,-229.6C59.82,-202.4 71.24,-127.51 76.88,-90.51"/>
<polygon fill="#63b8ff" stroke="#63b8ff" points="80.34,-91.05 78.39,-80.63 73.42,-89.99 80.34,-91.05"/>
</a>
</g>
</g>
<!-- Node4 -->
<g id="Node000004" class="node">
<title>Node4</title>
<g id="a_Node000004"><a xlink:href="players_management_8hpp.html" target="_top" xlink:title=" ">
<polygon fill="white" stroke="#666666" points="226.25,-194 82,-194 82,-172.5 226.25,-172.5 226.25,-194"/>
<text text-anchor="middle" x="154.12" y="-178.6" font-family="Helvetica,sans-Serif" font-size="12.00">playersManagement.hpp</text>
</a>
</g>
</g>
<!-- Node1&#45;&gt;Node4 -->
<g id="edge3_Node000001_Node000004" class="edge">
<title>Node1&#45;&gt;Node4</title>
<g id="a_edge3_Node000001_Node000004"><a xlink:title=" ">
<path fill="none" stroke="#63b8ff" d="M72.47,-229.57C87.41,-221.28 108.76,-209.43 125.88,-199.93"/>
<polygon fill="#63b8ff" stroke="#63b8ff" points="127.53,-203.01 134.58,-195.1 124.13,-196.89 127.53,-203.01"/>
</a>
</g>
</g>
<!-- Node4&#45;&gt;Node3 -->
<g id="edge4_Node000004_Node000003" class="edge">
<title>Node4&#45;&gt;Node3</title>
<g id="a_edge4_Node000004_Node000003"><a xlink:title=" ">
<path fill="none" stroke="#63b8ff" d="M142.81,-172.19C133.46,-163.43 120.26,-150.06 111.12,-136.5 101.24,-121.84 93.03,-103.53 87.55,-89.72"/>
<polygon fill="#63b8ff" stroke="#63b8ff" points="90.97,-88.87 84.15,-80.77 84.43,-91.36 90.97,-88.87"/>
</a>
</g>
</g>
<!-- Node5 -->
<g id="Node000005" class="node">
<title>Node5</title>
<g id="a_Node000005"><a xlink:href="player_8hpp.html" target="_top" xlink:title=" ">
<polygon fill="white" stroke="#666666" points="190.12,-136.5 120.12,-136.5 120.12,-115 190.12,-115 190.12,-136.5"/>
<text text-anchor="middle" x="155.12" y="-121.1" font-family="Helvetica,sans-Serif" font-size="12.00">player.hpp</text>
</a>
</g>
</g>
<!-- Node4&#45;&gt;Node5 -->
<g id="edge5_Node000004_Node000005" class="edge">
<title>Node4&#45;&gt;Node5</title>
<g id="a_edge5_Node000004_Node000005"><a xlink:title=" ">
<path fill="none" stroke="#63b8ff" d="M154.31,-172.07C154.43,-165.42 154.59,-156.48 154.74,-148.3"/>
<polygon fill="#63b8ff" stroke="#63b8ff" points="158.23,-148.44 154.92,-138.38 151.24,-148.31 158.23,-148.44"/>
</a>
</g>
</g>
<!-- Node5&#45;&gt;Node2 -->
<g id="edge6_Node000005_Node000002" class="edge">
<title>Node5&#45;&gt;Node2</title>
<g id="a_edge6_Node000005_Node000002"><a xlink:title=" ">
<path fill="none" stroke="#63b8ff" d="M153.08,-114.72C149.38,-96.51 141.46,-57.62 136.49,-33.19"/>
<polygon fill="#63b8ff" stroke="#63b8ff" points="139.92,-32.5 134.5,-23.4 133.06,-33.9 139.92,-32.5"/>
</a>
</g>
</g>
<!-- Node5&#45;&gt;Node3 -->
<g id="edge7_Node000005_Node000003" class="edge">
<title>Node5&#45;&gt;Node3</title>
<g id="a_edge7_Node000005_Node000003"><a xlink:title=" ">
<path fill="none" stroke="#63b8ff" d="M141.37,-114.57C130.59,-106.59 115.35,-95.32 102.78,-86.01"/>
<polygon fill="#63b8ff" stroke="#63b8ff" points="105.13,-83.4 95.01,-80.27 100.97,-89.03 105.13,-83.4"/>
</a>
</g>
</g>
<!-- Node6 -->
<g id="Node000006" class="node">
<title>Node6</title>
<g id="a_Node000006"><a xlink:href="game_status_8hpp.html" target="_top" xlink:title=" ">
<polygon fill="white" stroke="#666666" points="261.88,-79 160.38,-79 160.38,-57.5 261.88,-57.5 261.88,-79"/>
<text text-anchor="middle" x="211.12" y="-63.6" font-family="Helvetica,sans-Serif" font-size="12.00">gameStatus.hpp</text>
</a>
</g>
</g>
<!-- Node5&#45;&gt;Node6 -->
<g id="edge8_Node000005_Node000006" class="edge">
<title>Node5&#45;&gt;Node6</title>
<g id="a_edge8_Node000005_Node000006"><a xlink:title=" ">
<path fill="none" stroke="#63b8ff" d="M165.4,-114.57C173.05,-106.98 183.72,-96.41 192.82,-87.39"/>
<polygon fill="#63b8ff" stroke="#63b8ff" points="195.2,-89.96 199.84,-80.43 190.28,-84.98 195.2,-89.96"/>
</a>
</g>
</g>
<!-- Node6&#45;&gt;Node2 -->
<g id="edge9_Node000006_Node000002" class="edge">
<title>Node6&#45;&gt;Node2</title>
<g id="a_edge9_Node000006_Node000002"><a xlink:title=" ">
<path fill="none" stroke="#63b8ff" d="M196.64,-57.07C185.17,-49.01 168.92,-37.6 155.59,-28.24"/>
<polygon fill="#63b8ff" stroke="#63b8ff" points="157.96,-25.62 147.76,-22.74 153.93,-31.35 157.96,-25.62"/>
</a>
</g>
</g>
</g>
</svg>
