<?xml version="1.0" encoding="UTF-8" standalone="no"?>
<!DOCTYPE svg PUBLIC "-//W3C//DTD SVG 1.1//EN"
 "http://www.w3.org/Graphics/SVG/1.1/DTD/svg11.dtd">
<!-- Generated by graphviz version 11.0.0 (20240428.1522)
 -->
<!-- Title: Legenda do Grafo Pages: 1 -->
<svg width="568pt" height="172pt"
 viewBox="0.00 0.00 567.88 171.50" xmlns="http://www.w3.org/2000/svg" xmlns:xlink="http://www.w3.org/1999/xlink">
<g id="graph0" class="graph" transform="scale(1 1) rotate(0) translate(4 167.5)">
<title>Legenda do Grafo</title>
<!-- Node9 -->
<g id="Node000009" class="node">
<title>Node9</title>
<g id="a_Node000009"><a xlink:title=" ">
<polygon fill="#999999" stroke="#666666" points="330.12,-21.5 269.88,-21.5 269.88,0 330.12,0 330.12,-21.5"/>
<text text-anchor="middle" x="300" y="-6.1" font-family="Helvetica,sans-Serif" font-size="12.00">Inherited</text>
</a>
</g>
</g>
<!-- Node10 -->
<g id="Node000010" class="node">
<title>Node10</title>
<g id="a_Node000010"><a xlink:title=" ">
<polygon fill="white" stroke="#666666" points="76,-92.5 0,-92.5 0,-71 76,-71 76,-92.5"/>
<text text-anchor="middle" x="38" y="-77.1" font-family="Helvetica,sans-Serif" font-size="12.00">PublicBase</text>
</a>
</g>
</g>
<!-- Node10&#45;&gt;Node9 -->
<g id="edge1" class="edge">
<title>Node10&#45;&gt;Node9</title>
<g id="a_edge1"><a xlink:title=" ">
<path fill="none" stroke="#63b8ff" d="M87.34,-67.76C140.98,-53.63 225.01,-31.5 269.69,-19.73"/>
<polygon fill="#63b8ff" stroke="#63b8ff" points="86.62,-64.33 77.84,-70.26 88.4,-71.1 86.62,-64.33"/>
</a>
</g>
</g>
<!-- Node11 -->
<g id="Node000011" class="node">
<title>Node11</title>
<g id="a_Node000011"><a xlink:title=" ">
<polygon fill="#fff0f0" stroke="red" points="71.88,-163.5 4.12,-163.5 4.12,-142 71.88,-142 71.88,-163.5"/>
<text text-anchor="middle" x="38" y="-148.1" font-family="Helvetica,sans-Serif" font-size="12.00">Truncated</text>
</a>
</g>
</g>
<!-- Node11&#45;&gt;Node10 -->
<g id="edge2" class="edge">
<title>Node11&#45;&gt;Node10</title>
<g id="a_edge2"><a xlink:title=" ">
<path fill="none" stroke="#63b8ff" d="M38,-130.31C38,-117.87 38,-102.77 38,-92.97"/>
<polygon fill="#63b8ff" stroke="#63b8ff" points="34.5,-130.06 38,-140.06 41.5,-130.06 34.5,-130.06"/>
</a>
</g>
</g>
<!-- Node13 -->
<g id="node4" class="node">
<title>Node13</title>
<g id="a_node4"><a xlink:title=" ">
<polygon fill="white" stroke="#666666" points="188.38,-92.5 93.62,-92.5 93.62,-71 188.38,-71 188.38,-92.5"/>
<text text-anchor="middle" x="141" y="-77.1" font-family="Helvetica,sans-Serif" font-size="12.00">ProtectedBase</text>
</a>
</g>
</g>
<!-- Node13&#45;&gt;Node9 -->
<g id="edge3" class="edge">
<title>Node13&#45;&gt;Node9</title>
<g id="a_edge3"><a xlink:title=" ">
<path fill="none" stroke="darkgreen" d="M174.65,-66.15C205.21,-52.89 249.51,-33.66 276.44,-21.97"/>
<polygon fill="darkgreen" stroke="darkgreen" points="173.63,-62.77 165.85,-69.97 176.42,-69.2 173.63,-62.77"/>
</a>
</g>
</g>
<!-- Node14 -->
<g id="node5" class="node">
<title>Node14</title>
<g id="a_node5"><a xlink:title=" ">
<polygon fill="white" stroke="#666666" points="287.25,-92.5 206.75,-92.5 206.75,-71 287.25,-71 287.25,-92.5"/>
<text text-anchor="middle" x="247" y="-77.1" font-family="Helvetica,sans-Serif" font-size="12.00">PrivateBase</text>
</a>
</g>
</g>
<!-- Node14&#45;&gt;Node9 -->
<g id="edge4" class="edge">
<title>Node14&#45;&gt;Node9</title>
<g id="a_edge4"><a xlink:title=" ">
<path fill="none" stroke="#8b1a1a" d="M261.7,-61.61C271.56,-48.78 284.15,-32.38 292.15,-21.97"/>
<polygon fill="#8b1a1a" stroke="#8b1a1a" points="259.06,-59.31 255.74,-69.37 264.61,-63.57 259.06,-59.31"/>
</a>
</g>
</g>
<!-- Node15 -->
<g id="Node000015" class="node">
<title>Node15</title>
<g id="a_Node000015"><a xlink:title=" ">
<polygon fill="#e0e0e0" stroke="#999999" points="400.38,-92.5 305.62,-92.5 305.62,-71 400.38,-71 400.38,-92.5"/>
<text text-anchor="middle" x="353" y="-77.1" font-family="Helvetica,sans-Serif" font-size="12.00">Undocumented</text>
</a>
</g>
</g>
<!-- Node15&#45;&gt;Node9 -->
<g id="edge5" class="edge">
<title>Node15&#45;&gt;Node9</title>
<g id="a_edge5"><a xlink:title=" ">
<path fill="none" stroke="#63b8ff" d="M338.3,-61.61C328.44,-48.78 315.85,-32.38 307.85,-21.97"/>
<polygon fill="#63b8ff" stroke="#63b8ff" points="335.39,-63.57 344.26,-69.37 340.94,-59.31 335.39,-63.57"/>
</a>
</g>
</g>
<!-- Node16 -->
<g id="node7" class="node">
<title>Node16</title>
<g id="a_node7"><a xlink:title=" ">
<polygon fill="white" stroke="#666666" points="497.88,-92.5 418.12,-92.5 418.12,-71 497.88,-71 497.88,-92.5"/>
<text text-anchor="middle" x="458" y="-77.1" font-family="Helvetica,sans-Serif" font-size="12.00">Templ&lt; int &gt;</text>
</a>
</g>
</g>
<!-- Node16&#45;&gt;Node9 -->
<g id="edge6" class="edge">
<title>Node16&#45;&gt;Node9</title>
<g id="a_edge6"><a xlink:title=" ">
<path fill="none" stroke="#63b8ff" d="M424.17,-65.97C393.81,-52.72 350.06,-33.61 323.41,-21.97"/>
<polygon fill="#63b8ff" stroke="#63b8ff" points="422.73,-69.17 433.3,-69.96 425.54,-62.75 422.73,-69.17"/>
</a>
</g>
</g>
<!-- Node17 -->
<g id="node8" class="node">
<title>Node17</title>
<g id="a_node8"><a xlink:title=" ">
<polygon fill="white" stroke="#666666" points="495.25,-163.5 420.75,-163.5 420.75,-142 495.25,-142 495.25,-163.5"/>
<text text-anchor="middle" x="458" y="-148.1" font-family="Helvetica,sans-Serif" font-size="12.00">Templ&lt; T &gt;</text>
</a>
</g>
</g>
<!-- Node17&#45;&gt;Node16 -->
<g id="edge7" class="edge">
<title>Node17&#45;&gt;Node16</title>
<g id="a_edge7"><a xlink:title=" ">
<path fill="none" stroke="orange" stroke-dasharray="5,2" d="M458,-130.31C458,-117.87 458,-102.77 458,-92.97"/>
<polygon fill="orange" stroke="orange" points="454.5,-130.06 458,-140.06 461.5,-130.06 454.5,-130.06"/>
</a>
</g>
<text text-anchor="middle" x="473.75" y="-112.6" font-family="Helvetica,sans-Serif" font-size="12.00" fill="grey">&lt; int &gt;</text>
</g>
<!-- Node18 -->
<g id="node9" class="node">
<title>Node18</title>
<g id="a_node9"><a xlink:title=" ">
<polygon fill="white" stroke="#666666" points="559.88,-92.5 516.12,-92.5 516.12,-71 559.88,-71 559.88,-92.5"/>
<text text-anchor="middle" x="538" y="-77.1" font-family="Helvetica,sans-Serif" font-size="12.00">Used</text>
</a>
</g>
</g>
<!-- Node18&#45;&gt;Node9 -->
<g id="edge8" class="edge">
<title>Node18&#45;&gt;Node9</title>
<g id="a_edge8"><a xlink:title=" ">
<path fill="none" stroke="#9a32cd" stroke-dasharray="5,2" d="M504.82,-70.39C437.17,-50.08 369,-30.9 330.59,-20.21"/>
<polygon fill="#9a32cd" stroke="#9a32cd" points="503.63,-73.69 514.22,-73.22 505.65,-66.99 503.63,-73.69"/>
</a>
</g>
<text text-anchor="middle" x="480" y="-41.6" font-family="Helvetica,sans-Serif" font-size="12.00" fill="grey">m_usedClass</text>
</g>
</g>
</svg>
