<?xml version="1.0" encoding="UTF-8" standalone="no"?>
<!DOCTYPE svg PUBLIC "-//W3C//DTD SVG 1.1//EN"
 "http://www.w3.org/Graphics/SVG/1.1/DTD/svg11.dtd">
<!-- Generated by graphviz version 11.0.0 (20240428.1522)
 -->
<!-- Title: include/lig4.hpp Pages: 1 -->
<svg width="385pt" height="308pt"
 viewBox="0.00 0.00 384.51 308.00" xmlns="http://www.w3.org/2000/svg" xmlns:xlink="http://www.w3.org/1999/xlink">
<g id="graph0" class="graph" transform="scale(1 1) rotate(0) translate(4 304)">
<title>include/lig4.hpp</title>
<!-- Node1 -->
<g id="Node000001" class="node">
<title>Node1</title>
<g id="a_Node000001"><a xlink:title=" ">
<polygon fill="#999999" stroke="#666666" points="161.88,-300 78.38,-300 78.38,-280 161.88,-280 161.88,-300"/>
<text text-anchor="middle" x="120.12" y="-286.5" font-family="Helvetica,sans-Serif" font-size="10.00">include/lig4.hpp</text>
</a>
</g>
</g>
<!-- Node2 -->
<g id="Node000002" class="node">
<title>Node2</title>
<g id="a_Node000002"><a xlink:title=" ">
<polygon fill="#e0e0e0" stroke="#999999" points="48.25,-244 0,-244 0,-224 48.25,-224 48.25,-244"/>
<text text-anchor="middle" x="24.12" y="-230.5" font-family="Helvetica,sans-Serif" font-size="10.00">fstream</text>
</a>
</g>
</g>
<!-- Node1&#45;&gt;Node2 -->
<g id="edge1_Node000001_Node000002" class="edge">
<title>Node1&#45;&gt;Node2</title>
<g id="a_edge1_Node000001_Node000002"><a xlink:title=" ">
<path fill="none" stroke="#63b8ff" d="M103.4,-279.59C88.9,-271.44 67.65,-259.48 50.8,-250"/>
<polygon fill="#63b8ff" stroke="#63b8ff" points="52.73,-247.07 42.3,-245.22 49.3,-253.17 52.73,-247.07"/>
</a>
</g>
</g>
<!-- Node3 -->
<g id="Node000003" class="node">
<title>Node3</title>
<g id="a_Node000003"><a xlink:title=" ">
<polygon fill="#e0e0e0" stroke="#999999" points="119.88,-244 66.38,-244 66.38,-224 119.88,-224 119.88,-244"/>
<text text-anchor="middle" x="93.12" y="-230.5" font-family="Helvetica,sans-Serif" font-size="10.00">iostream</text>
</a>
</g>
</g>
<!-- Node1&#45;&gt;Node3 -->
<g id="edge2_Node000001_Node000003" class="edge">
<title>Node1&#45;&gt;Node3</title>
<g id="a_edge2_Node000001_Node000003"><a xlink:title=" ">
<path fill="none" stroke="#63b8ff" d="M115.42,-279.59C111.98,-272.7 107.18,-263.1 102.91,-254.57"/>
<polygon fill="#63b8ff" stroke="#63b8ff" points="106.05,-253.03 98.45,-245.65 99.79,-256.16 106.05,-253.03"/>
</a>
</g>
</g>
<!-- Node4 -->
<g id="Node000004" class="node">
<title>Node4</title>
<g id="a_Node000004"><a xlink:title=" ">
<polygon fill="#e0e0e0" stroke="#999999" points="206.88,-76 165.38,-76 165.38,-56 206.88,-56 206.88,-76"/>
<text text-anchor="middle" x="186.12" y="-62.5" font-family="Helvetica,sans-Serif" font-size="10.00">vector</text>
</a>
</g>
</g>
<!-- Node1&#45;&gt;Node4 -->
<g id="edge3_Node000001_Node000004" class="edge">
<title>Node1&#45;&gt;Node4</title>
<g id="a_edge3_Node000001_Node000004"><a xlink:title=" ">
<path fill="none" stroke="#63b8ff" d="M122.88,-279.74C132.71,-246.67 166.26,-133.83 180.09,-87.31"/>
<polygon fill="#63b8ff" stroke="#63b8ff" points="183.44,-88.33 182.93,-77.75 176.73,-86.33 183.44,-88.33"/>
</a>
</g>
</g>
<!-- Node5 -->
<g id="Node000005" class="node">
<title>Node5</title>
<g id="a_Node000005"><a xlink:href="game_8hpp.html" target="_top" xlink:title=" ">
<polygon fill="white" stroke="#666666" points="269.5,-244 210.75,-244 210.75,-224 269.5,-224 269.5,-244"/>
<text text-anchor="middle" x="240.12" y="-230.5" font-family="Helvetica,sans-Serif" font-size="10.00">game.hpp</text>
</a>
</g>
</g>
<!-- Node1&#45;&gt;Node5 -->
<g id="edge4_Node000001_Node000005" class="edge">
<title>Node1&#45;&gt;Node5</title>
<g id="a_edge4_Node000001_Node000005"><a xlink:title=" ">
<path fill="none" stroke="#63b8ff" d="M141.03,-279.59C159.75,-271.17 187.48,-258.69 208.85,-249.07"/>
<polygon fill="#63b8ff" stroke="#63b8ff" points="210,-252.4 217.68,-245.1 207.12,-246.01 210,-252.4"/>
</a>
</g>
</g>
<!-- Node5&#45;&gt;Node4 -->
<g id="edge6_Node000005_Node000004" class="edge">
<title>Node5&#45;&gt;Node4</title>
<g id="a_edge6_Node000005_Node000004"><a xlink:title=" ">
<path fill="none" stroke="#63b8ff" d="M230.45,-223.59C222.32,-215.08 211.1,-201.81 205.12,-188 190.74,-154.76 187.09,-112.19 186.25,-87.42"/>
<polygon fill="#63b8ff" stroke="#63b8ff" points="189.76,-87.68 186.06,-77.75 182.76,-87.81 189.76,-87.68"/>
</a>
</g>
</g>
<!-- Node6 -->
<g id="Node000006" class="node">
<title>Node6</title>
<g id="a_Node000006"><a xlink:title=" ">
<polygon fill="#e0e0e0" stroke="#999999" points="327.12,-20 287.12,-20 287.12,0 327.12,0 327.12,-20"/>
<text text-anchor="middle" x="307.12" y="-6.5" font-family="Helvetica,sans-Serif" font-size="10.00">string</text>
</a>
</g>
</g>
<!-- Node5&#45;&gt;Node6 -->
<g id="edge5_Node000005_Node000006" class="edge">
<title>Node5&#45;&gt;Node6</title>
<g id="a_edge5_Node000005_Node000006"><a xlink:title=" ">
<path fill="none" stroke="#63b8ff" d="M269.97,-228.43C294.18,-223.07 327.13,-211.69 345.12,-188 380.84,-140.98 384.92,-109.58 360.12,-56 354.63,-44.13 344.29,-34.24 334.19,-26.79"/>
<polygon fill="#63b8ff" stroke="#63b8ff" points="336.25,-23.96 326,-21.25 332.33,-29.76 336.25,-23.96"/>
</a>
</g>
</g>
<!-- Node7 -->
<g id="Node000007" class="node">
<title>Node7</title>
<g id="a_Node000007"><a xlink:href="players_management_8hpp.html" target="_top" xlink:title=" ">
<polygon fill="white" stroke="#666666" points="336.38,-188 213.88,-188 213.88,-168 336.38,-168 336.38,-188"/>
<text text-anchor="middle" x="275.12" y="-174.5" font-family="Helvetica,sans-Serif" font-size="10.00">playersManagement.hpp</text>
</a>
</g>
</g>
<!-- Node5&#45;&gt;Node7 -->
<g id="edge7_Node000005_Node000007" class="edge">
<title>Node5&#45;&gt;Node7</title>
<g id="a_edge7_Node000005_Node000007"><a xlink:title=" ">
<path fill="none" stroke="#63b8ff" d="M246.22,-223.59C250.84,-216.47 257.33,-206.45 262.99,-197.72"/>
<polygon fill="#63b8ff" stroke="#63b8ff" points="265.77,-199.86 268.28,-189.57 259.9,-196.06 265.77,-199.86"/>
</a>
</g>
</g>
<!-- Node7&#45;&gt;Node4 -->
<g id="edge8_Node000007_Node000004" class="edge">
<title>Node7&#45;&gt;Node4</title>
<g id="a_edge8_Node000007_Node000004"><a xlink:title=" ">
<path fill="none" stroke="#63b8ff" d="M267.54,-167.62C252.76,-149.36 219.89,-108.73 200.74,-85.07"/>
<polygon fill="#63b8ff" stroke="#63b8ff" points="203.66,-83.1 194.65,-77.53 198.21,-87.51 203.66,-83.1"/>
</a>
</g>
</g>
<!-- Node8 -->
<g id="Node000008" class="node">
<title>Node8</title>
<g id="a_Node000008"><a xlink:href="player_8hpp.html" target="_top" xlink:title=" ">
<polygon fill="white" stroke="#666666" points="313.62,-132 252.62,-132 252.62,-112 313.62,-112 313.62,-132"/>
<text text-anchor="middle" x="283.12" y="-118.5" font-family="Helvetica,sans-Serif" font-size="10.00">player.hpp</text>
</a>
</g>
</g>
<!-- Node7&#45;&gt;Node8 -->
<g id="edge9_Node000007_Node000008" class="edge">
<title>Node7&#45;&gt;Node8</title>
<g id="a_edge9_Node000007_Node000008"><a xlink:title=" ">
<path fill="none" stroke="#63b8ff" d="M276.52,-167.59C277.51,-160.93 278.87,-151.75 280.1,-143.44"/>
<polygon fill="#63b8ff" stroke="#63b8ff" points="283.52,-144.2 281.53,-133.8 276.6,-143.17 283.52,-144.2"/>
</a>
</g>
</g>
<!-- Node8&#45;&gt;Node4 -->
<g id="edge11_Node000008_Node000004" class="edge">
<title>Node8&#45;&gt;Node4</title>
<g id="a_edge11_Node000008_Node000004"><a xlink:title=" ">
<path fill="none" stroke="#63b8ff" d="M266.23,-111.59C251.58,-103.44 230.1,-91.48 213.08,-82"/>
<polygon fill="#63b8ff" stroke="#63b8ff" points="214.92,-79.02 204.48,-77.22 211.51,-85.14 214.92,-79.02"/>
</a>
</g>
</g>
<!-- Node8&#45;&gt;Node6 -->
<g id="edge10_Node000008_Node000006" class="edge">
<title>Node8&#45;&gt;Node6</title>
<g id="a_edge10_Node000008_Node000006"><a xlink:title=" ">
<path fill="none" stroke="#63b8ff" d="M273.72,-111.71C262.12,-99.06 244.99,-75.74 254.12,-56 259.62,-44.13 269.96,-34.24 280.06,-26.79"/>
<polygon fill="#63b8ff" stroke="#63b8ff" points="281.92,-29.76 288.25,-21.25 278,-23.96 281.92,-29.76"/>
</a>
</g>
</g>
<!-- Node9 -->
<g id="Node000009" class="node">
<title>Node9</title>
<g id="a_Node000009"><a xlink:href="game_status_8hpp.html" target="_top" xlink:title=" ">
<polygon fill="white" stroke="#666666" points="350.75,-76 263.5,-76 263.5,-56 350.75,-56 350.75,-76"/>
<text text-anchor="middle" x="307.12" y="-62.5" font-family="Helvetica,sans-Serif" font-size="10.00">gameStatus.hpp</text>
</a>
</g>
</g>
<!-- Node8&#45;&gt;Node9 -->
<g id="edge12_Node000008_Node000009" class="edge">
<title>Node8&#45;&gt;Node9</title>
<g id="a_edge12_Node000008_Node000009"><a xlink:title=" ">
<path fill="none" stroke="#63b8ff" d="M287.31,-111.59C290.37,-104.7 294.64,-95.1 298.43,-86.57"/>
<polygon fill="#63b8ff" stroke="#63b8ff" points="301.51,-88.24 302.38,-77.68 295.12,-85.4 301.51,-88.24"/>
</a>
</g>
</g>
<!-- Node9&#45;&gt;Node6 -->
<g id="edge13_Node000009_Node000006" class="edge">
<title>Node9&#45;&gt;Node6</title>
<g id="a_edge13_Node000009_Node000006"><a xlink:title=" ">
<path fill="none" stroke="#63b8ff" d="M307.12,-55.59C307.12,-49.01 307.12,-39.96 307.12,-31.73"/>
<polygon fill="#63b8ff" stroke="#63b8ff" points="310.63,-31.81 307.13,-21.81 303.63,-31.81 310.63,-31.81"/>
</a>
</g>
</g>
</g>
</svg>
