<?xml version="1.0" encoding="UTF-8" standalone="no"?>
<!DOCTYPE svg PUBLIC "-//W3C//DTD SVG 1.1//EN"
 "http://www.w3.org/Graphics/SVG/1.1/DTD/svg11.dtd">
<!-- Generated by graphviz version 11.0.0 (20240428.1522)
 -->
<!-- Title: src/lig4.cpp Pages: 1 -->
<svg width="364pt" height="375pt"
 viewBox="0.00 0.00 363.56 374.50" xmlns="http://www.w3.org/2000/svg" xmlns:xlink="http://www.w3.org/1999/xlink">
<g id="graph0" class="graph" transform="scale(1 1) rotate(0) translate(4 370.5)">
<title>src/lig4.cpp</title>
<!-- Node1 -->
<g id="Node000001" class="node">
<title>Node1</title>
<g id="a_Node000001"><a xlink:title=" ">
<polygon fill="#999999" stroke="#666666" points="304.56,-366.5 228.56,-366.5 228.56,-345 304.56,-345 304.56,-366.5"/>
<text text-anchor="middle" x="266.56" y="-351.1" font-family="Helvetica,sans-Serif" font-size="12.00">src/lig4.cpp</text>
</a>
</g>
</g>
<!-- Node2 -->
<g id="Node000002" class="node">
<title>Node2</title>
<g id="a_Node000002"><a xlink:title=" ">
<polygon fill="#e0e0e0" stroke="#999999" points="123.06,-251.5 68.06,-251.5 68.06,-230 123.06,-230 123.06,-251.5"/>
<text text-anchor="middle" x="95.56" y="-236.1" font-family="Helvetica,sans-Serif" font-size="12.00">fstream</text>
</a>
</g>
</g>
<!-- Node1&#45;&gt;Node2 -->
<g id="edge1_Node000001_Node000002" class="edge">
<title>Node1&#45;&gt;Node2</title>
<g id="a_edge1_Node000001_Node000002"><a xlink:title=" ">
<path fill="none" stroke="#63b8ff" d="M251.08,-344.52C221.33,-324.86 155.91,-281.63 120.13,-257.99"/>
<polygon fill="#63b8ff" stroke="#63b8ff" points="122.41,-255.3 112.14,-252.71 118.56,-261.14 122.41,-255.3"/>
</a>
</g>
</g>
<!-- Node3 -->
<g id="Node000003" class="node">
<title>Node3</title>
<g id="a_Node000003"><a xlink:title=" ">
<polygon fill="#e0e0e0" stroke="#999999" points="327.44,-251.5 265.69,-251.5 265.69,-230 327.44,-230 327.44,-251.5"/>
<text text-anchor="middle" x="296.56" y="-236.1" font-family="Helvetica,sans-Serif" font-size="12.00">iostream</text>
</a>
</g>
</g>
<!-- Node1&#45;&gt;Node3 -->
<g id="edge2_Node000001_Node000003" class="edge">
<title>Node1&#45;&gt;Node3</title>
<g id="a_edge2_Node000001_Node000003"><a xlink:title=" ">
<path fill="none" stroke="#63b8ff" d="M269.22,-344.72C274.08,-326.42 284.48,-287.26 290.96,-262.85"/>
<polygon fill="#63b8ff" stroke="#63b8ff" points="294.29,-263.94 293.47,-253.38 287.52,-262.15 294.29,-263.94"/>
</a>
</g>
</g>
<!-- Node4 -->
<g id="Node000004" class="node">
<title>Node4</title>
<g id="a_Node000004"><a xlink:title=" ">
<polygon fill="#e0e0e0" stroke="#999999" points="228.31,-79 180.81,-79 180.81,-57.5 228.31,-57.5 228.31,-79"/>
<text text-anchor="middle" x="204.56" y="-63.6" font-family="Helvetica,sans-Serif" font-size="12.00">vector</text>
</a>
</g>
</g>
<!-- Node1&#45;&gt;Node4 -->
<g id="edge3_Node000001_Node000004" class="edge">
<title>Node1&#45;&gt;Node4</title>
<g id="a_edge3_Node000001_Node000004"><a xlink:title=" ">
<path fill="none" stroke="#63b8ff" d="M282.47,-344.73C308.07,-327.22 355.56,-288.45 355.56,-241.75 355.56,-241.75 355.56,-241.75 355.56,-182.25 355.56,-124.57 284.06,-92.76 239.46,-78.54"/>
<polygon fill="#63b8ff" stroke="#63b8ff" points="240.52,-75.2 229.94,-75.65 238.49,-81.9 240.52,-75.2"/>
</a>
</g>
</g>
<!-- Node5 -->
<g id="Node000005" class="node">
<title>Node5</title>
<g id="a_Node000005"><a xlink:href="lig4_8hpp.html" target="_top" xlink:title=" ">
<polygon fill="white" stroke="#666666" points="266.19,-309 208.94,-309 208.94,-287.5 266.19,-287.5 266.19,-309"/>
<text text-anchor="middle" x="237.56" y="-293.6" font-family="Helvetica,sans-Serif" font-size="12.00">lig4.hpp</text>
</a>
</g>
</g>
<!-- Node1&#45;&gt;Node5 -->
<g id="edge4_Node000001_Node000005" class="edge">
<title>Node1&#45;&gt;Node5</title>
<g id="a_edge4_Node000001_Node000005"><a xlink:title=" ">
<path fill="none" stroke="#63b8ff" d="M261.24,-344.57C257.56,-337.53 252.54,-327.92 248.07,-319.37"/>
<polygon fill="#63b8ff" stroke="#63b8ff" points="251.28,-317.95 243.55,-310.71 245.08,-321.19 251.28,-317.95"/>
</a>
</g>
</g>
<!-- Node5&#45;&gt;Node2 -->
<g id="edge5_Node000005_Node000002" class="edge">
<title>Node5&#45;&gt;Node2</title>
<g id="a_edge5_Node000005_Node000002"><a xlink:title=" ">
<path fill="none" stroke="#63b8ff" d="M211.52,-287.07C189.2,-278.35 156.81,-265.69 131.93,-255.97"/>
<polygon fill="#63b8ff" stroke="#63b8ff" points="133.44,-252.8 122.85,-252.42 130.89,-259.32 133.44,-252.8"/>
</a>
</g>
</g>
<!-- Node5&#45;&gt;Node3 -->
<g id="edge6_Node000005_Node000003" class="edge">
<title>Node5&#45;&gt;Node3</title>
<g id="a_edge6_Node000005_Node000003"><a xlink:title=" ">
<path fill="none" stroke="#63b8ff" d="M248.38,-287.07C256.53,-279.4 267.91,-268.7 277.57,-259.61"/>
<polygon fill="#63b8ff" stroke="#63b8ff" points="279.82,-262.3 284.71,-252.9 275.02,-257.2 279.82,-262.3"/>
</a>
</g>
</g>
<!-- Node5&#45;&gt;Node4 -->
<g id="edge7_Node000005_Node000004" class="edge">
<title>Node5&#45;&gt;Node4</title>
<g id="a_edge7_Node000005_Node000004"><a xlink:title=" ">
<path fill="none" stroke="#63b8ff" d="M236.1,-287.16C231.1,-252.59 214.57,-138.42 207.65,-90.61"/>
<polygon fill="#63b8ff" stroke="#63b8ff" points="211.16,-90.38 206.26,-80.98 204.23,-91.38 211.16,-90.38"/>
</a>
</g>
</g>
<!-- Node6 -->
<g id="Node000006" class="node">
<title>Node6</title>
<g id="a_Node000006"><a xlink:href="game_8hpp.html" target="_top" xlink:title=" ">
<polygon fill="white" stroke="#666666" points="209.81,-251.5 141.31,-251.5 141.31,-230 209.81,-230 209.81,-251.5"/>
<text text-anchor="middle" x="175.56" y="-236.1" font-family="Helvetica,sans-Serif" font-size="12.00">game.hpp</text>
</a>
</g>
</g>
<!-- Node5&#45;&gt;Node6 -->
<g id="edge8_Node000005_Node000006" class="edge">
<title>Node5&#45;&gt;Node6</title>
<g id="a_edge8_Node000005_Node000006"><a xlink:title=" ">
<path fill="none" stroke="#63b8ff" d="M226.19,-287.07C217.54,-279.33 205.42,-268.48 195.21,-259.34"/>
<polygon fill="#63b8ff" stroke="#63b8ff" points="197.77,-256.94 187.99,-252.87 193.1,-262.15 197.77,-256.94"/>
</a>
</g>
</g>
<!-- Node6&#45;&gt;Node4 -->
<g id="edge10_Node000006_Node000004" class="edge">
<title>Node6&#45;&gt;Node4</title>
<g id="a_edge10_Node000006_Node000004"><a xlink:title=" ">
<path fill="none" stroke="#63b8ff" d="M177.29,-229.6C181.93,-202.29 194.76,-126.85 201.03,-90.02"/>
<polygon fill="#63b8ff" stroke="#63b8ff" points="204.4,-91.08 202.63,-80.63 197.5,-89.9 204.4,-91.08"/>
</a>
</g>
</g>
<!-- Node7 -->
<g id="Node000007" class="node">
<title>Node7</title>
<g id="a_Node000007"><a xlink:title=" ">
<polygon fill="#e0e0e0" stroke="#999999" points="54.81,-21.5 10.31,-21.5 10.31,0 54.81,0 54.81,-21.5"/>
<text text-anchor="middle" x="32.56" y="-6.1" font-family="Helvetica,sans-Serif" font-size="12.00">string</text>
</a>
</g>
</g>
<!-- Node6&#45;&gt;Node7 -->
<g id="edge9_Node000006_Node000007" class="edge">
<title>Node6&#45;&gt;Node7</title>
<g id="a_edge9_Node000006_Node000007"><a xlink:title=" ">
<path fill="none" stroke="#63b8ff" d="M141.01,-230.8C95.94,-218.97 22.33,-199.02 18.56,-194 -17.7,-145.67 7.72,-68.42 23.13,-32"/>
<polygon fill="#63b8ff" stroke="#63b8ff" points="26.23,-33.64 27.08,-23.08 19.83,-30.81 26.23,-33.64"/>
</a>
</g>
</g>
<!-- Node8 -->
<g id="Node000008" class="node">
<title>Node8</title>
<g id="a_Node000008"><a xlink:href="players_management_8hpp.html" target="_top" xlink:title=" ">
<polygon fill="white" stroke="#666666" points="171.69,-194 27.44,-194 27.44,-172.5 171.69,-172.5 171.69,-194"/>
<text text-anchor="middle" x="99.56" y="-178.6" font-family="Helvetica,sans-Serif" font-size="12.00">playersManagement.hpp</text>
</a>
</g>
</g>
<!-- Node6&#45;&gt;Node8 -->
<g id="edge11_Node000006_Node000008" class="edge">
<title>Node6&#45;&gt;Node8</title>
<g id="a_edge11_Node000006_Node000008"><a xlink:title=" ">
<path fill="none" stroke="#63b8ff" d="M161.62,-229.57C150.69,-221.59 135.26,-210.32 122.51,-201.01"/>
<polygon fill="#63b8ff" stroke="#63b8ff" points="124.77,-198.33 114.63,-195.26 120.65,-203.98 124.77,-198.33"/>
</a>
</g>
</g>
<!-- Node8&#45;&gt;Node4 -->
<g id="edge12_Node000008_Node000004" class="edge">
<title>Node8&#45;&gt;Node4</title>
<g id="a_edge12_Node000008_Node000004"><a xlink:title=" ">
<path fill="none" stroke="#63b8ff" d="M109.15,-172.1C117.89,-162.85 131.12,-148.79 142.56,-136.5 157.86,-120.07 175.17,-101.27 187.6,-87.74"/>
<polygon fill="#63b8ff" stroke="#63b8ff" points="190.14,-90.15 194.32,-80.42 184.98,-85.42 190.14,-90.15"/>
</a>
</g>
</g>
<!-- Node9 -->
<g id="Node000009" class="node">
<title>Node9</title>
<g id="a_Node000009"><a xlink:href="player_8hpp.html" target="_top" xlink:title=" ">
<polygon fill="white" stroke="#666666" points="133.56,-136.5 63.56,-136.5 63.56,-115 133.56,-115 133.56,-136.5"/>
<text text-anchor="middle" x="98.56" y="-121.1" font-family="Helvetica,sans-Serif" font-size="12.00">player.hpp</text>
</a>
</g>
</g>
<!-- Node8&#45;&gt;Node9 -->
<g id="edge13_Node000008_Node000009" class="edge">
<title>Node8&#45;&gt;Node9</title>
<g id="a_edge13_Node000008_Node000009"><a xlink:title=" ">
<path fill="none" stroke="#63b8ff" d="M99.38,-172.07C99.26,-165.42 99.1,-156.48 98.95,-148.3"/>
<polygon fill="#63b8ff" stroke="#63b8ff" points="102.45,-148.31 98.77,-138.38 95.45,-148.44 102.45,-148.31"/>
</a>
</g>
</g>
<!-- Node9&#45;&gt;Node4 -->
<g id="edge15_Node000009_Node000004" class="edge">
<title>Node9&#45;&gt;Node4</title>
<g id="a_edge15_Node000009_Node000004"><a xlink:title=" ">
<path fill="none" stroke="#63b8ff" d="M118,-114.57C133.99,-106.2 156.9,-94.2 175.13,-84.66"/>
<polygon fill="#63b8ff" stroke="#63b8ff" points="176.67,-87.81 183.9,-80.07 173.42,-81.6 176.67,-87.81"/>
</a>
</g>
</g>
<!-- Node9&#45;&gt;Node7 -->
<g id="edge14_Node000009_Node000007" class="edge">
<title>Node9&#45;&gt;Node7</title>
<g id="a_edge14_Node000009_Node000007"><a xlink:title=" ">
<path fill="none" stroke="#63b8ff" d="M84.7,-114.58C74.16,-106.16 60.07,-93.28 51.56,-79 43.2,-64.95 38.37,-47.06 35.68,-33.26"/>
<polygon fill="#63b8ff" stroke="#63b8ff" points="39.14,-32.74 34.02,-23.46 32.24,-33.91 39.14,-32.74"/>
</a>
</g>
</g>
<!-- Node10 -->
<g id="Node000010" class="node">
<title>Node10</title>
<g id="a_Node000010"><a xlink:href="game_status_8hpp.html" target="_top" xlink:title=" ">
<polygon fill="white" stroke="#666666" points="162.31,-79 60.81,-79 60.81,-57.5 162.31,-57.5 162.31,-79"/>
<text text-anchor="middle" x="111.56" y="-63.6" font-family="Helvetica,sans-Serif" font-size="12.00">gameStatus.hpp</text>
</a>
</g>
</g>
<!-- Node9&#45;&gt;Node10 -->
<g id="edge16_Node000009_Node000010" class="edge">
<title>Node9&#45;&gt;Node10</title>
<g id="a_edge16_Node000009_Node000010"><a xlink:title=" ">
<path fill="none" stroke="#63b8ff" d="M100.95,-114.57C102.52,-107.84 104.65,-98.77 106.58,-90.52"/>
<polygon fill="#63b8ff" stroke="#63b8ff" points="109.97,-91.37 108.85,-80.84 103.16,-89.78 109.97,-91.37"/>
</a>
</g>
</g>
<!-- Node10&#45;&gt;Node7 -->
<g id="edge17_Node000010_Node000007" class="edge">
<title>Node10&#45;&gt;Node7</title>
<g id="a_edge17_Node000010_Node000007"><a xlink:title=" ">
<path fill="none" stroke="#63b8ff" d="M97.07,-57.07C85.6,-49.01 69.35,-37.6 56.03,-28.24"/>
<polygon fill="#63b8ff" stroke="#63b8ff" points="58.39,-25.62 48.2,-22.74 54.37,-31.35 58.39,-25.62"/>
</a>
</g>
</g>
</g>
</svg>
