<?xml version="1.0" encoding="UTF-8" standalone="no"?>
<!DOCTYPE svg PUBLIC "-//W3C//DTD SVG 1.1//EN"
 "http://www.w3.org/Graphics/SVG/1.1/DTD/svg11.dtd">
<!-- Generated by graphviz version 11.0.0 (20240428.1522)
 -->
<!-- Title: src/main.cpp Pages: 1 -->
<svg width="537pt" height="375pt"
 viewBox="0.00 0.00 537.25 374.50" xmlns="http://www.w3.org/2000/svg" xmlns:xlink="http://www.w3.org/1999/xlink">
<g id="graph0" class="graph" transform="scale(1 1) rotate(0) translate(4 370.5)">
<title>src/main.cpp</title>
<!-- Node1 -->
<g id="Node000001" class="node">
<title>Node1</title>
<g id="a_Node000001"><a xlink:title=" ">
<polygon fill="#999999" stroke="#666666" points="400.25,-366.5 317.5,-366.5 317.5,-345 400.25,-345 400.25,-366.5"/>
<text text-anchor="middle" x="358.88" y="-351.1" font-family="Helvetica,sans-Serif" font-size="12.00">src/main.cpp</text>
</a>
</g>
</g>
<!-- Node2 -->
<g id="Node000002" class="node">
<title>Node2</title>
<g id="a_Node000002"><a xlink:title=" ">
<polygon fill="#e0e0e0" stroke="#999999" points="61.75,-251.5 0,-251.5 0,-230 61.75,-230 61.75,-251.5"/>
<text text-anchor="middle" x="30.88" y="-236.1" font-family="Helvetica,sans-Serif" font-size="12.00">iostream</text>
</a>
</g>
</g>
<!-- Node1&#45;&gt;Node2 -->
<g id="edge1_Node000001_Node000002" class="edge">
<title>Node1&#45;&gt;Node2</title>
<g id="a_edge1_Node000001_Node000002"><a xlink:title=" ">
<path fill="none" stroke="#63b8ff" d="M317.16,-349.47C273.99,-343.14 205.14,-330.58 148.88,-309 114.36,-295.76 77.85,-273.51 54.75,-258.25"/>
<polygon fill="#63b8ff" stroke="#63b8ff" points="56.93,-255.5 46.68,-252.84 53.03,-261.32 56.93,-255.5"/>
</a>
</g>
</g>
<!-- Node3 -->
<g id="Node000003" class="node">
<title>Node3</title>
<g id="a_Node000003"><a xlink:title=" ">
<polygon fill="#e0e0e0" stroke="#999999" points="529.25,-309 476.5,-309 476.5,-287.5 529.25,-287.5 529.25,-309"/>
<text text-anchor="middle" x="502.88" y="-293.6" font-family="Helvetica,sans-Serif" font-size="12.00">stdlib.h</text>
</a>
</g>
</g>
<!-- Node1&#45;&gt;Node3 -->
<g id="edge2_Node000001_Node000003" class="edge">
<title>Node1&#45;&gt;Node3</title>
<g id="a_edge2_Node000001_Node000003"><a xlink:title=" ">
<path fill="none" stroke="#63b8ff" d="M385.29,-344.57C407.92,-335.85 440.76,-323.19 465.99,-313.47"/>
<polygon fill="#63b8ff" stroke="#63b8ff" points="467.15,-316.77 475.22,-309.91 464.63,-310.24 467.15,-316.77"/>
</a>
</g>
</g>
<!-- Node4 -->
<g id="Node000004" class="node">
<title>Node4</title>
<g id="a_Node000004"><a xlink:title=" ">
<polygon fill="#e0e0e0" stroke="#999999" points="393.12,-21.5 348.62,-21.5 348.62,0 393.12,0 393.12,-21.5"/>
<text text-anchor="middle" x="370.88" y="-6.1" font-family="Helvetica,sans-Serif" font-size="12.00">string</text>
</a>
</g>
</g>
<!-- Node1&#45;&gt;Node4 -->
<g id="edge3_Node000001_Node000004" class="edge">
<title>Node1&#45;&gt;Node4</title>
<g id="a_edge3_Node000001_Node000004"><a xlink:title=" ">
<path fill="none" stroke="#63b8ff" d="M374.97,-344.77C400.85,-327.33 448.88,-288.65 448.88,-241.75 448.88,-241.75 448.88,-241.75 448.88,-124.75 448.88,-85.19 416.09,-49.43 393.03,-29.17"/>
<polygon fill="#63b8ff" stroke="#63b8ff" points="395.52,-26.69 385.62,-22.92 391.01,-32.04 395.52,-26.69"/>
</a>
</g>
</g>
<!-- Node5 -->
<g id="Node000005" class="node">
<title>Node5</title>
<g id="a_Node000005"><a xlink:href="players_management_8hpp.html" target="_top" xlink:title=" ">
<polygon fill="white" stroke="#666666" points="421,-194 276.75,-194 276.75,-172.5 421,-172.5 421,-194"/>
<text text-anchor="middle" x="348.88" y="-178.6" font-family="Helvetica,sans-Serif" font-size="12.00">playersManagement.hpp</text>
</a>
</g>
</g>
<!-- Node1&#45;&gt;Node5 -->
<g id="edge4_Node000001_Node000005" class="edge">
<title>Node1&#45;&gt;Node5</title>
<g id="a_edge4_Node000001_Node000005"><a xlink:title=" ">
<path fill="none" stroke="#63b8ff" d="M365.05,-344.66C370.17,-335.67 377.04,-321.98 379.88,-309 387.98,-271.92 371.63,-229.05 359.75,-204.45"/>
<polygon fill="#63b8ff" stroke="#63b8ff" points="362.89,-202.91 355.24,-195.58 356.65,-206.08 362.89,-202.91"/>
</a>
</g>
</g>
<!-- Node9 -->
<g id="Node000009" class="node">
<title>Node9</title>
<g id="a_Node000009"><a xlink:href="players_menu_8hpp.html" target="_top" xlink:title=" ">
<polygon fill="white" stroke="#666666" points="371.12,-309 266.62,-309 266.62,-287.5 371.12,-287.5 371.12,-309"/>
<text text-anchor="middle" x="318.88" y="-293.6" font-family="Helvetica,sans-Serif" font-size="12.00">playersMenu.hpp</text>
</a>
</g>
</g>
<!-- Node1&#45;&gt;Node9 -->
<g id="edge11_Node000001_Node000009" class="edge">
<title>Node1&#45;&gt;Node9</title>
<g id="a_edge11_Node000001_Node000009"><a xlink:title=" ">
<path fill="none" stroke="#63b8ff" d="M351.54,-344.57C346.29,-337.29 339.08,-327.28 332.76,-318.52"/>
<polygon fill="#63b8ff" stroke="#63b8ff" points="335.74,-316.66 327.05,-310.59 330.06,-320.75 335.74,-316.66"/>
</a>
</g>
</g>
<!-- Node10 -->
<g id="Node000010" class="node">
<title>Node10</title>
<g id="a_Node000010"><a xlink:href="lig4_8hpp.html" target="_top" xlink:title=" ">
<polygon fill="white" stroke="#666666" points="215.5,-309 158.25,-309 158.25,-287.5 215.5,-287.5 215.5,-309"/>
<text text-anchor="middle" x="186.88" y="-293.6" font-family="Helvetica,sans-Serif" font-size="12.00">lig4.hpp</text>
</a>
</g>
</g>
<!-- Node1&#45;&gt;Node10 -->
<g id="edge13_Node000001_Node000010" class="edge">
<title>Node1&#45;&gt;Node10</title>
<g id="a_edge13_Node000001_Node000010"><a xlink:title=" ">
<path fill="none" stroke="#63b8ff" d="M327.33,-344.57C299,-335.43 257.27,-321.97 226.66,-312.09"/>
<polygon fill="#63b8ff" stroke="#63b8ff" points="227.96,-308.83 217.37,-309.09 225.81,-315.49 227.96,-308.83"/>
</a>
</g>
</g>
<!-- Node6 -->
<g id="Node000006" class="node">
<title>Node6</title>
<g id="a_Node000006"><a xlink:title=" ">
<polygon fill="#e0e0e0" stroke="#999999" points="262.62,-79 215.12,-79 215.12,-57.5 262.62,-57.5 262.62,-79"/>
<text text-anchor="middle" x="238.88" y="-63.6" font-family="Helvetica,sans-Serif" font-size="12.00">vector</text>
</a>
</g>
</g>
<!-- Node5&#45;&gt;Node6 -->
<g id="edge5_Node000005_Node000006" class="edge">
<title>Node5&#45;&gt;Node6</title>
<g id="a_edge5_Node000005_Node000006"><a xlink:title=" ">
<path fill="none" stroke="#63b8ff" d="M339.11,-172.22C320.57,-153.17 280.01,-111.51 256.56,-87.42"/>
<polygon fill="#63b8ff" stroke="#63b8ff" points="259.31,-85.23 249.83,-80.5 254.3,-90.11 259.31,-85.23"/>
</a>
</g>
</g>
<!-- Node7 -->
<g id="Node000007" class="node">
<title>Node7</title>
<g id="a_Node000007"><a xlink:href="player_8hpp.html" target="_top" xlink:title=" ">
<polygon fill="white" stroke="#666666" points="384.88,-136.5 314.88,-136.5 314.88,-115 384.88,-115 384.88,-136.5"/>
<text text-anchor="middle" x="349.88" y="-121.1" font-family="Helvetica,sans-Serif" font-size="12.00">player.hpp</text>
</a>
</g>
</g>
<!-- Node5&#45;&gt;Node7 -->
<g id="edge6_Node000005_Node000007" class="edge">
<title>Node5&#45;&gt;Node7</title>
<g id="a_edge6_Node000005_Node000007"><a xlink:title=" ">
<path fill="none" stroke="#63b8ff" d="M349.06,-172.07C349.18,-165.42 349.34,-156.48 349.49,-148.3"/>
<polygon fill="#63b8ff" stroke="#63b8ff" points="352.98,-148.44 349.67,-138.38 345.99,-148.31 352.98,-148.44"/>
</a>
</g>
</g>
<!-- Node7&#45;&gt;Node4 -->
<g id="edge7_Node000007_Node000004" class="edge">
<title>Node7&#45;&gt;Node4</title>
<g id="a_edge7_Node000007_Node000004"><a xlink:title=" ">
<path fill="none" stroke="#63b8ff" d="M363.31,-114.79C373.31,-106.49 386.16,-93.67 391.88,-79 397.97,-63.35 391.49,-45.14 384.16,-31.62"/>
<polygon fill="#63b8ff" stroke="#63b8ff" points="387.27,-29.99 379.12,-23.22 381.27,-33.6 387.27,-29.99"/>
</a>
</g>
</g>
<!-- Node7&#45;&gt;Node6 -->
<g id="edge8_Node000007_Node000006" class="edge">
<title>Node7&#45;&gt;Node6</title>
<g id="a_edge8_Node000007_Node000006"><a xlink:title=" ">
<path fill="none" stroke="#63b8ff" d="M329.52,-114.57C312.62,-106.12 288.33,-93.98 269.16,-84.39"/>
<polygon fill="#63b8ff" stroke="#63b8ff" points="270.97,-81.38 260.46,-80.04 267.84,-87.64 270.97,-81.38"/>
</a>
</g>
</g>
<!-- Node8 -->
<g id="Node000008" class="node">
<title>Node8</title>
<g id="a_Node000008"><a xlink:href="game_status_8hpp.html" target="_top" xlink:title=" ">
<polygon fill="white" stroke="#666666" points="382.62,-79 281.12,-79 281.12,-57.5 382.62,-57.5 382.62,-79"/>
<text text-anchor="middle" x="331.88" y="-63.6" font-family="Helvetica,sans-Serif" font-size="12.00">gameStatus.hpp</text>
</a>
</g>
</g>
<!-- Node7&#45;&gt;Node8 -->
<g id="edge9_Node000007_Node000008" class="edge">
<title>Node7&#45;&gt;Node8</title>
<g id="a_edge9_Node000007_Node000008"><a xlink:title=" ">
<path fill="none" stroke="#63b8ff" d="M346.57,-114.57C344.37,-107.76 341.38,-98.56 338.68,-90.23"/>
<polygon fill="#63b8ff" stroke="#63b8ff" points="342.04,-89.24 335.62,-80.8 335.38,-91.4 342.04,-89.24"/>
</a>
</g>
</g>
<!-- Node8&#45;&gt;Node4 -->
<g id="edge10_Node000008_Node000004" class="edge">
<title>Node8&#45;&gt;Node4</title>
<g id="a_edge10_Node000008_Node000004"><a xlink:title=" ">
<path fill="none" stroke="#63b8ff" d="M339.03,-57.07C344.14,-49.79 351.18,-39.78 357.34,-31.02"/>
<polygon fill="#63b8ff" stroke="#63b8ff" points="360.01,-33.3 362.9,-23.1 354.28,-29.27 360.01,-33.3"/>
</a>
</g>
</g>
<!-- Node9&#45;&gt;Node5 -->
<g id="edge12_Node000009_Node000005" class="edge">
<title>Node9&#45;&gt;Node5</title>
<g id="a_edge12_Node000009_Node000005"><a xlink:title=" ">
<path fill="none" stroke="#63b8ff" d="M321.54,-287.22C326.4,-268.92 336.79,-229.76 343.27,-205.35"/>
<polygon fill="#63b8ff" stroke="#63b8ff" points="346.6,-206.44 345.79,-195.88 339.84,-204.65 346.6,-206.44"/>
</a>
</g>
</g>
<!-- Node10&#45;&gt;Node2 -->
<g id="edge15_Node000010_Node000002" class="edge">
<title>Node10&#45;&gt;Node2</title>
<g id="a_edge15_Node000010_Node000002"><a xlink:title=" ">
<path fill="none" stroke="#63b8ff" d="M158.26,-287.07C133.6,-278.3 97.75,-265.54 70.36,-255.8"/>
<polygon fill="#63b8ff" stroke="#63b8ff" points="71.59,-252.52 61,-252.47 69.24,-259.12 71.59,-252.52"/>
</a>
</g>
</g>
<!-- Node10&#45;&gt;Node6 -->
<g id="edge16_Node000010_Node000006" class="edge">
<title>Node10&#45;&gt;Node6</title>
<g id="a_edge16_Node000010_Node000006"><a xlink:title=" ">
<path fill="none" stroke="#63b8ff" d="M200.42,-287.28C210.54,-278.97 223.65,-266.15 229.88,-251.5 252.94,-197.23 247.22,-125.53 242.38,-90.43"/>
<polygon fill="#63b8ff" stroke="#63b8ff" points="245.88,-90.12 240.92,-80.76 238.95,-91.17 245.88,-90.12"/>
</a>
</g>
</g>
<!-- Node11 -->
<g id="Node000011" class="node">
<title>Node11</title>
<g id="a_Node000011"><a xlink:title=" ">
<polygon fill="#e0e0e0" stroke="#999999" points="134.38,-251.5 79.38,-251.5 79.38,-230 134.38,-230 134.38,-251.5"/>
<text text-anchor="middle" x="106.88" y="-236.1" font-family="Helvetica,sans-Serif" font-size="12.00">fstream</text>
</a>
</g>
</g>
<!-- Node10&#45;&gt;Node11 -->
<g id="edge14_Node000010_Node000011" class="edge">
<title>Node10&#45;&gt;Node11</title>
<g id="a_edge14_Node000010_Node000011"><a xlink:title=" ">
<path fill="none" stroke="#63b8ff" d="M172.2,-287.07C160.59,-279.01 144.13,-267.6 130.64,-258.24"/>
<polygon fill="#63b8ff" stroke="#63b8ff" points="132.91,-255.55 122.7,-252.73 128.92,-261.3 132.91,-255.55"/>
</a>
</g>
</g>
<!-- Node12 -->
<g id="Node000012" class="node">
<title>Node12</title>
<g id="a_Node000012"><a xlink:href="game_8hpp.html" target="_top" xlink:title=" ">
<polygon fill="white" stroke="#666666" points="221.12,-251.5 152.62,-251.5 152.62,-230 221.12,-230 221.12,-251.5"/>
<text text-anchor="middle" x="186.88" y="-236.1" font-family="Helvetica,sans-Serif" font-size="12.00">game.hpp</text>
</a>
</g>
</g>
<!-- Node10&#45;&gt;Node12 -->
<g id="edge17_Node000010_Node000012" class="edge">
<title>Node10&#45;&gt;Node12</title>
<g id="a_edge17_Node000010_Node000012"><a xlink:title=" ">
<path fill="none" stroke="#63b8ff" d="M186.88,-287.07C186.88,-280.42 186.88,-271.48 186.88,-263.3"/>
<polygon fill="#63b8ff" stroke="#63b8ff" points="190.38,-263.38 186.88,-253.38 183.38,-263.38 190.38,-263.38"/>
</a>
</g>
</g>
<!-- Node12&#45;&gt;Node4 -->
<g id="edge18_Node000012_Node000004" class="edge">
<title>Node12&#45;&gt;Node4</title>
<g id="a_edge18_Node000012_Node000004"><a xlink:title=" ">
<path fill="none" stroke="#63b8ff" d="M184.41,-229.59C177.73,-199.33 162.53,-108.75 205.88,-57.5 222.71,-37.59 293.95,-23.49 337.13,-16.58"/>
<polygon fill="#63b8ff" stroke="#63b8ff" points="337.39,-20.08 346.74,-15.09 336.32,-13.16 337.39,-20.08"/>
</a>
</g>
</g>
<!-- Node12&#45;&gt;Node5 -->
<g id="edge20_Node000012_Node000005" class="edge">
<title>Node12&#45;&gt;Node5</title>
<g id="a_edge20_Node000012_Node000005"><a xlink:title=" ">
<path fill="none" stroke="#63b8ff" d="M216.59,-229.57C242.31,-220.76 279.76,-207.93 308.25,-198.17"/>
<polygon fill="#63b8ff" stroke="#63b8ff" points="309.32,-201.5 317.64,-194.95 307.05,-194.88 309.32,-201.5"/>
</a>
</g>
</g>
<!-- Node12&#45;&gt;Node6 -->
<g id="edge19_Node000012_Node000006" class="edge">
<title>Node12&#45;&gt;Node6</title>
<g id="a_edge19_Node000012_Node000006"><a xlink:title=" ">
<path fill="none" stroke="#63b8ff" d="M189.97,-229.6C198.3,-202.29 221.31,-126.85 232.54,-90.02"/>
<polygon fill="#63b8ff" stroke="#63b8ff" points="235.85,-91.17 235.42,-80.59 229.15,-89.13 235.85,-91.17"/>
</a>
</g>
</g>
</g>
</svg>
