<?xml version="1.0" encoding="UTF-8" standalone="no"?>
<!DOCTYPE svg PUBLIC "-//W3C//DTD SVG 1.1//EN"
 "http://www.w3.org/Graphics/SVG/1.1/DTD/svg11.dtd">
<!-- Generated by graphviz version 11.0.0 (20240428.1522)
 -->
<!-- Title: src/main.cpp Pages: 1 -->
<svg width="487pt" height="364pt"
 viewBox="0.00 0.00 486.50 364.00" xmlns="http://www.w3.org/2000/svg" xmlns:xlink="http://www.w3.org/1999/xlink">
<g id="graph0" class="graph" transform="scale(1 1) rotate(0) translate(4 360)">
<title>src/main.cpp</title>
<!-- Node1 -->
<g id="Node000001" class="node">
<title>Node1</title>
<g id="a_Node000001"><a xlink:title=" ">
<polygon fill="#999999" stroke="#666666" points="357.88,-356 285.62,-356 285.62,-336 357.88,-336 357.88,-356"/>
<text text-anchor="middle" x="321.75" y="-342.5" font-family="Helvetica,sans-Serif" font-size="10.00">src/main.cpp</text>
</a>
</g>
</g>
<!-- Node2 -->
<g id="Node000002" class="node">
<title>Node2</title>
<g id="a_Node000002"><a xlink:title=" ">
<polygon fill="#e0e0e0" stroke="#999999" points="53.5,-244 0,-244 0,-224 53.5,-224 53.5,-244"/>
<text text-anchor="middle" x="26.75" y="-230.5" font-family="Helvetica,sans-Serif" font-size="10.00">iostream</text>
</a>
</g>
</g>
<!-- Node1&#45;&gt;Node2 -->
<g id="edge1_Node000001_Node000002" class="edge">
<title>Node1&#45;&gt;Node2</title>
<g id="a_edge1_Node000001_Node000002"><a xlink:title=" ">
<path fill="none" stroke="#63b8ff" d="M285.37,-339.74C246.72,-333.37 184.34,-320.82 133.75,-300 102.31,-287.06 69.35,-265.67 48.46,-250.98"/>
<polygon fill="#63b8ff" stroke="#63b8ff" points="50.63,-248.24 40.46,-245.26 46.56,-253.93 50.63,-248.24"/>
</a>
</g>
</g>
<!-- Node3 -->
<g id="Node000003" class="node">
<title>Node3</title>
<g id="a_Node000003"><a xlink:title=" ">
<polygon fill="#e0e0e0" stroke="#999999" points="478.5,-300 431,-300 431,-280 478.5,-280 478.5,-300"/>
<text text-anchor="middle" x="454.75" y="-286.5" font-family="Helvetica,sans-Serif" font-size="10.00">stdlib.h</text>
</a>
</g>
</g>
<!-- Node1&#45;&gt;Node3 -->
<g id="edge2_Node000001_Node000003" class="edge">
<title>Node1&#45;&gt;Node3</title>
<g id="a_edge2_Node000001_Node000003"><a xlink:title=" ">
<path fill="none" stroke="#63b8ff" d="M344.92,-335.59C365.96,-327.05 397.25,-314.35 421.05,-304.68"/>
<polygon fill="#63b8ff" stroke="#63b8ff" points="422.05,-308.05 430,-301.05 419.42,-301.57 422.05,-308.05"/>
</a>
</g>
</g>
<!-- Node4 -->
<g id="Node000004" class="node">
<title>Node4</title>
<g id="a_Node000004"><a xlink:title=" ">
<polygon fill="#e0e0e0" stroke="#999999" points="348.75,-20 308.75,-20 308.75,0 348.75,0 348.75,-20"/>
<text text-anchor="middle" x="328.75" y="-6.5" font-family="Helvetica,sans-Serif" font-size="10.00">string</text>
</a>
</g>
</g>
<!-- Node1&#45;&gt;Node4 -->
<g id="edge3_Node000001_Node000004" class="edge">
<title>Node1&#45;&gt;Node4</title>
<g id="a_edge3_Node000001_Node000004"><a xlink:title=" ">
<path fill="none" stroke="#63b8ff" d="M335.49,-335.55C358.6,-318.42 402.75,-279.82 402.75,-235 402.75,-235 402.75,-235 402.75,-121 402.75,-82.74 371.54,-47.78 349.66,-27.97"/>
<polygon fill="#63b8ff" stroke="#63b8ff" points="351.96,-25.34 342.11,-21.44 347.38,-30.63 351.96,-25.34"/>
</a>
</g>
</g>
<!-- Node5 -->
<g id="Node000005" class="node">
<title>Node5</title>
<g id="a_Node000005"><a xlink:href="players_management_8hpp.html" target="_top" xlink:title=" ">
<polygon fill="white" stroke="#666666" points="375,-188 252.5,-188 252.5,-168 375,-168 375,-188"/>
<text text-anchor="middle" x="313.75" y="-174.5" font-family="Helvetica,sans-Serif" font-size="10.00">playersManagement.hpp</text>
</a>
</g>
</g>
<!-- Node1&#45;&gt;Node5 -->
<g id="edge4_Node000001_Node000005" class="edge">
<title>Node1&#45;&gt;Node5</title>
<g id="a_edge4_Node000001_Node000005"><a xlink:title=" ">
<path fill="none" stroke="#63b8ff" d="M326.71,-335.67C331.13,-326.78 337.27,-312.89 339.75,-300 346.63,-264.26 333.02,-222.84 323.03,-198.91"/>
<polygon fill="#63b8ff" stroke="#63b8ff" points="326.24,-197.51 319,-189.77 319.83,-200.33 326.24,-197.51"/>
</a>
</g>
</g>
<!-- Node9 -->
<g id="Node000009" class="node">
<title>Node9</title>
<g id="a_Node000009"><a xlink:href="players_menu_8hpp.html" target="_top" xlink:title=" ">
<polygon fill="white" stroke="#666666" points="330.88,-300 240.62,-300 240.62,-280 330.88,-280 330.88,-300"/>
<text text-anchor="middle" x="285.75" y="-286.5" font-family="Helvetica,sans-Serif" font-size="10.00">playersMenu.hpp</text>
</a>
</g>
</g>
<!-- Node1&#45;&gt;Node9 -->
<g id="edge11_Node000001_Node000009" class="edge">
<title>Node1&#45;&gt;Node9</title>
<g id="a_edge11_Node000001_Node000009"><a xlink:title=" ">
<path fill="none" stroke="#63b8ff" d="M315.48,-335.59C310.73,-328.47 304.05,-318.45 298.23,-309.72"/>
<polygon fill="#63b8ff" stroke="#63b8ff" points="301.25,-307.94 292.79,-301.56 295.42,-311.82 301.25,-307.94"/>
</a>
</g>
</g>
<!-- Node10 -->
<g id="Node000010" class="node">
<title>Node10</title>
<g id="a_Node000010"><a xlink:href="lig4_8hpp.html" target="_top" xlink:title=" ">
<polygon fill="white" stroke="#666666" points="192.62,-300 142.88,-300 142.88,-280 192.62,-280 192.62,-300"/>
<text text-anchor="middle" x="167.75" y="-286.5" font-family="Helvetica,sans-Serif" font-size="10.00">lig4.hpp</text>
</a>
</g>
</g>
<!-- Node1&#45;&gt;Node10 -->
<g id="edge13_Node000001_Node000010" class="edge">
<title>Node1&#45;&gt;Node10</title>
<g id="a_edge13_Node000001_Node000010"><a xlink:title=" ">
<path fill="none" stroke="#63b8ff" d="M294.93,-335.59C269.59,-326.71 231.42,-313.33 203.51,-303.54"/>
<polygon fill="#63b8ff" stroke="#63b8ff" points="205.01,-300.36 194.42,-300.35 202.7,-306.96 205.01,-300.36"/>
</a>
</g>
</g>
<!-- Node6 -->
<g id="Node000006" class="node">
<title>Node6</title>
<g id="a_Node000006"><a xlink:title=" ">
<polygon fill="#e0e0e0" stroke="#999999" points="231.5,-76 190,-76 190,-56 231.5,-56 231.5,-76"/>
<text text-anchor="middle" x="210.75" y="-62.5" font-family="Helvetica,sans-Serif" font-size="10.00">vector</text>
</a>
</g>
</g>
<!-- Node5&#45;&gt;Node6 -->
<g id="edge5_Node000005_Node000006" class="edge">
<title>Node5&#45;&gt;Node6</title>
<g id="a_edge5_Node000005_Node000006"><a xlink:title=" ">
<path fill="none" stroke="#63b8ff" d="M304.97,-167.62C287.79,-149.27 249.49,-108.37 227.37,-84.75"/>
<polygon fill="#63b8ff" stroke="#63b8ff" points="229.93,-82.37 220.54,-77.46 224.82,-87.15 229.93,-82.37"/>
</a>
</g>
</g>
<!-- Node7 -->
<g id="Node000007" class="node">
<title>Node7</title>
<g id="a_Node000007"><a xlink:href="player_8hpp.html" target="_top" xlink:title=" ">
<polygon fill="white" stroke="#666666" points="352.25,-132 291.25,-132 291.25,-112 352.25,-112 352.25,-132"/>
<text text-anchor="middle" x="321.75" y="-118.5" font-family="Helvetica,sans-Serif" font-size="10.00">player.hpp</text>
</a>
</g>
</g>
<!-- Node5&#45;&gt;Node7 -->
<g id="edge6_Node000005_Node000007" class="edge">
<title>Node5&#45;&gt;Node7</title>
<g id="a_edge6_Node000005_Node000007"><a xlink:title=" ">
<path fill="none" stroke="#63b8ff" d="M315.14,-167.59C316.13,-160.93 317.49,-151.75 318.72,-143.44"/>
<polygon fill="#63b8ff" stroke="#63b8ff" points="322.15,-144.2 320.15,-133.8 315.22,-143.17 322.15,-144.2"/>
</a>
</g>
</g>
<!-- Node7&#45;&gt;Node4 -->
<g id="edge7_Node000007_Node000004" class="edge">
<title>Node7&#45;&gt;Node4</title>
<g id="a_edge7_Node000007_Node000004"><a xlink:title=" ">
<path fill="none" stroke="#63b8ff" d="M328.57,-111.56C334.43,-102.83 342.44,-89.23 345.75,-76 349.6,-60.6 344.55,-43.2 338.97,-30.28"/>
<polygon fill="#63b8ff" stroke="#63b8ff" points="342.29,-29.1 334.81,-21.61 335.98,-32.13 342.29,-29.1"/>
</a>
</g>
</g>
<!-- Node7&#45;&gt;Node6 -->
<g id="edge8_Node000007_Node000006" class="edge">
<title>Node7&#45;&gt;Node6</title>
<g id="a_edge8_Node000007_Node000006"><a xlink:title=" ">
<path fill="none" stroke="#63b8ff" d="M302.42,-111.59C285.33,-103.28 260.15,-91.03 240.5,-81.47"/>
<polygon fill="#63b8ff" stroke="#63b8ff" points="242.12,-78.37 231.6,-77.14 239.06,-84.66 242.12,-78.37"/>
</a>
</g>
</g>
<!-- Node8 -->
<g id="Node000008" class="node">
<title>Node8</title>
<g id="a_Node000008"><a xlink:href="game_status_8hpp.html" target="_top" xlink:title=" ">
<polygon fill="white" stroke="#666666" points="336.38,-76 249.12,-76 249.12,-56 336.38,-56 336.38,-76"/>
<text text-anchor="middle" x="292.75" y="-62.5" font-family="Helvetica,sans-Serif" font-size="10.00">gameStatus.hpp</text>
</a>
</g>
</g>
<!-- Node7&#45;&gt;Node8 -->
<g id="edge9_Node000007_Node000008" class="edge">
<title>Node7&#45;&gt;Node8</title>
<g id="a_edge9_Node000007_Node000008"><a xlink:title=" ">
<path fill="none" stroke="#63b8ff" d="M316.7,-111.59C312.96,-104.63 307.73,-94.89 303.11,-86.29"/>
<polygon fill="#63b8ff" stroke="#63b8ff" points="306.27,-84.79 298.46,-77.63 300.11,-88.1 306.27,-84.79"/>
</a>
</g>
</g>
<!-- Node8&#45;&gt;Node4 -->
<g id="edge10_Node000008_Node000004" class="edge">
<title>Node8&#45;&gt;Node4</title>
<g id="a_edge10_Node000008_Node000004"><a xlink:title=" ">
<path fill="none" stroke="#63b8ff" d="M299.02,-55.59C303.77,-48.47 310.45,-38.45 316.27,-29.72"/>
<polygon fill="#63b8ff" stroke="#63b8ff" points="319.08,-31.82 321.71,-21.56 313.25,-27.94 319.08,-31.82"/>
</a>
</g>
</g>
<!-- Node9&#45;&gt;Node5 -->
<g id="edge12_Node000009_Node000005" class="edge">
<title>Node9&#45;&gt;Node5</title>
<g id="a_edge12_Node000009_Node000005"><a xlink:title=" ">
<path fill="none" stroke="#63b8ff" d="M288.14,-279.62C292.64,-261.92 302.49,-223.24 308.58,-199.32"/>
<polygon fill="#63b8ff" stroke="#63b8ff" points="311.92,-200.38 311,-189.82 305.14,-198.65 311.92,-200.38"/>
</a>
</g>
</g>
<!-- Node10&#45;&gt;Node2 -->
<g id="edge15_Node000010_Node000002" class="edge">
<title>Node10&#45;&gt;Node2</title>
<g id="a_edge15_Node000010_Node000002"><a xlink:title=" ">
<path fill="none" stroke="#63b8ff" d="M143.19,-279.59C120.78,-271.01 87.41,-258.23 62.13,-248.55"/>
<polygon fill="#63b8ff" stroke="#63b8ff" points="63.51,-245.33 52.92,-245.02 61,-251.87 63.51,-245.33"/>
</a>
</g>
</g>
<!-- Node10&#45;&gt;Node6 -->
<g id="edge16_Node000010_Node000006" class="edge">
<title>Node10&#45;&gt;Node6</title>
<g id="a_edge16_Node000010_Node000006"><a xlink:title=" ">
<path fill="none" stroke="#63b8ff" d="M179.03,-279.59C188.08,-271.28 200.16,-258.28 205.75,-244 226.61,-190.69 219.77,-121.29 214.49,-87.41"/>
<polygon fill="#63b8ff" stroke="#63b8ff" points="217.98,-87.04 212.85,-77.76 211.07,-88.2 217.98,-87.04"/>
</a>
</g>
</g>
<!-- Node11 -->
<g id="Node000011" class="node">
<title>Node11</title>
<g id="a_Node000011"><a xlink:title=" ">
<polygon fill="#e0e0e0" stroke="#999999" points="119.88,-244 71.62,-244 71.62,-224 119.88,-224 119.88,-244"/>
<text text-anchor="middle" x="95.75" y="-230.5" font-family="Helvetica,sans-Serif" font-size="10.00">fstream</text>
</a>
</g>
</g>
<!-- Node10&#45;&gt;Node11 -->
<g id="edge14_Node000010_Node000011" class="edge">
<title>Node10&#45;&gt;Node11</title>
<g id="a_edge14_Node000010_Node000011"><a xlink:title=" ">
<path fill="none" stroke="#63b8ff" d="M155.21,-279.59C144.78,-271.77 129.7,-260.46 117.34,-251.19"/>
<polygon fill="#63b8ff" stroke="#63b8ff" points="119.46,-248.41 109.36,-245.21 115.26,-254.01 119.46,-248.41"/>
</a>
</g>
</g>
<!-- Node12 -->
<g id="Node000012" class="node">
<title>Node12</title>
<g id="a_Node000012"><a xlink:href="game_8hpp.html" target="_top" xlink:title=" ">
<polygon fill="white" stroke="#666666" points="197.12,-244 138.38,-244 138.38,-224 197.12,-224 197.12,-244"/>
<text text-anchor="middle" x="167.75" y="-230.5" font-family="Helvetica,sans-Serif" font-size="10.00">game.hpp</text>
</a>
</g>
</g>
<!-- Node10&#45;&gt;Node12 -->
<g id="edge17_Node000010_Node000012" class="edge">
<title>Node10&#45;&gt;Node12</title>
<g id="a_edge17_Node000010_Node000012"><a xlink:title=" ">
<path fill="none" stroke="#63b8ff" d="M167.75,-279.59C167.75,-273.01 167.75,-263.96 167.75,-255.73"/>
<polygon fill="#63b8ff" stroke="#63b8ff" points="171.25,-255.81 167.75,-245.81 164.25,-255.81 171.25,-255.81"/>
</a>
</g>
</g>
<!-- Node12&#45;&gt;Node4 -->
<g id="edge18_Node000012_Node000004" class="edge">
<title>Node12&#45;&gt;Node4</title>
<g id="a_edge18_Node000012_Node000004"><a xlink:title=" ">
<path fill="none" stroke="#63b8ff" d="M165.15,-223.63C157.81,-194.92 139.96,-107.02 180.75,-56 208.58,-21.19 262.51,-12.6 297.02,-10.87"/>
<polygon fill="#63b8ff" stroke="#63b8ff" points="296.94,-14.37 306.82,-10.55 296.72,-7.37 296.94,-14.37"/>
</a>
</g>
</g>
<!-- Node12&#45;&gt;Node5 -->
<g id="edge20_Node000012_Node000005" class="edge">
<title>Node12&#45;&gt;Node5</title>
<g id="a_edge20_Node000012_Node000005"><a xlink:title=" ">
<path fill="none" stroke="#63b8ff" d="M193.18,-223.59C216.49,-214.97 251.25,-202.12 277.47,-192.42"/>
<polygon fill="#63b8ff" stroke="#63b8ff" points="278.54,-195.76 286.7,-189 276.11,-189.19 278.54,-195.76"/>
</a>
</g>
</g>
<!-- Node12&#45;&gt;Node6 -->
<g id="edge19_Node000012_Node000006" class="edge">
<title>Node12&#45;&gt;Node6</title>
<g id="a_edge19_Node000012_Node000006"><a xlink:title=" ">
<path fill="none" stroke="#63b8ff" d="M170.19,-223.6C176.96,-197.46 196.12,-123.48 205.48,-87.36"/>
<polygon fill="#63b8ff" stroke="#63b8ff" points="208.84,-88.32 207.96,-77.76 202.07,-86.57 208.84,-88.32"/>
</a>
</g>
</g>
</g>
</svg>
