<?xml version="1.0" encoding="UTF-8" standalone="no"?>
<!DOCTYPE svg PUBLIC "-//W3C//DTD SVG 1.1//EN"
 "http://www.w3.org/Graphics/SVG/1.1/DTD/svg11.dtd">
<!-- Generated by graphviz version 11.0.0 (20240428.1522)
 -->
<!-- Title: include/playersManagement.hpp Pages: 1 -->
<svg width="259pt" height="202pt"
 viewBox="0.00 0.00 258.75 202.00" xmlns="http://www.w3.org/2000/svg" xmlns:xlink="http://www.w3.org/1999/xlink">
<g id="graph0" class="graph" transform="scale(1 1) rotate(0) translate(4 198)">
<title>include/playersManagement.hpp</title>
<!-- Node1 -->
<g id="Node000001" class="node">
<title>Node1</title>
<g id="a_Node000001"><a xlink:title=" ">
<polygon fill="#999999" stroke="#666666" points="184,-194 0,-194 0,-172.5 184,-172.5 184,-194"/>
<text text-anchor="middle" x="92" y="-178.6" font-family="Helvetica,sans-Serif" font-size="12.00">include/playersManagement.hpp</text>
</a>
</g>
</g>
<!-- Node2 -->
<g id="Node000002" class="node">
<title>Node2</title>
<g id="a_Node000002"><a xlink:title=" ">
<polygon fill="#e0e0e0" stroke="#999999" points="89.75,-79 42.25,-79 42.25,-57.5 89.75,-57.5 89.75,-79"/>
<text text-anchor="middle" x="66" y="-63.6" font-family="Helvetica,sans-Serif" font-size="12.00">vector</text>
</a>
</g>
</g>
<!-- Node1&#45;&gt;Node2 -->
<g id="edge1_Node000001_Node000002" class="edge">
<title>Node1&#45;&gt;Node2</title>
<g id="a_edge1_Node000001_Node000002"><a xlink:title=" ">
<path fill="none" stroke="#63b8ff" d="M89.18,-172.11C86.65,-162.87 82.89,-148.81 80,-136.5 76.4,-121.19 72.8,-103.81 70.14,-90.56"/>
<polygon fill="#63b8ff" stroke="#63b8ff" points="73.59,-89.93 68.22,-80.8 66.72,-91.28 73.59,-89.93"/>
</a>
</g>
</g>
<!-- Node3 -->
<g id="Node000003" class="node">
<title>Node3</title>
<g id="a_Node000003"><a xlink:href="player_8hpp.html" target="_top" xlink:title=" ">
<polygon fill="white" stroke="#666666" points="159,-136.5 89,-136.5 89,-115 159,-115 159,-136.5"/>
<text text-anchor="middle" x="124" y="-121.1" font-family="Helvetica,sans-Serif" font-size="12.00">player.hpp</text>
</a>
</g>
</g>
<!-- Node1&#45;&gt;Node3 -->
<g id="edge2_Node000001_Node000003" class="edge">
<title>Node1&#45;&gt;Node3</title>
<g id="a_edge2_Node000001_Node000003"><a xlink:title=" ">
<path fill="none" stroke="#63b8ff" d="M97.87,-172.07C101.97,-164.95 107.59,-155.21 112.56,-146.58"/>
<polygon fill="#63b8ff" stroke="#63b8ff" points="115.45,-148.59 117.41,-138.18 109.38,-145.09 115.45,-148.59"/>
</a>
</g>
</g>
<!-- Node3&#45;&gt;Node2 -->
<g id="edge4_Node000003_Node000002" class="edge">
<title>Node3&#45;&gt;Node2</title>
<g id="a_edge4_Node000003_Node000002"><a xlink:title=" ">
<path fill="none" stroke="#63b8ff" d="M113.36,-114.57C105.35,-106.9 94.16,-96.2 84.67,-87.11"/>
<polygon fill="#63b8ff" stroke="#63b8ff" points="87.31,-84.8 77.66,-80.41 82.47,-89.85 87.31,-84.8"/>
</a>
</g>
</g>
<!-- Node4 -->
<g id="Node000004" class="node">
<title>Node4</title>
<g id="a_Node000004"><a xlink:title=" ">
<polygon fill="#e0e0e0" stroke="#999999" points="182.25,-21.5 137.75,-21.5 137.75,0 182.25,0 182.25,-21.5"/>
<text text-anchor="middle" x="160" y="-6.1" font-family="Helvetica,sans-Serif" font-size="12.00">string</text>
</a>
</g>
</g>
<!-- Node3&#45;&gt;Node4 -->
<g id="edge3_Node000003_Node000004" class="edge">
<title>Node3&#45;&gt;Node4</title>
<g id="a_edge3_Node000003_Node000004"><a xlink:title=" ">
<path fill="none" stroke="#63b8ff" d="M125.83,-114.57C128.36,-101.25 133.37,-77.3 140,-57.5 142.85,-48.99 146.66,-39.89 150.19,-32.06"/>
<polygon fill="#63b8ff" stroke="#63b8ff" points="153.32,-33.63 154.38,-23.09 146.98,-30.67 153.32,-33.63"/>
</a>
</g>
</g>
<!-- Node5 -->
<g id="Node000005" class="node">
<title>Node5</title>
<g id="a_Node000005"><a xlink:href="game_status_8hpp.html" target="_top" xlink:title=" ">
<polygon fill="white" stroke="#666666" points="250.75,-79 149.25,-79 149.25,-57.5 250.75,-57.5 250.75,-79"/>
<text text-anchor="middle" x="200" y="-63.6" font-family="Helvetica,sans-Serif" font-size="12.00">gameStatus.hpp</text>
</a>
</g>
</g>
<!-- Node3&#45;&gt;Node5 -->
<g id="edge5_Node000003_Node000005" class="edge">
<title>Node3&#45;&gt;Node5</title>
<g id="a_edge5_Node000003_Node000005"><a xlink:title=" ">
<path fill="none" stroke="#63b8ff" d="M137.94,-114.57C148.87,-106.59 164.3,-95.32 177.05,-86.01"/>
<polygon fill="#63b8ff" stroke="#63b8ff" points="178.91,-88.98 184.93,-80.26 174.79,-83.33 178.91,-88.98"/>
</a>
</g>
</g>
<!-- Node5&#45;&gt;Node4 -->
<g id="edge6_Node000005_Node000004" class="edge">
<title>Node5&#45;&gt;Node4</title>
<g id="a_edge6_Node000005_Node000004"><a xlink:title=" ">
<path fill="none" stroke="#63b8ff" d="M192.66,-57.07C187.42,-49.79 180.2,-39.78 173.89,-31.02"/>
<polygon fill="#63b8ff" stroke="#63b8ff" points="176.86,-29.16 168.18,-23.09 171.18,-33.25 176.86,-29.16"/>
</a>
</g>
</g>
</g>
</svg>
