<?xml version="1.0" encoding="UTF-8" standalone="no"?>
<!DOCTYPE svg PUBLIC "-//W3C//DTD SVG 1.1//EN"
 "http://www.w3.org/Graphics/SVG/1.1/DTD/svg11.dtd">
<!-- Generated by graphviz version 11.0.0 (20240428.1522)
 -->
<!-- Title: include/player.hpp Pages: 1 -->
<svg width="181pt" height="140pt"
 viewBox="0.00 0.00 181.00 140.00" xmlns="http://www.w3.org/2000/svg" xmlns:xlink="http://www.w3.org/1999/xlink">
<g id="graph0" class="graph" transform="scale(1 1) rotate(0) translate(4 136)">
<title>include/player.hpp</title>
<!-- Node1 -->
<g id="Node000001" class="node">
<title>Node1</title>
<g id="a_Node000001"><a xlink:title=" ">
<polygon fill="#999999" stroke="#666666" points="94.75,-132 0,-132 0,-112 94.75,-112 94.75,-132"/>
<text text-anchor="middle" x="47.38" y="-118.5" font-family="Helvetica,sans-Serif" font-size="10.00">include/player.hpp</text>
</a>
</g>
</g>
<!-- Node2 -->
<g id="Node000002" class="node">
<title>Node2</title>
<g id="a_Node000002"><a xlink:title=" ">
<polygon fill="#e0e0e0" stroke="#999999" points="83.38,-20 43.38,-20 43.38,0 83.38,0 83.38,-20"/>
<text text-anchor="middle" x="63.38" y="-6.5" font-family="Helvetica,sans-Serif" font-size="10.00">string</text>
</a>
</g>
</g>
<!-- Node1&#45;&gt;Node2 -->
<g id="edge1_Node000001_Node000002" class="edge">
<title>Node1&#45;&gt;Node2</title>
<g id="a_edge1_Node000001_Node000002"><a xlink:title=" ">
<path fill="none" stroke="#63b8ff" d="M37.93,-111.83C26.25,-99.32 8.89,-76.16 17.38,-56 22.07,-44.84 31.03,-35.07 39.81,-27.5"/>
<polygon fill="#63b8ff" stroke="#63b8ff" points="41.85,-30.35 47.51,-21.4 37.5,-24.87 41.85,-30.35"/>
</a>
</g>
</g>
<!-- Node3 -->
<g id="Node000003" class="node">
<title>Node3</title>
<g id="a_Node000003"><a xlink:title=" ">
<polygon fill="#e0e0e0" stroke="#999999" points="68.12,-76 26.62,-76 26.62,-56 68.12,-56 68.12,-76"/>
<text text-anchor="middle" x="47.38" y="-62.5" font-family="Helvetica,sans-Serif" font-size="10.00">vector</text>
</a>
</g>
</g>
<!-- Node1&#45;&gt;Node3 -->
<g id="edge2_Node000001_Node000003" class="edge">
<title>Node1&#45;&gt;Node3</title>
<g id="a_edge2_Node000001_Node000003"><a xlink:title=" ">
<path fill="none" stroke="#63b8ff" d="M47.38,-111.59C47.38,-105.01 47.38,-95.96 47.38,-87.73"/>
<polygon fill="#63b8ff" stroke="#63b8ff" points="50.88,-87.81 47.38,-77.81 43.88,-87.81 50.88,-87.81"/>
</a>
</g>
</g>
<!-- Node4 -->
<g id="Node000004" class="node">
<title>Node4</title>
<g id="a_Node000004"><a xlink:href="game_status_8hpp.html" target="_top" xlink:title=" ">
<polygon fill="white" stroke="#666666" points="173,-76 85.75,-76 85.75,-56 173,-56 173,-76"/>
<text text-anchor="middle" x="129.38" y="-62.5" font-family="Helvetica,sans-Serif" font-size="10.00">gameStatus.hpp</text>
</a>
</g>
</g>
<!-- Node1&#45;&gt;Node4 -->
<g id="edge3_Node000001_Node000004" class="edge">
<title>Node1&#45;&gt;Node4</title>
<g id="a_edge3_Node000001_Node000004"><a xlink:title=" ">
<path fill="none" stroke="#63b8ff" d="M61.66,-111.59C73.81,-103.59 91.51,-91.93 105.77,-82.54"/>
<polygon fill="#63b8ff" stroke="#63b8ff" points="107.29,-85.73 113.72,-77.31 103.44,-79.89 107.29,-85.73"/>
</a>
</g>
</g>
<!-- Node4&#45;&gt;Node2 -->
<g id="edge4_Node000004_Node000002" class="edge">
<title>Node4&#45;&gt;Node2</title>
<g id="a_edge4_Node000004_Node000002"><a xlink:title=" ">
<path fill="none" stroke="#63b8ff" d="M117.88,-55.59C108.41,-47.85 94.77,-36.69 83.5,-27.47"/>
<polygon fill="#63b8ff" stroke="#63b8ff" points="85.87,-24.88 75.91,-21.26 81.43,-30.3 85.87,-24.88"/>
</a>
</g>
</g>
</g>
</svg>
