<?xml version="1.0" encoding="UTF-8" standalone="no"?>
<!DOCTYPE svg PUBLIC "-//W3C//DTD SVG 1.1//EN"
 "http://www.w3.org/Graphics/SVG/1.1/DTD/svg11.dtd">
<!-- Generated by graphviz version 11.0.0 (20240428.1522)
 -->
<!-- Title: include/player.hpp Pages: 1 -->
<svg width="207pt" height="145pt"
 viewBox="0.00 0.00 206.62 144.50" xmlns="http://www.w3.org/2000/svg" xmlns:xlink="http://www.w3.org/1999/xlink">
<g id="graph0" class="graph" transform="scale(1 1) rotate(0) translate(4 140.5)">
<title>include/player.hpp</title>
<!-- Node1 -->
<g id="Node000001" class="node">
<title>Node1</title>
<g id="a_Node000001"><a xlink:title=" ">
<polygon fill="#999999" stroke="#666666" points="109.75,-136.5 0,-136.5 0,-115 109.75,-115 109.75,-136.5"/>
<text text-anchor="middle" x="54.88" y="-121.1" font-family="Helvetica,sans-Serif" font-size="12.00">include/player.hpp</text>
</a>
</g>
</g>
<!-- Node2 -->
<g id="Node000002" class="node">
<title>Node2</title>
<g id="a_Node000002"><a xlink:title=" ">
<polygon fill="#e0e0e0" stroke="#999999" points="97.12,-21.5 52.62,-21.5 52.62,0 97.12,0 97.12,-21.5"/>
<text text-anchor="middle" x="74.88" y="-6.1" font-family="Helvetica,sans-Serif" font-size="12.00">string</text>
</a>
</g>
</g>
<!-- Node1&#45;&gt;Node2 -->
<g id="edge1_Node000001_Node000002" class="edge">
<title>Node1&#45;&gt;Node2</title>
<g id="a_edge1_Node000001_Node000002"><a xlink:title=" ">
<path fill="none" stroke="#63b8ff" d="M43.99,-114.8C31.09,-101.75 12.46,-78.08 21.88,-57.5 27.24,-45.77 37.26,-35.91 47.16,-28.38"/>
<polygon fill="#63b8ff" stroke="#63b8ff" points="49.02,-31.35 55.21,-22.75 45.01,-25.61 49.02,-31.35"/>
</a>
</g>
</g>
<!-- Node3 -->
<g id="Node000003" class="node">
<title>Node3</title>
<g id="a_Node000003"><a xlink:title=" ">
<polygon fill="#e0e0e0" stroke="#999999" points="78.62,-79 31.12,-79 31.12,-57.5 78.62,-57.5 78.62,-79"/>
<text text-anchor="middle" x="54.88" y="-63.6" font-family="Helvetica,sans-Serif" font-size="12.00">vector</text>
</a>
</g>
</g>
<!-- Node1&#45;&gt;Node3 -->
<g id="edge2_Node000001_Node000003" class="edge">
<title>Node1&#45;&gt;Node3</title>
<g id="a_edge2_Node000001_Node000003"><a xlink:title=" ">
<path fill="none" stroke="#63b8ff" d="M54.88,-114.57C54.88,-107.92 54.88,-98.98 54.88,-90.8"/>
<polygon fill="#63b8ff" stroke="#63b8ff" points="58.38,-90.88 54.88,-80.88 51.38,-90.88 58.38,-90.88"/>
</a>
</g>
</g>
<!-- Node4 -->
<g id="Node000004" class="node">
<title>Node4</title>
<g id="a_Node000004"><a xlink:href="game_status_8hpp.html" target="_top" xlink:title=" ">
<polygon fill="white" stroke="#666666" points="198.62,-79 97.12,-79 97.12,-57.5 198.62,-57.5 198.62,-79"/>
<text text-anchor="middle" x="147.88" y="-63.6" font-family="Helvetica,sans-Serif" font-size="12.00">gameStatus.hpp</text>
</a>
</g>
</g>
<!-- Node1&#45;&gt;Node4 -->
<g id="edge3_Node000001_Node000004" class="edge">
<title>Node1&#45;&gt;Node4</title>
<g id="a_edge3_Node000001_Node000004"><a xlink:title=" ">
<path fill="none" stroke="#63b8ff" d="M71.93,-114.57C85.7,-106.36 105.31,-94.65 121.16,-85.2"/>
<polygon fill="#63b8ff" stroke="#63b8ff" points="122.83,-88.27 129.63,-80.14 119.25,-82.26 122.83,-88.27"/>
</a>
</g>
</g>
<!-- Node4&#45;&gt;Node2 -->
<g id="edge4_Node000004_Node000002" class="edge">
<title>Node4&#45;&gt;Node2</title>
<g id="a_edge4_Node000004_Node000002"><a xlink:title=" ">
<path fill="none" stroke="#63b8ff" d="M134.49,-57.07C124.09,-49.17 109.45,-38.04 97.28,-28.79"/>
<polygon fill="#63b8ff" stroke="#63b8ff" points="99.46,-26.05 89.38,-22.78 95.23,-31.62 99.46,-26.05"/>
</a>
</g>
</g>
</g>
</svg>
