<?xml version="1.0" encoding="UTF-8" standalone="no"?>
<!DOCTYPE svg PUBLIC "-//W3C//DTD SVG 1.1//EN"
 "http://www.w3.org/Graphics/SVG/1.1/DTD/svg11.dtd">
<!-- Generated by graphviz version 11.0.0 (20240428.1522)
 -->
<!-- Title: include/player.hpp Pages: 1 -->
<svg width="592pt" height="260pt"
 viewBox="0.00 0.00 592.00 259.50" xmlns="http://www.w3.org/2000/svg" xmlns:xlink="http://www.w3.org/1999/xlink">
<g id="graph0" class="graph" transform="scale(1 1) rotate(0) translate(4 255.5)">
<title>include/player.hpp</title>
<!-- Node1 -->
<g id="Node000001" class="node">
<title>Node1</title>
<g id="a_Node000001"><a xlink:title=" ">
<polygon fill="#999999" stroke="#666666" points="412.38,-251.5 302.62,-251.5 302.62,-230 412.38,-230 412.38,-251.5"/>
<text text-anchor="middle" x="357.5" y="-236.1" font-family="Helvetica,sans-Serif" font-size="12.00">include/player.hpp</text>
</a>
</g>
</g>
<!-- Node2 -->
<g id="Node000002" class="node">
<title>Node2</title>
<g id="a_Node000002"><a xlink:href="players_management_8hpp.html" target="_top" xlink:title=" ">
<polygon fill="white" stroke="#666666" points="372.5,-194 188.5,-194 188.5,-172.5 372.5,-172.5 372.5,-194"/>
<text text-anchor="middle" x="280.5" y="-178.6" font-family="Helvetica,sans-Serif" font-size="12.00">include/playersManagement.hpp</text>
</a>
</g>
</g>
<!-- Node1&#45;&gt;Node2 -->
<g id="edge1_Node000001_Node000002" class="edge">
<title>Node1&#45;&gt;Node2</title>
<g id="a_edge1_Node000001_Node000002"><a xlink:title=" ">
<path fill="none" stroke="#63b8ff" d="M334.14,-222.91C321.21,-213.6 305.58,-202.33 294.53,-194.37"/>
<polygon fill="#63b8ff" stroke="#63b8ff" points="331.99,-225.68 342.15,-228.69 336.08,-220 331.99,-225.68"/>
</a>
</g>
</g>
<!-- Node11 -->
<g id="Node000011" class="node">
<title>Node11</title>
<g id="a_Node000011"><a xlink:href="player_8cpp.html" target="_top" xlink:title=" ">
<polygon fill="white" stroke="#666666" points="478.88,-194 390.12,-194 390.12,-172.5 478.88,-172.5 478.88,-194"/>
<text text-anchor="middle" x="434.5" y="-178.6" font-family="Helvetica,sans-Serif" font-size="12.00">src/player.cpp</text>
</a>
</g>
</g>
<!-- Node1&#45;&gt;Node11 -->
<g id="edge12_Node000001_Node000011" class="edge">
<title>Node1&#45;&gt;Node11</title>
<g id="a_edge12_Node000001_Node000011"><a xlink:title=" ">
<path fill="none" stroke="#63b8ff" d="M380.86,-222.91C393.79,-213.6 409.42,-202.33 420.47,-194.37"/>
<polygon fill="#63b8ff" stroke="#63b8ff" points="378.92,-220 372.85,-228.69 383.01,-225.68 378.92,-220"/>
</a>
</g>
</g>
<!-- Node3 -->
<g id="Node000003" class="node">
<title>Node3</title>
<g id="a_Node000003"><a xlink:href="game_8hpp.html" target="_top" xlink:title=" ">
<polygon fill="white" stroke="#666666" points="202.62,-136.5 94.38,-136.5 94.38,-115 202.62,-115 202.62,-136.5"/>
<text text-anchor="middle" x="148.5" y="-121.1" font-family="Helvetica,sans-Serif" font-size="12.00">include/game.hpp</text>
</a>
</g>
</g>
<!-- Node2&#45;&gt;Node3 -->
<g id="edge2_Node000002_Node000003" class="edge">
<title>Node2&#45;&gt;Node3</title>
<g id="a_edge2_Node000002_Node000003"><a xlink:title=" ">
<path fill="none" stroke="#63b8ff" d="M245.89,-167.7C222.82,-158 193.07,-145.49 172.56,-136.87"/>
<polygon fill="#63b8ff" stroke="#63b8ff" points="244.32,-170.83 254.89,-171.48 247.03,-164.38 244.32,-170.83"/>
</a>
</g>
</g>
<!-- Node6 -->
<g id="Node000006" class="node">
<title>Node6</title>
<g id="a_Node000006"><a xlink:href="main_8cpp.html" target="_top" xlink:title=" ">
<polygon fill="white" stroke="#666666" points="271.88,-21.5 189.12,-21.5 189.12,0 271.88,0 271.88,-21.5"/>
<text text-anchor="middle" x="230.5" y="-6.1" font-family="Helvetica,sans-Serif" font-size="12.00">src/main.cpp</text>
</a>
</g>
</g>
<!-- Node2&#45;&gt;Node6 -->
<g id="edge10_Node000002_Node000006" class="edge">
<title>Node2&#45;&gt;Node6</title>
<g id="a_edge10_Node000002_Node000006"><a xlink:title=" ">
<path fill="none" stroke="#63b8ff" d="M264.78,-163.17C259.1,-155.35 253.19,-145.92 249.5,-136.5 233.68,-96.11 230.97,-43.57 230.55,-21.84"/>
<polygon fill="#63b8ff" stroke="#63b8ff" points="261.86,-165.12 270.73,-170.91 267.41,-160.85 261.86,-165.12"/>
</a>
</g>
</g>
<!-- Node8 -->
<g id="Node000008" class="node">
<title>Node8</title>
<g id="a_Node000008"><a xlink:href="players_menu_8hpp.html" target="_top" xlink:title=" ">
<polygon fill="white" stroke="#666666" points="402.62,-136.5 258.38,-136.5 258.38,-115 402.62,-115 402.62,-136.5"/>
<text text-anchor="middle" x="330.5" y="-121.1" font-family="Helvetica,sans-Serif" font-size="12.00">include/playersMenu.hpp</text>
</a>
</g>
</g>
<!-- Node2&#45;&gt;Node8 -->
<g id="edge7_Node000002_Node000008" class="edge">
<title>Node2&#45;&gt;Node8</title>
<g id="a_edge7_Node000002_Node000008"><a xlink:title=" ">
<path fill="none" stroke="#63b8ff" d="M297.17,-163.75C305.25,-154.78 314.64,-144.36 321.39,-136.87"/>
<polygon fill="#63b8ff" stroke="#63b8ff" points="294.78,-161.17 290.68,-170.95 299.98,-165.86 294.78,-161.17"/>
</a>
</g>
</g>
<!-- Node10 -->
<g id="Node000010" class="node">
<title>Node10</title>
<g id="a_Node000010"><a xlink:href="players_management_8cpp.html" target="_top" xlink:title=" ">
<polygon fill="white" stroke="#666666" points="584,-136.5 421,-136.5 421,-115 584,-115 584,-136.5"/>
<text text-anchor="middle" x="502.5" y="-121.1" font-family="Helvetica,sans-Serif" font-size="12.00">src/playersManagement.cpp</text>
</a>
</g>
</g>
<!-- Node2&#45;&gt;Node10 -->
<g id="edge11_Node000002_Node000010" class="edge">
<title>Node2&#45;&gt;Node10</title>
<g id="a_edge11_Node000002_Node000010"><a xlink:title=" ">
<path fill="none" stroke="#63b8ff" d="M332.46,-169.26C371.91,-159.4 425.38,-146.03 461.76,-136.93"/>
<polygon fill="#63b8ff" stroke="#63b8ff" points="331.8,-165.82 322.95,-171.64 333.5,-172.61 331.8,-165.82"/>
</a>
</g>
</g>
<!-- Node4 -->
<g id="Node000004" class="node">
<title>Node4</title>
<g id="a_Node000004"><a xlink:href="lig4_8hpp.html" target="_top" xlink:title=" ">
<polygon fill="white" stroke="#666666" points="97,-79 0,-79 0,-57.5 97,-57.5 97,-79"/>
<text text-anchor="middle" x="48.5" y="-63.6" font-family="Helvetica,sans-Serif" font-size="12.00">include/lig4.hpp</text>
</a>
</g>
</g>
<!-- Node3&#45;&gt;Node4 -->
<g id="edge3_Node000003_Node000004" class="edge">
<title>Node3&#45;&gt;Node4</title>
<g id="a_edge3_Node000003_Node000004"><a xlink:title=" ">
<path fill="none" stroke="#63b8ff" d="M120.12,-109C102.98,-99.49 81.63,-87.64 66.73,-79.37"/>
<polygon fill="#63b8ff" stroke="#63b8ff" points="118.39,-112.04 128.84,-113.84 121.79,-105.92 118.39,-112.04"/>
</a>
</g>
</g>
<!-- Node7 -->
<g id="Node000007" class="node">
<title>Node7</title>
<g id="a_Node000007"><a xlink:href="game_8cpp.html" target="_top" xlink:title=" ">
<polygon fill="white" stroke="#666666" points="202.12,-79 114.88,-79 114.88,-57.5 202.12,-57.5 202.12,-79"/>
<text text-anchor="middle" x="158.5" y="-63.6" font-family="Helvetica,sans-Serif" font-size="12.00">src/game.cpp</text>
</a>
</g>
</g>
<!-- Node3&#45;&gt;Node7 -->
<g id="edge6_Node000003_Node000007" class="edge">
<title>Node3&#45;&gt;Node7</title>
<g id="a_edge6_Node000003_Node000007"><a xlink:title=" ">
<path fill="none" stroke="#63b8ff" d="M152.35,-103.41C153.83,-95.14 155.47,-86.08 156.68,-79.37"/>
<polygon fill="#63b8ff" stroke="#63b8ff" points="148.93,-102.62 150.6,-113.08 155.82,-103.86 148.93,-102.62"/>
</a>
</g>
</g>
<!-- Node5 -->
<g id="Node000005" class="node">
<title>Node5</title>
<g id="a_Node000005"><a xlink:href="lig4_8cpp.html" target="_top" xlink:title=" ">
<polygon fill="white" stroke="#666666" points="86.5,-21.5 10.5,-21.5 10.5,0 86.5,0 86.5,-21.5"/>
<text text-anchor="middle" x="48.5" y="-6.1" font-family="Helvetica,sans-Serif" font-size="12.00">src/lig4.cpp</text>
</a>
</g>
</g>
<!-- Node4&#45;&gt;Node5 -->
<g id="edge4_Node000004_Node000005" class="edge">
<title>Node4&#45;&gt;Node5</title>
<g id="a_edge4_Node000004_Node000005"><a xlink:title=" ">
<path fill="none" stroke="#63b8ff" d="M48.5,-45.62C48.5,-37.43 48.5,-28.5 48.5,-21.87"/>
<polygon fill="#63b8ff" stroke="#63b8ff" points="45,-45.56 48.5,-55.56 52,-45.56 45,-45.56"/>
</a>
</g>
</g>
<!-- Node4&#45;&gt;Node6 -->
<g id="edge5_Node000004_Node000006" class="edge">
<title>Node4&#45;&gt;Node6</title>
<g id="a_edge5_Node000004_Node000006"><a xlink:title=" ">
<path fill="none" stroke="#63b8ff" d="M92.76,-53.75C124.9,-43.95 167.71,-30.9 197.02,-21.96"/>
<polygon fill="#63b8ff" stroke="#63b8ff" points="91.87,-50.36 83.33,-56.63 93.92,-57.06 91.87,-50.36"/>
</a>
</g>
</g>
<!-- Node8&#45;&gt;Node6 -->
<g id="edge8_Node000008_Node000006" class="edge">
<title>Node8&#45;&gt;Node6</title>
<g id="a_edge8_Node000008_Node000006"><a xlink:title=" ">
<path fill="none" stroke="#63b8ff" d="M312.94,-106.49C305.06,-98.2 295.71,-88.2 287.5,-79 269.77,-59.13 249.81,-35.21 238.84,-21.91"/>
<polygon fill="#63b8ff" stroke="#63b8ff" points="310.3,-108.8 319.74,-113.62 315.36,-103.97 310.3,-108.8"/>
</a>
</g>
</g>
<!-- Node9 -->
<g id="Node000009" class="node">
<title>Node9</title>
<g id="a_Node000009"><a xlink:href="players_menu_8cpp.html" target="_top" xlink:title=" ">
<polygon fill="white" stroke="#666666" points="420.12,-79 296.88,-79 296.88,-57.5 420.12,-57.5 420.12,-79"/>
<text text-anchor="middle" x="358.5" y="-63.6" font-family="Helvetica,sans-Serif" font-size="12.00">src/playersMenu.cpp</text>
</a>
</g>
</g>
<!-- Node8&#45;&gt;Node9 -->
<g id="edge9_Node000008_Node000009" class="edge">
<title>Node8&#45;&gt;Node9</title>
<g id="a_edge9_Node000008_Node000009"><a xlink:title=" ">
<path fill="none" stroke="#63b8ff" d="M340.69,-104.55C345.01,-95.99 349.85,-86.39 353.4,-79.37"/>
<polygon fill="#63b8ff" stroke="#63b8ff" points="337.7,-102.71 336.32,-113.22 343.95,-105.87 337.7,-102.71"/>
</a>
</g>
</g>
</g>
</svg>
