<?xml version="1.0" encoding="UTF-8" standalone="no"?>
<!DOCTYPE svg PUBLIC "-//W3C//DTD SVG 1.1//EN"
 "http://www.w3.org/Graphics/SVG/1.1/DTD/svg11.dtd">
<!-- Generated by graphviz version 11.0.0 (20240428.1522)
 -->
<!-- Title: src/playersMenu.cpp Pages: 1 -->
<svg width="252pt" height="308pt"
 viewBox="0.00 0.00 252.38 308.00" xmlns="http://www.w3.org/2000/svg" xmlns:xlink="http://www.w3.org/1999/xlink">
<g id="graph0" class="graph" transform="scale(1 1) rotate(0) translate(4 304)">
<title>src/playersMenu.cpp</title>
<!-- Node1 -->
<g id="Node000001" class="node">
<title>Node1</title>
<g id="a_Node000001"><a xlink:title=" ">
<polygon fill="#999999" stroke="#666666" points="204.62,-300 97.88,-300 97.88,-280 204.62,-280 204.62,-300"/>
<text text-anchor="middle" x="151.25" y="-286.5" font-family="Helvetica,sans-Serif" font-size="10.00">src/playersMenu.cpp</text>
</a>
</g>
</g>
<!-- Node2 -->
<g id="Node000002" class="node">
<title>Node2</title>
<g id="a_Node000002"><a xlink:href="players_menu_8hpp.html" target="_top" xlink:title=" ">
<polygon fill="white" stroke="#666666" points="106.38,-244 16.12,-244 16.12,-224 106.38,-224 106.38,-244"/>
<text text-anchor="middle" x="61.25" y="-230.5" font-family="Helvetica,sans-Serif" font-size="10.00">playersMenu.hpp</text>
</a>
</g>
</g>
<!-- Node1&#45;&gt;Node2 -->
<g id="edge1_Node000001_Node000002" class="edge">
<title>Node1&#45;&gt;Node2</title>
<g id="a_edge1_Node000001_Node000002"><a xlink:title=" ">
<path fill="none" stroke="#63b8ff" d="M135.57,-279.59C122.11,-271.51 102.43,-259.71 86.71,-250.27"/>
<polygon fill="#63b8ff" stroke="#63b8ff" points="88.72,-247.4 78.35,-245.26 85.12,-253.4 88.72,-247.4"/>
</a>
</g>
</g>
<!-- Node8 -->
<g id="Node000008" class="node">
<title>Node8</title>
<g id="a_Node000008"><a xlink:title=" ">
<polygon fill="#e0e0e0" stroke="#999999" points="178,-244 124.5,-244 124.5,-224 178,-224 178,-244"/>
<text text-anchor="middle" x="151.25" y="-230.5" font-family="Helvetica,sans-Serif" font-size="10.00">iostream</text>
</a>
</g>
</g>
<!-- Node1&#45;&gt;Node8 -->
<g id="edge9_Node000001_Node000008" class="edge">
<title>Node1&#45;&gt;Node8</title>
<g id="a_edge9_Node000001_Node000008"><a xlink:title=" ">
<path fill="none" stroke="#63b8ff" d="M151.25,-279.59C151.25,-273.01 151.25,-263.96 151.25,-255.73"/>
<polygon fill="#63b8ff" stroke="#63b8ff" points="154.75,-255.81 151.25,-245.81 147.75,-255.81 154.75,-255.81"/>
</a>
</g>
</g>
<!-- Node9 -->
<g id="Node000009" class="node">
<title>Node9</title>
<g id="a_Node000009"><a xlink:title=" ">
<polygon fill="#e0e0e0" stroke="#999999" points="244.38,-244 196.12,-244 196.12,-224 244.38,-224 244.38,-244"/>
<text text-anchor="middle" x="220.25" y="-230.5" font-family="Helvetica,sans-Serif" font-size="10.00">fstream</text>
</a>
</g>
</g>
<!-- Node1&#45;&gt;Node9 -->
<g id="edge10_Node000001_Node000009" class="edge">
<title>Node1&#45;&gt;Node9</title>
<g id="a_edge10_Node000001_Node000009"><a xlink:title=" ">
<path fill="none" stroke="#63b8ff" d="M163.27,-279.59C173.26,-271.77 187.71,-260.46 199.56,-251.19"/>
<polygon fill="#63b8ff" stroke="#63b8ff" points="201.46,-254.15 207.18,-245.23 197.14,-248.64 201.46,-254.15"/>
</a>
</g>
</g>
<!-- Node3 -->
<g id="Node000003" class="node">
<title>Node3</title>
<g id="a_Node000003"><a xlink:href="players_management_8hpp.html" target="_top" xlink:title=" ">
<polygon fill="white" stroke="#666666" points="122.5,-188 0,-188 0,-168 122.5,-168 122.5,-188"/>
<text text-anchor="middle" x="61.25" y="-174.5" font-family="Helvetica,sans-Serif" font-size="10.00">playersManagement.hpp</text>
</a>
</g>
</g>
<!-- Node2&#45;&gt;Node3 -->
<g id="edge2_Node000002_Node000003" class="edge">
<title>Node2&#45;&gt;Node3</title>
<g id="a_edge2_Node000002_Node000003"><a xlink:title=" ">
<path fill="none" stroke="#63b8ff" d="M61.25,-223.59C61.25,-217.01 61.25,-207.96 61.25,-199.73"/>
<polygon fill="#63b8ff" stroke="#63b8ff" points="64.75,-199.81 61.25,-189.81 57.75,-199.81 64.75,-199.81"/>
</a>
</g>
</g>
<!-- Node4 -->
<g id="Node000004" class="node">
<title>Node4</title>
<g id="a_Node000004"><a xlink:title=" ">
<polygon fill="#e0e0e0" stroke="#999999" points="58,-76 16.5,-76 16.5,-56 58,-56 58,-76"/>
<text text-anchor="middle" x="37.25" y="-62.5" font-family="Helvetica,sans-Serif" font-size="10.00">vector</text>
</a>
</g>
</g>
<!-- Node3&#45;&gt;Node4 -->
<g id="edge3_Node000003_Node000004" class="edge">
<title>Node3&#45;&gt;Node4</title>
<g id="a_edge3_Node000003_Node000004"><a xlink:title=" ">
<path fill="none" stroke="#63b8ff" d="M59.16,-167.7C57.13,-158.6 53.95,-144.35 51.25,-132 47.99,-117.11 44.37,-100.3 41.63,-87.5"/>
<polygon fill="#63b8ff" stroke="#63b8ff" points="45.06,-86.79 39.54,-77.74 38.21,-88.25 45.06,-86.79"/>
</a>
</g>
</g>
<!-- Node5 -->
<g id="Node000005" class="node">
<title>Node5</title>
<g id="a_Node000005"><a xlink:href="player_8hpp.html" target="_top" xlink:title=" ">
<polygon fill="white" stroke="#666666" points="121.75,-132 60.75,-132 60.75,-112 121.75,-112 121.75,-132"/>
<text text-anchor="middle" x="91.25" y="-118.5" font-family="Helvetica,sans-Serif" font-size="10.00">player.hpp</text>
</a>
</g>
</g>
<!-- Node3&#45;&gt;Node5 -->
<g id="edge4_Node000003_Node000005" class="edge">
<title>Node3&#45;&gt;Node5</title>
<g id="a_edge4_Node000003_Node000005"><a xlink:title=" ">
<path fill="none" stroke="#63b8ff" d="M66.48,-167.59C70.35,-160.63 75.76,-150.89 80.53,-142.29"/>
<polygon fill="#63b8ff" stroke="#63b8ff" points="83.55,-144.06 85.35,-133.62 77.43,-140.66 83.55,-144.06"/>
</a>
</g>
</g>
<!-- Node5&#45;&gt;Node4 -->
<g id="edge6_Node000005_Node000004" class="edge">
<title>Node5&#45;&gt;Node4</title>
<g id="a_edge6_Node000005_Node000004"><a xlink:title=" ">
<path fill="none" stroke="#63b8ff" d="M81.84,-111.59C74.33,-104.08 63.6,-93.35 54.55,-84.3"/>
<polygon fill="#63b8ff" stroke="#63b8ff" points="57.16,-81.96 47.62,-77.37 52.21,-86.91 57.16,-81.96"/>
</a>
</g>
</g>
<!-- Node6 -->
<g id="Node000006" class="node">
<title>Node6</title>
<g id="a_Node000006"><a xlink:title=" ">
<polygon fill="#e0e0e0" stroke="#999999" points="144.25,-20 104.25,-20 104.25,0 144.25,0 144.25,-20"/>
<text text-anchor="middle" x="124.25" y="-6.5" font-family="Helvetica,sans-Serif" font-size="10.00">string</text>
</a>
</g>
</g>
<!-- Node5&#45;&gt;Node6 -->
<g id="edge5_Node000005_Node000006" class="edge">
<title>Node5&#45;&gt;Node6</title>
<g id="a_edge5_Node000005_Node000006"><a xlink:title=" ">
<path fill="none" stroke="#63b8ff" d="M93.18,-111.65C95.89,-98.93 101.18,-75.53 107.25,-56 109.85,-47.63 113.17,-38.56 116.19,-30.78"/>
<polygon fill="#63b8ff" stroke="#63b8ff" points="119.4,-32.19 119.85,-21.6 112.89,-29.6 119.4,-32.19"/>
</a>
</g>
</g>
<!-- Node7 -->
<g id="Node000007" class="node">
<title>Node7</title>
<g id="a_Node000007"><a xlink:href="game_status_8hpp.html" target="_top" xlink:title=" ">
<polygon fill="white" stroke="#666666" points="203.88,-76 116.62,-76 116.62,-56 203.88,-56 203.88,-76"/>
<text text-anchor="middle" x="160.25" y="-62.5" font-family="Helvetica,sans-Serif" font-size="10.00">gameStatus.hpp</text>
</a>
</g>
</g>
<!-- Node5&#45;&gt;Node7 -->
<g id="edge7_Node000005_Node000007" class="edge">
<title>Node5&#45;&gt;Node7</title>
<g id="a_edge7_Node000005_Node000007"><a xlink:title=" ">
<path fill="none" stroke="#63b8ff" d="M103.27,-111.59C113.26,-103.77 127.71,-92.46 139.56,-83.19"/>
<polygon fill="#63b8ff" stroke="#63b8ff" points="141.46,-86.15 147.18,-77.23 137.14,-80.64 141.46,-86.15"/>
</a>
</g>
</g>
<!-- Node7&#45;&gt;Node6 -->
<g id="edge8_Node000007_Node000006" class="edge">
<title>Node7&#45;&gt;Node6</title>
<g id="a_edge8_Node000007_Node000006"><a xlink:title=" ">
<path fill="none" stroke="#63b8ff" d="M153.98,-55.59C149.23,-48.47 142.55,-38.45 136.73,-29.72"/>
<polygon fill="#63b8ff" stroke="#63b8ff" points="139.75,-27.94 131.29,-21.56 133.92,-31.82 139.75,-27.94"/>
</a>
</g>
</g>
</g>
</svg>
