<?xml version="1.0" encoding="UTF-8" standalone="no"?>
<!DOCTYPE svg PUBLIC "-//W3C//DTD SVG 1.1//EN"
 "http://www.w3.org/Graphics/SVG/1.1/DTD/svg11.dtd">
<!-- Generated by graphviz version 11.0.0 (20240428.1522)
 -->
<!-- Title: include/playersManagement.hpp Pages: 1 -->
<svg width="229pt" height="196pt"
 viewBox="0.00 0.00 228.75 196.00" xmlns="http://www.w3.org/2000/svg" xmlns:xlink="http://www.w3.org/1999/xlink">
<g id="graph0" class="graph" transform="scale(1 1) rotate(0) translate(4 192)">
<title>include/playersManagement.hpp</title>
<!-- Node1 -->
<g id="Node000001" class="node">
<title>Node1</title>
<g id="a_Node000001"><a xlink:title=" ">
<polygon fill="#999999" stroke="#666666" points="156.25,-188 0,-188 0,-168 156.25,-168 156.25,-188"/>
<text text-anchor="middle" x="78.12" y="-174.5" font-family="Helvetica,sans-Serif" font-size="10.00">include/playersManagement.hpp</text>
</a>
</g>
</g>
<!-- Node2 -->
<g id="Node000002" class="node">
<title>Node2</title>
<g id="a_Node000002"><a xlink:title=" ">
<polygon fill="#e0e0e0" stroke="#999999" points="74.88,-76 33.38,-76 33.38,-56 74.88,-56 74.88,-76"/>
<text text-anchor="middle" x="54.12" y="-62.5" font-family="Helvetica,sans-Serif" font-size="10.00">vector</text>
</a>
</g>
</g>
<!-- Node1&#45;&gt;Node2 -->
<g id="edge1_Node000001_Node000002" class="edge">
<title>Node1&#45;&gt;Node2</title>
<g id="a_edge1_Node000001_Node000002"><a xlink:title=" ">
<path fill="none" stroke="#63b8ff" d="M76.04,-167.7C74,-158.6 70.83,-144.35 68.12,-132 64.87,-117.11 61.25,-100.3 58.5,-87.5"/>
<polygon fill="#63b8ff" stroke="#63b8ff" points="61.93,-86.79 56.42,-77.74 55.09,-88.25 61.93,-86.79"/>
</a>
</g>
</g>
<!-- Node3 -->
<g id="Node000003" class="node">
<title>Node3</title>
<g id="a_Node000003"><a xlink:href="player_8hpp.html" target="_top" xlink:title=" ">
<polygon fill="white" stroke="#666666" points="138.62,-132 77.62,-132 77.62,-112 138.62,-112 138.62,-132"/>
<text text-anchor="middle" x="108.12" y="-118.5" font-family="Helvetica,sans-Serif" font-size="10.00">player.hpp</text>
</a>
</g>
</g>
<!-- Node1&#45;&gt;Node3 -->
<g id="edge2_Node000001_Node000003" class="edge">
<title>Node1&#45;&gt;Node3</title>
<g id="a_edge2_Node000001_Node000003"><a xlink:title=" ">
<path fill="none" stroke="#63b8ff" d="M83.35,-167.59C87.22,-160.63 92.63,-150.89 97.41,-142.29"/>
<polygon fill="#63b8ff" stroke="#63b8ff" points="100.43,-144.06 102.22,-133.62 94.31,-140.66 100.43,-144.06"/>
</a>
</g>
</g>
<!-- Node3&#45;&gt;Node2 -->
<g id="edge4_Node000003_Node000002" class="edge">
<title>Node3&#45;&gt;Node2</title>
<g id="a_edge4_Node000003_Node000002"><a xlink:title=" ">
<path fill="none" stroke="#63b8ff" d="M98.72,-111.59C91.21,-104.08 80.48,-93.35 71.43,-84.3"/>
<polygon fill="#63b8ff" stroke="#63b8ff" points="74.04,-81.96 64.49,-77.37 69.09,-86.91 74.04,-81.96"/>
</a>
</g>
</g>
<!-- Node4 -->
<g id="Node000004" class="node">
<title>Node4</title>
<g id="a_Node000004"><a xlink:title=" ">
<polygon fill="#e0e0e0" stroke="#999999" points="161.12,-20 121.12,-20 121.12,0 161.12,0 161.12,-20"/>
<text text-anchor="middle" x="141.12" y="-6.5" font-family="Helvetica,sans-Serif" font-size="10.00">string</text>
</a>
</g>
</g>
<!-- Node3&#45;&gt;Node4 -->
<g id="edge3_Node000003_Node000004" class="edge">
<title>Node3&#45;&gt;Node4</title>
<g id="a_edge3_Node000003_Node000004"><a xlink:title=" ">
<path fill="none" stroke="#63b8ff" d="M110.06,-111.65C112.77,-98.93 118.06,-75.53 124.12,-56 126.73,-47.63 130.05,-38.56 133.07,-30.78"/>
<polygon fill="#63b8ff" stroke="#63b8ff" points="136.27,-32.19 136.72,-21.6 129.77,-29.6 136.27,-32.19"/>
</a>
</g>
</g>
<!-- Node5 -->
<g id="Node000005" class="node">
<title>Node5</title>
<g id="a_Node000005"><a xlink:href="game_status_8hpp.html" target="_top" xlink:title=" ">
<polygon fill="white" stroke="#666666" points="220.75,-76 133.5,-76 133.5,-56 220.75,-56 220.75,-76"/>
<text text-anchor="middle" x="177.12" y="-62.5" font-family="Helvetica,sans-Serif" font-size="10.00">gameStatus.hpp</text>
</a>
</g>
</g>
<!-- Node3&#45;&gt;Node5 -->
<g id="edge5_Node000003_Node000005" class="edge">
<title>Node3&#45;&gt;Node5</title>
<g id="a_edge5_Node000003_Node000005"><a xlink:title=" ">
<path fill="none" stroke="#63b8ff" d="M120.14,-111.59C130.14,-103.77 144.59,-92.46 156.43,-83.19"/>
<polygon fill="#63b8ff" stroke="#63b8ff" points="158.33,-86.15 164.05,-77.23 154.02,-80.64 158.33,-86.15"/>
</a>
</g>
</g>
<!-- Node5&#45;&gt;Node4 -->
<g id="edge6_Node000005_Node000004" class="edge">
<title>Node5&#45;&gt;Node4</title>
<g id="a_edge6_Node000005_Node000004"><a xlink:title=" ">
<path fill="none" stroke="#63b8ff" d="M170.85,-55.59C166.11,-48.47 159.43,-38.45 153.6,-29.72"/>
<polygon fill="#63b8ff" stroke="#63b8ff" points="156.62,-27.94 148.16,-21.56 150.8,-31.82 156.62,-27.94"/>
</a>
</g>
</g>
</g>
</svg>
