<?xml version="1.0" encoding="UTF-8" standalone="no"?>
<!DOCTYPE svg PUBLIC "-//W3C//DTD SVG 1.1//EN"
 "http://www.w3.org/Graphics/SVG/1.1/DTD/svg11.dtd">
<!-- Generated by graphviz version 11.0.0 (20240428.1522)
 -->
<!-- Title: include/playersMenu.hpp Pages: 1 -->
<svg width="239pt" height="260pt"
 viewBox="0.00 0.00 238.88 259.50" xmlns="http://www.w3.org/2000/svg" xmlns:xlink="http://www.w3.org/1999/xlink">
<g id="graph0" class="graph" transform="scale(1 1) rotate(0) translate(4 255.5)">
<title>include/playersMenu.hpp</title>
<!-- Node1 -->
<g id="Node000001" class="node">
<title>Node1</title>
<g id="a_Node000001"><a xlink:title=" ">
<polygon fill="#999999" stroke="#666666" points="144.25,-251.5 0,-251.5 0,-230 144.25,-230 144.25,-251.5"/>
<text text-anchor="middle" x="72.12" y="-236.1" font-family="Helvetica,sans-Serif" font-size="12.00">include/playersMenu.hpp</text>
</a>
</g>
</g>
<!-- Node2 -->
<g id="Node000002" class="node">
<title>Node2</title>
<g id="a_Node000002"><a xlink:href="players_management_8hpp.html" target="_top" xlink:title=" ">
<polygon fill="white" stroke="#666666" points="144.25,-194 0,-194 0,-172.5 144.25,-172.5 144.25,-194"/>
<text text-anchor="middle" x="72.12" y="-178.6" font-family="Helvetica,sans-Serif" font-size="12.00">playersManagement.hpp</text>
</a>
</g>
</g>
<!-- Node1&#45;&gt;Node2 -->
<g id="edge1_Node000001_Node000002" class="edge">
<title>Node1&#45;&gt;Node2</title>
<g id="a_edge1_Node000001_Node000002"><a xlink:title=" ">
<path fill="none" stroke="#63b8ff" d="M72.12,-229.57C72.12,-222.92 72.12,-213.98 72.12,-205.8"/>
<polygon fill="#63b8ff" stroke="#63b8ff" points="75.63,-205.88 72.13,-195.88 68.63,-205.88 75.63,-205.88"/>
</a>
</g>
</g>
<!-- Node3 -->
<g id="Node000003" class="node">
<title>Node3</title>
<g id="a_Node000003"><a xlink:title=" ">
<polygon fill="#e0e0e0" stroke="#999999" points="69.88,-79 22.38,-79 22.38,-57.5 69.88,-57.5 69.88,-79"/>
<text text-anchor="middle" x="46.12" y="-63.6" font-family="Helvetica,sans-Serif" font-size="12.00">vector</text>
</a>
</g>
</g>
<!-- Node2&#45;&gt;Node3 -->
<g id="edge2_Node000002_Node000003" class="edge">
<title>Node2&#45;&gt;Node3</title>
<g id="a_edge2_Node000002_Node000003"><a xlink:title=" ">
<path fill="none" stroke="#63b8ff" d="M69.31,-172.11C66.77,-162.87 63.02,-148.81 60.12,-136.5 56.53,-121.19 52.92,-103.81 50.27,-90.56"/>
<polygon fill="#63b8ff" stroke="#63b8ff" points="53.71,-89.93 48.35,-80.8 46.85,-91.28 53.71,-89.93"/>
</a>
</g>
</g>
<!-- Node4 -->
<g id="Node000004" class="node">
<title>Node4</title>
<g id="a_Node000004"><a xlink:href="player_8hpp.html" target="_top" xlink:title=" ">
<polygon fill="white" stroke="#666666" points="139.12,-136.5 69.12,-136.5 69.12,-115 139.12,-115 139.12,-136.5"/>
<text text-anchor="middle" x="104.12" y="-121.1" font-family="Helvetica,sans-Serif" font-size="12.00">player.hpp</text>
</a>
</g>
</g>
<!-- Node2&#45;&gt;Node4 -->
<g id="edge3_Node000002_Node000004" class="edge">
<title>Node2&#45;&gt;Node4</title>
<g id="a_edge3_Node000002_Node000004"><a xlink:title=" ">
<path fill="none" stroke="#63b8ff" d="M77.99,-172.07C82.1,-164.95 87.72,-155.21 92.69,-146.58"/>
<polygon fill="#63b8ff" stroke="#63b8ff" points="95.57,-148.59 97.54,-138.18 89.51,-145.09 95.57,-148.59"/>
</a>
</g>
</g>
<!-- Node4&#45;&gt;Node3 -->
<g id="edge5_Node000004_Node000003" class="edge">
<title>Node4&#45;&gt;Node3</title>
<g id="a_edge5_Node000004_Node000003"><a xlink:title=" ">
<path fill="none" stroke="#63b8ff" d="M93.49,-114.57C85.47,-106.9 74.29,-96.2 64.79,-87.11"/>
<polygon fill="#63b8ff" stroke="#63b8ff" points="67.43,-84.8 57.79,-80.41 62.59,-89.85 67.43,-84.8"/>
</a>
</g>
</g>
<!-- Node5 -->
<g id="Node000005" class="node">
<title>Node5</title>
<g id="a_Node000005"><a xlink:title=" ">
<polygon fill="#e0e0e0" stroke="#999999" points="162.38,-21.5 117.88,-21.5 117.88,0 162.38,0 162.38,-21.5"/>
<text text-anchor="middle" x="140.12" y="-6.1" font-family="Helvetica,sans-Serif" font-size="12.00">string</text>
</a>
</g>
</g>
<!-- Node4&#45;&gt;Node5 -->
<g id="edge4_Node000004_Node000005" class="edge">
<title>Node4&#45;&gt;Node5</title>
<g id="a_edge4_Node000004_Node000005"><a xlink:title=" ">
<path fill="none" stroke="#63b8ff" d="M105.96,-114.57C108.49,-101.25 113.5,-77.3 120.12,-57.5 122.97,-48.99 126.78,-39.89 130.32,-32.06"/>
<polygon fill="#63b8ff" stroke="#63b8ff" points="133.44,-33.63 134.51,-23.09 127.1,-30.67 133.44,-33.63"/>
</a>
</g>
</g>
<!-- Node6 -->
<g id="Node000006" class="node">
<title>Node6</title>
<g id="a_Node000006"><a xlink:href="game_status_8hpp.html" target="_top" xlink:title=" ">
<polygon fill="white" stroke="#666666" points="230.88,-79 129.38,-79 129.38,-57.5 230.88,-57.5 230.88,-79"/>
<text text-anchor="middle" x="180.12" y="-63.6" font-family="Helvetica,sans-Serif" font-size="12.00">gameStatus.hpp</text>
</a>
</g>
</g>
<!-- Node4&#45;&gt;Node6 -->
<g id="edge6_Node000004_Node000006" class="edge">
<title>Node4&#45;&gt;Node6</title>
<g id="a_edge6_Node000004_Node000006"><a xlink:title=" ">
<path fill="none" stroke="#63b8ff" d="M118.06,-114.57C128.99,-106.59 144.43,-95.32 157.17,-86.01"/>
<polygon fill="#63b8ff" stroke="#63b8ff" points="159.04,-88.98 165.05,-80.26 154.91,-83.33 159.04,-88.98"/>
</a>
</g>
</g>
<!-- Node6&#45;&gt;Node5 -->
<g id="edge7_Node000006_Node000005" class="edge">
<title>Node6&#45;&gt;Node5</title>
<g id="a_edge7_Node000006_Node000005"><a xlink:title=" ">
<path fill="none" stroke="#63b8ff" d="M172.79,-57.07C167.54,-49.79 160.33,-39.78 154.01,-31.02"/>
<polygon fill="#63b8ff" stroke="#63b8ff" points="156.99,-29.16 148.3,-23.09 151.31,-33.25 156.99,-29.16"/>
</a>
</g>
</g>
</g>
</svg>
