<?xml version="1.0" encoding="UTF-8" standalone="no"?>
<!DOCTYPE svg PUBLIC "-//W3C//DTD SVG 1.1//EN"
 "http://www.w3.org/Graphics/SVG/1.1/DTD/svg11.dtd">
<!-- Generated by graphviz version 11.0.0 (20240428.1522)
 -->
<!-- Title: src/playersManagement.cpp Pages: 1 -->
<svg width="370pt" height="252pt"
 viewBox="0.00 0.00 369.50 252.00" xmlns="http://www.w3.org/2000/svg" xmlns:xlink="http://www.w3.org/1999/xlink">
<g id="graph0" class="graph" transform="scale(1 1) rotate(0) translate(4 248)">
<title>src/playersManagement.cpp</title>
<!-- Node1 -->
<g id="Node000001" class="node">
<title>Node1</title>
<g id="a_Node000001"><a xlink:title=" ">
<polygon fill="#999999" stroke="#666666" points="309.25,-244 170.25,-244 170.25,-224 309.25,-224 309.25,-244"/>
<text text-anchor="middle" x="239.75" y="-230.5" font-family="Helvetica,sans-Serif" font-size="10.00">src/playersManagement.cpp</text>
</a>
</g>
</g>
<!-- Node2 -->
<g id="Node000002" class="node">
<title>Node2</title>
<g id="a_Node000002"><a xlink:href="players_management_8hpp.html" target="_top" xlink:title=" ">
<polygon fill="white" stroke="#666666" points="141,-188 18.5,-188 18.5,-168 141,-168 141,-188"/>
<text text-anchor="middle" x="79.75" y="-174.5" font-family="Helvetica,sans-Serif" font-size="10.00">playersManagement.hpp</text>
</a>
</g>
</g>
<!-- Node1&#45;&gt;Node2 -->
<g id="edge1_Node000001_Node000002" class="edge">
<title>Node1&#45;&gt;Node2</title>
<g id="a_edge1_Node000001_Node000002"><a xlink:title=" ">
<path fill="none" stroke="#63b8ff" d="M211.88,-223.59C186,-214.86 147.22,-201.77 118.36,-192.03"/>
<polygon fill="#63b8ff" stroke="#63b8ff" points="119.87,-188.85 109.27,-188.96 117.63,-195.48 119.87,-188.85"/>
</a>
</g>
</g>
<!-- Node5 -->
<g id="Node000005" class="node">
<title>Node5</title>
<g id="a_Node000005"><a xlink:title=" ">
<polygon fill="#e0e0e0" stroke="#999999" points="161.75,-20 121.75,-20 121.75,0 161.75,0 161.75,-20"/>
<text text-anchor="middle" x="141.75" y="-6.5" font-family="Helvetica,sans-Serif" font-size="10.00">string</text>
</a>
</g>
</g>
<!-- Node1&#45;&gt;Node5 -->
<g id="edge8_Node000001_Node000005" class="edge">
<title>Node1&#45;&gt;Node5</title>
<g id="a_edge8_Node000001_Node000005"><a xlink:title=" ">
<path fill="none" stroke="#63b8ff" d="M238.13,-223.51C232.45,-191.09 212.88,-85.05 194.75,-56 187.58,-44.51 176.52,-34.46 166.36,-26.78"/>
<polygon fill="#63b8ff" stroke="#63b8ff" points="168.46,-23.98 158.27,-21.05 164.41,-29.69 168.46,-23.98"/>
</a>
</g>
</g>
<!-- Node7 -->
<g id="Node000007" class="node">
<title>Node7</title>
<g id="a_Node000007"><a xlink:title=" ">
<polygon fill="#e0e0e0" stroke="#999999" points="289.88,-188 241.62,-188 241.62,-168 289.88,-168 289.88,-188"/>
<text text-anchor="middle" x="265.75" y="-174.5" font-family="Helvetica,sans-Serif" font-size="10.00">fstream</text>
</a>
</g>
</g>
<!-- Node1&#45;&gt;Node7 -->
<g id="edge9_Node000001_Node000007" class="edge">
<title>Node1&#45;&gt;Node7</title>
<g id="a_edge9_Node000001_Node000007"><a xlink:title=" ">
<path fill="none" stroke="#63b8ff" d="M244.28,-223.59C247.6,-216.7 252.22,-207.1 256.33,-198.57"/>
<polygon fill="#63b8ff" stroke="#63b8ff" points="259.43,-200.19 260.62,-189.66 253.12,-197.15 259.43,-200.19"/>
</a>
</g>
</g>
<!-- Node8 -->
<g id="Node000008" class="node">
<title>Node8</title>
<g id="a_Node000008"><a xlink:title=" ">
<polygon fill="#e0e0e0" stroke="#999999" points="361.5,-188 308,-188 308,-168 361.5,-168 361.5,-188"/>
<text text-anchor="middle" x="334.75" y="-174.5" font-family="Helvetica,sans-Serif" font-size="10.00">iostream</text>
</a>
</g>
</g>
<!-- Node1&#45;&gt;Node8 -->
<g id="edge10_Node000001_Node000008" class="edge">
<title>Node1&#45;&gt;Node8</title>
<g id="a_edge10_Node000001_Node000008"><a xlink:title=" ">
<path fill="none" stroke="#63b8ff" d="M256.3,-223.59C270.65,-215.44 291.68,-203.48 308.35,-194"/>
<polygon fill="#63b8ff" stroke="#63b8ff" points="309.79,-197.21 316.76,-189.23 306.33,-191.13 309.79,-197.21"/>
</a>
</g>
</g>
<!-- Node3 -->
<g id="Node000003" class="node">
<title>Node3</title>
<g id="a_Node000003"><a xlink:title=" ">
<polygon fill="#e0e0e0" stroke="#999999" points="41.5,-76 0,-76 0,-56 41.5,-56 41.5,-76"/>
<text text-anchor="middle" x="20.75" y="-62.5" font-family="Helvetica,sans-Serif" font-size="10.00">vector</text>
</a>
</g>
</g>
<!-- Node2&#45;&gt;Node3 -->
<g id="edge2_Node000002_Node000003" class="edge">
<title>Node2&#45;&gt;Node3</title>
<g id="a_edge2_Node000002_Node000003"><a xlink:title=" ">
<path fill="none" stroke="#63b8ff" d="M69.12,-167.64C60.1,-159.16 47.44,-145.9 39.75,-132 32.07,-118.12 27.21,-100.82 24.33,-87.56"/>
<polygon fill="#63b8ff" stroke="#63b8ff" points="27.78,-86.96 22.43,-77.81 20.9,-88.3 27.78,-86.96"/>
</a>
</g>
</g>
<!-- Node4 -->
<g id="Node000004" class="node">
<title>Node4</title>
<g id="a_Node000004"><a xlink:href="player_8hpp.html" target="_top" xlink:title=" ">
<polygon fill="white" stroke="#666666" points="110.25,-132 49.25,-132 49.25,-112 110.25,-112 110.25,-132"/>
<text text-anchor="middle" x="79.75" y="-118.5" font-family="Helvetica,sans-Serif" font-size="10.00">player.hpp</text>
</a>
</g>
</g>
<!-- Node2&#45;&gt;Node4 -->
<g id="edge3_Node000002_Node000004" class="edge">
<title>Node2&#45;&gt;Node4</title>
<g id="a_edge3_Node000002_Node000004"><a xlink:title=" ">
<path fill="none" stroke="#63b8ff" d="M79.75,-167.59C79.75,-161.01 79.75,-151.96 79.75,-143.73"/>
<polygon fill="#63b8ff" stroke="#63b8ff" points="83.25,-143.81 79.75,-133.81 76.25,-143.81 83.25,-143.81"/>
</a>
</g>
</g>
<!-- Node4&#45;&gt;Node3 -->
<g id="edge5_Node000004_Node000003" class="edge">
<title>Node4&#45;&gt;Node3</title>
<g id="a_edge5_Node000004_Node000003"><a xlink:title=" ">
<path fill="none" stroke="#63b8ff" d="M69.47,-111.59C61.18,-104.01 49.3,-93.13 39.35,-84.02"/>
<polygon fill="#63b8ff" stroke="#63b8ff" points="41.77,-81.49 32.03,-77.32 37.04,-86.65 41.77,-81.49"/>
</a>
</g>
</g>
<!-- Node4&#45;&gt;Node5 -->
<g id="edge4_Node000004_Node000005" class="edge">
<title>Node4&#45;&gt;Node5</title>
<g id="a_edge4_Node000004_Node000005"><a xlink:title=" ">
<path fill="none" stroke="#63b8ff" d="M79.03,-111.52C78.45,-98.26 78.99,-73.77 88.75,-56 95.13,-44.37 105.8,-34.44 115.9,-26.88"/>
<polygon fill="#63b8ff" stroke="#63b8ff" points="117.79,-29.83 124.01,-21.25 113.8,-24.08 117.79,-29.83"/>
</a>
</g>
</g>
<!-- Node6 -->
<g id="Node000006" class="node">
<title>Node6</title>
<g id="a_Node000006"><a xlink:href="game_status_8hpp.html" target="_top" xlink:title=" ">
<polygon fill="white" stroke="#666666" points="185.38,-76 98.12,-76 98.12,-56 185.38,-56 185.38,-76"/>
<text text-anchor="middle" x="141.75" y="-62.5" font-family="Helvetica,sans-Serif" font-size="10.00">gameStatus.hpp</text>
</a>
</g>
</g>
<!-- Node4&#45;&gt;Node6 -->
<g id="edge6_Node000004_Node000006" class="edge">
<title>Node4&#45;&gt;Node6</title>
<g id="a_edge6_Node000004_Node000006"><a xlink:title=" ">
<path fill="none" stroke="#63b8ff" d="M90.55,-111.59C99.35,-103.93 112,-92.91 122.52,-83.75"/>
<polygon fill="#63b8ff" stroke="#63b8ff" points="124.69,-86.5 129.93,-77.29 120.09,-81.22 124.69,-86.5"/>
</a>
</g>
</g>
<!-- Node6&#45;&gt;Node5 -->
<g id="edge7_Node000006_Node000005" class="edge">
<title>Node6&#45;&gt;Node5</title>
<g id="a_edge7_Node000006_Node000005"><a xlink:title=" ">
<path fill="none" stroke="#63b8ff" d="M141.75,-55.59C141.75,-49.01 141.75,-39.96 141.75,-31.73"/>
<polygon fill="#63b8ff" stroke="#63b8ff" points="145.25,-31.81 141.75,-21.81 138.25,-31.81 145.25,-31.81"/>
</a>
</g>
</g>
</g>
</svg>
