<?xml version="1.0" encoding="UTF-8" standalone="no"?>
<!DOCTYPE svg PUBLIC "-//W3C//DTD SVG 1.1//EN"
 "http://www.w3.org/Graphics/SVG/1.1/DTD/svg11.dtd">
<!-- Generated by graphviz version 11.0.0 (20240428.1522)
 -->
<!-- Title: src/player.cpp Pages: 1 -->
<svg width="390pt" height="202pt"
 viewBox="0.00 0.00 390.36 202.00" xmlns="http://www.w3.org/2000/svg" xmlns:xlink="http://www.w3.org/1999/xlink">
<g id="graph0" class="graph" transform="scale(1 1) rotate(0) translate(4 198)">
<title>src/player.cpp</title>
<!-- Node1 -->
<g id="Node000001" class="node">
<title>Node1</title>
<g id="a_Node000001"><a xlink:title=" ">
<polygon fill="#999999" stroke="#666666" points="196.86,-194 108.11,-194 108.11,-172.5 196.86,-172.5 196.86,-194"/>
<text text-anchor="middle" x="152.48" y="-178.6" font-family="Helvetica,sans-Serif" font-size="12.00">src/player.cpp</text>
</a>
</g>
</g>
<!-- Node2 -->
<g id="Node000002" class="node">
<title>Node2</title>
<g id="a_Node000002"><a xlink:href="player_8hpp.html" target="_top" xlink:title=" ">
<polygon fill="white" stroke="#666666" points="156.48,-136.5 86.48,-136.5 86.48,-115 156.48,-115 156.48,-136.5"/>
<text text-anchor="middle" x="121.48" y="-121.1" font-family="Helvetica,sans-Serif" font-size="12.00">player.hpp</text>
</a>
</g>
</g>
<!-- Node1&#45;&gt;Node2 -->
<g id="edge1_Node000001_Node000002" class="edge">
<title>Node1&#45;&gt;Node2</title>
<g id="a_edge1_Node000001_Node000002"><a xlink:title=" ">
<path fill="none" stroke="#63b8ff" d="M146.8,-172.07C142.86,-165.03 137.5,-155.42 132.72,-146.87"/>
<polygon fill="#63b8ff" stroke="#63b8ff" points="135.8,-145.21 127.87,-138.19 129.69,-148.62 135.8,-145.21"/>
</a>
</g>
</g>
<!-- Node3 -->
<g id="Node000003" class="node">
<title>Node3</title>
<g id="a_Node000003"><a xlink:title=" ">
<polygon fill="#e0e0e0" stroke="#999999" points="123.73,-21.5 79.23,-21.5 79.23,0 123.73,0 123.73,-21.5"/>
<text text-anchor="middle" x="101.48" y="-6.1" font-family="Helvetica,sans-Serif" font-size="12.00">string</text>
</a>
</g>
</g>
<!-- Node1&#45;&gt;Node3 -->
<g id="edge9_Node000001_Node000003" class="edge">
<title>Node1&#45;&gt;Node3</title>
<g id="a_edge9_Node000001_Node000003"><a xlink:title=" ">
<path fill="none" stroke="#63b8ff" d="M120.94,-172.08C83.64,-158.03 23.91,-128.64 2.48,-79 -11.13,-47.46 34.12,-28.61 67.89,-19.22"/>
<polygon fill="#63b8ff" stroke="#63b8ff" points="68.53,-22.66 77.33,-16.77 66.78,-15.89 68.53,-22.66"/>
</a>
</g>
</g>
<!-- Node4 -->
<g id="Node000004" class="node">
<title>Node4</title>
<g id="a_Node000004"><a xlink:title=" ">
<polygon fill="#e0e0e0" stroke="#999999" points="217.23,-79 169.73,-79 169.73,-57.5 217.23,-57.5 217.23,-79"/>
<text text-anchor="middle" x="193.48" y="-63.6" font-family="Helvetica,sans-Serif" font-size="12.00">vector</text>
</a>
</g>
</g>
<!-- Node1&#45;&gt;Node4 -->
<g id="edge10_Node000001_Node000004" class="edge">
<title>Node1&#45;&gt;Node4</title>
<g id="a_edge10_Node000001_Node000004"><a xlink:title=" ">
<path fill="none" stroke="#63b8ff" d="M156.12,-172.22C162.79,-153.84 177.1,-114.4 185.95,-90.02"/>
<polygon fill="#63b8ff" stroke="#63b8ff" points="189.16,-91.43 189.28,-80.84 182.58,-89.05 189.16,-91.43"/>
</a>
</g>
</g>
<!-- Node5 -->
<g id="Node000005" class="node">
<title>Node5</title>
<g id="a_Node000005"><a xlink:href="game_status_8hpp.html" target="_top" xlink:title=" ">
<polygon fill="white" stroke="#666666" points="113.23,-79 11.73,-79 11.73,-57.5 113.23,-57.5 113.23,-79"/>
<text text-anchor="middle" x="62.48" y="-63.6" font-family="Helvetica,sans-Serif" font-size="12.00">gameStatus.hpp</text>
</a>
</g>
</g>
<!-- Node1&#45;&gt;Node5 -->
<g id="edge11_Node000001_Node000005" class="edge">
<title>Node1&#45;&gt;Node5</title>
<g id="a_edge11_Node000001_Node000005"><a xlink:title=" ">
<path fill="none" stroke="#63b8ff" d="M125.36,-172.14C109.07,-164.7 89.29,-153 77.48,-136.5 67.9,-123.11 64.28,-104.67 62.99,-90.49"/>
<polygon fill="#63b8ff" stroke="#63b8ff" points="66.51,-90.65 62.45,-80.86 59.52,-91.05 66.51,-90.65"/>
</a>
</g>
</g>
<!-- Node6 -->
<g id="Node000006" class="node">
<title>Node6</title>
<g id="a_Node000006"><a xlink:href="string_utils_8hpp.html" target="_top" xlink:title=" ">
<polygon fill="white" stroke="#666666" points="302.23,-136.5 212.73,-136.5 212.73,-115 302.23,-115 302.23,-136.5"/>
<text text-anchor="middle" x="257.48" y="-121.1" font-family="Helvetica,sans-Serif" font-size="12.00">stringUtils.hpp</text>
</a>
</g>
</g>
<!-- Node1&#45;&gt;Node6 -->
<g id="edge6_Node000001_Node000006" class="edge">
<title>Node1&#45;&gt;Node6</title>
<g id="a_edge6_Node000001_Node000006"><a xlink:title=" ">
<path fill="none" stroke="#63b8ff" d="M171.74,-172.07C187.58,-163.7 210.27,-151.7 228.33,-142.16"/>
<polygon fill="#63b8ff" stroke="#63b8ff" points="229.8,-145.34 237.01,-137.57 226.53,-139.15 229.8,-145.34"/>
</a>
</g>
</g>
<!-- Node7 -->
<g id="Node000007" class="node">
<title>Node7</title>
<g id="a_Node000007"><a xlink:title=" ">
<polygon fill="#e0e0e0" stroke="#999999" points="382.36,-136.5 320.61,-136.5 320.61,-115 382.36,-115 382.36,-136.5"/>
<text text-anchor="middle" x="351.48" y="-121.1" font-family="Helvetica,sans-Serif" font-size="12.00">iostream</text>
</a>
</g>
</g>
<!-- Node1&#45;&gt;Node7 -->
<g id="edge12_Node000001_Node000007" class="edge">
<title>Node1&#45;&gt;Node7</title>
<g id="a_edge12_Node000001_Node000007"><a xlink:title=" ">
<path fill="none" stroke="#63b8ff" d="M188.98,-172.07C222.9,-162.61 273.41,-148.52 309.1,-138.57"/>
<polygon fill="#63b8ff" stroke="#63b8ff" points="309.98,-141.96 318.67,-135.9 308.1,-135.22 309.98,-141.96"/>
</a>
</g>
</g>
<!-- Node2&#45;&gt;Node3 -->
<g id="edge2_Node000002_Node000003" class="edge">
<title>Node2&#45;&gt;Node3</title>
<g id="a_edge2_Node000002_Node000003"><a xlink:title=" ">
<path fill="none" stroke="#63b8ff" d="M123.06,-114.58C124.8,-101.28 126.82,-77.35 122.48,-57.5 120.56,-48.68 116.76,-39.53 112.93,-31.75"/>
<polygon fill="#63b8ff" stroke="#63b8ff" points="116.16,-30.37 108.37,-23.18 109.97,-33.65 116.16,-30.37"/>
</a>
</g>
</g>
<!-- Node2&#45;&gt;Node4 -->
<g id="edge3_Node000002_Node000004" class="edge">
<title>Node2&#45;&gt;Node4</title>
<g id="a_edge3_Node000002_Node000004"><a xlink:title=" ">
<path fill="none" stroke="#63b8ff" d="M134.69,-114.57C144.94,-106.67 159.38,-95.54 171.38,-86.29"/>
<polygon fill="#63b8ff" stroke="#63b8ff" points="173.38,-89.17 179.16,-80.29 169.11,-83.62 173.38,-89.17"/>
</a>
</g>
</g>
<!-- Node2&#45;&gt;Node5 -->
<g id="edge4_Node000002_Node000005" class="edge">
<title>Node2&#45;&gt;Node5</title>
<g id="a_edge4_Node000002_Node000005"><a xlink:title=" ">
<path fill="none" stroke="#63b8ff" d="M110.66,-114.57C102.51,-106.9 91.13,-96.2 81.47,-87.11"/>
<polygon fill="#63b8ff" stroke="#63b8ff" points="84.02,-84.7 74.34,-80.4 79.22,-89.8 84.02,-84.7"/>
</a>
</g>
</g>
<!-- Node5&#45;&gt;Node3 -->
<g id="edge5_Node000005_Node000003" class="edge">
<title>Node5&#45;&gt;Node3</title>
<g id="a_edge5_Node000005_Node000003"><a xlink:title=" ">
<path fill="none" stroke="#63b8ff" d="M69.64,-57.07C74.75,-49.79 81.79,-39.78 87.94,-31.02"/>
<polygon fill="#63b8ff" stroke="#63b8ff" points="90.62,-33.3 93.51,-23.1 84.89,-29.27 90.62,-33.3"/>
</a>
</g>
</g>
<!-- Node6&#45;&gt;Node3 -->
<g id="edge7_Node000006_Node000003" class="edge">
<title>Node6&#45;&gt;Node3</title>
<g id="a_edge7_Node000006_Node000003"><a xlink:title=" ">
<path fill="none" stroke="#63b8ff" d="M255.41,-114.64C251.91,-100.06 243.5,-73.19 226.48,-57.5 201.06,-34.06 162.66,-22.39 135.13,-16.74"/>
<polygon fill="#63b8ff" stroke="#63b8ff" points="136.03,-13.35 125.55,-14.95 134.74,-20.23 136.03,-13.35"/>
</a>
</g>
</g>
<!-- Node6&#45;&gt;Node4 -->
<g id="edge8_Node000006_Node000004" class="edge">
<title>Node6&#45;&gt;Node4</title>
<g id="a_edge8_Node000006_Node000004"><a xlink:title=" ">
<path fill="none" stroke="#63b8ff" d="M245.74,-114.57C236.81,-106.83 224.3,-95.98 213.76,-86.84"/>
<polygon fill="#63b8ff" stroke="#63b8ff" points="216.14,-84.26 206.29,-80.36 211.55,-89.55 216.14,-84.26"/>
</a>
</g>
</g>
</g>
</svg>
