<?xml version="1.0" encoding="UTF-8" standalone="no"?>
<!DOCTYPE svg PUBLIC "-//W3C//DTD SVG 1.1//EN"
 "http://www.w3.org/Graphics/SVG/1.1/DTD/svg11.dtd">
<!-- Generated by graphviz version 11.0.0 (20240428.1522)
 -->
<!-- Title: src/stringUtils.cpp Pages: 1 -->
<svg width="108pt" height="140pt"
 viewBox="0.00 0.00 107.75 140.00" xmlns="http://www.w3.org/2000/svg" xmlns:xlink="http://www.w3.org/1999/xlink">
<g id="graph0" class="graph" transform="scale(1 1) rotate(0) translate(4 136)">
<title>src/stringUtils.cpp</title>
<!-- Node1 -->
<g id="Node000001" class="node">
<title>Node1</title>
<g id="a_Node000001"><a xlink:title=" ">
<polygon fill="#999999" stroke="#666666" points="96.38,-132 1.62,-132 1.62,-112 96.38,-112 96.38,-132"/>
<text text-anchor="middle" x="49" y="-118.5" font-family="Helvetica,sans-Serif" font-size="10.00">src/stringUtils.cpp</text>
</a>
</g>
</g>
<!-- Node2 -->
<g id="Node000002" class="node">
<title>Node2</title>
<g id="a_Node000002"><a xlink:href="string_utils_8hpp.html" target="_top" xlink:title=" ">
<polygon fill="white" stroke="#666666" points="88.12,-76 9.88,-76 9.88,-56 88.12,-56 88.12,-76"/>
<text text-anchor="middle" x="49" y="-62.5" font-family="Helvetica,sans-Serif" font-size="10.00">stringUtils.hpp</text>
</a>
</g>
</g>
<!-- Node1&#45;&gt;Node2 -->
<g id="edge1_Node000001_Node000002" class="edge">
<title>Node1&#45;&gt;Node2</title>
<g id="a_edge1_Node000001_Node000002"><a xlink:title=" ">
<path fill="none" stroke="#63b8ff" d="M49,-111.59C49,-105.01 49,-95.96 49,-87.73"/>
<polygon fill="#63b8ff" stroke="#63b8ff" points="52.5,-87.81 49,-77.81 45.5,-87.81 52.5,-87.81"/>
</a>
</g>
</g>
<!-- Node3 -->
<g id="Node000003" class="node">
<title>Node3</title>
<g id="a_Node000003"><a xlink:title=" ">
<polygon fill="#e0e0e0" stroke="#999999" points="40,-20 0,-20 0,0 40,0 40,-20"/>
<text text-anchor="middle" x="20" y="-6.5" font-family="Helvetica,sans-Serif" font-size="10.00">string</text>
</a>
</g>
</g>
<!-- Node2&#45;&gt;Node3 -->
<g id="edge2_Node000002_Node000003" class="edge">
<title>Node2&#45;&gt;Node3</title>
<g id="a_edge2_Node000002_Node000003"><a xlink:title=" ">
<path fill="none" stroke="#63b8ff" d="M43.95,-55.59C40.21,-48.63 34.98,-38.89 30.36,-30.29"/>
<polygon fill="#63b8ff" stroke="#63b8ff" points="33.52,-28.79 25.71,-21.63 27.36,-32.1 33.52,-28.79"/>
</a>
</g>
</g>
<!-- Node4 -->
<g id="Node000004" class="node">
<title>Node4</title>
<g id="a_Node000004"><a xlink:title=" ">
<polygon fill="#e0e0e0" stroke="#999999" points="99.75,-20 58.25,-20 58.25,0 99.75,0 99.75,-20"/>
<text text-anchor="middle" x="79" y="-6.5" font-family="Helvetica,sans-Serif" font-size="10.00">vector</text>
</a>
</g>
</g>
<!-- Node2&#45;&gt;Node4 -->
<g id="edge3_Node000002_Node000004" class="edge">
<title>Node2&#45;&gt;Node4</title>
<g id="a_edge3_Node000002_Node000004"><a xlink:title=" ">
<path fill="none" stroke="#63b8ff" d="M54.23,-55.59C58.1,-48.63 63.51,-38.89 68.28,-30.29"/>
<polygon fill="#63b8ff" stroke="#63b8ff" points="71.3,-32.06 73.1,-21.62 65.18,-28.66 71.3,-32.06"/>
</a>
</g>
</g>
</g>
</svg>
