<?xml version="1.0" encoding="UTF-8" standalone="no"?>
<!DOCTYPE svg PUBLIC "-//W3C//DTD SVG 1.1//EN"
 "http://www.w3.org/Graphics/SVG/1.1/DTD/svg11.dtd">
<!-- Generated by graphviz version 11.0.0 (20240428.1522)
 -->
<!-- Title: include/stringUtils.hpp Pages: 1 -->
<svg width="224pt" height="87pt"
 viewBox="0.00 0.00 223.50 87.00" xmlns="http://www.w3.org/2000/svg" xmlns:xlink="http://www.w3.org/1999/xlink">
<g id="graph0" class="graph" transform="scale(1 1) rotate(0) translate(4 83)">
<title>include/stringUtils.hpp</title>
<!-- Node1 -->
<g id="Node000001" class="node">
<title>Node1</title>
<g id="a_Node000001"><a xlink:title=" ">
<polygon fill="#999999" stroke="#666666" points="167,-79 37.75,-79 37.75,-57.5 167,-57.5 167,-79"/>
<text text-anchor="middle" x="102.38" y="-63.6" font-family="Helvetica,sans-Serif" font-size="12.00">include/stringUtils.hpp</text>
</a>
</g>
</g>
<!-- Node2 -->
<g id="Node000002" class="node">
<title>Node2</title>
<g id="a_Node000002"><a xlink:href="player_8cpp.html" target="_top" xlink:title=" ">
<polygon fill="white" stroke="#666666" points="88.75,-21.5 0,-21.5 0,0 88.75,0 88.75,-21.5"/>
<text text-anchor="middle" x="44.38" y="-6.1" font-family="Helvetica,sans-Serif" font-size="12.00">src/player.cpp</text>
</a>
</g>
</g>
<!-- Node1&#45;&gt;Node2 -->
<g id="edge1_Node000001_Node000002" class="edge">
<title>Node1&#45;&gt;Node2</title>
<g id="a_edge1_Node000001_Node000002"><a xlink:title=" ">
<path fill="none" stroke="#63b8ff" d="M83.63,-49.31C74.12,-40.22 62.94,-29.51 54.95,-21.87"/>
<polygon fill="#63b8ff" stroke="#63b8ff" points="81,-51.64 90.64,-56.02 85.84,-46.58 81,-51.64"/>
</a>
</g>
</g>
<!-- Node3 -->
<g id="Node000003" class="node">
<title>Node3</title>
<g id="a_Node000003"><a xlink:href="string_utils_8cpp.html" target="_top" xlink:title=" ">
<polygon fill="white" stroke="#666666" points="215.5,-21.5 107.25,-21.5 107.25,0 215.5,0 215.5,-21.5"/>
<text text-anchor="middle" x="161.38" y="-6.1" font-family="Helvetica,sans-Serif" font-size="12.00">src/stringUtils.cpp</text>
</a>
</g>
</g>
<!-- Node1&#45;&gt;Node3 -->
<g id="edge2_Node000001_Node000003" class="edge">
<title>Node1&#45;&gt;Node3</title>
<g id="a_edge2_Node000001_Node000003"><a xlink:title=" ">
<path fill="none" stroke="#63b8ff" d="M121.45,-49.31C131.11,-40.22 142.49,-29.51 150.62,-21.87"/>
<polygon fill="#63b8ff" stroke="#63b8ff" points="119.18,-46.63 114.3,-56.03 123.98,-51.73 119.18,-46.63"/>
</a>
</g>
</g>
</g>
</svg>
