<?xml version="1.0" encoding="UTF-8" standalone="no"?>
<!DOCTYPE svg PUBLIC "-//W3C//DTD SVG 1.1//EN"
 "http://www.w3.org/Graphics/SVG/1.1/DTD/svg11.dtd">
<!-- Generated by graphviz version 11.0.0 (20240428.1522)
 -->
<!-- Title: include/stringUtils.hpp Pages: 1 -->
<svg width="137pt" height="87pt"
 viewBox="0.00 0.00 137.25 87.00" xmlns="http://www.w3.org/2000/svg" xmlns:xlink="http://www.w3.org/1999/xlink">
<g id="graph0" class="graph" transform="scale(1 1) rotate(0) translate(4 83)">
<title>include/stringUtils.hpp</title>
<!-- Node1 -->
<g id="Node000001" class="node">
<title>Node1</title>
<g id="a_Node000001"><a xlink:title=" ">
<polygon fill="#999999" stroke="#666666" points="129.25,-79 0,-79 0,-57.5 129.25,-57.5 129.25,-79"/>
<text text-anchor="middle" x="64.62" y="-63.6" font-family="Helvetica,sans-Serif" font-size="12.00">include/stringUtils.hpp</text>
</a>
</g>
</g>
<!-- Node2 -->
<g id="Node000002" class="node">
<title>Node2</title>
<g id="a_Node000002"><a xlink:title=" ">
<polygon fill="#e0e0e0" stroke="#999999" points="54.88,-21.5 10.38,-21.5 10.38,0 54.88,0 54.88,-21.5"/>
<text text-anchor="middle" x="32.62" y="-6.1" font-family="Helvetica,sans-Serif" font-size="12.00">string</text>
</a>
</g>
</g>
<!-- Node1&#45;&gt;Node2 -->
<g id="edge1_Node000001_Node000002" class="edge">
<title>Node1&#45;&gt;Node2</title>
<g id="a_edge1_Node000001_Node000002"><a xlink:title=" ">
<path fill="none" stroke="#63b8ff" d="M58.76,-57.07C54.65,-49.95 49.03,-40.21 44.06,-31.58"/>
<polygon fill="#63b8ff" stroke="#63b8ff" points="47.24,-30.09 39.21,-23.18 41.18,-33.59 47.24,-30.09"/>
</a>
</g>
</g>
<!-- Node3 -->
<g id="Node000003" class="node">
<title>Node3</title>
<g id="a_Node000003"><a xlink:title=" ">
<polygon fill="#e0e0e0" stroke="#999999" points="120.38,-21.5 72.88,-21.5 72.88,0 120.38,0 120.38,-21.5"/>
<text text-anchor="middle" x="96.62" y="-6.1" font-family="Helvetica,sans-Serif" font-size="12.00">vector</text>
</a>
</g>
</g>
<!-- Node1&#45;&gt;Node3 -->
<g id="edge2_Node000001_Node000003" class="edge">
<title>Node1&#45;&gt;Node3</title>
<g id="a_edge2_Node000001_Node000003"><a xlink:title=" ">
<path fill="none" stroke="#63b8ff" d="M70.49,-57.07C74.6,-49.95 80.22,-40.21 85.19,-31.58"/>
<polygon fill="#63b8ff" stroke="#63b8ff" points="88.07,-33.59 90.04,-23.18 82.01,-30.09 88.07,-33.59"/>
</a>
</g>
</g>
</g>
</svg>
